<svg width="111" height="30" viewBox="0 0 111 30" fill="none" xmlns="http://www.w3.org/2000/svg">
<path d="M18.1295 13.7838C18.0995 10.5621 20.7678 8.99375 20.8895 8.92042C19.3795 6.71708 17.0362 6.41708 16.2145 6.39208C14.2478 6.18542 12.3395 7.57042 11.3362 7.57042C10.3145 7.57042 8.77118 6.41208 7.10951 6.44708C4.96951 6.48042 2.96618 7.71875 1.86951 9.64209C-0.397156 13.5654 1.29285 19.3304 3.46451 22.5021C4.54951 24.0554 5.81951 25.7888 7.48118 25.7271C9.10451 25.6604 9.71118 24.6921 11.6728 24.6921C13.6162 24.6921 14.1862 25.7271 15.8795 25.6888C17.6245 25.6604 18.7212 24.1288 19.7695 22.5621C21.0245 20.7821 21.5295 19.0288 21.5495 18.9388C21.5078 18.9254 18.1612 17.6471 18.1295 13.7854V13.7838ZM14.9278 4.30708C15.8028 3.21375 16.4012 1.72708 16.2345 0.21875C14.9695 0.27375 13.3878 1.09375 12.4762 2.16208C11.6712 3.10375 10.9512 4.64875 11.1362 6.10042C12.5578 6.20542 14.0162 5.38375 14.9278 4.30708ZM41.6445 25.5038H39.3728L38.1295 21.5954H33.8045L32.6212 25.5038H30.4095L34.6928 12.1954H37.3395L41.6445 25.5038ZM37.7545 19.9538L36.6295 16.4804C36.5095 16.1254 36.2862 15.2888 35.9578 13.9738H35.9178C35.7862 14.5404 35.5762 15.3738 35.2845 16.4804L34.1812 19.9554H37.7545V19.9538ZM52.6612 20.5888C52.6612 22.2204 52.2195 23.5104 51.3378 24.4571C50.9661 24.8654 50.5112 25.1894 50.0038 25.4074C49.4964 25.6253 48.9483 25.732 48.3962 25.7204C47.1328 25.7204 46.2245 25.2671 45.6712 24.3588H45.6312V29.4137H43.4978V19.0671C43.4978 18.0404 43.4712 16.9888 43.4195 15.9088H45.2945L45.4145 17.4288H45.4545C46.1645 16.2838 47.2445 15.7121 48.6928 15.7121C49.8245 15.7121 50.7695 16.1588 51.5262 17.0538C52.2828 17.9488 52.6595 19.1271 52.6595 20.5871L52.6612 20.5888ZM50.4895 20.6654C50.4895 19.7321 50.2795 18.9621 49.8562 18.3554C49.6503 18.0556 49.3728 17.812 49.0488 17.6467C48.7249 17.4813 48.3647 17.3996 48.0012 17.4088C47.4773 17.408 46.9701 17.5928 46.5695 17.9304C46.1412 18.2804 45.8612 18.7388 45.7312 19.3038C45.6645 19.5688 45.6312 19.7838 45.6312 19.9538V21.5538C45.6312 22.2521 45.8462 22.8404 46.2745 23.3221C46.7012 23.8038 47.2578 24.0438 47.9412 24.0438C48.7445 24.0438 49.3695 23.7338 49.8162 23.1154C50.2662 22.4954 50.4895 21.6804 50.4895 20.6654ZM63.6995 20.5888C63.6995 22.2204 63.2562 23.5104 62.3745 24.4571C62.0029 24.8656 61.5481 25.1897 61.0406 25.4077C60.5332 25.6256 59.985 25.7322 59.4328 25.7204C58.1695 25.7204 57.2612 25.2671 56.7095 24.3588H56.6695V29.4137H54.5362V19.0671C54.5362 18.0404 54.5095 16.9888 54.4578 15.9088H56.3328L56.4528 17.4288H56.4912C57.2028 16.2838 58.2812 15.7121 59.7295 15.7121C60.8612 15.7121 61.8062 16.1588 62.5628 17.0538C63.3195 17.9488 63.6978 19.1271 63.6978 20.5871L63.6995 20.5888ZM61.5262 20.6654C61.5262 19.7321 61.3145 18.9621 60.8928 18.3554C60.6872 18.0554 60.4097 17.8116 60.0857 17.6462C59.7617 17.4809 59.4015 17.3993 59.0378 17.4088C58.5112 17.4088 58.0345 17.5838 57.6045 17.9304C57.1778 18.2804 56.8995 18.7388 56.7678 19.3038C56.7028 19.5688 56.6678 19.7838 56.6678 19.9538V21.5538C56.6678 22.2521 56.8845 22.8404 57.3095 23.3221C57.7378 23.8021 58.2928 24.0438 58.9795 24.0438C59.7812 24.0438 60.4062 23.7338 60.8545 23.1154C61.3012 22.4954 61.5262 21.6804 61.5262 20.6654ZM76.0378 21.7721C76.0378 22.9054 75.6445 23.8254 74.8545 24.5354C73.9878 25.3138 72.7828 25.7021 71.2312 25.7021C69.7978 25.7021 68.6512 25.4254 67.7812 24.8721L68.2762 23.0954C69.2128 23.6621 70.2395 23.9454 71.3595 23.9454C72.1595 23.9454 72.7862 23.7621 73.2345 23.4004C73.6828 23.0388 73.9045 22.5538 73.9045 21.9471C73.9045 21.4071 73.7212 20.9521 73.3528 20.5838C72.9862 20.2138 72.3712 19.8704 71.5162 19.5538C69.1862 18.6854 68.0228 17.4121 68.0228 15.7371C68.0228 14.6438 68.4295 13.7471 69.2462 13.0488C70.0612 12.3488 71.1462 12.0004 72.5045 12.0004C73.7162 12.0004 74.7212 12.2121 75.5245 12.6338L74.9912 14.3704C74.2077 13.9542 73.3315 13.7438 72.4445 13.7588C71.6945 13.7588 71.1095 13.9438 70.6895 14.3121C70.5191 14.4627 70.3833 14.6484 70.2912 14.8563C70.1992 15.0643 70.1531 15.2897 70.1562 15.5171C70.1562 16.0438 70.3595 16.4788 70.7678 16.8204C71.1212 17.1371 71.7678 17.4788 72.7028 17.8471C73.8478 18.3088 74.6895 18.8471 75.2295 19.4638C75.7695 20.0804 76.0378 20.8521 76.0378 21.7721ZM83.0878 17.5088H80.7378V22.1671C80.7378 23.3521 81.1512 23.9438 81.9812 23.9438C82.3612 23.9438 82.6778 23.9104 82.9278 23.8438L82.9862 25.4638C82.5662 25.6204 82.0145 25.7004 81.3295 25.7004C80.4878 25.7004 79.8295 25.4438 79.3545 24.9304C78.8812 24.4154 78.6428 23.5538 78.6428 22.3438V17.5054H77.2428V15.9054H78.6428V14.1504L80.7362 13.5188V15.9071H83.0862V17.5104L83.0878 17.5088ZM93.6895 20.6271C93.6895 22.1021 93.2678 23.3138 92.4262 24.2604C91.5428 25.2354 90.3712 25.7204 88.9095 25.7204C87.5028 25.7204 86.3812 25.2538 85.5445 24.3204C84.7095 23.3871 84.2912 22.2071 84.2912 20.7871C84.2912 19.2988 84.7212 18.0804 85.5845 17.1338C86.4445 16.1854 87.6062 15.7121 89.0678 15.7121C90.4762 15.7121 91.6095 16.1788 92.4645 17.1138C93.2812 18.0204 93.6895 19.1921 93.6895 20.6271ZM91.4778 20.6954C91.4778 19.8121 91.2895 19.0521 90.9062 18.4188C90.4595 17.6521 89.8195 17.2704 88.9928 17.2704C88.1345 17.2704 87.4845 17.6538 87.0378 18.4204C86.6545 19.0538 86.4645 19.8238 86.4645 20.7371C86.4645 21.6204 86.6545 22.3804 87.0362 23.0121C87.4978 23.7788 88.1428 24.1604 88.9728 24.1604C89.7862 24.1604 90.4262 23.7704 90.8862 22.9921C91.2795 22.3471 91.4778 21.5804 91.4778 20.6954ZM100.621 17.7838C100.399 17.7433 100.174 17.7232 99.9478 17.7238C99.1978 17.7238 98.6178 18.0071 98.2095 18.5738C97.8545 19.0738 97.6762 19.7071 97.6762 20.4688V25.5038H95.5462L95.5662 18.9304C95.5662 17.8238 95.5395 16.8171 95.4862 15.9088H97.3428L97.4212 17.7454H97.4795C97.7045 17.1138 98.0612 16.6054 98.5462 16.2254C99.0212 15.8821 99.5345 15.7104 100.088 15.7104C100.284 15.7104 100.463 15.7254 100.621 15.7504V17.7838ZM110.154 20.2521C110.16 20.5761 110.134 20.8998 110.076 21.2188H103.683C103.708 22.1671 104.016 22.8921 104.611 23.3921C105.15 23.8388 105.846 24.0638 106.703 24.0638C107.649 24.0638 108.515 23.9121 109.291 23.6088L109.624 25.0888C108.716 25.4854 107.644 25.6821 106.408 25.6821C104.919 25.6821 103.751 25.2438 102.901 24.3688C102.054 23.4938 101.629 22.3188 101.629 20.8454C101.629 19.3988 102.023 18.1938 102.814 17.2321C103.643 16.2054 104.761 15.6938 106.169 15.6938C107.553 15.6938 108.6 16.2054 109.311 17.2321C109.875 18.0471 110.154 19.0554 110.154 20.2521ZM108.121 19.6988C108.136 19.0671 107.998 18.5204 107.708 18.0604C107.339 17.4671 106.771 17.1704 106.008 17.1704C105.311 17.1704 104.744 17.4604 104.311 18.0404C103.956 18.5004 103.744 19.0538 103.681 19.6988H108.121ZM37.0495 4.00875C37.0495 5.18708 36.6945 6.07208 35.9895 6.66708C35.3362 7.21708 34.4095 7.49208 33.2062 7.49208C32.6112 7.49208 32.1012 7.46542 31.6728 7.41375V0.982084C32.2705 0.888859 32.8746 0.843714 33.4795 0.847083C34.6245 0.847083 35.4862 1.09542 36.0695 1.59375C36.7195 2.15708 37.0478 2.96042 37.0478 4.01042L37.0495 4.00875ZM35.9428 4.03875C35.9428 3.27542 35.7412 2.68875 35.3378 2.28208C34.9328 1.87542 34.3428 1.67208 33.5662 1.67208C33.2362 1.67208 32.9545 1.69375 32.7228 1.73875V6.62875C32.8512 6.64875 33.0862 6.65708 33.4295 6.65708C34.2328 6.65708 34.8512 6.43375 35.2862 5.98875C35.7228 5.54208 35.9428 4.89208 35.9428 4.03875ZM42.9062 5.03708C42.9062 5.76208 42.6995 6.35708 42.2862 6.82208C41.8528 7.30208 41.2762 7.54042 40.5595 7.54042C39.8662 7.54042 39.3162 7.31208 38.9045 6.85208C38.4945 6.39208 38.2895 5.81375 38.2895 5.11542C38.2895 4.38542 38.5012 3.78708 38.9245 3.32208C39.3495 2.85542 39.9195 2.62208 40.6362 2.62208C41.3295 2.62208 41.8862 2.85208 42.3062 3.31208C42.7062 3.75708 42.9062 4.33375 42.9062 5.03708ZM41.8195 5.07042C41.8303 4.67957 41.7334 4.29328 41.5395 3.95375C41.3195 3.57708 41.0062 3.38708 40.5995 3.38708C40.4021 3.38157 40.2072 3.43182 40.0371 3.53205C39.867 3.63228 39.7286 3.77844 39.6378 3.95375C39.4411 4.29947 39.3436 4.69282 39.3562 5.09042C39.3562 5.52542 39.4512 5.89875 39.6395 6.20875C39.8645 6.58542 40.1812 6.77375 40.5895 6.77375C40.9895 6.77375 41.3028 6.58208 41.5295 6.19875C41.7228 5.88208 41.8195 5.50542 41.8195 5.07042ZM50.7628 2.72042L49.2878 7.43375H48.3278L47.7162 5.38708C47.5641 4.8861 47.4378 4.37766 47.3378 3.86375H47.3178C47.2277 4.37979 47.1012 4.88882 46.9395 5.38708L46.2895 7.43375H45.3195L43.9328 2.72042H45.0095L45.5428 4.96042C45.6712 5.49042 45.7762 5.99542 45.8628 6.47375H45.8812C45.9595 6.08042 46.0878 5.57708 46.2712 4.97042L46.9395 2.72042H47.7928L48.4345 4.92208C48.5895 5.46042 48.7162 5.97708 48.8128 6.47542H48.8412C48.9128 5.99042 49.0195 5.47208 49.1612 4.92208L49.7328 2.72208L50.7628 2.72042ZM56.1962 7.43375H55.1462V4.73375C55.1462 3.90042 54.8312 3.48542 54.1962 3.48542C54.0525 3.48146 53.9098 3.51033 53.779 3.56983C53.6482 3.62932 53.5326 3.71788 53.4412 3.82875C53.2489 4.05375 53.1452 4.34113 53.1495 4.63708V7.43208H52.1012V4.06708C52.1012 3.65375 52.0878 3.20542 52.0628 2.71875H52.9845L53.0345 3.45708H53.0628C53.1905 3.22247 53.3779 3.02581 53.6062 2.88708C53.8895 2.71208 54.2062 2.62208 54.5562 2.62208C54.9962 2.62208 55.3612 2.76375 55.6528 3.04875C56.0145 3.39875 56.1962 3.91875 56.1962 4.61208V7.43375ZM59.0862 7.43375H58.0395V0.557083H59.0862V7.43375ZM65.2562 5.03708C65.2562 5.76208 65.0495 6.35708 64.6345 6.82208C64.2012 7.30208 63.6245 7.54042 62.9078 7.54042C62.2145 7.54042 61.6645 7.31208 61.2545 6.85208C60.8428 6.39208 60.6378 5.81375 60.6378 5.11542C60.6378 4.38542 60.8495 3.78708 61.2745 3.32208C61.6978 2.85542 62.2678 2.62208 62.9845 2.62208C63.6778 2.62208 64.2328 2.85208 64.6545 3.31208C65.0545 3.75708 65.2562 4.33375 65.2562 5.03708ZM64.1678 5.07042C64.1781 4.67941 64.0807 4.29311 63.8862 3.95375C63.6678 3.57708 63.3528 3.38708 62.9478 3.38708C62.7505 3.38157 62.5556 3.43182 62.3855 3.53205C62.2154 3.63228 62.077 3.77844 61.9862 3.95375C61.79 4.29964 61.6931 4.69298 61.7062 5.09042C61.7062 5.52542 61.7995 5.89875 61.9862 6.20875C62.2128 6.58542 62.5295 6.77375 62.9362 6.77375C63.3362 6.77375 63.6512 6.58208 63.8762 6.19875C64.0712 5.88208 64.1678 5.50542 64.1678 5.07042ZM70.3278 7.43375H69.3878L69.3095 6.89042H69.2795C68.9578 7.32375 68.4995 7.54042 67.9028 7.54042C67.4578 7.54042 67.0978 7.39708 66.8278 7.11375C66.7059 6.98605 66.6104 6.83549 66.5469 6.67073C66.4834 6.50596 66.4531 6.33026 66.4578 6.15375C66.4578 5.57708 66.6978 5.13708 67.1812 4.83375C67.6645 4.53042 68.3412 4.38208 69.2145 4.38875V4.30042C69.2145 3.67875 68.8878 3.36875 68.2345 3.36875C67.7695 3.36875 67.3595 3.48542 67.0062 3.71875L66.7928 3.03042C67.2312 2.75875 67.7712 2.62375 68.4095 2.62375C69.6428 2.62375 70.2595 3.27375 70.2595 4.57375V6.30875C70.2595 6.78042 70.2828 7.15542 70.3278 7.43375ZM69.2395 5.81375V5.08708C68.0845 5.06708 67.5062 5.38375 67.5062 6.03708C67.5062 6.28208 67.5728 6.46708 67.7062 6.58875C67.8474 6.71355 68.0312 6.7792 68.2195 6.77208C68.4508 6.77173 68.6756 6.69563 68.8595 6.55542C68.9783 6.47199 69.0751 6.36084 69.1413 6.23161C69.2075 6.10238 69.2412 5.95895 69.2395 5.81375ZM76.2828 7.43375H75.3528L75.3028 6.67708H75.2745C74.9778 7.25208 74.4712 7.54042 73.7612 7.54042C73.1945 7.54042 72.7195 7.31708 72.3445 6.87208C71.9695 6.42542 71.7828 5.84708 71.7828 5.13542C71.7828 4.37208 71.9862 3.75375 72.3945 3.28208C72.7895 2.84208 73.2728 2.62208 73.8495 2.62208C74.4828 2.62208 74.9245 2.83542 75.1778 3.26208H75.1962V0.557083H76.2462V6.16375C76.2462 6.62208 76.2578 7.04542 76.2828 7.43375ZM75.1978 5.44542V4.65875C75.2077 4.47743 75.176 4.29626 75.1052 4.12904C75.0345 3.96181 74.9265 3.81293 74.7895 3.69375C74.5964 3.52378 74.3467 3.43222 74.0895 3.43708C73.9088 3.43093 73.7294 3.47047 73.568 3.55204C73.4066 3.63361 73.2684 3.75458 73.1662 3.90375C72.9428 4.21375 72.8295 4.61208 72.8295 5.09708C72.8295 5.56375 72.9362 5.94042 73.1528 6.23042C73.3795 6.54208 73.6862 6.69708 74.0695 6.69708C74.2281 6.70185 74.3856 6.66917 74.5292 6.6017C74.6729 6.53423 74.7986 6.43387 74.8962 6.30875C75.098 6.06715 75.2064 5.76014 75.1978 5.44542ZM85.2462 5.03708C85.2462 5.76208 85.0395 6.35708 84.6245 6.82208C84.1912 7.30208 83.6178 7.54042 82.8978 7.54042C82.2078 7.54042 81.6562 7.31208 81.2445 6.85208C80.8345 6.39208 80.6278 5.81375 80.6278 5.11542C80.6278 4.38542 80.8395 3.78708 81.2645 3.32208C81.6878 2.85542 82.2578 2.62208 82.9778 2.62208C83.6678 2.62208 84.2245 2.85208 84.6445 3.31208C85.0445 3.75708 85.2462 4.33375 85.2462 5.03708ZM84.1595 5.07042C84.1703 4.67957 84.0734 4.29328 83.8795 3.95375C83.6578 3.57708 83.3462 3.38708 82.9378 3.38708C82.7408 3.38228 82.5464 3.43284 82.3767 3.53301C82.207 3.63318 82.0688 3.77895 81.9778 3.95375C81.7811 4.29947 81.6836 4.69282 81.6962 5.09042C81.6962 5.52542 81.7895 5.89875 81.9778 6.20875C82.2045 6.58542 82.5195 6.77375 82.9278 6.77375C83.3278 6.77375 83.6445 6.58208 83.8695 6.19875C84.0628 5.88208 84.1595 5.50542 84.1595 5.07042ZM90.8812 7.43375H89.8345V4.73375C89.8345 3.90042 89.5178 3.48542 88.8845 3.48542C88.7405 3.48096 88.5974 3.50959 88.4662 3.56911C88.3351 3.62863 88.2193 3.71746 88.1278 3.82875C87.9351 4.05351 87.8314 4.34105 87.8362 4.63708V7.43208H86.7862V4.06708C86.7862 3.65375 86.7745 3.20542 86.7495 2.71875H87.6695L87.7195 3.45542H87.7478C87.8763 3.22188 88.0636 3.02596 88.2912 2.88708C88.5762 2.71042 88.8928 2.62208 89.2412 2.62208C89.6812 2.62208 90.0478 2.76375 90.3378 3.04875C90.7012 3.39875 90.8812 3.91875 90.8812 4.61042V7.43375ZM97.9328 3.50375H96.7795V5.79375C96.7795 6.37708 96.9845 6.66708 97.3912 6.66708C97.5778 6.66708 97.7345 6.65042 97.8578 6.61708L97.8845 7.41375C97.6778 7.49208 97.4062 7.53042 97.0712 7.53042C96.6562 7.53042 96.3345 7.40375 96.1012 7.15208C95.8678 6.90042 95.7512 6.47708 95.7512 5.88208V3.50375H95.0628V2.72042H95.7512V1.85542L96.7778 1.54542V2.71875H97.9328V3.50375ZM103.483 7.43375H102.433V4.75375C102.433 3.90875 102.116 3.48708 101.483 3.48708C100.998 3.48708 100.666 3.73042 100.483 4.22042C100.449 4.34298 100.432 4.46985 100.434 4.59708V7.43375H99.3878V0.557083H100.434V3.39708H100.454C100.599 3.15268 100.807 2.95177 101.057 2.81541C101.306 2.67905 101.587 2.61228 101.871 2.62208C102.304 2.62208 102.664 2.76542 102.949 3.05042C103.304 3.40542 103.483 3.93375 103.483 4.63042V7.43375ZM109.204 4.85375C109.204 5.04208 109.191 5.20042 109.166 5.32875H106.023C106.036 5.79542 106.186 6.15042 106.478 6.39542C106.744 6.61542 107.086 6.72542 107.506 6.72542C107.973 6.72542 108.396 6.65208 108.778 6.50208L108.941 7.23042C108.44 7.43517 107.901 7.53446 107.359 7.52208C106.629 7.52208 106.054 7.30542 105.639 6.87708C105.221 6.44708 105.013 5.87042 105.013 5.14542C105.013 4.43542 105.206 3.84208 105.596 3.37042C106.001 2.86708 106.551 2.61542 107.243 2.61542C107.921 2.61542 108.436 2.86542 108.785 3.37042C109.066 3.77042 109.204 4.26542 109.204 4.85375ZM108.204 4.58208C108.219 4.29943 108.148 4.01897 108.001 3.77708C107.82 3.48708 107.543 3.34042 107.168 3.34042C107.005 3.33771 106.843 3.37521 106.698 3.44962C106.553 3.52403 106.428 3.63305 106.334 3.76708C106.156 4.00476 106.048 4.28772 106.023 4.58375H108.206L108.204 4.58208Z" fill="white"/>
</svg>
