<svg width="172" height="42" viewBox="0 0 172 42" fill="none" xmlns="http://www.w3.org/2000/svg">
<path d="M131.261 12.6396C133.986 17.7196 136.71 22.7978 139.432 27.8795C138.471 27.8988 137.511 27.8498 136.552 27.883C135.909 26.7635 135.351 25.5967 134.721 24.4701C132.3 24.3984 129.877 24.4474 127.454 24.4422C126.87 25.6019 126.233 26.732 125.614 27.8708C124.668 27.862 123.721 27.89 122.777 27.8813C125.565 22.7786 128.362 17.6794 131.261 12.6396ZM128.666 22.2695C130.318 22.2923 131.971 22.2888 133.624 22.3028C132.797 20.7634 132.051 19.1803 131.164 17.6741C130.314 19.1978 129.482 20.7284 128.666 22.2695Z" fill="#AE285D"/>
<path d="M141.02 12.5791C145.135 16.1547 149.249 19.732 153.313 23.367C153.425 20.0871 153.299 16.8072 153.398 13.5272C154.278 13.5447 155.158 13.5587 156.038 13.5745C156.01 18.6264 156.024 23.6801 156.019 28.7321C153.316 26.4843 150.72 24.1105 148.051 21.8206C146.566 20.5507 145.094 19.2667 143.676 17.925C143.641 21.2469 143.691 24.5705 143.62 27.8925C142.745 27.896 141.87 27.8732 140.998 27.8802C141.005 22.7793 140.961 17.6801 141.02 12.5791Z" fill="#AE285D"/>
<path d="M54.0613 27.8616C56.9039 22.7869 59.673 17.672 62.5804 12.6357C65.2883 17.721 68.0119 22.7992 70.7513 27.8669C69.777 27.8896 68.8044 27.8879 67.83 27.8686C67.2387 26.7333 66.6335 25.605 66.0685 24.4557C63.6387 24.4243 61.2107 24.4505 58.7809 24.4505C58.1476 25.5963 57.5756 26.7788 56.8916 27.8966C55.947 27.8704 55.0042 27.8896 54.0613 27.8616ZM59.9617 22.2849C61.6217 22.2779 63.2836 22.3006 64.9454 22.2954C64.1092 20.7647 63.3745 19.1799 62.4771 17.6825C61.6322 19.2149 60.7978 20.749 59.9617 22.2849Z" fill="#AE285D"/>
<path d="M94.5131 13.9501C95.9021 13.2661 97.5289 13.1769 99.0316 13.4795C100.333 13.7542 101.379 14.6795 102.173 15.7046C101.468 16.0615 100.769 16.4236 100.076 16.8032C99.1418 15.3425 96.9184 14.8772 95.5627 16.016C94.8437 16.5303 94.9015 17.7968 95.7131 18.1886C97.5324 19.191 99.7453 19.4062 101.358 20.7933C103.002 22.1875 102.939 24.9742 101.416 26.4366C99.7803 28.0949 97.1895 28.4553 95.0152 27.8343C93.1942 27.3742 91.8245 25.7001 91.5813 23.8599C92.4612 23.6674 93.3498 23.5083 94.2402 23.3701C94.3469 24.2325 94.6741 25.1823 95.4875 25.6162C96.775 26.3071 98.6415 26.134 99.5301 24.8867C100.156 24.0383 99.9709 22.7351 99.1155 22.1141C97.3277 20.9158 94.9539 20.8423 93.3498 19.3327C92.5032 18.612 92.1516 17.4085 92.4402 16.3396C92.6694 15.2498 93.5598 14.4434 94.5131 13.9501Z" fill="#AE285D"/>
<path d="M71.6009 13.6275C72.5997 13.4963 73.6091 13.5418 74.6132 13.5523C75.6872 15.1511 76.7596 16.75 77.8354 18.3471C78.9672 16.7692 80.0675 15.1686 81.1835 13.5803C82.2139 13.547 83.2442 13.5295 84.2745 13.561C82.6407 15.8334 80.9964 18.1005 79.359 20.371C81.0261 22.8988 82.8454 25.3268 84.474 27.8808C83.4926 27.886 82.5113 27.8773 81.5299 27.8685C80.2809 26.072 79.0406 24.2685 77.7917 22.4719C76.5007 24.2755 75.1992 26.0702 73.924 27.8843C72.9304 27.9035 71.935 27.8895 70.9414 27.8913C72.6697 25.3583 74.489 22.89 76.2855 20.4043C74.7409 18.1337 73.1665 15.8841 71.6009 13.6275Z" fill="#AE285D"/>
<path d="M86.6967 13.5656C87.5819 13.5394 88.4653 13.5411 89.3504 13.5604C89.3557 18.3342 89.3522 23.108 89.3522 27.8819C88.453 27.8836 87.5556 27.8819 86.6565 27.8819C86.6897 23.1098 86.674 18.3377 86.6967 13.5656Z" fill="#AE285D"/>
<path d="M112.524 13.5547C114.794 13.6526 117.243 13.2416 119.336 14.3541C121.375 15.4457 121.846 18.6836 119.965 20.1495C121.15 20.6166 122.295 21.4965 122.607 22.7927C123.105 24.3828 122.225 26.1426 120.835 26.9666C118.3 28.359 115.314 27.71 112.562 27.8989C112.477 23.1181 112.531 18.3373 112.524 13.5547ZM115.158 15.6154C115.163 16.9798 115.16 18.3425 115.151 19.7052C116.138 19.665 117.231 19.7245 118.073 19.1157C118.931 18.3513 118.9 16.7681 117.952 16.0877C117.123 15.5629 116.099 15.6224 115.158 15.6154ZM115.174 21.5787C115.163 22.9694 115.169 24.3618 115.195 25.7525C116.519 25.6826 117.945 25.9275 119.166 25.2715C120.249 24.7397 120.448 23.0009 119.442 22.2907C118.23 21.3496 116.603 21.6085 115.174 21.5787Z" fill="#AE285D"/>
<path d="M159.095 13.5523C159.976 13.5453 160.858 13.5488 161.742 13.5505C161.745 15.4363 161.724 17.3238 161.764 19.2113C163.937 17.2993 166.152 15.4363 168.336 13.54C169.543 13.547 170.75 13.5523 171.957 13.5488C169.351 15.6864 166.766 17.8468 164.205 20.0369C166.724 22.6959 169.333 25.2656 171.91 27.8685C170.714 27.8563 169.515 27.9508 168.324 27.8126C166.274 25.7204 164.238 23.616 162.207 21.5063C162.058 21.7023 161.911 21.8982 161.766 22.0941C161.714 24.0236 161.761 25.9513 161.728 27.8808C160.841 27.8755 159.954 27.8983 159.069 27.893C159.076 23.1139 159.088 18.3331 159.095 13.5523Z" fill="#AE285D"/>
<path d="M23.9962 0.40625C26.4208 4.57133 28.8663 8.72416 31.2646 12.905C27.3881 19.743 23.5676 26.6142 19.56 33.377C18.0224 35.973 16.5267 38.5934 15.0066 41.1981C10.0771 41.2279 5.14754 41.2261 0.218018 41.2191C0.368457 40.8815 0.517148 40.5421 0.699074 40.2203C8.46071 26.9466 16.2521 13.6904 23.9962 0.40625Z" fill="#AE285D"/>
<path d="M23.9983 25.7989C28.9453 25.7972 33.8923 25.7622 38.8393 25.8444C41.7851 30.9803 44.8254 36.0603 47.745 41.2102C42.798 41.2347 37.8527 41.2155 32.9057 41.212C29.9616 36.0585 26.8864 30.9838 23.9983 25.7989Z" fill="#AE285D"/>
</svg>
