<svg width="105" height="36" viewBox="0 0 105 36" fill="none" xmlns="http://www.w3.org/2000/svg">
<path d="M18.6733 18.029V17.8198C20.1376 17.6106 21.4276 16.8087 22.2644 15.5884C23.2058 14.1938 23.6939 12.5203 23.6242 10.8467C23.6242 8.02262 22.5782 5.96555 20.5211 4.64067C18.4641 3.35065 15.1519 2.68822 10.5845 2.68822H0.578125V29.4997C0.61299 32.4284 2.94897 34.7992 5.87766 34.869H12.6067C16.2676 34.869 19.1614 34.0322 21.2533 32.3935C23.3801 30.7549 24.5655 28.2097 24.4261 25.5599C24.5307 23.7818 24.0425 22.0385 23.0663 20.5742C21.9855 19.2144 20.4165 18.3079 18.6733 18.029ZM7.41174 8.3364H11.0029C12.4672 8.23181 13.9316 8.51074 15.2913 9.13832C16.1978 9.69616 16.7208 10.7421 16.6511 11.7881C16.7557 12.8689 16.2676 13.9497 15.3959 14.6122C14.1756 15.2746 12.781 15.5535 11.3864 15.4489H7.41174V8.3364ZM16.0235 28.2097C14.8032 29.0116 13.3389 29.3951 11.8745 29.2556H7.4466V20.8879H11.6653C15.5005 20.8879 17.3832 22.2128 17.3832 24.8975C17.453 26.1526 16.9649 27.3729 16.0235 28.2097ZM94.4707 21.0274L104.233 10.3586H96.6672L89.7638 17.8198L86.8351 21.5504H86.7305L87.0792 15.9719V0.666016H80.3502V34.9038H87.0792V27.2335L89.9382 24.9323L93.599 30.1273L95.2377 32.4981C96.2139 33.9973 97.8875 34.9038 99.6656 34.9387H104.756L94.4707 21.0274ZM73.7606 12.1716C72.2963 10.6027 70.0998 9.83561 67.2408 9.87048C65.7067 9.83561 64.1726 10.1494 62.778 10.777C61.6623 11.3 60.6861 12.1019 59.9539 13.0781V10.3237H53.2598V20.7136V34.9038H59.9888V23.3285C59.9888 20.4347 60.4072 18.3428 61.2439 17.0876C62.1853 15.7976 63.7194 15.1003 65.3232 15.2398C66.4737 15.1352 67.6243 15.6581 68.3216 16.5646C69.0189 17.7849 69.3327 19.1795 69.2281 20.5742V34.9038H75.9571V18.8658C75.992 15.9371 75.2598 13.7057 73.7606 12.1716ZM46.1472 11.9624C44.4039 10.5329 41.8588 9.80076 38.5466 9.80076C35.5133 9.76589 32.5497 10.4283 29.7953 11.6835L31.3643 16.5298C33.5259 15.4838 35.8619 14.8562 38.2676 14.7516C40.8128 14.7516 42.1028 16.0068 42.1028 18.4822V19.5631L37.8492 19.7025C34.1884 19.842 31.434 20.5044 29.5861 21.7596C27.7383 23.0147 26.8318 24.9323 26.8318 27.5472C26.6923 29.674 27.4245 31.7311 28.854 33.3C30.3532 34.6947 32.3754 35.4268 34.4324 35.3222C36.0362 35.392 37.6401 35.113 39.1044 34.4855C40.2201 33.9276 41.2312 33.1257 42.0331 32.1495V34.9038H48.7272V18.4822C48.797 15.5884 47.9253 13.3919 46.1472 11.9624ZM42.1377 23.991H42.1028V26.0132C42.068 27.1637 41.5798 28.2794 40.7431 29.0813C39.732 30.0227 38.3722 30.5108 37.0125 30.4411C34.8508 30.4411 33.7351 29.5346 33.7351 27.617C33.6654 26.4664 34.2232 25.3507 35.1646 24.6883C36.4895 23.9212 38.0236 23.5377 39.5576 23.6075L42.1726 23.5029L42.1377 23.991Z" fill="black"/>
</svg>
