<svg width="90" height="90" viewBox="0 0 90 90" fill="none" xmlns="http://www.w3.org/2000/svg">
<g filter="url(#filter0_d_19558_1861)">
<circle cx="44.8158" cy="35.2655" r="33.8593" fill="white"/>
<circle cx="44.8158" cy="35.2655" r="33.3756" stroke="url(#paint0_linear_19558_1861)" stroke-opacity="0.1" stroke-width="0.967407"/>
</g>
<path d="M37.4711 44.9543L37.038 41.8941C36.9763 41.4585 36.5728 41.1545 36.1377 41.217C35.7021 41.2786 35.3989 41.6817 35.4606 42.1173L35.5576 42.8026C34.7305 41.782 34.072 40.6246 33.6158 39.3773C30.3867 30.5485 38.1852 21.6444 47.2775 23.5839C47.7077 23.6754 48.1309 23.4013 48.2228 22.9711C48.3146 22.5408 48.0402 22.1176 47.6099 22.0258C37.3429 19.8353 28.4375 29.8575 32.1196 39.9246C32.6355 41.3351 33.3798 42.6446 34.3149 43.8L33.5452 43.6521C33.113 43.5692 32.6956 43.8521 32.6126 44.2841C32.5296 44.7162 32.8126 45.1337 33.2446 45.2167L36.4641 45.8351C37.0439 45.9988 37.548 45.4967 37.4711 44.9543Z" fill="#4E2FFF"/>
<path d="M57.5471 30.6146C57.0312 29.2041 56.2869 27.8946 55.3518 26.7392L56.1215 26.8871C56.5534 26.9699 56.9711 26.6872 57.0541 26.2551C57.1371 25.8231 56.8542 25.4056 56.4222 25.3226L53.2021 24.7039C52.6296 24.5428 52.1176 25.034 52.1957 25.5848L52.6288 28.6451C52.6851 29.0429 53.026 29.3302 53.4165 29.3302C53.9034 29.3302 54.2738 28.8998 54.2062 28.4218L54.1092 27.7365C54.9362 28.7572 55.5947 29.9145 56.0509 31.1618C58.3124 37.345 55.1317 44.2186 48.9605 46.4841C46.8493 47.2591 44.577 47.422 42.3893 46.9552C41.9592 46.8635 41.5358 47.1378 41.444 47.5681C41.3522 47.9983 41.6266 48.4215 42.0568 48.5133C44.5388 49.0429 47.1159 48.8583 49.5095 47.9796C56.5214 45.4056 60.1162 37.6387 57.5471 30.6146Z" fill="#4E2FFF"/>
<path d="M53.0916 35.3124C53.0916 30.7516 49.3873 27.041 44.834 27.041C40.2808 27.041 36.5764 30.7516 36.5764 35.3124C36.5764 39.8733 40.2808 43.5838 44.834 43.5838C49.3873 43.5838 53.0916 39.8733 53.0916 35.3124ZM38.1696 35.3124C38.1696 31.63 41.1592 28.6342 44.834 28.6342C48.5088 28.6342 51.4984 31.63 51.4984 35.3124C51.4984 38.9948 48.5088 41.9907 44.834 41.9907C41.1592 41.9907 38.1696 38.9948 38.1696 35.3124Z" fill="#4E2FFF"/>
<path d="M45.6289 39.7863V39.1213C47.0092 39.1213 47.9697 38.038 47.9697 36.8184C47.9697 35.5484 46.9378 34.5153 45.6695 34.5153H43.9951C43.6052 34.5153 43.2881 34.1969 43.2881 33.8055C43.2881 33.4277 43.5854 33.0957 44.0062 33.0957H45.6093C45.8906 33.0985 46.169 33.2252 46.3734 33.4438C46.6739 33.765 47.178 33.7818 47.4993 33.4813C47.8206 33.1808 47.8374 32.6767 47.5368 32.3554C47.0372 31.8213 46.3423 31.5111 45.6289 31.5029V30.8376C45.6289 30.3977 45.2722 30.041 44.8323 30.041C44.3923 30.041 44.0357 30.3977 44.0357 30.8376V31.5025C42.6553 31.5025 41.6948 32.5859 41.6948 33.8055C41.6948 35.0754 42.7267 36.1085 43.9951 36.1085H45.6694C46.0593 36.1085 46.3765 36.427 46.3765 36.8184C46.3765 37.2125 46.0584 37.5283 45.6695 37.5283C45.6658 37.5283 45.662 37.5282 45.6583 37.5282H43.9091C43.7106 37.5262 43.4995 37.4542 43.3144 37.3256C42.9531 37.0745 42.4567 37.1639 42.2057 37.5251C41.9546 37.8864 42.0439 38.3827 42.4052 38.6339C42.9506 39.0129 43.4582 39.1214 44.0356 39.1214V39.7864C44.0356 40.2263 44.3923 40.583 44.8322 40.583C45.2722 40.5829 45.6289 40.2262 45.6289 39.7863Z" fill="#4E2FFF"/>
<defs>
<filter id="filter0_d_19558_1861" x="0.315062" y="0.438842" width="89.0015" height="89.0017" filterUnits="userSpaceOnUse" color-interpolation-filters="sRGB">
<feFlood flood-opacity="0" result="BackgroundImageFix"/>
<feColorMatrix in="SourceAlpha" type="matrix" values="0 0 0 0 0 0 0 0 0 0 0 0 0 0 0 0 0 0 127 0" result="hardAlpha"/>
<feMorphology radius="4.83704" operator="erode" in="SourceAlpha" result="effect1_dropShadow_19558_1861"/>
<feOffset dy="9.67407"/>
<feGaussianBlur stdDeviation="7.73926"/>
<feComposite in2="hardAlpha" operator="out"/>
<feColorMatrix type="matrix" values="0 0 0 0 0.360688 0 0 0 0 0.396767 0 0 0 0 0.468925 0 0 0 0.16 0"/>
<feBlend mode="normal" in2="BackgroundImageFix" result="effect1_dropShadow_19558_1861"/>
<feBlend mode="normal" in="SourceGraphic" in2="effect1_dropShadow_19558_1861" result="shape"/>
</filter>
<linearGradient id="paint0_linear_19558_1861" x1="44.8158" y1="1.40625" x2="44.8158" y2="69.1248" gradientUnits="userSpaceOnUse">
<stop stop-color="#02001A" stop-opacity="0.4"/>
<stop offset="1" stop-color="#02001A"/>
</linearGradient>
</defs>
</svg>
