<svg width="24" height="22" viewBox="0 0 24 22" fill="none" xmlns="http://www.w3.org/2000/svg">
<path d="M23.2 5H6.8C6.57909 5 6.4 5.17909 6.4 5.4C6.4 5.62091 6.57909 5.8 6.8 5.8H9.218C7.44284 6.92958 6.37716 8.89604 6.4 11C6.37716 13.104 7.44284 15.0704 9.218 16.2H0.8V5.8H4.8C5.02091 5.8 5.2 5.62091 5.2 5.4C5.2 5.17909 5.02091 5 4.8 5H0.8C0.358172 5 0 5.35817 0 5.8V16.2C0 16.6418 0.358172 17 0.8 17H23.2C23.6418 17 24 16.6418 24 16.2V5.8C24 5.35817 23.6418 5 23.2 5ZM7.2 11C7.2 8.1328 9.3532 5.8 12 5.8C14.6468 5.8 16.8 8.1328 16.8 11C16.8 13.8672 14.6468 16.2 12 16.2C9.3532 16.2 7.2 13.8672 7.2 11ZM23.2 16.2H14.782C16.5572 15.0704 17.6228 13.104 17.6 11C17.6228 8.89604 16.5572 6.92958 14.782 5.8H23.2V16.2Z" fill="#003FDB"/>
<path d="M21.0944 0.684196C20.905 0.589427 20.6858 0.573605 20.4848 0.640196L11.8688 3.5278C11.6589 3.59805 11.5457 3.82513 11.616 4.035C11.6862 4.24486 11.9133 4.35805 12.1232 4.2878L20.7368 1.4002L21.6208 4.0358C21.6662 4.17156 21.7805 4.2728 21.9208 4.30139C22.061 4.32997 22.2059 4.28156 22.3008 4.17439C22.3957 4.06721 22.4262 3.91756 22.3808 3.7818L21.4964 1.1478C21.4305 0.945317 21.2855 0.778102 21.0944 0.684196Z" fill="#003FDB"/>
<path d="M11.877 17.7136L3.2634 20.6008L2.3794 17.9652C2.30926 17.7553 2.08227 17.642 1.8724 17.7122C1.66253 17.7823 1.54926 18.0093 1.6194 18.2192L2.5022 20.8524C2.56763 21.0545 2.71185 21.2216 2.9022 21.316C3.01295 21.3711 3.13492 21.3998 3.2586 21.4C3.34459 21.4001 3.43005 21.3866 3.5118 21.36L12.1278 18.4724C12.3377 18.4021 12.4509 18.175 12.3806 17.9652C12.3104 17.7553 12.0833 17.6421 11.8734 17.7124L11.877 17.7136Z" fill="#003FDB"/>
<path d="M13.2 9.60039C13.2 9.8213 13.3791 10.0004 13.6 10.0004C13.8209 10.0004 14 9.8213 14 9.60039C13.9614 8.70375 13.2887 7.96224 12.4 7.83679V7.80039C12.4 7.57948 12.2209 7.40039 12 7.40039C11.7791 7.40039 11.6 7.57948 11.6 7.80039V7.83679C10.7113 7.96224 10.0386 8.70375 10 9.60039C10.0386 10.497 10.7113 11.2385 11.6 11.364V13.3388C11.1549 13.2378 10.8293 12.8559 10.8 12.4004C10.8 12.1795 10.6209 12.0004 10.4 12.0004C10.1791 12.0004 10 12.1795 10 12.4004C10.0386 13.297 10.7113 14.0385 11.6 14.164V14.2004C11.6 14.4213 11.7791 14.6004 12 14.6004C12.2209 14.6004 12.4 14.4213 12.4 14.2004V14.164C13.2887 14.0385 13.9614 13.297 14 12.4004C13.9614 11.5038 13.2887 10.7622 12.4 10.6368V8.66199C12.8451 8.76298 13.1707 9.14488 13.2 9.60039ZM10.8 9.60039C10.8293 9.14488 11.1549 8.76298 11.6 8.66199V10.5388C11.1549 10.4378 10.8293 10.0559 10.8 9.60039ZM13.2 12.4004C13.1707 12.8559 12.8451 13.2378 12.4 13.3388V11.462C12.8451 11.563 13.1707 11.9449 13.2 12.4004Z" fill="#003FDB"/>
<path d="M20.4 15.4H22C22.2209 15.4 22.4 15.2209 22.4 15V13.4C22.4 13.1791 22.2209 13 22 13C21.7791 13 21.6 13.1791 21.6 13.4V14.6H20.4C20.1791 14.6 20 14.7791 20 15C20 15.2209 20.1791 15.4 20.4 15.4Z" fill="#003FDB"/>
<path d="M1.99998 13C1.77906 13 1.59998 13.1791 1.59998 13.4V15C1.59998 15.2209 1.77906 15.4 1.99998 15.4H3.59998C3.82089 15.4 3.99998 15.2209 3.99998 15C3.99998 14.7791 3.82089 14.6 3.59998 14.6H2.39998V13.4C2.39998 13.1791 2.22089 13 1.99998 13Z" fill="#003FDB"/>
<path d="M3.6001 6.59961H2.0001C1.77918 6.59961 1.6001 6.7787 1.6001 6.99961V8.59961C1.6001 8.82052 1.77918 8.99961 2.0001 8.99961C2.22101 8.99961 2.4001 8.82052 2.4001 8.59961V7.39961H3.6001C3.82101 7.39961 4.0001 7.22052 4.0001 6.99961C4.0001 6.7787 3.82101 6.59961 3.6001 6.59961Z" fill="#003FDB"/>
<path d="M20.4 7.39961H21.6V8.59961C21.6 8.82052 21.7791 8.99961 22 8.99961C22.2209 8.99961 22.4 8.82052 22.4 8.59961V6.99961C22.4 6.7787 22.2209 6.59961 22 6.59961H20.4C20.1791 6.59961 20 6.7787 20 6.99961C20 7.22052 20.1791 7.39961 20.4 7.39961Z" fill="#003FDB"/>
</svg>
