<svg width="180" height="47" viewBox="0 0 180 47" fill="none" xmlns="http://www.w3.org/2000/svg">
<path d="M0.962891 46.3731H46.0219V0.97168H0.962891V46.3731Z" fill="#176FC1"/>
<path d="M179.149 1.06836H47.1938V46.4209H179.149V1.06836Z" fill="#176FC1"/>
<path d="M168.018 33.6315V33.778L167.969 33.9244L167.921 34.0709L167.872 34.2173L167.823 34.3638L167.774 34.5103L167.676 34.6079L167.628 34.7543L167.53 34.852L167.432 34.9496L167.335 35.0472L167.237 35.1449L167.188 35.1937L167.139 35.2425H167.091L167.042 35.2913H166.944L166.895 35.3402H166.798H166.749H166.651H166.505H166.456H166.31H166.261H166.212H166.163H166.114H166.066L166.017 35.2913H165.968L165.919 35.2425L165.87 35.1937L165.821 35.1449L165.773 35.0961L165.724 35.0472V34.9008L165.675 34.8032L165.626 34.7055L165.577 34.5591V34.4614V34.315V34.1685V34.0221V33.8756L165.626 33.7291L165.675 33.5827L165.724 33.4362L165.773 33.3386L165.821 33.1921L165.919 33.0457L166.017 32.948L166.114 32.8504L166.212 32.7528L166.31 32.6551L166.358 32.6063L166.407 32.5575L166.456 32.5087L166.505 32.4599H166.554L166.651 32.411L166.7 32.3622H166.798H166.895H167.042H167.091H167.139H167.237H167.286H167.335H167.384L167.432 32.411H167.481H167.53L167.579 32.4599L167.628 32.5087L167.676 32.5575L167.725 32.6063L167.774 32.6551L167.823 32.704L167.872 32.7528L167.921 32.8504L167.969 32.948L168.018 33.0457L168.067 33.1921V33.3386V33.6315H168.018ZM168.506 30.8L168.409 31.4347L168.36 31.337L168.311 31.2394L168.262 31.1906L168.213 31.0929L168.116 31.0441L168.067 30.9953L167.969 30.9465L167.872 30.8977L167.774 30.8488L167.676 30.8L167.579 30.7512L167.481 30.7024L167.384 30.6536H167.286H167.188H167.091H167.042H166.749H166.602L166.456 30.7024H166.31L166.163 30.7512L166.017 30.8L165.87 30.8488L165.724 30.8977L165.577 30.9465L165.48 30.9953L165.333 31.0929L165.236 31.1906L165.089 31.2882L164.992 31.3858L164.845 31.4835L164.747 31.5811L164.601 31.6788L164.503 31.8252L164.406 31.9717L164.308 32.1181L164.21 32.2646L164.113 32.411L164.015 32.5575L163.966 32.704L163.869 32.8504L163.82 32.9969L163.771 33.1433L163.722 33.2898L163.673 33.4362L163.625 33.5827L163.576 33.7291L163.527 33.9244L163.478 34.0709L163.429 34.2173V34.3638V34.5103V34.6567V34.8032V34.9496L163.478 35.0961V35.2425L163.527 35.389L163.576 35.5354L163.625 35.6819L163.673 35.8283L163.722 35.926L163.771 36.0724L163.869 36.2189L163.918 36.3165L164.015 36.4142L164.113 36.5118L164.21 36.6095L164.308 36.7071L164.406 36.8047L164.503 36.8535L164.601 36.9024L164.699 36.9512L164.796 37L164.894 37.0488L165.04 37.0976H165.187H165.333H165.48H165.626H165.724H165.773H165.821H165.919H166.017H166.114L166.212 37.0488L166.31 37L166.407 36.9512L166.505 36.9024L166.602 36.8535H166.651L166.7 36.8047L166.798 36.7559L166.895 36.7071L166.993 36.6095L167.091 36.5118L167.188 36.4142L167.286 36.3165L167.335 36.2189H167.384L167.237 36.9024H169.141L170.264 30.7512H168.506V30.8ZM163.625 29.0426L163.673 28.9449L163.722 28.8473L163.771 28.7496L163.82 28.6032L163.869 28.5055V28.4079V28.3103V28.1638V28.0662L163.82 27.9685L163.771 27.8709L163.722 27.7733L163.673 27.6756L163.576 27.578L163.527 27.5292L163.429 27.4803L163.332 27.4315L163.234 27.3827L163.136 27.3339H163.039H162.941H162.844H162.746L162.648 27.3827L162.551 27.4315L162.453 27.4803L162.355 27.5292L162.258 27.578L162.16 27.6756L162.062 27.7733L161.965 27.8709L161.867 27.9685L161.818 28.0662L161.77 28.1638L161.721 28.2614L161.672 28.3591V28.5055V28.6032V28.7496V28.8473V28.9449V29.0426L161.721 29.1402L161.77 29.2378L161.818 29.3355L161.867 29.4331L161.916 29.4819L162.014 29.5307L162.111 29.5796L162.209 29.6284H162.307H162.404H162.551H162.648H162.746H162.844L162.941 29.5796L163.039 29.5307L163.136 29.4819L163.234 29.4331L163.332 29.3355L163.429 29.2378L163.527 29.1402L163.625 29.0426ZM160.256 37L161.379 30.8488H163.283L162.111 37H160.256ZM157.815 33.6315V33.778V33.9244L157.766 34.0709L157.718 34.2173L157.669 34.3638L157.62 34.5103L157.522 34.6079L157.425 34.7543L157.327 34.852L157.229 34.9496L157.132 35.0472L157.034 35.1449L156.985 35.1937L156.937 35.2425H156.888L156.839 35.2913H156.79L156.741 35.3402H156.692H156.595H156.546H156.448H156.302H156.204H156.155H156.107H156.009H155.96H155.911H155.863H155.814L155.765 35.2913H155.716L155.667 35.2425L155.618 35.1937L155.57 35.1449L155.521 35.0961L155.472 35.0472L155.423 34.9984L155.374 34.9008L155.326 34.8032L155.277 34.6567L155.228 34.5591V34.4126V34.2662V34.1197L155.277 33.9732L155.326 33.8268L155.374 33.6803L155.423 33.5339L155.472 33.4362L155.521 33.2898L155.618 33.1433L155.716 33.0457L155.814 32.948L155.911 32.8504L156.009 32.7528L156.058 32.704L156.107 32.6551L156.155 32.6063L156.204 32.5575H156.253L156.302 32.5087L156.4 32.4599H156.448H156.497H156.595H156.741H156.79H156.888H156.937H156.985H157.034H157.083L157.132 32.5087H157.181H157.229L157.278 32.5575L157.327 32.6063L157.376 32.6551L157.425 32.704L157.474 32.7528L157.522 32.8016L157.571 32.8504L157.62 32.948L157.669 33.0457L157.718 33.1433V33.2898V33.4362V33.6315H157.815ZM159.036 26.9922L158.206 31.4347L158.157 31.337L158.108 31.2394L158.059 31.1906L157.962 31.0929L157.815 30.9465L157.718 30.8977L157.62 30.8488L157.522 30.8L157.425 30.7512L157.327 30.7024L157.229 30.6536L157.132 30.6048L156.937 30.5559H156.839H156.79H156.497H156.351L156.204 30.6048H156.058L155.911 30.6536L155.765 30.7024L155.618 30.7512L155.472 30.8L155.326 30.8488L155.179 30.8977L155.033 30.9953L154.886 31.0929L154.789 31.1906L154.642 31.2882L154.544 31.3858L154.398 31.4835L154.3 31.5811L154.203 31.7276L154.105 31.874L154.007 32.0205L153.91 32.1669L153.812 32.3134L153.715 32.4599L153.617 32.6063L153.519 32.7528L153.422 32.8992L153.373 33.0457L153.324 33.1921L153.519 33.4362L153.47 33.5827L153.422 33.7291L153.373 33.9244L153.324 34.0709L153.275 34.2173V34.3638V34.5103V34.6567V34.8032V34.9496V35.0961L153.324 35.2425L153.373 35.389L153.422 35.5354L153.47 35.6819L153.519 35.8283L153.568 35.926L153.617 36.0724L153.715 36.2189L153.812 36.3165L153.91 36.4142L154.007 36.5118L154.105 36.6095L154.203 36.7071L154.3 36.8047L154.398 36.8535L154.496 36.9024L154.593 36.9512L154.691 37L154.837 37.0488L154.984 37.0976H155.13H155.277H155.423H155.57H155.667H155.716H155.765H155.863H155.96H156.058L156.155 37.0488L156.253 37L156.351 36.9512L156.448 36.9024L156.595 36.8535H156.644L156.741 36.8047L156.839 36.7559L156.937 36.7071L157.034 36.6095L157.132 36.5118L157.229 36.4142L157.327 36.3165L157.425 36.2189H157.474L157.327 36.9024H159.231L161.086 26.8945H159.036V26.9922ZM152.641 32.0205V32.1181V32.2158V32.4599V32.6063L152.592 32.8992V33.0457L152.543 33.1921L151.859 37H149.956L150.493 33.9732V33.9244V33.8756V33.8268V33.778V33.7291V33.6803V33.6315V33.5827V33.5339V33.4851V33.3386V33.241V32.9969V32.8992V32.8016V32.704L150.444 32.6063V32.5575V32.5087L150.395 32.4599L150.346 32.411L150.297 32.3622L150.248 32.3134H150.2L150.151 32.2646L150.053 32.2158H149.956H149.858H149.663H149.516H149.419H149.37H149.321H149.272L149.223 32.2646H149.174L149.126 32.3134L149.077 32.3622L149.028 32.411L148.979 32.4599L148.93 32.5087L148.882 32.5575L148.833 32.6063L148.784 32.704L148.735 32.8016L148.686 32.8992L148.637 33.0457L148.589 33.1921L148.54 33.3386L148.491 33.4851L148.442 33.6315L147.856 36.8047H145.952L147.075 30.6536H148.979L148.833 31.4347H148.882L148.979 31.2882L149.077 31.1906L149.174 31.0929L149.272 30.9953L149.37 30.8977L149.467 30.8L149.565 30.7024L149.663 30.6536L149.76 30.6048L149.858 30.5559L150.004 30.5071L150.151 30.4583L150.297 30.4095H150.444H150.59H150.883H151.03H151.176H151.274L151.371 30.4583L151.469 30.5071L151.567 30.5559L151.664 30.6048L151.762 30.6536L151.859 30.7024L151.957 30.7512L152.104 30.8977L152.152 30.9953L152.201 31.0929L152.25 31.1906L152.299 31.2882L152.348 31.3858L152.396 31.4835L152.445 31.5811V31.6788L152.494 31.7764L152.641 32.0205ZM144.586 27.9197L142.877 37H144.927L146.587 27.9197H144.586ZM140.29 26.9922L140.192 26.9434H140.094H139.997H139.899H139.801H139.557H139.411H139.264H139.118L138.972 26.9922L138.825 27.041L138.679 27.0898L138.532 27.1386L138.386 27.1874L138.239 27.2363L138.093 27.3339L137.946 27.4315L137.849 27.5292L137.702 27.6268L137.605 27.7244L137.507 27.8221L137.458 27.8709L137.409 27.9197L137.361 27.9685L137.312 28.0174L137.263 28.0662L137.214 28.115L137.165 28.1638L137.116 28.2126L137.019 28.3103L136.97 28.4079L136.921 28.5055L136.872 28.6032L136.824 28.7008L136.775 28.7985L136.726 28.8961L136.677 28.9937L136.628 29.189L136.579 29.4331L136.531 29.6772L136.482 29.9213L136.335 30.7024H135.652L135.31 32.5087H135.994L135.164 36.9024H137.068L137.898 32.5087H139.216L139.557 30.7024H138.239L138.435 29.726L138.483 29.5796V29.4819L138.532 29.3843L138.581 29.2866L138.63 29.189L138.679 29.0914L138.727 28.9937L138.776 28.9449L138.825 28.8961L138.874 28.8473L138.923 28.7985L138.972 28.7496L139.069 28.7008H139.118H139.216H139.313H139.362H139.411H139.46H139.509H139.557L139.606 28.7496H139.655L139.704 28.7985H139.753H139.801L139.85 28.8473H139.899L140.241 26.9922L140.143 26.9434L140.29 26.9922ZM132.967 33.6315V33.778L132.918 33.9244L132.869 34.0709L132.82 34.2173L132.772 34.3638L132.723 34.5103L132.674 34.6079L132.576 34.7543L132.381 34.9496L132.283 35.0472L132.186 35.1449L132.137 35.1937L132.088 35.2425H132.039L131.991 35.2913H131.942L131.893 35.3402H131.844H131.746H131.698H131.6H131.454H131.405H131.307H131.258H131.209H131.161H131.112H131.063H131.014L130.965 35.2913H130.917L130.868 35.2425L130.819 35.1937L130.77 35.1449L130.721 35.0961L130.624 34.9984L130.575 34.9008L130.526 34.8032L130.477 34.6567V34.5591V34.4126V34.2662V34.1197L130.526 33.9732L130.575 33.8268L130.624 33.6803L130.672 33.5339L130.721 33.4362L130.77 33.2898L130.868 33.1433L130.965 33.0457L131.063 32.948L131.161 32.8504L131.258 32.7528L131.307 32.704L131.356 32.6551L131.405 32.6063L131.454 32.5575H131.502L131.551 32.5087L131.6 32.4599H131.649H131.698H131.844H131.991H132.088H132.137H132.186H132.235H132.283H132.332L132.381 32.5087H132.43H132.479L132.528 32.5575L132.576 32.6063L132.625 32.6551L132.674 32.704L132.723 32.7528L132.772 32.8016L132.82 32.8504L132.869 32.948L132.918 33.0457L132.967 33.1433L133.016 33.2898V33.4362V33.6315H132.967ZM134.968 32.8504L134.92 32.704L134.871 32.5575L134.822 32.411L134.773 32.2646L134.724 32.1181L134.676 31.9717L134.627 31.874L134.529 31.7276L134.431 31.6299L134.334 31.5323L134.236 31.4347L134.139 31.337L134.041 31.2394L133.943 31.1417L133.699 30.9953L133.553 30.9465L133.406 30.8977L133.26 30.8488L133.113 30.8L132.967 30.7512L132.82 30.7024L132.674 30.6536H132.528H132.381H132.235H132.088H131.942H131.795H131.649H131.6L131.454 30.7024L131.307 30.7512L131.161 30.8L131.014 30.8488L130.721 30.9953L130.575 31.0441L130.428 31.1417L130.282 31.2394L130.135 31.337L129.989 31.4347L129.843 31.5323L129.696 31.6299L129.55 31.7276L129.403 31.874L129.257 31.9717L129.159 32.1181L129.061 32.2646L128.964 32.411L128.769 32.704L128.72 32.8504L128.622 33.0457L128.573 33.1921L128.524 33.3874L128.476 33.5827L128.427 33.778L128.378 33.9732L128.329 34.1685L128.28 34.3638L128.232 34.5591V34.7543V34.9496V35.0961V35.2425L128.28 35.389L128.329 35.5354L128.378 35.6819L128.427 35.8283L128.476 35.9748L128.573 36.1213L128.671 36.2189L128.769 36.3165L128.866 36.4142L128.964 36.5118L129.061 36.6095L129.159 36.7071L129.306 36.8047L129.403 36.8535L129.501 36.9024L129.647 36.9512L129.794 37L129.94 37.0488L130.087 37.0976L130.233 37.1465L130.38 37.1953H130.526H130.672H130.819H130.965H131.112H131.258H131.405H131.551H131.6L131.746 37.1465L131.893 37.0976L132.039 37.0488L132.186 37L132.332 36.9512L132.479 36.9024L132.625 36.8535L132.918 36.7071L133.065 36.6095L133.211 36.5118L133.357 36.4142L133.65 36.1701L133.797 36.0236L133.943 35.926L134.041 35.7795L134.139 35.6331L134.236 35.4866L134.334 35.3402L134.431 35.1937L134.529 35.0472L134.627 34.9008L134.676 34.7543L134.724 34.5591L134.773 34.4126L134.822 34.2173L134.92 33.8268L134.968 33.6315V33.4362V33.241V33.0945V32.8504ZM122.959 30.8L120.567 33.0457L121.69 26.9922H119.786L117.931 37H119.835L120.323 34.4614L121.934 37H124.619L122.373 33.6803L125.595 30.8488H122.959V30.8ZM117.492 32.0205V31.9229V31.8252L117.443 31.7276L117.394 31.6299L117.345 31.5323L117.296 31.4347L117.248 31.337L117.199 31.2394L117.15 31.1417L117.101 31.0441L117.052 30.9953L117.003 30.9465L116.955 30.8977L116.857 30.8488L116.759 30.8L116.662 30.7512L116.564 30.7024L116.466 30.6536L116.369 30.6048H116.271H116.174H116.027H115.734H115.588H115.441H115.344L115.197 30.6536L115.1 30.7024L114.855 30.8L114.758 30.8488L114.66 30.9465L114.563 31.0441L114.465 31.1417L114.367 31.2394L114.27 31.337L114.172 31.4347L114.074 31.5811H114.026L114.172 30.8H112.268L111.145 36.9512H113.049L113.635 33.778L113.684 33.6315L113.733 33.4851L113.781 33.3386L113.83 33.1921L113.879 33.0457L113.928 32.948L113.977 32.8504L114.074 32.7528L114.123 32.704L114.221 32.6063L114.27 32.5575L114.318 32.5087L114.367 32.4599H114.416L114.465 32.411L114.514 32.3622H114.563H114.611H114.66H114.709H114.758H114.855H115.051H115.148H115.246L115.344 32.411H115.392H115.441L115.49 32.4599V32.5087L115.539 32.5575V32.6063V32.6551V32.7528V32.8504V32.948V33.0457V33.1433V33.241V33.3386V33.4362V33.4851V33.5339V33.5827V33.6315V33.6803V33.7291V33.778V33.8268V33.8756V33.9244V33.9732V34.0221L115.002 37.0488H116.906L117.589 33.241V33.0945V32.948V32.8016V32.6551V32.5575V32.411V32.3134V32.2158L117.492 32.0205ZM108.558 33.6315V33.778V33.9244L108.509 34.0709L108.46 34.2173L108.411 34.3638L108.363 34.5103L108.314 34.6567L108.216 34.7543L108.119 34.852L108.021 34.9496L107.923 35.0472L107.826 35.1449L107.777 35.1937L107.728 35.2425H107.679L107.63 35.2913L107.582 35.3402L107.533 35.389H107.484H107.435H107.386H107.289H107.142H107.093H106.947H106.898H106.849H106.8H106.752L106.703 35.3402L106.654 35.2913H106.605L106.556 35.2425L106.508 35.1937L106.459 35.1449L106.41 35.0961L106.361 35.0472V34.9984L106.312 34.9008L106.263 34.8032L106.215 34.7055V34.5591V34.4614V34.315V34.1685V34.0221L106.263 33.8756L106.312 33.7291L106.361 33.5827L106.41 33.4362L106.459 33.3386L106.508 33.1921L106.605 33.0945L106.703 32.9969L106.8 32.8992L106.898 32.8016L106.947 32.7528L106.996 32.704L107.045 32.6551L107.093 32.6063L107.142 32.5575L107.191 32.5087H107.24H107.289L107.386 32.4599H107.533H107.582H107.63H107.679H107.728H107.777H107.826H107.874L107.923 32.5087H107.972L108.021 32.5575L108.07 32.6063L108.119 32.6551L108.167 32.704L108.216 32.7528L108.265 32.8016L108.314 32.8504L108.363 32.948L108.411 33.0457L108.46 33.1433L108.509 33.2898V33.4362V33.6315H108.558ZM108.948 31.3858L108.9 31.2882L108.851 31.1906L108.802 31.1417L108.753 31.0441L108.607 30.9953L108.509 30.9465L108.411 30.8977L108.314 30.8488L108.216 30.8L108.119 30.7512L108.021 30.7024L107.923 30.6536L107.826 30.6048H107.728H107.63H107.533H107.484H107.191H107.045L106.898 30.6536L106.752 30.7024L106.605 30.7512L106.459 30.8L106.312 30.8488L106.166 30.8977L106.019 30.9465L105.873 31.0441L105.726 31.1417L105.58 31.2394L105.434 31.337L105.336 31.4347L105.238 31.5323L105.141 31.6299L105.043 31.7764L104.945 31.9229L104.848 32.0693L104.75 32.2158L104.652 32.3622L104.555 32.5087L104.457 32.6551L104.36 32.8016L104.262 32.948L104.213 33.0945L104.164 33.241L104.115 33.3874L104.067 33.5339L104.018 33.6803L103.969 33.8268L103.92 33.9732L103.871 34.1197V34.2662V34.4126V34.5591V34.7055V34.852V34.9984V35.1449V35.2913L103.92 35.4378L103.969 35.5843L104.018 35.7307L104.067 35.8772L104.115 35.9748L104.164 36.1213L104.213 36.2677L104.262 36.4142L104.408 36.6095L104.506 36.7071L104.604 36.8047L104.701 36.9024L104.799 36.9512L104.897 37L104.994 37.0488L105.092 37.0976L105.189 37.1465L105.336 37.1953L105.482 37.2441H105.629H105.775H105.922H106.019H106.068H106.117H106.215H106.312H106.41H106.508L106.605 37.1953L106.703 37.1465L106.8 37.0976L106.898 37.0488H106.947H106.996L107.093 37L107.191 36.9512L107.289 36.8535L107.386 36.7559L107.484 36.6583L107.582 36.5606L107.679 36.463H107.728L107.582 37.1465H109.485L110.608 30.9953H108.704L108.948 31.3858ZM101.479 30.4583V30.6048L101.43 30.7512L101.382 30.8977L101.333 30.9953L101.284 31.0929L101.235 31.1417L101.186 31.1906L101.138 31.2394L101.089 31.2882L101.04 31.337L100.991 31.3858L100.942 31.4347H100.893L100.796 31.4835L100.698 31.5323L100.601 31.5811L100.503 31.6299H100.405H100.308H100.21H100.112H100.064H99.8195L100.161 29.8725H100.503H100.601H100.698H100.796H100.893L100.991 29.9213L101.089 29.9701L101.186 30.0189L101.284 30.0677L101.333 30.1166H101.382L101.43 30.1654L101.479 30.2142V30.263V30.3118V30.3607V30.4583ZM101.382 33.9244V34.0709L101.333 34.2173L101.284 34.3638L101.235 34.4614L101.186 34.5591L101.138 34.6567L101.089 34.7543L101.04 34.852L100.942 34.9008L100.845 34.9496L100.747 34.9984L100.649 35.0472L100.552 35.0961L100.356 35.1449L100.259 35.1937H100.161H100.064H100.015H99.9171H99.8683H99.5266H99.2825L99.6242 33.241H100.405H100.503H100.601H100.698H100.796L100.893 33.2898L100.991 33.3386L101.089 33.3874L101.186 33.4362L101.235 33.4851H101.284L101.333 33.5339L101.382 33.5827V33.6315V33.6803V33.7291V33.778V33.8268V33.8756V33.9244ZM103.432 29.1402V29.0426L103.383 28.9449L103.334 28.8473L103.286 28.7496L103.237 28.652V28.5544L103.188 28.4567L103.139 28.4079L103.041 28.3591L102.993 28.3103L102.895 28.2614L102.846 28.2126L102.749 28.1638L102.651 28.115L102.553 28.0662L102.456 28.0174L102.358 27.9685L102.26 27.9197H102.163H102.065H101.967H101.821H101.675H98.599L96.9392 37H100.112H100.259H100.405H100.552H100.698H100.845L100.991 36.9512L101.138 36.9024L101.284 36.8535L101.43 36.8047L101.577 36.7559L101.723 36.7071L101.87 36.6583L102.016 36.6095L102.163 36.5606L102.309 36.5118L102.407 36.463L102.504 36.4142L102.602 36.3165L102.7 36.2189L102.797 36.1213L102.895 36.0236L102.993 35.926L103.09 35.8283L103.188 35.6819L103.286 35.5843L103.334 35.4378L103.383 35.2913L103.432 35.1449L103.481 34.9984L103.53 34.852L103.578 34.7055L103.627 34.5591L103.676 34.315V34.0709V33.8756V33.6803V33.5827V33.4851V33.3874L103.627 33.2898L103.578 33.0945L103.53 32.948L103.481 32.8504L103.432 32.8016L103.383 32.7528L103.334 32.704L103.286 32.6551L103.237 32.6063L103.188 32.5575L103.139 32.5087L103.09 32.4599L102.993 32.411L102.895 32.3622L102.797 32.3134L102.7 32.2646L102.602 32.2158H102.504H102.407L102.553 32.1181L102.651 32.0205L102.749 31.9229L102.846 31.8252L102.944 31.7276L103.041 31.6299L103.139 31.5323L103.188 31.4347L103.237 31.2882L103.286 31.1906L103.334 31.0441L103.383 30.8977L103.432 30.7512L103.481 30.6048L103.53 30.4583L103.578 30.3118V30.1654V30.0189V29.8725V29.726V29.4331V29.3355L103.432 29.1402ZM90.1047 36.9512H92.0086L93.8637 26.9434H91.9598L90.1047 36.9512ZM87.615 33.6315V33.778L87.5662 33.9244L87.5174 34.2173L87.4685 34.3638L87.4197 34.5103L87.3709 34.6567L87.3221 34.7543L87.2244 34.852L87.1268 34.9496L87.0292 35.0472L86.9315 35.1449L86.8827 35.1937L86.8339 35.2425H86.7851L86.7363 35.2913L86.6875 35.3402L86.6386 35.389H86.5898H86.541H86.4434H86.2969H86.2481H86.1016H86.0528H86.004H85.9552H85.9064L85.8575 35.3402L85.8087 35.2913H85.7599L85.7111 35.2425L85.6623 35.1937L85.6135 35.1449L85.5646 35.0961L85.5158 35.0472L85.467 34.9984L85.4182 34.9008L85.3694 34.8032L85.3205 34.7055V34.5591V34.4614V34.315V34.1685V34.0221L85.3694 33.8756L85.4182 33.7291L85.467 33.5827L85.5158 33.4362L85.6135 33.3386L85.6623 33.1921L85.7599 33.0945L85.8575 32.9969L85.9552 32.8992L86.0528 32.8016L86.1016 32.7528L86.1505 32.704L86.1993 32.6551L86.2481 32.6063L86.2969 32.5575L86.3457 32.5087H86.3945H86.4434L86.541 32.4599H86.6875H86.7851H86.8339H86.8827H86.9315H86.9804H87.0292H87.078L87.1268 32.5087H87.1756L87.2244 32.5575L87.2733 32.6063L87.3221 32.6551L87.4197 32.7528L87.4685 32.8016L87.5174 32.8504L87.5662 32.948L87.615 33.0457L87.6638 33.1433L87.7126 33.2898V33.4362L87.615 33.6315ZM88.0055 31.3858L87.9567 31.2882L87.9079 31.1906L87.8591 31.1417L87.8103 31.0441L87.7126 30.9953L87.6638 30.9465L87.5662 30.8977L87.4685 30.8488L87.3709 30.8L87.2733 30.7512L87.1756 30.7024L87.078 30.6536L86.9804 30.6048L86.7851 30.5559H86.6875H86.6386H86.3457H86.1993L86.0528 30.6048L85.9064 30.6536L85.7599 30.7024L85.6135 30.7512L85.467 30.8L85.3205 30.8488L85.1741 30.8977L85.0276 30.9953L84.8812 31.0929L84.7347 31.1906L84.5883 31.2882L84.4906 31.3858L84.393 31.4835L84.2954 31.5811L84.1977 31.7276L84.1001 31.874L84.0025 32.0205L83.9048 32.1669L83.8072 32.3134L83.7096 32.4599L83.6119 32.6063L83.5631 32.7528L83.4655 32.8992L83.4166 33.0457L83.3678 33.1921L83.319 33.3386L83.2702 33.4851L83.2214 33.6315L83.1726 33.778L83.1237 33.9244V34.0709V34.2173V34.3638V34.5103V34.8032V34.9496V35.0961V35.2425L83.1726 35.389L83.2214 35.5354L83.2702 35.6819L83.319 35.8283L83.4166 36.0724L83.4655 36.2189L83.5631 36.3654L83.6119 36.463L83.7096 36.5606L83.8072 36.6583L83.9048 36.7559L84.0025 36.8535L84.1001 36.9024L84.1977 36.9512L84.2954 37L84.393 37.0488L84.5395 37.0976L84.6859 37.1465L84.8324 37.1953H84.9788H85.1253H85.2717H85.3694H85.4182H85.467H85.5646H85.6623H85.7599H85.8575L85.9552 37.1465L86.0528 37.0976L86.1505 37.0488L86.2481 37H86.2969H86.3457L86.4434 36.9512L86.541 36.9024L86.6386 36.8047L86.7363 36.7071L86.8339 36.6095L86.9315 36.5118L87.0292 36.4142H87.078L86.9804 37.0976H88.8843L90.0071 30.9465H88.1032L88.0055 31.3858ZM83.0749 30.7024H83.4655L83.0749 32.8016H83.0261L82.9773 32.7528L82.9285 32.704L82.8308 32.6551L82.7332 32.6063H82.6356H82.5867H82.4891H82.3915H82.2938H82.1962H82.0009H81.9033H81.8057L81.708 32.6551H81.6104L81.5127 32.704L81.4639 32.7528L81.4151 32.8016L81.3175 32.8504L81.2687 32.8992L81.2198 32.948L81.171 32.9969L81.1222 33.0457L81.0734 33.0945L81.0246 33.1433L80.9269 33.2898L80.8293 33.4362L80.7805 33.5827L80.7317 33.7291L80.7805 33.9244L80.7317 34.1197L80.6828 34.315L80.634 34.5103L80.1458 37H78.2419L79.3648 30.8488H81.2687L81.0734 31.874H81.1222L81.2198 31.7276L81.3175 31.5811L81.4151 31.4835L81.5127 31.3858L81.6104 31.2882L81.7568 31.1906L81.8545 31.0929L82.0986 30.9465L82.245 30.8977L82.3915 30.8488L82.5379 30.8L82.6844 30.7512H82.8308H82.9773H83.0749V30.7024ZM78.7789 30.8H77.7049L78.0467 28.9449H76.1428L75.801 30.8H75.1664L74.8247 32.6063H75.4593L74.6782 36.9512H76.5821L77.3632 32.6063H78.4372L78.7789 30.8ZM73.9948 32.0205V31.9229L73.946 31.8252V31.7276L73.8971 31.6299L73.8483 31.5323L73.7995 31.4347L73.7507 31.337L73.7019 31.2394L73.653 31.1417L73.6042 31.0441L73.5554 30.9953L73.5066 30.9465L73.4578 30.8977L73.3601 30.8488L73.2625 30.8L73.1649 30.7512L73.0672 30.7024L72.9696 30.6536L72.872 30.6048H72.7743H72.6767H72.5302H72.2373H72.0909H71.9444H71.798L71.7003 30.6536L71.6027 30.7024L71.3586 30.8L71.261 30.8488L71.1633 30.9465L71.0657 31.0441L70.9681 31.1417L70.8704 31.2394L70.7728 31.337L70.6752 31.4347L70.5775 31.5811L70.724 30.8H68.8201L67.6973 36.9512H69.6012L70.187 33.778L70.2358 33.6315L70.2846 33.4851L70.3334 33.3386L70.3822 33.1921L70.4311 33.0457L70.4799 32.948L70.5287 32.8504L70.5775 32.7528L70.6263 32.704L70.6752 32.6551L70.724 32.6063L70.7728 32.5575L70.8216 32.5087L70.8704 32.4599H70.9192L70.9681 32.411L71.0169 32.3622L71.1145 32.3134H71.1633H71.2121H71.261H71.3098H71.5051H71.6027H71.7003L71.798 32.3622H71.8468H71.8956L71.9444 32.411L71.9932 32.4599V32.5087L72.0421 32.5575V32.6063L72.0909 32.704V32.8016V32.8992V32.9969V33.0945V33.1921V33.2898V33.3874V33.4362V33.4851V33.5339V33.5827V33.6315V33.6803V33.7291V33.778V33.8268V33.8756V33.9244V33.9732L71.5539 37H73.4578L74.1412 33.1921L74.19 32.8992V32.7528V32.6063V32.5087V32.3622V32.2646V32.1669L73.9948 32.0205ZM63.4989 32.9969H65.6957V32.8992V32.8016V32.704L65.6469 32.6063L65.5981 32.5087L65.5493 32.411L65.5004 32.3622L65.4516 32.2646L65.4028 32.2158L65.354 32.1669L65.2564 32.1181L65.1587 32.0693L65.0611 32.0205H64.9634H64.8658H64.6705H64.5729H64.4753H64.3776L64.28 32.0693L64.1824 32.1181L64.0847 32.1669L63.9871 32.2158L63.8894 32.2646L63.7918 32.3622L63.743 32.4599L63.6454 32.5575L63.5965 32.6551L63.5477 32.7528L63.4989 32.8504V32.9969ZM67.3555 32.7528V32.948V33.1433V33.2898V33.4851V33.6803L67.3067 33.8756L67.2579 34.0709L67.2091 34.315H63.206V34.5103V34.6567V34.8032V34.9496V35.0472L63.2548 35.1449L63.3036 35.2425V35.2913L63.3525 35.3402L63.4013 35.389L63.4501 35.4378L63.4989 35.4866L63.5477 35.5354L63.5965 35.5843L63.6454 35.6331H63.6942H63.743H63.7918H63.8406H63.8894H63.9383H64.0847H64.28H64.3776H64.4753H64.5241H64.5729H64.6217H64.6705L64.7194 35.5843L64.7682 35.5354L64.817 35.4866L64.8658 35.4378L64.9146 35.389L64.9634 35.3402L65.0123 35.2913L65.0611 35.2425L65.1099 35.1449H66.965L66.9162 35.2913L66.8673 35.4378L66.8185 35.5354L66.7697 35.6819L66.6721 35.7795L66.6233 35.8772L66.5256 35.9748L66.428 36.0724L66.3303 36.1701L66.2327 36.2677L66.1351 36.3654L66.0374 36.463L65.9398 36.5606L65.7445 36.7071L65.6469 36.7559L65.5493 36.8047L65.4516 36.8535L65.354 36.9024L65.2564 36.9512L65.1587 37L65.0611 37.0488L64.9634 37.0976L64.8658 37.1465L64.7682 37.1953L64.6705 37.2441H64.5729L64.4753 37.2929H64.3776H64.28H64.1824H64.0359H63.8894H63.743H63.5965L63.4501 37.2441L63.3036 37.1953L63.1572 37.1465L63.0107 37.0976L62.8643 37.0488L62.7178 37L62.4737 36.8535L62.3761 36.7559L62.1808 36.6095L62.0832 36.5118L61.9855 36.4142L61.8879 36.3165L61.7903 36.2189L61.7415 36.0724L61.6926 35.926L61.6438 35.7795L61.595 35.6331L61.5462 35.4866L61.4974 35.3402V35.1937V35.0472V34.9008V34.7055V34.5103V34.315L61.5462 34.1197L61.595 33.9244L61.6438 33.7291L61.6926 33.5339L61.7415 33.3386L61.7903 33.1921L61.8391 32.9969L61.8879 32.8504L61.9855 32.704L62.0832 32.5575L62.1808 32.411L62.2785 32.2646L62.3761 32.1181L62.4737 31.9717L62.5714 31.8252L62.669 31.7276L62.7666 31.6299L62.9131 31.5323L63.0595 31.4347L63.206 31.337L63.3525 31.2394L63.4989 31.1417L63.6454 31.0441L63.7918 30.9953L63.9383 30.9465L64.0847 30.8977L64.2312 30.8488L64.3776 30.8L64.5241 30.7512L64.6705 30.7024H64.817H64.9146H64.9634H65.1099H65.4516H65.5981L65.7445 30.7512H65.891L66.0374 30.8L66.1839 30.8488L66.3303 30.8977L66.4768 30.9465L66.5744 30.9953L66.6721 31.0441L66.7697 31.1417L66.8673 31.2394L66.965 31.337L67.0626 31.4347L67.1603 31.5323L67.2579 31.6299L67.3067 31.7764L67.3555 31.9229L67.4043 32.0205L67.4532 32.1669L67.502 32.3134L67.5508 32.4599L67.5996 32.6063V32.7528H67.3555ZM61.6438 28.115L61.4485 28.0174L61.2533 27.9197L61.058 27.8221L60.8139 27.7733H60.7163L60.6186 27.7244L60.521 27.6756H60.2769H60.1793H60.0816H59.9352H59.8376H59.6423L59.447 27.7244L59.2517 27.7733L59.0565 27.8221L58.8612 27.8709L58.6659 27.9685L58.4707 28.0662L58.2754 28.1638L58.0801 28.2614L57.8848 28.3591L57.6896 28.5055L57.4943 28.6032L57.299 28.7496L57.1037 28.8961L56.9085 29.0426L56.7132 29.189L56.3715 29.5307L56.225 29.726L56.0786 29.9213L55.9321 30.1166L55.7857 30.3118L55.6392 30.5071L55.5416 30.7512L55.4439 30.9953L55.3463 31.1906L55.2487 31.3858L55.151 31.6299L55.1022 31.874L54.9069 31.9717L54.8581 32.2158L54.8093 32.4599L54.7605 32.704L54.7117 32.948V33.1921V33.4362V33.6803V33.9244V34.1197L54.7605 34.3638L54.8093 34.5591L54.8581 34.7543L54.9069 34.9496L55.0046 35.1449L55.1022 35.3402L55.1998 35.5354L55.2975 35.7307L55.4439 35.8772L55.5904 36.0236L55.7368 36.1701L55.8833 36.3165L56.0298 36.463L56.1762 36.5606L56.3227 36.6583L56.4691 36.7559L56.6644 36.8535L56.8597 36.9512L57.0549 37L57.2502 37.0488L57.4455 37.0976L57.6407 37.1465H57.836H58.0313H58.2266H58.3242H58.4218H58.5195H58.6171H58.7147H58.8124H58.91H59.0076L59.1541 37.0976L59.3006 37.0488L59.447 37L59.5935 36.9512L59.7399 36.9024L59.8864 36.8535L60.0328 36.8047L60.1793 36.7559L60.7163 33.9244L60.6186 34.0221L60.521 34.1197L60.4234 34.2173L60.3257 34.315L60.2281 34.4126L60.1305 34.5103L60.0328 34.6079L59.8864 34.6567L59.7399 34.7055L59.5935 34.7543L59.447 34.8032L59.3494 34.852L59.2029 34.9008H59.1053H58.9588H58.7147H58.6171H58.5195L58.4218 34.852H58.3242L58.2266 34.8032L58.1289 34.7543L58.0313 34.7055L57.9337 34.6567L57.836 34.6079L57.7384 34.5591L57.6407 34.5103L57.5919 34.4614L57.4943 34.4126L57.4455 34.315L57.3478 34.1197L57.299 34.0221L57.2502 33.9244L57.2014 33.8268L57.1526 33.7291L57.1037 33.6315V33.5339L57.0549 33.4362V33.3386V33.241V32.9969V32.8504V32.704V32.6063V32.4599L57.1037 32.3134L57.1526 32.2158L57.2014 32.0693L57.2502 31.9229L57.299 31.8252L57.3478 31.7276L57.3967 31.6299L57.4943 31.3858L57.5431 31.2882L57.6407 31.1906L57.6896 31.0929L57.7872 30.9953L57.8848 30.8977L57.9825 30.8L58.0801 30.7024L58.1777 30.6048L58.2754 30.5071L58.373 30.4095L58.4707 30.3607L58.5683 30.3118L58.6659 30.263L58.7636 30.2142L58.8612 30.1654L58.9588 30.1166L59.0565 30.0677L59.1541 30.0189L59.2517 29.9701H59.3494H59.447H59.5446H59.7887H59.9352H60.0816H60.1793L60.3257 30.0189L60.4234 30.0677L60.521 30.1166L60.6186 30.1654L60.7163 30.2142L60.8139 30.3118L60.9116 30.4095L61.0092 30.5071L61.1068 30.6048L61.2045 30.7024L61.2533 30.8L61.3021 30.8977L61.6438 28.115Z" fill="white"/>
<path d="M164.894 17.6178L165.138 15.0304H163.625L163.674 15.128L163.772 15.2256L163.82 15.3233L163.869 15.4209L163.918 15.5186L163.967 15.665V15.8115V15.9579V16.0556V16.1532L163.918 16.2508L163.869 16.3485L163.82 16.4461L163.772 16.5438L163.723 16.6414L163.625 16.7878L163.576 16.8855L163.479 16.9343H163.43L163.381 16.9831L163.283 17.0319L163.186 17.0808L163.088 17.1296L162.99 17.1784L162.844 17.2272L162.698 17.276L162.551 17.3249L162.405 17.3737H162.258L162.063 17.4225H161.916H161.721V17.5689V17.7154L161.77 17.8619L161.819 18.0083L161.868 18.1548L161.916 18.2524L161.965 18.35L162.063 18.4477L162.112 18.4965L162.161 18.5453L162.209 18.5941L162.258 18.643L162.356 18.6918L162.502 18.7406L162.649 18.7894H162.795H162.942H163.088H163.235H163.381H163.527H163.576H163.674L163.82 18.7406L163.967 18.6918L164.113 18.643L164.26 18.5941L164.406 18.4965L164.553 18.3989L164.699 18.3012L164.797 18.2036L164.894 18.106L164.992 17.9595L165.09 17.813L164.894 17.6178ZM155.765 13.3217V13.1753V13.0776V12.98L155.717 12.8823L155.668 12.7847L155.619 12.6871L155.57 12.5894L155.521 12.5406L155.472 12.4918L155.375 12.443L155.277 12.3942L155.18 12.3453L155.082 12.2965L154.984 12.2477L154.887 12.1989L154.789 12.1501H154.643H154.496H154.35H154.203H154.057H153.91H153.764H153.569H153.227L152.934 12.1989H152.641L152.348 12.2477L152.104 12.2965L151.86 12.3453L151.762 12.3942L151.665 12.443L151.567 12.4918L151.469 12.5406L151.372 12.5894L151.274 12.6383L151.177 12.6871L151.079 12.7359L151.03 12.7847L150.981 12.8335L150.932 12.8823L150.884 12.9312L150.835 12.98L150.786 13.0288L150.737 13.0776L150.688 13.1264L150.64 13.1753V13.2241V13.2729V13.3705V13.517V13.6635V13.7611L150.688 13.8587V13.9075L150.737 13.9564V14.0052H150.786H150.835H150.884H150.932H150.981H151.03V13.9564H155.375L155.326 13.9075L155.424 13.8587L155.521 13.8099L155.619 13.7123L155.668 13.6146L155.717 13.517L155.765 13.4194L155.814 13.3217H155.765ZM157.23 14.0052H171.68L171.582 15.0304H170.606L170.069 20.791H168.165L168.702 15.0304H166.945L166.408 20.791H164.553L164.699 19.4729L164.553 19.5705L164.406 19.6682L164.26 19.7658L164.113 19.8146L163.967 19.9122L163.82 19.9611L163.674 20.0099L163.527 20.0587L163.381 20.1075H163.283H163.235L163.088 20.1563L162.795 20.2052H162.649H162.502H162.356H162.112H161.868L161.672 20.1563L161.477 20.1075L161.379 20.0587L161.282 20.0099L161.184 19.9611L161.087 19.9122L160.989 19.8634L160.891 19.8146L160.794 19.7658L160.696 19.717L160.598 19.6682L160.501 19.6193L160.403 19.5705L160.354 19.5217L160.257 19.4729L160.208 19.4241L160.159 19.3752L160.061 19.3264L160.013 19.2288L159.915 19.1311L159.866 19.0335L159.817 18.9359L159.72 18.7406L159.622 18.5453L159.573 18.35L159.524 18.1548L159.476 17.9595L159.427 17.7642L159.378 17.5201V17.276V17.0319V16.7878L159.671 16.6414H159.72H159.768H159.866H160.013H160.159H160.305H160.452H160.598H160.745H160.842L160.989 16.5926L161.087 16.5438L161.233 16.4949L161.331 16.4461L161.428 16.3973L161.477 16.3485L161.526 16.2997L161.575 16.2508L161.624 16.202L161.672 16.1532L161.721 16.1044V16.0556L161.77 16.0067V15.9579V15.9091V15.8115V15.665V15.6162V15.5186V15.4697V15.4209L161.721 15.3721H161.819L161.77 15.3233L161.721 15.2745L161.672 15.2256L161.624 15.1768L161.575 15.128L161.526 15.0792L161.477 15.0304H158.157L158.011 16.5926H154.789H154.691H154.594H154.545H154.496H154.447H154.398L154.35 16.6414V16.6902V16.739V16.7878V16.8367V16.8855V16.9343V16.9831V17.0319V17.0808V17.1296V17.1784V17.2272L154.398 17.276L154.447 17.3249L154.496 17.3737H154.545H154.594L154.691 17.4225H154.74H154.789H156.742H156.839L157.035 17.4713H157.132L157.23 17.5201H157.328L157.425 17.5689L157.523 17.6178L157.572 17.6666L157.718 17.7642L157.816 17.813L157.913 17.8619L157.962 17.9107L158.06 17.9595L158.109 18.0083L158.157 18.106L158.206 18.1548L158.255 18.2036L158.304 18.3012L158.353 18.35L158.402 18.4477L158.45 18.5453L158.499 18.643L158.548 18.7406L158.597 18.8382V18.9359V19.0335V19.1311V19.2288V19.3264V19.4241V19.5705L158.548 19.6682L158.499 19.7658L158.45 19.8634L158.402 19.9611L158.353 20.0587L158.304 20.1563L158.255 20.254L158.206 20.3516L158.06 20.5469L157.962 20.6445L157.865 20.7422L157.767 20.8398L157.669 20.9374L157.474 21.0839L157.376 21.1327L157.279 21.1815L157.181 21.2304L157.035 21.2792L156.937 21.328L156.791 21.3768L156.644 21.4256L156.498 21.4744L156.351 21.5233L156.058 21.5721H155.912H155.765H155.472H155.228L154.984 21.5233L154.74 21.4744L154.447 21.4256L154.106 21.3768L153.764 21.2792L153.471 21.1815L153.178 21.0839L152.885 20.9863L152.641 20.8886L152.495 20.8398L152.397 20.791L152.299 20.7422L152.202 20.6933L152.104 20.6445L152.055 20.5957L151.958 20.5469L151.86 20.4981L151.762 20.4492L151.665 20.3516L151.567 20.254L151.469 20.1563L152.104 18.5941V18.643L152.153 18.6918L152.202 18.7406L152.299 18.8382L152.397 18.9359L152.543 19.0335L152.739 19.1311L152.934 19.2288L153.178 19.3264L153.422 19.4241L153.666 19.5217L153.91 19.6193L154.154 19.717L154.398 19.7658L154.643 19.8146L154.838 19.8634H154.984H155.131H155.277H155.424H155.57H155.717H155.814H155.912L156.009 19.8146H156.107L156.205 19.7658L156.302 19.717L156.351 19.6682L156.4 19.6193L156.449 19.5705L156.498 19.5217L156.546 19.4729L156.595 19.4241L156.644 19.3264L156.693 19.2776V19.2288L156.644 19.18L156.595 19.1311L156.546 19.0823L156.498 19.0335L156.449 18.9847L156.4 18.9359L156.351 18.8871H156.302L156.254 18.8382H156.156H156.058H155.961H154.301H154.203H154.106L153.91 18.7894H153.813H153.715L153.617 18.7406L153.52 18.6918L153.373 18.643L153.276 18.5941L153.178 18.5453L153.08 18.4965L152.983 18.4477L152.885 18.3989L152.836 18.35L152.739 18.3012L152.69 18.2524L152.641 18.1548L152.592 18.106L152.543 18.0083L152.495 17.9107L152.446 17.8619L152.397 17.7642L152.348 17.6666L152.299 17.5689L152.251 17.5201V17.4225V17.3249V17.1296V17.0319L152.299 16.9343V16.8367L152.348 16.739V16.6414L152.397 16.5438L152.446 16.4949L152.495 16.3973L152.543 16.2997L152.592 16.2508L152.641 16.202L152.69 16.1532L152.788 16.1044L152.885 16.0556L152.934 16.0067L153.032 15.9579L153.178 15.8603L153.325 15.7627L153.52 15.665L153.715 15.6162L153.91 15.5674L154.106 15.5186H154.301H154.496H156.302L156.351 15.0304H151.079L150.542 20.791H148.687L149.224 15.0304H148.247L148.345 14.0052H149.077L149.029 13.9564L148.98 13.9075V13.8587V13.7611V13.6635V13.5658V13.517V13.4194L149.029 13.2729L149.077 13.1264L149.126 12.98L149.175 12.8335L149.224 12.6871L149.273 12.5406L149.37 12.3942L149.419 12.2477L149.517 12.1501L149.614 12.0036L149.712 11.906L149.81 11.8083L149.907 11.7107L150.054 11.6131L150.2 11.5154L150.347 11.4178L150.493 11.3202L150.64 11.2713L150.786 11.1737L150.981 11.1249L151.177 11.0761L151.372 11.0272L151.567 10.9784L151.762 10.9296L151.958 10.8808L152.153 10.832H152.397H152.641H152.885H153.129H153.666H153.959H154.252H154.545H154.789L155.033 10.8808L155.277 10.9296L155.521 10.9784L155.717 11.0272L155.912 11.0761L156.107 11.1249L156.302 11.1737L156.498 11.2225L156.644 11.3202L156.791 11.4178L156.937 11.5154L157.035 11.6131L157.132 11.7107L157.23 11.8083L157.328 11.906L157.376 12.0036L157.425 12.1013L157.474 12.1989L157.523 12.2965L157.572 12.3942L157.62 12.6383L157.669 12.7847V12.8823V13.0288V13.1753V13.3217V13.4682V13.5658V13.6146V13.7123L157.62 13.7611L157.572 13.8099L157.523 13.8587L157.474 13.9075L157.425 13.9564L157.328 14.054L157.23 14.0052ZM148.443 13.2729L148.54 13.1753L148.638 13.0776L148.736 12.98L148.784 12.8823L148.833 12.7847L148.882 12.6871L148.931 12.5406V12.3942V12.2477V12.1501V12.0036L148.882 11.906L148.833 11.8083L148.784 11.7107L148.736 11.6131L148.638 11.5154L148.54 11.4178L148.443 11.3202L148.345 11.2713L148.247 11.2225L148.15 11.1737L148.052 11.1249H147.955H147.808H147.662H147.515L147.369 11.1737L147.222 11.2225L147.076 11.2713L146.978 11.369L146.881 11.4178L146.734 11.5154L146.636 11.6131L146.539 11.7107L146.441 11.8083L146.344 11.906L146.295 12.0036L146.246 12.1501L146.197 12.2965V12.443V12.5894V12.7359V12.7847V12.8335V12.8823L146.246 12.9312V12.98L146.295 13.0288L146.344 13.0776L146.392 13.1264L146.49 13.2241L146.588 13.3217L146.685 13.4194L146.783 13.4682L146.881 13.517L147.027 13.5658L147.125 13.6146L147.271 13.6635H147.418H147.564H147.71H147.857L147.955 13.6146L148.052 13.5658L148.15 13.517L148.247 13.4682L148.345 13.3705L148.443 13.2729ZM139.997 15.0304H144.977L144.928 15.5674H142.438H142.243L142.048 15.6162L141.852 15.665L141.706 15.7138L141.559 15.7627L141.413 15.8115L141.266 15.9091L141.169 15.9579L141.071 16.0067L140.974 16.0556L140.876 16.1044L140.827 16.1532L140.778 16.202L140.729 16.2508L140.681 16.2997L140.632 16.3485L140.583 16.4461L140.534 16.5438L140.485 16.5926L140.437 16.739L140.388 16.8367V16.9343V17.0808V17.1784L140.437 17.276V17.3737V17.4225L140.485 17.4713L140.534 17.5201L140.583 17.5689L140.632 17.6178L140.681 17.6666L140.729 17.7154L140.778 17.7642L140.876 17.813L140.925 17.8619L141.022 17.9107L141.169 18.0083L141.315 18.0571L141.462 18.106L141.608 18.1548L141.755 18.2036L141.95 18.2524H142.145H142.34H143.951H144.049H144.147H144.196H144.244H144.293V18.3012H144.342V18.35V18.3989V18.4477V18.5453V18.643L144.293 18.7406L144.244 18.7894L144.196 18.8382L144.147 18.8871L144.098 18.9359L144 18.9847H143.903H143.805H143.659H143.414H143.122H142.829H142.536H142.243L141.999 18.9359L141.755 18.8871L141.559 18.8382L141.364 18.7894L141.169 18.7406L140.974 18.643L140.778 18.5453L140.583 18.4477L140.388 18.35L140.144 19.5217L140.29 19.6193L140.437 19.717L140.632 19.7658L140.778 19.8146L140.876 20.1075L140.974 20.4004L141.071 20.6445L141.169 20.8398L141.218 20.9374L141.266 21.0351L141.315 21.1327L141.413 21.2792L141.462 21.328L141.511 21.3768L141.559 21.4256L141.657 21.4744L141.755 21.5233L141.852 21.5721L141.95 21.6209L142.096 21.6697L142.243 21.7185L142.389 21.7674L142.536 21.8162H142.731L142.926 21.865H143.122H143.317H143.512H143.756H144H144.244H144.44H144.586H144.684H144.733L144.879 20.6933H144.44H144.049H143.903H143.756H143.61L143.463 20.6445L143.366 20.5957L143.268 20.5469L143.17 20.4981L143.122 20.4492L143.073 20.4004L143.024 20.3516V20.3028V20.254H143.073V20.2052V20.1563H143.219H143.414H143.61H143.805H144H144.196H144.391H144.586H144.781L144.977 20.1075L145.172 20.0587L145.318 20.0099L145.465 19.9611L145.611 19.9122L145.758 19.8634L145.904 19.8146L145.953 19.7658L146.002 19.717L146.051 19.6682L146.099 19.6193L146.197 19.5217L146.246 19.4241L146.295 19.3752L146.344 19.2776L146.392 19.2288L146.441 19.18L146.49 19.0823L146.539 18.9847L146.588 18.8871L146.636 18.7894V18.6918L146.685 18.5941V18.4965V18.3989V18.3012V18.2036V18.106L146.636 17.9595L146.588 17.8619L146.539 17.813L146.49 17.7154L146.441 17.6666L146.392 17.6178L146.344 17.5689L146.295 17.5201L146.246 17.4713L146.197 17.4225L146.099 17.3737L146.051 17.3249L146.002 17.276L145.855 17.2272L145.709 17.1784L145.562 17.1296L145.221 17.3249H145.025H143.073H142.926H142.829H142.731H142.682H142.633H142.585H142.536L142.487 17.276V17.2272V17.1784V17.1296V17.0808V16.9831L142.536 16.9343L142.585 16.8855L142.633 16.8367L142.682 16.7878L142.731 16.739H142.829H142.926H146.636L146.783 15.128H147.857L147.955 14.1028H140.095L139.997 15.0304ZM129.306 20.3028V20.4004V20.4981V20.6933V20.791V20.8886L129.257 20.9863L129.208 21.0839L129.16 21.1815L129.111 21.2792V21.2304L129.013 21.2792L128.916 21.328L128.818 21.3768L128.72 21.4256L128.623 21.4744L128.525 21.5233H128.427H128.33H128.232H128.134H128.037L127.89 21.4744L127.793 21.4256L127.695 21.3768L127.597 21.328L127.5 21.2792L127.646 21.2304L127.597 21.1815L127.549 21.1327L127.5 21.0351L127.451 20.9374V20.8398V20.6445V20.5469L127.5 20.4492L127.597 20.254L127.646 20.1563L127.695 20.0587L127.744 20.0099L127.842 19.9611L127.939 19.9122L128.037 19.8634L128.134 19.8146L128.232 19.7658L128.33 19.717H128.427H128.525H128.623H128.72H128.818L128.916 19.7658L129.013 19.8146L129.111 19.8634L129.16 19.9122L129.257 19.9611L129.306 20.0099L129.355 20.1075L129.404 20.1563L129.453 20.2052L129.306 20.3028ZM128.427 17.2272V17.1296V17.0319L128.476 16.6902L128.525 16.3973L128.574 16.1044L128.623 15.8603L128.671 15.6162V15.4209V15.2745V15.128H130.478L130.234 17.6178L130.185 17.6666L130.136 17.7154L130.087 17.7642L130.038 17.813L129.941 17.8619L129.843 17.9107L129.794 17.9595L129.697 18.0083L129.599 18.0571L129.501 18.106H129.404H129.306H129.208H129.111H129.013H128.916H128.818L128.72 18.0571H128.623L128.574 18.0083L128.525 17.9595L128.476 17.9107L128.427 17.8619L128.379 17.813L128.33 17.7642V17.6666L128.281 17.5689V17.4713V17.3249V17.2272H128.427ZM126.328 15.0304H126.865V15.128V15.2745V15.4697L126.816 15.7138L126.768 16.0067L126.719 16.3485L126.67 16.739L126.621 17.1784V17.276V17.3737V17.4713V17.5689V17.6666V17.7642L126.67 17.8619L126.719 17.9595L126.768 18.0571L126.816 18.1548L126.865 18.2524L126.914 18.35L126.963 18.4477L127.012 18.5453L127.06 18.643L127.158 18.7406L127.207 18.8382L127.305 18.9359L127.402 18.9847L127.5 19.0335L127.597 19.0823L127.695 19.1311L127.793 19.18L127.89 19.2288L127.988 19.2776L128.086 19.3264L128.183 19.3752L128.379 19.4241H128.476H128.574H128.671H128.867H129.062H129.257L129.453 19.3752L129.599 19.3264L129.745 19.2776L129.892 19.2288L130.038 19.1311L129.892 20.6445H131.747L132.04 17.5201L132.089 17.4713L132.138 17.4225L132.186 17.3737L132.235 17.3249L132.284 17.276L132.382 17.2272L132.43 17.1784L132.479 17.1296L132.577 17.0808L132.626 17.0319L132.723 16.9831H132.821H132.919L133.016 16.9343H133.114H133.211H133.358H133.504H133.602H133.7L133.797 16.9831L133.895 17.0319L133.993 17.0808L134.09 17.1296L134.139 17.1784L134.188 17.2272L134.237 17.3249L134.285 17.3737L134.334 17.4713V17.5689V17.7642V17.8619L134.285 17.9595L134.237 18.0083L134.188 18.106L134.139 18.1548L134.09 18.2036L134.041 18.2524L133.993 18.3012L133.895 18.35L133.797 18.3989L133.7 18.4477H133.602H133.504H133.407H133.309H133.163H133.016H132.87H132.821H132.772H132.723H132.674L132.528 19.8146L132.577 19.8634H132.626L132.674 19.9122L132.723 19.9611L132.772 20.0099H132.821H132.87H132.919H133.065H133.211H133.407H133.602H133.748H133.895H134.041H134.139H134.285L134.383 19.9611L134.481 19.9122L134.578 19.8634L134.676 19.8146L134.774 19.7658L134.871 19.717L134.969 19.6682L135.067 19.6193L135.164 19.5705L135.262 19.5217L135.359 19.4729L135.457 19.4241L135.555 19.3264L135.652 19.2288L135.75 19.18L135.848 19.0823L135.945 18.9847L135.994 18.8871L136.043 18.7894L136.092 18.6918L136.141 18.5941L136.189 18.4965L136.238 18.2524L136.287 18.1548L136.336 18.0083V17.8619V17.7154V17.5689V17.4713V17.3249V17.1784L136.287 16.9343L136.238 16.8367L136.189 16.739L136.141 16.6414L136.092 16.5438L136.043 16.4461L135.994 16.3485L135.945 16.2508L135.848 16.1532L135.75 16.0556L135.652 15.9579L135.555 15.8603L135.457 15.8115L135.359 15.7627L135.262 15.7138L135.164 15.665L135.067 15.6162L134.969 15.5674L134.871 15.5186L134.774 15.4697L134.676 15.4209H134.578L134.432 15.3721H134.285H134.139H133.797L133.602 15.4209L133.407 15.4697L133.211 15.5186L133.016 15.5674L132.821 15.6162L132.626 15.7138L132.43 15.8115L132.528 14.7375H136.873L136.97 13.7123H126.621L126.328 15.0304ZM126.523 13.6146L126.621 13.5658L126.719 13.517L126.816 13.4682L126.914 13.4194L127.06 13.3217L127.207 13.2241L127.353 13.1264L127.451 12.98L127.549 12.8335L127.646 12.6871L127.744 12.5406L127.842 12.3942L127.939 12.1989L128.037 12.0036L128.134 11.8083L128.232 11.6131H126.231V11.7107V11.8083L126.182 11.906L126.133 11.9548L126.084 12.0036L126.035 12.0524L125.986 12.1013L125.889 12.1501L125.791 12.1989L125.694 12.2477L125.596 12.2965L125.449 12.3453H125.303H125.157H125.01H124.864H124.717H124.571H124.424L124.278 12.2965H124.229L124.18 12.2477H124.131H124.083L124.034 12.1989L123.985 12.1501L123.936 12.1013L123.887 12.0524L123.838 12.0036L123.79 11.9548L123.741 11.906L123.692 11.8572V11.8083V11.7595V11.6619V11.6131H121.69L121.739 11.8083L121.788 12.0036L121.837 12.1989L121.886 12.3942L121.935 12.5406L121.983 12.6871L122.081 12.8335L122.179 12.98L122.276 13.1264L122.374 13.2729L122.472 13.3705L122.618 13.4682L122.716 13.517L122.813 13.5658L122.911 13.6146L123.009 13.6635L123.106 13.7123L123.204 13.7611L123.35 13.8099L123.497 13.8587L123.643 13.9075H123.79L123.936 13.9564H124.083H124.229H124.375H124.522H124.668H124.864H125.01H125.205H125.352H125.498L125.645 13.9075H125.791L126.084 13.8099L126.231 13.7611L126.377 13.7123L126.523 13.6146ZM118.371 15.0304L118.468 14.054H125.986L125.889 15.0792H124.912L124.375 20.8398H122.52L123.057 15.0792H122.081V15.0304H121.349L120.812 20.8398H118.957L119.25 17.9595H117.834L117.883 17.1784L117.931 16.6414H119.347L119.494 15.0304H118.371ZM117.931 18.4965V18.35V18.3012V18.2524L117.883 18.1548L117.834 18.0571L117.785 17.9595L117.736 17.8619L117.687 17.7642L117.59 17.6666L117.492 17.5689L117.394 17.4713L117.297 17.3737L117.199 17.276L117.053 17.1784L117.15 17.1296L117.248 17.0808L117.443 16.9831L117.541 16.8855L117.639 16.8367L117.736 16.7878L117.785 16.6902L117.834 16.5926L117.883 16.4949L117.931 16.3973L118.029 16.202V16.1532V16.1044V16.0067L118.078 15.9091V15.7627V15.665V15.5674V15.4697L118.029 15.3721L117.98 15.2745L117.931 15.1768L117.883 15.0792L117.834 14.9816L117.785 14.8839L117.687 14.7863L117.639 14.6886L117.541 14.591L117.443 14.5422L117.346 14.4934L117.248 14.4446L117.15 14.3957L117.053 14.3469L116.955 14.2981L116.857 14.2493L116.76 14.2005L116.662 14.1516L116.565 14.1028H116.467L116.223 14.054L115.979 14.0052H115.735H115.442H115.295H115.1L114.954 14.054L114.758 14.1028L114.563 14.1516L114.368 14.2005L114.172 14.2493L113.977 14.2981L113.782 14.3957L113.587 14.4934L113.391 14.5422L113.196 14.6398L113.733 15.9579L113.928 15.8603L114.124 15.7627L114.319 15.7138L114.514 15.665L114.709 15.6162L114.905 15.5674L115.295 15.5186H115.393H115.491H115.588H115.686H115.783L115.832 15.5674L115.881 15.6162L115.93 15.665L115.979 15.7138L116.028 15.7627L116.076 15.8115L116.125 15.8603V15.9091V15.9579V16.0067V16.0556V16.1044V16.1532V16.202V16.2508L116.076 16.2997L116.028 16.3485L115.979 16.3973L115.93 16.4461L115.881 16.4949H115.832L115.783 16.5438H115.735H115.686H115.637H114.172L114.075 17.7154H115.393H115.491H115.588H115.686L115.735 17.7642H115.783L115.832 17.813L115.881 17.8619L115.979 17.9595L116.028 18.0083L116.076 18.0571V18.106V18.1548V18.2036V18.3012V18.35V18.4477L116.028 18.5453L115.979 18.643L115.93 18.7406L115.881 18.8382L115.832 18.8871L115.783 18.9359L115.686 18.9847L115.637 19.0335L115.442 19.2776L115.344 19.3264H115.246L115.149 19.3752H115.002H114.856H114.709H114.612H114.514H114.465L114.27 19.3264L114.172 19.2776L114.075 19.2288L113.977 19.18L113.88 19.1311L113.782 19.0823L113.684 19.0335L113.587 18.9847L113.489 18.9359L113.391 18.8382L113.294 18.7894L113.196 18.7406L113.098 18.643L113.001 18.5453L112.903 18.4477L112.806 18.35L112.708 18.2524L112.61 18.1548L112.513 18.0571L112.415 17.9595L111.439 19.2288L111.487 19.3264L111.585 19.4241L111.683 19.5217L111.78 19.6193L111.878 19.717L112.122 19.9611L112.269 20.0587L112.415 20.1563L112.561 20.254L112.708 20.3516L112.854 20.4492L113.001 20.5469L113.147 20.5957L113.294 20.6445L113.44 20.6933L113.587 20.7422L113.733 20.791L113.88 20.8398L114.026 20.8886L114.172 20.9374H114.319H114.465H114.612H114.709H114.807H114.905H115.002H115.149H115.295H115.442H115.588H115.735L115.881 20.8886L116.028 20.8398L116.174 20.791L116.272 20.7422L116.418 20.6933L116.516 20.6445L116.613 20.5957L116.711 20.5469L116.809 20.4981L116.906 20.4492L117.004 20.4004L117.102 20.3028L117.199 20.254L117.297 20.2052L117.346 20.1075L117.443 20.0099L117.492 19.9122L117.541 19.8146L117.59 19.717L117.639 19.6193L117.687 19.5217L117.736 19.4241L117.785 19.3264V19.18V19.1311V19.0335V18.8871V18.7406V18.5941V18.4477L117.931 18.4965ZM98.5019 15.0304H102.749L102.456 18.0571L102.407 18.106L102.359 18.1548L102.31 18.2036L102.261 18.2524L102.212 18.3012L102.066 18.3989L101.968 18.4477L101.87 18.4965L101.773 18.5453H101.675L101.577 18.5941H101.48H101.382H101.285H101.187H101.089H100.992H100.943L100.894 18.5453L100.845 18.4965L100.796 18.4477L100.748 18.3989L100.699 18.35L100.65 18.3012L100.601 18.2524L100.552 18.2036V18.106V18.0083V17.9107V17.813V17.7154L100.601 17.6178V17.5201L100.65 17.4225L100.699 17.3737L100.748 17.3249L100.796 17.276L100.845 17.2272L100.894 17.1784L100.943 17.1296L101.04 17.0808L101.138 17.0319L101.236 16.9831H101.333H101.431H101.529H101.626H101.724H101.822L101.919 17.0319L102.017 17.0808L102.114 17.1296L102.212 17.2272L102.31 17.3249L102.456 15.9091L102.407 15.8603L102.359 15.8115L102.31 15.7627L102.212 15.7138L102.163 15.665H102.114L102.017 15.6162L101.919 15.5674H101.822H101.724H101.626H101.529H101.333H101.089H100.992H100.845H100.748H100.65H100.552L100.455 15.6162L100.357 15.665L100.259 15.7138L100.162 15.7627L100.064 15.8115L99.82 15.8603L99.7224 15.9091L99.6247 15.9579L99.5271 16.0556L99.4295 16.1044L99.3318 16.202L99.2342 16.2997L99.1854 16.3973L99.0877 16.4949L99.0389 16.5926L98.9901 16.6902L98.9413 16.7878L98.8925 16.8855L98.8436 16.9831L98.7948 17.0808L98.746 17.1784L98.6972 17.276L98.6484 17.3737L98.5995 17.4713V17.6178V17.7642V17.9107V18.0571V18.3989V18.4965V18.5941L98.6484 18.6918V18.7894L98.6972 18.8871L98.7948 19.0823L98.8436 19.18L98.8925 19.2776L98.9413 19.3752L98.9901 19.4729L99.0389 19.5705L99.0877 19.6682L99.1365 19.717L99.2342 19.7658L99.3318 19.8146L99.4295 19.8634L99.5271 19.9122L99.6247 19.9611L99.7224 20.0099L99.82 20.0587L99.9176 20.1075L100.015 20.1563H100.113H100.211H100.308H100.406H100.503H100.748H100.992L101.236 20.1075L101.48 20.0587L101.724 20.0099L101.968 19.9611L102.212 19.8634L102.407 19.7658L102.31 20.8886H104.165L104.458 17.7642L104.507 17.6666L104.555 17.6178L104.604 17.5201L104.653 17.4713L104.702 17.4225L104.799 17.3737L104.848 17.3249L104.897 17.276L104.946 17.2272L105.044 17.1784L105.092 17.1296H105.141L105.239 17.0808H105.288H105.434H105.581H105.678H105.776H105.873H105.971L106.02 17.1296L106.069 17.1784L106.118 17.2272L106.166 17.276L106.215 17.3249L106.264 17.3737V17.4225L106.313 17.5689V17.6666V17.7642V17.8619V17.9595V18.0571V18.1548L106.264 18.2524L106.215 18.35L106.166 18.3989L106.118 18.4965L106.069 18.5453L106.02 18.5941L105.971 18.643L105.922 18.6918H105.825H105.727H105.629H105.532H105.434H105.336H105.288L105.19 18.643H105.092H104.995L104.897 18.5941L104.799 18.5453L104.653 20.254L104.702 20.3028L104.751 20.3516L104.799 20.4004H104.848H104.897H104.946H105.044H105.141H105.239H105.629H105.776H105.873H105.971H106.069L106.166 20.3516L106.264 20.3028L106.362 20.254L106.459 20.2052L106.557 20.1563L106.655 20.1075L106.752 20.0587L106.85 20.0099L106.947 19.9611L107.045 19.9122L107.143 19.8146L107.24 19.7658L107.338 19.6682L107.436 19.5705L107.533 19.4729L107.631 19.3752L107.729 19.2776L107.777 19.18L107.826 19.0823L107.875 18.9847L107.924 18.8871L107.973 18.7894L108.07 18.5453V18.4477L108.119 18.3012L108.168 18.0571V17.9107V17.7642V17.5201V17.3737V17.276V17.1784L108.119 17.0808L108.07 16.9831L108.021 16.8855L107.924 16.6902L107.875 16.5926L107.826 16.4949L107.777 16.3973L107.68 16.2997L107.582 16.202L107.484 16.1044L107.387 16.0067L107.289 15.9579L107.192 15.9091L107.094 15.8115L106.996 15.7627L106.899 15.7138L106.801 15.665L106.703 15.6162L106.606 15.5674L106.508 15.5186H106.362H106.215H106.069H105.873H105.776H105.678H105.581L105.385 15.5674L105.19 15.6162L104.995 15.665L104.799 15.7627L104.604 15.8603L104.409 15.9579L104.507 14.9327H109.584L109.681 13.9075H98.5995L98.5019 15.0304ZM98.6972 13.6146H98.5507L98.4531 13.5658L98.3555 13.517L98.2578 13.4682L98.1602 13.4194L98.0625 13.3705L97.9649 13.2729L97.8673 13.1753L97.8185 13.0776L97.7696 13.0288L97.7208 12.98L97.672 12.9312V12.8823V12.8335V12.7847V12.7359V12.6871V12.5406V12.3942V12.2477L97.7208 12.1013L97.7696 11.9548L97.8185 11.8572L97.8673 11.7595L97.9649 11.6619L98.0625 11.5642L98.1602 11.4666L98.2578 11.369L98.3555 11.3202L98.4531 11.2225L98.5995 11.1737L98.746 11.1249L98.8925 11.0761H99.0389H99.1854H99.3318H99.4783L99.5759 11.1249L99.6735 11.1737L99.7712 11.2225L99.8688 11.2713L99.9664 11.369L100.064 11.4666L100.162 11.5642L100.211 11.6619L100.259 11.7595L100.308 11.8572L100.357 11.9548V12.1013V12.1989V12.3453L100.308 12.4918L100.259 12.6383L100.211 12.7359L100.162 12.8335L100.113 12.9312L100.015 13.0288L99.9664 13.1264L99.8688 13.2241L99.7712 13.3217L99.6735 13.4194L99.5759 13.4682L99.4783 13.517L99.3806 13.5658L99.283 13.6146H99.1365H98.9901H98.6972ZM93.2784 18.3989L93.0831 18.4477H92.9855H92.8878H92.7902H92.7414H92.5949H92.4973H92.3997H92.302H92.2044L92.1068 18.3989L92.0091 18.35H91.9603L91.9115 18.3012L91.8627 18.2524L91.8138 18.2036L91.765 18.1548L91.7162 18.0571V17.9595V17.8619V17.7642V17.6666V17.5689V17.5201V17.4713V17.4225L91.765 17.3737L91.8138 17.3249L91.8627 17.276L91.9115 17.2272L91.9603 17.1784L92.0091 17.1296L92.0579 17.0808L92.5461 17.5201L93.4248 18.3012L93.2784 18.3989ZM97.9649 14.0052H97.4767L97.4279 13.9075L97.3303 13.7123L97.2326 13.517L97.135 13.3217L97.0374 13.1264L96.9397 12.9312L96.8421 12.7359L96.7445 12.5406L96.6468 12.3453L96.5492 12.1989L96.4027 12.0524L96.2563 11.8572L96.1098 11.7107L95.9634 11.5642L95.8169 11.4178L95.6705 11.2713L95.524 11.1249L95.4264 11.0272L95.2799 10.8808L95.1335 10.7831L94.987 10.6855L94.8406 10.5879L94.9382 10.4902L93.6201 11.5642L93.8154 11.6619L94.0107 11.7595L94.2059 11.906L94.3524 12.0524L94.4988 12.1989L94.6453 12.3453L94.7917 12.4918L94.9382 12.6383L95.0846 12.8335L95.2311 13.0288L95.3776 13.2241L95.524 13.4194L95.6705 13.6146L95.7681 13.8099L95.8657 14.0052H95.2311L95.1823 13.9564L95.0846 13.7611L94.9382 13.5658L94.7917 13.3705L94.6453 13.1753L94.45 12.98L94.2547 12.7847L94.0595 12.5894L93.8642 12.443L93.6689 12.2965L93.4737 12.1501L92.5949 13.3705H92.6926H92.7902H92.8878L92.9855 13.4194L93.0343 13.4682L93.1319 13.517L93.1807 13.5658L93.2296 13.6146L93.2784 13.6635L93.376 13.8099L93.4737 13.9564H89.8123L89.7147 14.9816H94.7429L94.4988 17.7642L94.4012 17.813L94.3524 17.8619L94.2547 17.9107H94.2059L94.1571 17.9595L94.1083 18.0083L92.7902 16.739H92.9367H93.0343H93.1319H93.2296H93.3272H93.4737L93.6201 16.7878L93.8154 16.8367L93.9618 16.8855L94.1083 16.9343H94.2059H94.2547L94.4012 15.7627L94.3524 15.7138L94.3036 15.665H94.2547L94.2059 15.6162L94.0595 15.5674L93.8642 15.5186L93.6201 15.4697H93.376H93.0831H92.7414H92.5949H92.5461H92.4485H92.302H92.1556L91.9115 15.5186L91.8138 15.5674L91.6674 15.6162L91.5698 15.665L91.4721 15.7138L91.3745 15.7627L91.2768 15.8115L91.1792 15.8603L91.0816 15.9091L90.9839 15.9579L90.8863 16.0067L90.7887 16.1044L90.691 16.202L90.5934 16.2997L90.4958 16.3973L90.3981 16.4949L90.3005 16.5926L90.2517 16.6902L90.2029 16.7878L90.154 16.8855L90.1052 16.9831L90.0564 17.1296L90.0076 17.2272L89.9588 17.3737L89.9099 17.5201V17.6666V17.813V17.9595V18.106V18.2524V18.35V18.4477L89.9588 18.5453L90.0076 18.643L90.0564 18.7406L90.1052 18.8382L90.154 18.9359L90.2029 19.0335L90.2517 19.1311L90.3493 19.2288L90.4469 19.3264L90.5446 19.4241L90.6422 19.5217L90.7398 19.5705L90.8375 19.6193L90.9351 19.6682L91.0328 19.717L91.1304 19.7658L91.228 19.8146L91.3257 19.8634H91.4233L91.5209 19.9122L91.6186 19.9611H91.7162H91.8138H91.9115H92.0091H92.2532H92.5949H92.7414H92.8878H93.0343H93.1807L93.3272 19.9122H93.4737L93.6201 19.8634L93.7666 19.8146L93.913 19.7658L94.0595 19.717L94.2059 19.6682L94.3524 19.6193L94.45 19.5705L94.5477 19.5217L94.4012 20.8886H96.2563L96.7933 15.128H98.0137L98.1114 14.3957L97.9649 14.0052ZM64.0364 14.0052H87.9572L87.8596 15.0304H86.1021L85.9557 16.2508L86.0533 16.3485L86.1021 16.4461L86.2486 16.6414L86.2974 16.739L86.3462 16.8367L86.395 16.9831L86.4439 17.0808L86.4927 17.2272V17.3737V17.5201V17.6666V17.813V17.9595V18.106V18.3012V18.4477L86.4439 18.5941L86.395 18.7406L86.3462 18.8871L86.2974 19.0335L86.2486 19.18L86.1998 19.3264L86.151 19.4729L86.1021 19.5705L86.0045 19.717L85.9557 19.8146L85.858 19.9122L85.7604 20.0099L85.6628 20.1075V20.254L85.5651 20.3516L85.4675 20.4492L85.3699 20.5469L85.2722 20.6445L85.1746 20.7422L85.077 20.8398L84.9793 20.8886L84.8817 20.9374L84.7841 20.9863L84.6864 21.0351L84.5888 21.0839L84.4911 21.1327H84.3935H84.2959H84.1494H83.9053H83.6124H83.3195H83.0754L82.8802 21.0839H82.7825H82.6849L82.6361 21.0351H82.5872L82.5384 20.9863H82.4896L82.4408 20.9374L82.392 20.8886L82.5384 19.4729L82.5872 19.5217L82.6361 19.5705L82.7825 19.6193L82.929 19.6682L83.1242 19.717H83.2707H83.4171H83.5636H83.6612H83.7589L83.8565 19.6682L83.9541 19.6193L84.1494 19.4729L84.2471 19.4241L84.2959 19.3264L84.3447 19.2288L84.3935 19.1311L84.4423 19.0335L84.4911 18.8871L84.54 18.7406L84.5888 18.5941L84.6376 18.4477V18.3012V18.1548V18.0083V17.8619V17.7154V17.6178L84.5888 17.5201V17.4225L84.54 17.3249L84.4911 17.276L84.4423 17.2272L84.3935 17.1784V17.1296L84.3447 17.0808L84.2959 17.0319L84.2471 16.9831H84.1982H84.1494H84.1006H84.0518H84.003H83.9053H83.8077H83.7101H83.6124L83.5148 17.0319L83.4171 17.0808L83.3195 17.1296L83.2219 17.1784L83.1242 17.276L83.0266 17.3737L82.9778 17.5201L82.929 17.6178L82.8802 17.7154L82.8313 17.813L82.7825 18.4477H81.0251L81.1227 17.7154V17.6178V17.5201V17.4713L81.0739 17.4225L81.0251 17.3737L80.9762 17.3249L80.8786 17.276L80.8298 17.2272L80.7322 17.1784H80.6345H80.5369H80.4393H80.2928H80.1952H80.1463L80.0975 17.2272H80.0487H79.9999L79.9511 17.276L79.9023 17.3249L79.8534 17.3737L79.8046 17.4225L79.7558 17.4713L79.707 17.5201L79.6582 17.5689L79.6094 17.6178L79.5605 17.7154L79.5117 17.813L79.4629 17.9107L79.4141 18.0083L79.3653 18.1548L79.3164 18.3012L79.2676 18.4477V18.5941V18.7406V18.8871V19.0335V19.18L79.3164 19.3264L79.3653 19.4241L79.4141 19.4729L79.4629 19.5217L79.5117 19.5705L79.5605 19.6193L79.6094 19.717L79.707 19.7658L79.8046 19.8146L79.9023 19.8634H79.9999L80.0975 19.9122H80.1952H80.2928H80.3904L80.4881 19.8634L80.5857 19.8146L80.6833 19.7658L80.8298 19.717L80.9762 19.6682L81.1227 19.6193L81.2692 19.5217L81.1227 21.0839L81.0739 21.1327L81.0251 21.1815L80.9762 21.2304H80.9274L80.781 21.2792L80.6345 21.328L80.4393 21.3768H80.244H79.9999H79.707H79.4629H79.3653L79.2676 21.328L79.17 21.2792L79.0724 21.2304L78.9747 21.1815L78.7794 21.0839L78.6818 21.0351L78.5842 20.9863L78.4865 20.9374L78.3889 20.8398L78.2913 20.7422L78.1936 20.6445L78.0472 20.4492L77.9495 20.3516L77.9007 20.254L77.8519 20.1563L77.8031 20.0099L77.7543 19.9122L77.7054 19.7658L77.6566 19.6193L77.6078 19.4729L77.3637 19.2776V19.1311V18.9847V18.8382V18.6918V18.5453V18.3989V18.2524V18.106L77.4125 17.9595L77.4614 17.813L77.5102 17.6666L77.559 17.5201L77.6078 17.3737L77.6566 17.2272L77.8031 16.9831L77.9007 16.8367L77.9984 16.739L78.096 16.6414L78.1936 16.5438L78.2913 16.4461L78.3889 16.3485L78.4865 16.2508L78.5842 16.1532L78.6818 16.1044L78.7794 16.0556L78.8771 16.0067L78.9747 15.9579L79.0724 15.9091L79.17 15.8603L79.2676 15.8115L79.3653 15.7627L79.4629 15.7138L79.6094 15.665H79.707H79.8534H79.9999H80.1463H80.2928H80.4393H80.5857H80.7322L80.8786 15.7138L81.0251 15.7627L81.1715 15.8115L81.318 15.8603L81.4156 15.9091L81.5133 15.9579L81.6109 16.0556L81.7085 16.1532L81.8062 16.2508L81.9038 16.3485L82.0014 16.4461L82.0991 16.5926L82.1967 16.4461L82.3432 16.2997L82.4896 16.1044L82.6849 15.9091L82.8313 15.8115L82.9778 15.7627L83.1242 15.7138L83.2219 15.665L83.3195 15.6162L83.4171 15.5674H83.5148H83.6124H83.7589H83.9053H84.0518H84.1982L84.2471 14.8839H76.1433L75.948 16.7878H73.6047L73.4583 16.8367L73.3118 16.8855L73.1654 16.9343L73.0189 16.9831L72.9213 17.0319L72.8236 17.0808L72.726 17.1296L72.6284 17.2272L72.5796 17.3249L72.4819 17.4225L72.4331 17.5201L72.3843 17.6178L72.3355 17.7154L72.2867 17.8619V17.9595V18.106V18.3012V18.35V18.3989V18.4477L72.3355 18.4965V18.5453L72.3843 18.5941L72.4331 18.643L72.4819 18.6918L72.5307 18.7406L72.5796 18.7894L72.6284 18.8382L72.6772 18.8871L72.726 18.9359L72.8236 18.9847L72.9213 19.0335L73.0189 19.0823L73.1166 19.1311L73.263 19.18H73.4095H73.5559H73.7024H73.8H73.8976H74.0441H74.1417L74.2394 19.1311H74.337L74.4346 19.0823L74.5323 19.0335L74.6299 18.9847L74.7276 18.9359L74.8252 18.8871L74.9716 18.8382L75.0693 18.7894L75.1669 18.7406L75.2645 18.6918L75.3622 18.643L75.5086 18.5453L75.6551 18.4477L75.7527 18.35L75.8504 18.2524L75.948 18.1548L75.9968 18.106L76.0456 18.0571L76.0944 18.0083L76.5338 19.717L76.2897 19.8634L76.0456 20.0099L75.8015 20.1563L75.5575 20.3028L75.3134 20.4004L75.0693 20.4981L74.8252 20.5957L74.5323 20.6933L74.2882 20.7422H74.1906L76.1433 23.0855L74.8252 24.1595L73.2142 22.0115L71.3591 23.7689L70.1875 22.6461L72.4819 20.6933H72.3843L72.0914 20.5957L71.9449 20.5469L71.7985 20.4981L71.652 20.4492L71.5056 20.3516L71.4079 20.3028L71.3103 20.2052L71.2127 20.1075L71.115 20.0099L71.0174 19.9122L70.9197 19.8146L70.8221 19.717L70.7245 19.5705L70.6268 19.4241L70.578 19.2776L70.5292 19.1311L70.4804 18.9847L70.4316 18.8382L70.3827 18.6918L70.3339 18.5453V18.3989V18.2524V18.106V17.9107V17.7154L70.3827 17.5201L70.4316 17.3737L70.4804 17.2272L70.5292 17.0808L70.578 16.9343L70.6268 16.7878L70.7245 16.6414L70.8221 16.4949L70.9197 16.3485L71.0174 16.202L71.1638 16.1044L71.3103 16.0067L71.4567 15.9091L71.6032 15.8115L71.7497 15.7138L71.9449 15.6162L72.1402 15.5186L72.3355 15.4209L72.5307 15.3721L72.726 15.3233L72.9213 15.2745H73.0189H73.1166H73.2142H73.3118H74.1906L74.2394 14.7375H63.353L62.816 20.4981H60.9609L61.1562 18.2036H59.3499L59.4475 16.8367H61.2538L61.4491 14.6886H59.3499L59.3987 14.7375L59.4475 14.8351L59.4963 14.8839L59.5452 14.9327L59.594 14.9816L59.6428 15.0792V15.128V15.2256V15.3233V15.4209V15.5186V15.6162V15.7138V15.8115V15.9091V16.0067V16.1532V16.2997V16.4461V16.5926L59.594 16.739L59.5452 16.8855L59.4963 16.9831L59.4475 17.0808L59.3987 17.1784L59.3499 17.276L59.3011 17.3737L59.2522 17.4713L59.2034 17.5689L59.1058 17.6666L59.0082 17.7642L58.9105 17.8619L58.8129 17.9107L58.7153 17.9595L58.6176 18.0083L58.52 18.0571L58.4223 18.106L58.3247 18.1548L58.2271 18.2036L58.1294 18.2524L58.0318 18.3012H57.9342L57.8365 18.35H57.7389H57.5924H57.3483H57.2019V18.4477V18.5453V18.643L57.2507 18.7406L57.2995 18.8382L57.3483 18.9359L57.3972 19.0335L57.446 19.1311L57.4948 19.18L57.5924 19.2288L57.6901 19.2776L57.7877 19.3264L57.8853 19.3752H58.0318H58.1783H58.3247H58.5688H58.8129L59.057 19.3264L59.3499 19.2776L59.5452 19.2288H59.6916L59.7892 19.18H59.8381L59.6916 20.5957H59.6428L59.4963 20.6445L59.2522 20.6933L59.1058 20.7422H58.9593H58.8129H58.6664H58.52H58.3735H58.2271H58.0806H57.8365H57.5924L57.3483 20.6933L57.1531 20.6445L56.9578 20.5957L56.7625 20.5469L56.5673 20.4981L56.4208 20.4492L56.3232 20.4004L56.2744 20.3516L56.2255 20.3028L56.1767 20.254L56.1279 20.2052L56.0791 20.1563L56.0303 20.1075L55.9814 20.0587L55.8838 19.9611L55.835 19.9122L55.7862 19.8634L55.7374 19.8146L55.6885 19.7658L55.6397 19.717V19.6193L55.5909 19.4241L55.5421 19.2288L55.4933 19.0335V18.8382V18.5941V18.3989V18.1548L55.5421 17.9595H54.9074L55.0051 16.739H56.4696H56.5673H56.6649H56.7625H56.8602H57.1043H57.2019L57.2995 16.6902L57.3972 16.6414L57.4948 16.5926L57.5924 16.5438L57.6413 16.4949L57.6901 16.4461L57.7389 16.3973L57.7877 16.2997L57.8365 16.202L57.8853 16.1044L57.9342 16.0067V15.9091V15.7627V15.665V15.5674V15.4697L57.8853 15.3721V15.3233L57.8365 15.2745V15.2256V15.1768L57.7389 15.128L57.6901 15.0792L57.6413 15.0304L57.5436 14.9816L57.446 14.9327H57.3972H57.3483H57.2995H54.8098L54.9074 13.9075H62.2301L62.1813 13.8099L62.0837 13.6635L61.9861 13.517L61.8884 13.3705L61.7908 13.2241L61.6931 13.0776L61.5955 12.9312L61.4491 12.7847L61.3026 12.6871L61.0097 12.443L60.8632 12.3453L60.7168 12.2477L60.5703 12.1501L60.4239 12.0524L60.2286 11.9548L61.4491 10.8808L61.5467 10.9296L61.6443 10.9784L61.7908 11.0272L61.8884 11.0761L61.9861 11.1737L62.0837 11.2713L62.2301 11.369L62.3278 11.4666L62.4742 11.5642L62.6207 11.7107L62.7671 11.8572L62.9136 12.0036L63.0112 12.1501L63.1577 12.2965L63.2553 12.443L63.4018 12.5894L63.5971 12.9312L63.6947 13.1264L63.7923 13.3217L63.89 13.517L63.9876 13.7123L64.0852 13.9075L64.0364 14.0052ZM69.4552 17.276V17.1784L69.4064 17.0808L69.3576 17.0319L69.3088 16.9831L69.2599 16.9343L69.2111 16.8855L69.1623 16.8367L69.1135 16.7878H67.5513L67.6001 16.8367L67.6489 16.8855L67.6978 16.9343L67.7466 16.9831L67.7954 17.0319V17.0808L67.8442 17.1296V17.1784V17.276V17.3249V17.4225V17.5201V17.7154V17.9107V17.9595V18.0083V18.0571V18.106L67.7954 18.1548L67.7466 18.2036L67.6978 18.2524L67.6489 18.3012H67.6001H67.5513H67.5025H67.4537H67.3072H67.2096H67.1608H67.1119H67.0631L67.0143 18.2524H66.9655L66.9167 18.2036L66.8679 18.1548L66.819 18.106L66.7702 18.0571L66.7214 18.0083L66.6726 17.9595V17.9107L66.6238 17.8619V17.813V17.7642V17.5689V17.4713V17.3737L66.6726 17.276L66.7214 17.1784L66.7702 17.0808L66.819 16.9831L66.8679 16.9343L66.9167 16.8855L66.9655 16.8367L67.0631 16.7878L67.1608 16.739L67.2584 16.6902H67.356H67.4537H70.9686L71.0662 15.6162H67.1119H66.9655H66.819H66.6726H66.5261L66.3797 15.665L66.2332 15.7138L66.0868 15.7627L65.9403 15.8115L65.7939 15.8603L65.6474 15.9579L65.5009 16.0067L65.4033 16.1044L65.3057 16.202L65.208 16.2997L65.1104 16.3973L65.0128 16.4949L64.9151 16.6414L64.8663 16.7878L64.8175 16.9343L64.7687 17.0808L64.7199 17.2272L64.671 17.3737L64.6222 17.5201L64.5734 17.6666V17.7642V17.8619V17.9595V18.0571V18.1548V18.2524L64.6222 18.35L64.671 18.4477L64.7199 18.5453L64.7687 18.643L64.8175 18.7406L64.8663 18.8382L64.9151 18.9359L64.964 19.0335L65.0128 19.1311L65.1104 19.2288L65.208 19.3264L65.3057 19.3752L65.4033 19.4729L65.5009 19.5217L65.5986 19.5705L65.6962 19.6193L65.7939 19.6682L65.8915 19.717L65.9891 19.7658L66.0868 19.8146L66.1844 19.8634H66.282H66.4285H66.5749H66.7214H66.8679H67.0143H67.1608H67.2584L67.356 19.8146H67.4537L67.5513 19.7658H67.6489L67.7466 19.717L67.8442 19.6682L67.9418 19.6193L68.0395 19.5705L68.1371 19.5217L68.2348 19.4729L68.3324 19.4241L68.43 19.3752L68.5277 19.3264L68.6253 19.2288L68.7229 19.1311L68.7718 19.0335L68.8694 18.9359L68.9182 18.8382L68.967 18.7406L69.0158 18.643L69.0647 18.5453L69.1135 18.4477L69.1623 18.35L69.2111 18.2524L69.2599 18.1548L69.3088 18.0571V17.9595V17.8619V17.7642V17.6178V17.4225V17.276H69.4552Z" fill="white"/>
<path d="M41.873 5.1709H5.16187V42.1267H41.873V5.1709Z" fill="white"/>
<path d="M35.6725 23.4288L28.3986 16.3013H26.6411H23.7609V15.4714H26.6411H28.3986L36.1606 23.38L35.6725 23.4288ZM33.2804 23.4777L28.3986 18.7422H26.6411H23.7609V17.9123L26.6411 17.8635H28.3986L33.8174 23.4288L33.2804 23.4777ZM26.6411 33.9737L23.9561 36.6587L23.8585 36.0729L26.6411 33.2414L30.9371 28.7989V24.1123H31.767L31.8158 28.8477L26.6411 33.9737ZM26.6411 30.7516L28.545 28.7501V24.0635H29.3749L29.4238 28.7989L26.6411 31.5327L23.9073 34.2178L23.8097 33.6808L26.6411 30.7516ZM20.6365 25.2351L19.0743 23.6241L20.6365 22.1107L23.8097 18.9863L26.69 22.0131L28.3498 23.7706L26.69 25.4304L23.6632 28.4083L20.6365 25.2351ZM20.6365 32.1674H18.8303L11.0682 24.2588L11.6052 24.1611L18.8791 31.2886H20.6365H23.5168V32.1186L20.6365 32.1674ZM13.9973 24.1611L18.8791 28.8965H20.6365H23.5168V29.7264L20.6365 29.7753H18.8303L13.4115 24.2099L13.9973 24.1611ZM23.4192 13.958L20.6365 16.8871L18.7326 18.8887V23.5753H17.9027L17.8539 18.8887L20.6365 16.106L23.3703 13.421L23.4192 13.958ZM20.6365 13.6651L23.3215 11.0289L23.4192 11.5659L20.6853 14.3974L16.3894 18.8399V23.5265H15.5595L15.5106 18.8399L20.6365 13.6651ZM28.5939 14.0068V8.88086H23.4192L20.6365 11.8588L14.0461 18.7911H9.11548V23.8194L18.635 33.7296V38.6115H23.468L26.5923 35.4382L33.0363 28.8965H37.8205V23.38L28.5939 14.0068Z" fill="#CE0F3E"/>
</svg>
