<svg width="90" height="90" viewBox="0 0 90 90" fill="none" xmlns="http://www.w3.org/2000/svg">
<g filter="url(#filter0_d_19558_1873)">
<circle cx="44.8236" cy="35.2655" r="33.8593" fill="white"/>
<circle cx="44.8236" cy="35.2655" r="33.3756" stroke="url(#paint0_linear_19558_1873)" stroke-opacity="0.1" stroke-width="0.967407"/>
</g>
<g clip-path="url(#clip0_19558_1873)">
<path d="M59.0791 34.7292L57.6582 30.4466C57.2894 29.3335 56.2676 28.614 55.0559 28.614H51.2516L51.3906 27.4803C51.4523 26.9905 51.3072 26.5056 50.9934 26.1495C50.6802 25.7946 50.2201 25.5908 49.7297 25.5908H35.0753C34.1079 25.5908 33.23 26.3726 33.1181 27.3279L33.0407 27.9326C32.999 28.2639 33.2324 28.5668 33.5637 28.6091C33.8993 28.6575 34.1986 28.4175 34.2403 28.0861L34.3183 27.4748C34.36 27.1151 34.7137 26.8001 35.0753 26.8001H49.7297C49.8748 26.8001 50.0012 26.8533 50.0864 26.9494C50.1729 27.0474 50.2098 27.1816 50.191 27.3315L48.775 38.8933H32.9022C32.9022 38.5934 32.6876 38.331 32.3823 38.2935C32.0503 38.2512 31.7486 38.4876 31.7081 38.8189L31.4826 40.637C31.4245 41.1286 31.5727 41.6141 31.8889 41.969C32.2051 42.3252 32.6513 42.5211 33.1441 42.5211H34.3147C34.3237 43.1215 34.5221 43.6813 34.9126 44.1215C35.3788 44.6488 36.0427 44.9396 36.7803 44.9396C38.1637 44.9396 39.4214 43.8724 39.7043 42.5211H50.1808C50.1898 43.1215 50.3881 43.6807 50.7775 44.1209C51.2443 44.6488 51.9082 44.9396 52.6464 44.9396C54.0292 44.9396 55.2868 43.8724 55.5704 42.5211H56.8722C57.8505 42.5211 58.7103 41.7562 58.8294 40.7809L59.2937 36.9941C59.3899 36.2099 59.3179 35.4481 59.0797 34.7298L59.0791 34.7292ZM57.7822 34.6603H54.1387L54.4259 32.3155C54.4301 32.2847 54.4797 32.2417 54.5045 32.2417H56.9798L57.7822 34.6603ZM51.104 29.8232H55.0565C55.7488 29.8232 56.305 30.2078 56.5106 30.8275L56.5789 31.0325H54.5045C53.8654 31.0325 53.3043 31.5313 53.2263 32.168L52.93 34.5865C52.8895 34.9178 52.9893 35.2468 53.2039 35.4892C53.4179 35.7305 53.7293 35.8689 54.0601 35.8689H58.0954C58.1322 36.187 58.1347 36.5129 58.0935 36.846L57.8426 38.8921H49.9927L51.1034 29.8226L51.104 29.8232ZM50.4389 41.3112H49.6964L49.8446 40.1019H51.4251C51.0018 40.4157 50.659 40.8311 50.4389 41.3112ZM48.4787 41.3112H39.688C39.5925 40.9442 39.422 40.6038 39.1674 40.316C39.0961 40.2356 39.0126 40.1715 38.9328 40.1019H48.6275L48.4787 41.3112ZM34.5674 41.3112H33.1435C32.9984 41.3112 32.8769 41.2604 32.7916 41.1649C32.7033 41.0663 32.6652 40.9285 32.6822 40.7809L32.7662 40.1019H35.5384C35.1188 40.4139 34.782 40.8281 34.5668 41.3112H34.5674ZM38.5555 42.1444C38.4503 43.0042 37.6371 43.7297 36.7797 43.7297C36.3928 43.7297 36.0518 43.584 35.8172 43.3192C35.5789 43.0507 35.4749 42.6855 35.5227 42.2919C35.6285 41.4321 36.4418 40.7066 37.2991 40.7066C37.6861 40.7066 38.0277 40.8523 38.2617 41.1171C38.4999 41.3856 38.6039 41.7508 38.5555 42.1444ZM54.4216 42.1444C54.3158 43.0042 53.5026 43.7297 52.6458 43.7297C52.2589 43.7297 51.9172 43.584 51.6827 43.3192C51.4444 43.0507 51.3404 42.6855 51.3888 42.2919C51.4946 41.4321 52.3078 40.7066 53.1646 40.7066C53.5516 40.7066 53.8932 40.8523 54.1278 41.1171C54.366 41.3856 54.47 41.7508 54.4216 42.1444ZM56.8722 41.3112H55.5541C55.4586 40.9442 55.2881 40.6038 55.0335 40.316C54.9622 40.2356 54.8787 40.1715 54.7989 40.1019H57.6951L57.6298 40.6328C57.5856 40.9944 57.2313 41.3112 56.8722 41.3112Z" fill="#4E2FFF"/>
<path d="M35.7718 36.4747C35.7718 36.1404 35.5015 35.8701 35.1672 35.8701H30.9166C30.5823 35.8701 30.312 36.1404 30.312 36.4747C30.312 36.8091 30.5823 37.0794 30.9166 37.0794H35.1672C35.5015 37.0794 35.7718 36.8091 35.7718 36.4747Z" fill="#4E2FFF"/>
<path d="M32.7836 32.8467C32.4492 32.8467 32.179 33.1176 32.179 33.4513C32.179 33.7851 32.4492 34.0559 32.7836 34.0559H35.5413C35.8757 34.0559 36.1459 33.7851 36.1459 33.4513C36.1459 33.1176 35.8757 32.8467 35.5413 32.8467H32.7836Z" fill="#4E2FFF"/>
<path d="M31.6271 31.0325H36.5125C36.8469 31.0325 37.1171 30.7616 37.1171 30.4279C37.1171 30.0941 36.8469 29.8232 36.5125 29.8232H31.6271C31.2927 29.8232 31.0225 30.0941 31.0225 30.4279C31.0225 30.7616 31.2927 31.0325 31.6271 31.0325Z" fill="#4E2FFF"/>
</g>
<defs>
<filter id="filter0_d_19558_1873" x="0.322875" y="0.438842" width="89.0015" height="89.0017" filterUnits="userSpaceOnUse" color-interpolation-filters="sRGB">
<feFlood flood-opacity="0" result="BackgroundImageFix"/>
<feColorMatrix in="SourceAlpha" type="matrix" values="0 0 0 0 0 0 0 0 0 0 0 0 0 0 0 0 0 0 127 0" result="hardAlpha"/>
<feMorphology radius="4.83704" operator="erode" in="SourceAlpha" result="effect1_dropShadow_19558_1873"/>
<feOffset dy="9.67407"/>
<feGaussianBlur stdDeviation="7.73926"/>
<feComposite in2="hardAlpha" operator="out"/>
<feColorMatrix type="matrix" values="0 0 0 0 0.360688 0 0 0 0 0.396767 0 0 0 0 0.468925 0 0 0 0.16 0"/>
<feBlend mode="normal" in2="BackgroundImageFix" result="effect1_dropShadow_19558_1873"/>
<feBlend mode="normal" in="SourceGraphic" in2="effect1_dropShadow_19558_1873" result="shape"/>
</filter>
<linearGradient id="paint0_linear_19558_1873" x1="44.8236" y1="1.40625" x2="44.8236" y2="69.1248" gradientUnits="userSpaceOnUse">
<stop stop-color="#02001A" stop-opacity="0.4"/>
<stop offset="1" stop-color="#02001A"/>
</linearGradient>
<clipPath id="clip0_19558_1873">
<rect width="29.0222" height="29.0222" fill="white" transform="translate(30.312 20.7549)"/>
</clipPath>
</defs>
</svg>
