<svg width="16" height="16" viewBox="0 0 16 16" fill="none" xmlns="http://www.w3.org/2000/svg">
<mask id="mask0_19563_1620" style="mask-type:luminance" maskUnits="userSpaceOnUse" x="0" y="0" width="16" height="17">
<path d="M0 0.00195408H16V16.002H0V0.00195408Z" fill="white"/>
</mask>
<g mask="url(#mask0_19563_1620)">
<path d="M5.09375 9.4082C5.09375 9.02852 4.78594 8.7207 4.40625 8.7207C4.02656 8.7207 3.71875 9.02852 3.71875 9.4082C3.71875 9.78789 4.02656 10.0957 4.40625 10.0957C4.78594 10.0957 5.09375 9.78789 5.09375 9.4082Z" fill="#0006B1"/>
<path d="M7.59375 9.4082C7.59375 9.02852 7.28594 8.7207 6.90625 8.7207C6.52656 8.7207 6.21875 9.02852 6.21875 9.4082C6.21875 9.78789 6.52656 10.0957 6.90625 10.0957C7.28594 10.0957 7.59375 9.78789 7.59375 9.4082Z" fill="#0006B1"/>
<path d="M10.0937 9.4082C10.0937 9.02852 9.78594 8.7207 9.40625 8.7207C9.02656 8.7207 8.71875 9.02852 8.71875 9.4082C8.71875 9.78789 9.02656 10.0957 9.40625 10.0957C9.78594 10.0957 10.0937 9.78789 10.0937 9.4082Z" fill="#0006B1"/>
<path d="M7.45312 4.7832H2.6875C1.37584 4.7832 0.3125 5.84652 0.3125 7.1582V11.5332C0.3125 12.8449 1.37584 13.9082 2.6875 13.9082H7.1875V15.6582L8.9375 13.9082H11.125C12.4367 13.9082 13.5 12.8449 13.5 11.5332V8.70508" stroke="#0006B1" stroke-width="0.625" stroke-miterlimit="10" stroke-linecap="round" stroke-linejoin="round"/>
<path d="M7.4375 1.45902V4.02964C7.4375 6.62683 9.11819 8.92877 11.5625 9.73633C14.0068 8.92877 15.6875 6.62683 15.6875 4.02964V1.45902C14.2555 1.32464 12.8549 0.946734 11.5625 0.344359C10.2701 0.946734 8.86953 1.32464 7.4375 1.45902Z" stroke="#0006B1" stroke-width="0.625" stroke-miterlimit="10" stroke-linecap="round" stroke-linejoin="round"/>
<path d="M12.5993 3.83984V3.49388C12.5993 2.92063 12.1346 2.45591 11.5614 2.45591C10.9882 2.45591 10.5234 2.92063 10.5234 3.49388V3.83984" stroke="#0006B1" stroke-width="0.625" stroke-miterlimit="10" stroke-linecap="round" stroke-linejoin="round"/>
<path d="M11.9102 5.62233V6.24295H11.2227V5.62233C11.1267 5.5312 11.0665 5.4027 11.0665 5.25986C11.0665 4.9837 11.2903 4.75986 11.5665 4.75986C11.8426 4.75986 12.0665 4.9837 12.0665 5.25986C12.0665 5.4027 12.0062 5.5312 11.9102 5.62233ZM12.9464 3.8407H10.1786C9.87284 3.8407 9.625 4.08855 9.625 4.39427V6.60855C9.625 6.9143 9.87284 7.16211 10.1786 7.16211H12.9464C13.2522 7.16211 13.5 6.9143 13.5 6.60855V4.39427C13.5 4.08855 13.2522 3.8407 12.9464 3.8407Z" fill="#0006B1"/>
</g>
</svg>
