<svg width="32" height="32" viewBox="0 0 32 32" fill="none" xmlns="http://www.w3.org/2000/svg">
<path d="M14.6755 19.5H7C6.7235 19.5 6.5 19.276 6.5 19C6.5 18.724 6.7235 18.5 7 18.5H14.6755C14.952 18.5 15.1755 18.724 15.1755 19C15.1755 19.276 14.9515 19.5 14.6755 19.5Z" fill="#003FDB"/>
<path d="M14.6755 13.5H7C6.7235 13.5 6.5 13.276 6.5 13C6.5 12.724 6.7235 12.5 7 12.5H14.6755C14.952 12.5 15.1755 12.724 15.1755 13C15.1755 13.276 14.9515 13.5 14.6755 13.5Z" fill="#003FDB"/>
<path d="M14 16.5H4C3.7235 16.5 3.5 16.276 3.5 16C3.5 15.724 3.7235 15.5 4 15.5H14C14.2765 15.5 14.5 15.724 14.5 16C14.5 16.276 14.2765 16.5 14 16.5Z" fill="#003FDB"/>
<path d="M19 17.9508C18.0065 17.9508 17 17.2808 17 15.9998C17 14.7188 18.0065 14.0488 19 14.0488C19.9935 14.0488 21 14.7188 21 15.9998C21 17.2808 19.9935 17.9508 19 17.9508ZM19 15.0488C18.5385 15.0488 18 15.2978 18 15.9998C18 16.7018 18.5385 16.9508 19 16.9508C19.4615 16.9508 20 16.7018 20 15.9998C20 15.2978 19.4615 15.0488 19 15.0488Z" fill="#003FDB"/>
<path d="M20.0607 15.44C19.9327 15.44 19.8047 15.391 19.7072 15.2935C19.5117 15.098 19.5117 14.782 19.7072 14.5865L22.5357 11.758C22.7312 11.5625 23.0472 11.5625 23.2427 11.758C23.4382 11.9535 23.4382 12.2695 23.2427 12.465L20.4142 15.2935C20.3167 15.391 20.1887 15.44 20.0607 15.44Z" fill="#003FDB"/>
<path d="M17.2325 18.2682C17.1045 18.2682 16.9765 18.2192 16.879 18.1217C16.6835 17.9267 16.6835 17.6102 16.879 17.4147L17.586 16.7072C17.7815 16.5117 18.0975 16.5117 18.293 16.7072C18.4885 16.9022 18.4885 17.2187 18.293 17.4142L17.586 18.1217C17.4885 18.2192 17.3605 18.2682 17.2325 18.2682Z" fill="#003FDB"/>
<path d="M19 25.5C18.7235 25.5 18.5 25.276 18.5 25V23.5C18.5 23.224 18.7235 23 19 23C19.2765 23 19.5 23.224 19.5 23.5V25C19.5 25.276 19.2765 25.5 19 25.5Z" fill="#003FDB"/>
<path d="M25.364 22.8639C25.236 22.8639 25.108 22.8149 25.0105 22.7174L23.95 21.6564C23.7545 21.4609 23.7545 21.1444 23.95 20.9494C24.1455 20.7539 24.4615 20.7539 24.657 20.9494L25.7175 22.0104C25.913 22.2059 25.913 22.5224 25.7175 22.7174C25.6195 22.8149 25.4915 22.8639 25.364 22.8639Z" fill="#003FDB"/>
<path d="M24.3029 11.1978C24.1749 11.1978 24.0469 11.1488 23.9494 11.0513C23.7539 10.8563 23.7539 10.5398 23.9494 10.3443L25.0099 9.28334C25.2054 9.08784 25.5214 9.08784 25.7169 9.28334C25.9124 9.47834 25.9124 9.79484 25.7169 9.99034L24.6564 11.0513C24.5589 11.1488 24.4309 11.1978 24.3029 11.1978Z" fill="#003FDB"/>
<path d="M19 9C18.7235 9 18.5 8.776 18.5 8.5V7C18.5 6.724 18.7235 6.5 19 6.5C19.2765 6.5 19.5 6.724 19.5 7V8.5C19.5 8.776 19.2765 9 19 9Z" fill="#003FDB"/>
<path d="M28 16.5H26.5C26.2235 16.5 26 16.276 26 16C26 15.724 26.2235 15.5 26.5 15.5H28C28.2765 15.5 28.5 15.724 28.5 16C28.5 16.276 28.2765 16.5 28 16.5Z" fill="#003FDB"/>
<path d="M15.3945 10.5H10C9.7235 10.5 9.5 10.276 9.5 10C9.5 9.724 9.7235 9.5 10 9.5H15.3945C15.671 9.5 15.8945 9.724 15.8945 10C15.8945 10.276 15.671 10.5 15.3945 10.5Z" fill="#003FDB"/>
<path d="M15.3945 22.5H10C9.7235 22.5 9.5 22.276 9.5 22C9.5 21.724 9.7235 21.5 10 21.5H15.3945C15.671 21.5 15.8945 21.724 15.8945 22C15.8945 22.276 15.671 22.5 15.3945 22.5Z" fill="#003FDB"/>
<path d="M18.9692 25.4898C17.5037 25.4898 16.0232 25.1523 14.6482 24.4438C14.4027 24.3173 14.3062 24.0158 14.4327 23.7703C14.5592 23.5248 14.8612 23.4283 15.1062 23.5548C19.0282 25.5758 23.9137 24.2218 26.2287 20.4723C28.5502 16.7118 27.5787 11.7323 24.0172 9.13583C21.4377 7.25583 17.9397 6.98383 15.1062 8.44333C14.8612 8.56983 14.5592 8.47383 14.4327 8.22783C14.3062 7.98233 14.4022 7.68083 14.6482 7.55433C17.8147 5.92233 21.7227 6.22583 24.6062 8.32733C28.5872 11.2293 29.6737 16.7948 27.0792 20.9973C25.3037 23.8743 22.1742 25.4898 18.9692 25.4898Z" fill="#003FDB"/>
</svg>
