<svg width="24" height="24" viewBox="0 0 24 24" fill="none" xmlns="http://www.w3.org/2000/svg">
<g clip-path="url(#clip0_19602_2920)">
<path d="M8.22145 1.92244C8.93995 2.08359 9.69183 1.88213 10.2333 1.38281C10.7011 0.960703 11.3207 0.703125 12 0.703125C12.6793 0.703125 13.2989 0.960703 13.7664 1.38319C14.3081 1.88212 15.06 2.08359 15.7785 1.92202C16.3948 1.79025 17.0602 1.87683 17.6484 2.21648C18.2367 2.55614 18.6446 3.08897 18.8382 3.68883C19.0578 4.39148 19.6083 4.94203 20.3113 5.16155C20.911 5.35547 21.4438 5.76328 21.7834 6.35147C22.123 6.93966 22.2098 7.60505 22.0776 8.2215C21.9164 8.94 22.118 9.69164 22.617 10.2331C23.0394 10.7012 23.2969 11.3207 23.2969 12C23.2969 12.6793 23.0394 13.2988 22.6167 13.7665C22.1178 14.308 21.9165 15.06 22.0779 15.7785C22.2098 16.3949 22.123 17.0602 21.7834 17.6484C21.4437 18.2366 20.9109 18.6444 20.3111 18.838C19.6082 19.0579 19.0579 19.6081 18.8385 20.3111C18.6445 20.911 18.2367 21.4438 17.6484 21.7835C17.0601 22.1231 16.3948 22.2098 15.7785 22.0776C15.06 21.9164 14.3081 22.1179 13.7667 22.6168C13.2989 23.0393 12.6793 23.2969 12 23.2969C11.3207 23.2969 10.7011 23.0393 10.2336 22.6168C9.69192 22.1179 8.94 21.9164 8.22155 22.0779C7.60519 22.2098 6.93984 22.1231 6.35156 21.7835C5.76328 21.4438 5.35542 20.911 5.16183 20.3111C4.94217 19.6081 4.39167 19.0579 3.68873 18.8384C3.08902 18.6445 2.55623 18.2367 2.21658 17.6484C1.87697 17.0602 1.79016 16.3949 1.92239 15.7785C2.08359 15.06 1.88203 14.308 1.38295 13.7669C0.960609 13.2988 0.703125 12.6793 0.703125 12C0.703125 11.3207 0.960609 10.7012 1.38328 10.2336C1.88217 9.69206 2.08355 8.94009 1.92206 8.22159C1.7902 7.60519 1.87697 6.9398 2.21662 6.35156C2.55628 5.76337 3.08906 5.35556 3.68892 5.16164C4.39177 4.94212 4.94212 4.39158 5.1615 3.68892C5.35547 3.08906 5.76333 2.55623 6.35161 2.21658C6.93984 1.87687 7.60519 1.79025 8.22145 1.92244Z" stroke="#003FDB" stroke-width="1.40625" stroke-miterlimit="10" stroke-linecap="round" stroke-linejoin="round"/>
<path d="M13.1297 8.23438V8.98747" stroke="#003FDB" stroke-width="1.40625" stroke-miterlimit="10" stroke-linecap="round" stroke-linejoin="round"/>
<path d="M16.1421 15.0117V15.7648" stroke="#003FDB" stroke-width="1.40625" stroke-miterlimit="10" stroke-linecap="round" stroke-linejoin="round"/>
<path d="M16.1422 8.23438L13.1297 15.7656" stroke="#003FDB" stroke-width="1.40625" stroke-miterlimit="10" stroke-linecap="round" stroke-linejoin="round"/>
<path d="M10.4938 9.68397C10.4938 8.85217 9.81939 8.17773 8.98754 8.17773C8.1557 8.17773 7.48126 8.85217 7.48126 9.68397C7.48126 11.0245 7.48126 12.9751 7.48126 14.3157C7.48126 15.1475 8.15565 15.8219 8.9875 15.8219C9.81934 15.8219 10.4937 15.1475 10.4937 14.3157C10.4938 12.9752 10.4938 11.0245 10.4938 9.68397Z" stroke="#003FDB" stroke-width="1.40625" stroke-miterlimit="10" stroke-linecap="round" stroke-linejoin="round"/>
</g>
<defs>
<clipPath id="clip0_19602_2920">
<rect width="24" height="24" fill="white"/>
</clipPath>
</defs>
</svg>
