<svg width="117" height="29" viewBox="0 0 117 29" fill="none" xmlns="http://www.w3.org/2000/svg">
<path d="M38.4196 4.24109C38.4196 5.08109 38.1696 5.75109 37.6696 6.24109C37.1096 6.83109 36.3696 7.13109 35.4696 7.13109C34.5696 7.13109 33.8696 6.83109 33.2596 6.23109C32.6496 5.63109 32.3496 4.88109 32.3496 4.00109C32.3496 3.12109 32.6496 2.37109 33.2596 1.77109C33.8696 1.17109 34.5996 0.871094 35.4696 0.871094C35.8996 0.871094 36.3096 0.951093 36.6996 1.12109C37.0896 1.29109 37.3996 1.51109 37.6396 1.79109L37.1096 2.32109C36.7096 1.85109 36.1696 1.61109 35.4696 1.61109C35.1653 1.60694 34.8632 1.66412 34.5814 1.77923C34.2997 1.89435 34.044 2.06503 33.8296 2.28109C33.3696 2.72109 33.1396 3.30109 33.1396 4.01109C33.1396 4.72109 33.3696 5.30109 33.8296 5.74109C34.2896 6.18109 34.8396 6.41109 35.4696 6.41109C36.1396 6.41109 36.6996 6.19109 37.1496 5.74109C37.4396 5.45109 37.6096 5.04109 37.6496 4.52109H35.4696V3.80109H38.3796C38.4096 3.96109 38.4196 4.11109 38.4196 4.25109V4.24109ZM43.0296 1.74109H40.2996V3.64109H42.7596V4.36109H40.2996V6.26109H43.0296V7.00109H39.5296V1.00109H43.0296V1.74109ZM46.2796 7.00109H45.5096V1.74109H43.8296V1.00109H47.9496V1.74109H46.2696V7.00109H46.2796ZM50.9396 7.00109V1.00109H51.7096V7.00109H50.9396ZM55.1296 7.00109H54.3596V1.74109H52.6796V1.00109H56.7996V1.74109H55.1196V7.00109H55.1296ZM64.6096 6.22109C64.0196 6.83109 63.2896 7.13109 62.4096 7.13109C61.5296 7.13109 60.7996 6.83109 60.2096 6.22109C59.9221 5.92855 59.6962 5.5814 59.545 5.20011C59.3939 4.81883 59.3206 4.41114 59.3296 4.00109C59.3296 3.13109 59.6196 2.38109 60.2096 1.78109C60.7996 1.17109 61.5296 0.871094 62.4096 0.871094C63.2896 0.871094 64.0096 1.17109 64.6096 1.78109C65.1996 2.39109 65.4996 3.13109 65.4996 4.00109C65.4996 4.87109 65.1996 5.62109 64.6196 6.22109H64.6096ZM60.7796 5.72109C61.2196 6.17109 61.7696 6.39109 62.4096 6.39109C63.0496 6.39109 63.5996 6.17109 64.0396 5.72109C64.4796 5.27109 64.7096 4.70109 64.7096 4.00109C64.7096 3.30109 64.4896 2.73109 64.0396 2.28109C63.829 2.06285 63.5753 1.89064 63.2948 1.77532C63.0143 1.66001 62.7129 1.60409 62.4096 1.61109C61.7696 1.61109 61.2196 1.83109 60.7796 2.28109C60.3396 2.73109 60.1096 3.30109 60.1096 4.00109C60.1096 4.70109 60.3296 5.27109 60.7796 5.72109ZM66.5796 7.00109V1.00109H67.5196L70.4396 5.67109H70.4696L70.4396 4.51109V1.00109H71.2096V7.00109H70.4096L67.3596 2.11109H67.3296L67.3596 3.27109V7.01109H66.5896L66.5796 7.00109Z" fill="white" stroke="white" stroke-width="0.12" stroke-miterlimit="10"/>
<path d="M59.1391 15.7508C56.7891 15.7508 54.8691 17.5408 54.8691 20.0008C54.8691 22.4608 56.7891 24.2508 59.1391 24.2508C61.4891 24.2508 63.4091 22.4508 63.4091 20.0008C63.4091 17.5508 61.4891 15.7508 59.1391 15.7508ZM59.1391 22.5808C57.8491 22.5808 56.7391 21.5208 56.7391 20.0008C56.7391 18.4808 57.8491 17.4208 59.1391 17.4208C60.4291 17.4208 61.5391 18.4708 61.5391 20.0008C61.5391 21.5308 60.4291 22.5808 59.1391 22.5808ZM49.8191 15.7508C47.4691 15.7508 45.5491 17.5408 45.5491 20.0008C45.5491 22.4608 47.4691 24.2508 49.8191 24.2508C52.1691 24.2508 54.0891 22.4508 54.0891 20.0008C54.0891 17.5508 52.1691 15.7508 49.8191 15.7508ZM49.8191 22.5808C48.5291 22.5808 47.4191 21.5208 47.4191 20.0008C47.4191 18.4808 48.5291 17.4208 49.8191 17.4208C51.1091 17.4208 52.2191 18.4708 52.2191 20.0008C52.2191 21.5308 51.1091 22.5808 49.8191 22.5808ZM38.7391 17.0608V18.8608H43.0591C42.9291 19.8808 42.5891 20.6208 42.0791 21.1308C41.4491 21.7608 40.4691 22.4508 38.7491 22.4508C36.0891 22.4508 34.0091 20.3108 34.0091 17.6508C34.0091 14.9908 36.0891 12.8508 38.7491 12.8508C40.1791 12.8508 41.2291 13.4108 41.9991 14.1408L43.2691 12.8708C42.1891 11.8408 40.7591 11.0508 38.7391 11.0508C35.0991 11.0508 32.0391 14.0108 32.0391 17.6608C32.0391 21.3108 35.0991 24.2708 38.7391 24.2708C40.7091 24.2708 42.1891 23.6308 43.3491 22.4208C44.5391 21.2308 44.9091 19.5508 44.9091 18.2008C44.9091 17.7808 44.8791 17.3908 44.8091 17.0708H38.7391V17.0608ZM84.0491 18.4608C83.6991 17.5108 82.6191 15.7508 80.4091 15.7508C78.1991 15.7508 76.3991 17.4708 76.3991 20.0008C76.3991 22.3808 78.1991 24.2508 80.6191 24.2508C82.5691 24.2508 83.6991 23.0608 84.1591 22.3708L82.7091 21.4008C82.2291 22.1108 81.5691 22.5808 80.6191 22.5808C79.6691 22.5808 78.9891 22.1408 78.5591 21.2908L84.2491 18.9408L84.0591 18.4608H84.0491ZM78.2491 19.8808C78.1991 18.2408 79.5191 17.4008 80.4691 17.4008C81.2091 17.4008 81.8391 17.7708 82.0491 18.3008L78.2491 19.8808ZM73.6291 24.0008H75.4991V11.5008H73.6291V24.0008ZM70.5691 16.7008H70.5091C70.0891 16.2008 69.2891 15.7508 68.2691 15.7508C66.1391 15.7508 64.1891 17.6208 64.1891 20.0208C64.1891 22.4208 66.1391 24.2608 68.2691 24.2608C69.2891 24.2608 70.0891 23.8108 70.5091 23.2908H70.5691V23.9008C70.5691 25.5308 69.6991 26.4008 68.2991 26.4008C67.1591 26.4008 66.4491 25.5808 66.1591 24.8908L64.5291 25.5708C64.9991 26.7008 66.2391 28.0808 68.2991 28.0808C70.4891 28.0808 72.3391 26.7908 72.3391 23.6508V16.0108H70.5691V16.7008ZM68.4191 22.5808C67.1291 22.5808 66.0491 21.5008 66.0491 20.0208C66.0491 18.5408 67.1291 17.4308 68.4191 17.4308C69.7091 17.4308 70.6891 18.5308 70.6891 20.0208C70.6891 21.5108 69.6891 22.5808 68.4191 22.5808ZM92.8091 11.5008H88.3391V24.0008H90.2091V19.2608H92.8191C94.8891 19.2608 96.9191 17.7608 96.9191 15.3808C96.9191 13.0008 94.8891 11.5008 92.8191 11.5008H92.8091ZM92.8491 17.5208H90.1991V13.2308H92.8491C93.4231 13.2246 93.9762 13.4464 94.3868 13.8477C94.7974 14.2489 95.032 14.7967 95.0391 15.3708C95.032 15.9448 94.7974 16.4927 94.3868 16.8939C93.9762 17.2951 93.4231 17.517 92.8491 17.5108V17.5208ZM104.389 15.7308C103.039 15.7308 101.639 16.3308 101.059 17.6408L102.719 18.3308C103.069 17.6408 103.729 17.4108 104.419 17.4108C105.379 17.4108 106.369 17.9908 106.379 19.0208V19.1508C105.778 18.8346 105.108 18.6698 104.429 18.6708C102.639 18.6708 100.829 19.6508 100.829 21.4808C100.829 23.1508 102.289 24.2308 103.929 24.2308C105.179 24.2308 105.879 23.6708 106.309 23.0108H106.369V23.9808H108.169V19.1908C108.169 16.9708 106.509 15.7308 104.369 15.7308H104.389ZM104.159 22.5808C103.549 22.5808 102.699 22.2708 102.699 21.5208C102.699 20.5608 103.759 20.1908 104.679 20.1908C105.499 20.1908 105.889 20.3708 106.379 20.6108C106.312 21.1539 106.05 21.6541 105.641 22.0183C105.233 22.3826 104.706 22.586 104.159 22.5908V22.5808ZM114.739 16.0008L112.599 21.4208H112.539L110.319 16.0008H108.309L111.639 23.5808L109.739 27.7908H111.689L116.819 16.0008H114.739ZM97.9391 24.0008H99.8091V11.5008H97.9391V24.0008Z" fill="white"/>
<path d="M11.7203 13.4202L1.07031 24.7202C1.18549 25.1483 1.39806 25.5439 1.69141 25.8763C1.98477 26.2087 2.35097 26.4688 2.76144 26.6363C3.17191 26.8037 3.61553 26.8741 4.05768 26.8418C4.49982 26.8095 4.92853 26.6755 5.31031 26.4502L5.34031 26.4302L17.3203 19.5202L11.7103 13.4102L11.7203 13.4202Z" fill="#EA4335"/>
<path d="M22.4905 11.5002H22.4805L17.3105 8.49023L11.4805 13.6802L17.3305 19.5302L22.4805 16.5602C23.3805 16.0702 23.9905 15.1202 23.9905 14.0302C23.9905 12.9402 23.3905 11.9902 22.4905 11.5102V11.5002Z" fill="#FBBC04"/>
<path d="M1.06875 3.28125C1.00875 3.52125 0.96875 3.76125 0.96875 4.02125V23.9912C0.96875 24.2512 0.99875 24.4912 1.06875 24.7312L12.0787 13.7212L1.06875 3.28125Z" fill="#4285F4"/>
<path d="M11.8003 14.0004L17.3103 8.49044L5.34031 1.55044C4.95769 1.3215 4.52726 1.18425 4.08274 1.14944C3.63822 1.11463 3.19167 1.18321 2.77808 1.34981C2.36449 1.51641 1.99509 1.7765 1.6988 2.10971C1.40252 2.44293 1.18741 2.84021 1.07031 3.27044L11.8003 13.9904V14.0004Z" fill="#34A853"/>
</svg>
