<svg width="219" height="39" viewBox="0 0 219 39" fill="none" xmlns="http://www.w3.org/2000/svg">
<g clip-path="url(#clip0_19558_1959)">
<path d="M1.00562 1.51486H218.388V37.7422H1.00562V1.51486Z" fill="#004C8F"/>
<path d="M37.2371 1.51486H218.387V37.7422H37.2371V1.51486Z" fill="#004C8F"/>
<path d="M48.7576 28.1992V11.0581H54.3969V16.8431H59.6809V11.0581H65.3293V28.1992H59.6809V21.5487H54.3969V28.1992H48.7576Z" fill="white"/>
<path d="M74.2539 15.3172H75.7161C76.7684 15.3172 77.5382 15.4264 78.0301 15.6451C78.3946 15.8045 78.6906 16.0414 78.9503 16.3967C79.1871 16.7475 79.3785 17.1894 79.5197 17.7452C79.6472 18.2963 79.7155 18.8793 79.7155 19.4942C79.7155 20.4964 79.5789 21.3346 79.2828 22.0133C78.9958 22.692 78.5813 23.1794 78.0484 23.48C77.5154 23.7852 76.7228 23.931 75.6751 23.931L74.2539 23.9401V15.3172ZM76.4312 28.1992C77.7613 28.1992 78.8638 28.0899 79.7657 27.8485C80.6722 27.6162 81.4101 27.3064 81.9749 26.9374C82.5489 26.5593 83.0682 26.0492 83.5465 25.416C84.0202 24.7601 84.4347 23.9356 84.7581 22.9244C85.0906 21.9177 85.2501 20.7834 85.2501 19.4988C85.2501 17.613 84.8903 16.0187 84.1615 14.6885C83.4235 13.3858 82.4214 12.4429 81.1414 11.8872C79.8659 11.3314 78.3445 11.0581 76.577 11.0581H68.7375V28.1992H76.4312Z" fill="white"/>
<path d="M87.832 28.1992V11.0581H101.206V15.2853H93.3984V18.0321H99.6435V22.1453H93.3984V28.1992H87.832Z" fill="white"/>
<path d="M120.092 17.6128H114.767C114.667 16.761 114.357 16.0869 113.842 15.604C113.323 15.1303 112.672 14.898 111.87 14.898C110.872 14.898 110.062 15.2851 109.437 16.0504C108.809 16.8248 108.495 18.0775 108.495 19.7993C108.495 21.0019 108.636 21.9037 108.895 22.5187C109.164 23.1519 109.542 23.6074 110.011 23.9126C110.494 24.2178 111.082 24.3591 111.806 24.3591C112.672 24.3591 113.364 24.1403 113.87 23.6393C114.389 23.1701 114.69 22.4687 114.79 21.5303H120.211C120.092 22.5962 119.878 23.489 119.568 24.2179C119.272 24.9421 118.744 25.6618 118.029 26.386C117.304 27.1194 116.439 27.6843 115.441 28.076C114.444 28.4723 113.291 28.6592 111.97 28.6592C110.667 28.6592 109.451 28.4724 108.353 28.0898C107.242 27.698 106.304 27.1422 105.556 26.4453C104.796 25.721 104.204 24.9102 103.78 23.9946C103.17 22.7055 102.883 21.2889 102.883 19.7083C102.883 18.3873 103.097 17.1345 103.529 15.9866C103.962 14.8478 104.559 13.8775 105.32 13.094C106.085 12.3151 106.918 11.7321 107.848 11.3404C109.023 10.8393 110.317 10.5979 111.752 10.5979C113 10.5979 114.157 10.78 115.25 11.149C116.339 11.5179 117.231 12.0555 117.928 12.7707C118.634 13.4858 119.176 14.3057 119.555 15.2396C119.828 15.8909 120.001 16.679 120.092 17.6128Z" fill="white"/>
<path d="M138.154 14.9164C138.951 14.9164 139.465 14.9528 139.721 15.0257C140.048 15.1213 140.322 15.3081 140.518 15.554C140.718 15.8091 140.823 16.1053 140.823 16.4469C140.823 16.8842 140.65 17.244 140.317 17.5173C139.962 17.8043 139.356 17.9364 138.486 17.9364H136.363V14.9164H138.154ZM139.57 28.1992C140.905 28.1992 141.843 28.1354 142.394 28.017C142.936 27.8894 143.497 27.6891 144.066 27.4249C144.622 27.1334 145.05 26.8601 145.332 26.5594C145.77 26.154 146.093 25.6619 146.33 25.0698C146.567 24.473 146.685 23.7989 146.685 23.0746C146.685 22.0406 146.43 21.1888 145.911 20.4964C145.392 19.7994 144.695 19.3394 143.816 19.0889C145.305 18.1505 146.048 16.9389 146.048 15.463C146.048 13.937 145.392 12.7708 144.093 11.9782C143.091 11.3678 141.529 11.0581 139.411 11.0581H130.906V28.1992H139.57ZM138.664 21.0203C139.78 21.0203 140.504 21.1569 140.868 21.4439C141.206 21.7217 141.388 22.1044 141.388 22.6191C141.388 23.1384 141.205 23.5483 140.837 23.8353C140.486 24.1405 139.752 24.2681 138.664 24.2681H136.363V21.0203H138.664Z" fill="white"/>
<path d="M159.071 22.437H155.486L157.253 16.2009L159.071 22.437ZM153.8 28.1992L154.452 25.949H160.064L160.72 28.1992H166.327L160.178 11.0581H154.452L148.298 28.1992H153.8Z" fill="white"/>
<path d="M168.695 28.1992V11.0581H173.947L179.873 20.2368V11.0581H185.276V28.1992H179.91L174.111 19.2483V28.1992H168.695Z" fill="white"/>
<path d="M189.036 28.1992V11.0581H194.498V16.711L199.595 11.0581H206.218L199.936 17.5127L206.869 28.1992H200.119L195.996 21.371L194.498 22.8514V28.1992H189.036Z" fill="white"/>
<path d="M1.00562 1.51486H37.2329V37.7422H1.00562V1.51486Z" fill="#ED232A"/>
<path d="M7.34619 7.85397H30.8965V31.4043H7.34619V7.85397Z" fill="white"/>
<path d="M17.3088 1.51486H20.9301V37.7422H17.3088V1.51486Z" fill="white"/>
<path d="M1.00562 17.8211H37.2329V21.4424H1.00562V17.8211Z" fill="white"/>
<path d="M13.6885 14.1947H24.5571V25.0635H13.6885V14.1947Z" fill="#004C8F"/>
</g>
<defs>
<clipPath id="clip0_19558_1959">
<rect width="218.789" height="37.8528" fill="white" transform="translate(0.195312 0.695312)"/>
</clipPath>
</defs>
</svg>
