<svg width="28" height="29" viewBox="0 0 28 29" fill="none" xmlns="http://www.w3.org/2000/svg">
<path d="M14 28.5C21.732 28.5 28 22.232 28 14.5C28 6.76801 21.732 0.5 14 0.5C6.26801 0.5 0 6.76801 0 14.5C0 22.232 6.26801 28.5 14 28.5Z" fill="#F7931E"/>
<path d="M28 14.5C28 22.2467 21.7467 28.5 14 28.5C6.25333 28.5 0 22.2467 0 14.5H28Z" fill="#009245"/>
<path d="M28 14.4997C28 12.913 27.72 11.3263 27.16 9.83301H0.84C-0.28 12.8197 -0.28 16.1797 0.84 19.1663H27.2533C27.72 17.673 28 16.0863 28 14.4997Z" fill="#F0F0F0"/>
<path d="M14.0009 10.7666C11.9476 10.7666 10.2676 12.4466 10.2676 14.4999C10.2676 16.5533 11.9476 18.2333 14.0009 18.2333C16.0542 18.2333 17.7342 16.5533 17.7342 14.4999C17.7342 12.4466 16.0542 10.7666 14.0009 10.7666ZM14.0009 17.2999C12.4142 17.2999 11.2009 16.0866 11.2009 14.4999C11.2009 12.9133 12.4142 11.6999 14.0009 11.6999C15.5876 11.6999 16.8009 12.9133 16.8009 14.4999C16.8009 16.0866 15.5876 17.2999 14.0009 17.2999Z" fill="#4E2FFF"/>
<path d="M14.0014 16.3661C15.0324 16.3661 15.8681 15.5304 15.8681 14.4995C15.8681 13.4685 15.0324 12.6328 14.0014 12.6328C12.9705 12.6328 12.1348 13.4685 12.1348 14.4995C12.1348 15.5304 12.9705 16.3661 14.0014 16.3661Z" fill="#4E2FFF"/>
</svg>
