<svg width="16" height="16" viewBox="0 0 16 16" fill="none" xmlns="http://www.w3.org/2000/svg">
<path d="M13.7499 1.65894C10.4192 3.29094 8.25119 1.72294 8.16052 1.65361C8.06719 1.58161 7.93385 1.58161 7.84052 1.65361C7.74985 1.72028 5.58185 3.29094 2.25119 1.65894C2.16852 1.61894 2.06985 1.62428 1.99252 1.67228C1.91519 1.72028 1.86719 1.80561 1.86719 1.89894V8.12028C1.86719 11.0909 4.30985 13.6109 7.94452 14.3949C7.96319 14.3976 7.98185 14.4003 8.00052 14.4003C8.01919 14.4003 8.03785 14.3976 8.05652 14.3949C11.6912 13.6109 14.1339 11.0909 14.1339 8.12028V1.89894C14.1339 1.80561 14.0859 1.72028 14.0085 1.67228C13.9312 1.62428 13.8325 1.61894 13.7499 1.65894ZM13.6005 8.12028C13.6005 10.8163 11.3525 13.1176 8.00052 13.8616C4.64852 13.1176 2.40052 10.8189 2.40052 8.12028V2.31494C5.34985 3.59228 7.42185 2.54694 8.00052 2.18694C8.57919 2.54694 10.6512 3.59228 13.6005 2.31494V8.12028Z" fill="#0006B1"/>
<path d="M7.73268 5.20026V5.62693C7.12468 5.74959 6.66602 6.28826 6.66602 6.93359C6.66602 7.66959 7.26335 8.26693 7.99935 8.26693C8.43935 8.26693 8.79935 8.62693 8.79935 9.06693C8.79935 9.50693 8.43935 9.86693 7.99935 9.86693C7.55935 9.86693 7.19935 9.50693 7.19935 9.06693C7.19935 8.92026 7.07935 8.80026 6.93268 8.80026C6.78602 8.80026 6.66602 8.92026 6.66602 9.06693C6.66602 9.70959 7.12468 10.2483 7.73268 10.3736V10.8003C7.73268 10.9469 7.85268 11.0669 7.99935 11.0669C8.14602 11.0669 8.26602 10.9469 8.26602 10.8003V10.3736C8.87402 10.2509 9.33268 9.71226 9.33268 9.06693C9.33268 8.33093 8.73535 7.73359 7.99935 7.73359C7.55935 7.73359 7.19935 7.37359 7.19935 6.93359C7.19935 6.49359 7.55935 6.13359 7.99935 6.13359C8.43935 6.13359 8.79935 6.49359 8.79935 6.93359C8.79935 7.08026 8.91935 7.20026 9.06602 7.20026C9.21268 7.20026 9.33268 7.08026 9.33268 6.93359C9.33268 6.29093 8.87402 5.75226 8.26602 5.62693V5.20026C8.26602 5.05359 8.14602 4.93359 7.99935 4.93359C7.85268 4.93359 7.73268 5.05359 7.73268 5.20026Z" fill="#0006B1"/>
<path d="M4 8C4 10.2053 5.79467 12 8 12C10.2053 12 12 10.2053 12 8C12 5.79467 10.2053 4 8 4C5.79467 4 4 5.79467 4 8ZM11.4667 8C11.4667 9.912 9.912 11.4667 8 11.4667C6.088 11.4667 4.53333 9.912 4.53333 8C4.53333 6.088 6.088 4.53333 8 4.53333C9.912 4.53333 11.4667 6.088 11.4667 8Z" fill="#0006B1"/>
</svg>
