<svg width="90" height="90" viewBox="0 0 90 90" fill="none" xmlns="http://www.w3.org/2000/svg">
<g filter="url(#filter0_d_19558_1829)">
<circle cx="44.8158" cy="35.7391" r="33.8593" fill="white"/>
<circle cx="44.8158" cy="35.7391" r="33.3756" stroke="url(#paint0_linear_19558_1829)" stroke-opacity="0.1" stroke-width="0.967407"/>
</g>
<g clip-path="url(#clip0_19558_1829)">
<path d="M31.852 32.6505C31.9548 32.6924 32.0635 32.7132 32.1722 32.7132C32.2847 32.7132 32.3972 32.6908 32.5028 32.6461L35.0461 31.5729C35.4785 31.3902 35.6813 30.8916 35.4987 30.4589C35.3162 30.0262 34.8173 29.8236 34.3847 30.0061L33.7627 30.2687C35.6928 25.8748 40.0602 22.9857 44.9195 22.9857C50.4754 22.9857 55.3272 26.7425 56.7182 32.1216C56.8174 32.5048 57.1624 32.7593 57.5408 32.7593C57.6112 32.7593 57.6829 32.7504 57.7542 32.732C58.2088 32.6144 58.4821 32.1506 58.3645 31.696C56.7795 25.5661 51.2506 21.2852 44.9195 21.2852C39.351 21.2852 34.3499 24.6149 32.1693 29.6693L31.8824 28.9891C31.6997 28.5567 31.2011 28.3538 30.7684 28.5363C30.3357 28.719 30.1331 29.2178 30.3156 29.6503L31.3888 32.1935C31.4765 32.4012 31.643 32.5657 31.852 32.6505Z" fill="#4E2FFF"/>
<path d="M59.2029 41.7688L58.1296 39.2258C58.042 39.0179 57.8752 38.8536 57.6664 38.7685C57.4574 38.6837 57.2234 38.6853 57.0157 38.773L54.4724 39.8464C54.04 40.0289 53.8372 40.5277 54.0198 40.9604C54.2023 41.3931 54.7011 41.5957 55.1338 41.413L55.8457 41.1125C53.9638 45.6242 49.5354 48.6059 44.5992 48.6059C39.0431 48.6059 34.1912 44.849 32.8003 39.47C32.6827 39.0152 32.2188 38.7424 31.7642 38.8595C31.3097 38.9771 31.0364 39.441 31.154 39.8956C32.7389 46.0254 38.2679 50.3064 44.5992 50.3064C50.199 50.3064 55.225 46.939 57.3857 41.8366L57.6361 42.43C57.7732 42.7548 58.0882 42.9499 58.4199 42.9499C58.53 42.9499 58.6422 42.9284 58.7501 42.8828C59.1827 42.7001 59.3853 42.2015 59.2029 41.7688Z" fill="#4E2FFF"/>
<path d="M43.0537 45.1553C43.1478 45.1894 43.2452 45.2056 43.3415 45.2056C43.5902 45.2056 43.8322 45.0964 43.9969 44.8972L51.1196 36.2814C51.3295 36.0274 51.3738 35.6754 51.2337 35.3773C51.0933 35.0795 50.7937 34.8893 50.4644 34.8893H47.3661V27.1805C47.3661 26.8218 47.1411 26.5018 46.8037 26.3803C46.4664 26.2589 46.0891 26.3623 45.8604 26.6387L38.7377 35.2544C38.5278 35.5082 38.4835 35.8605 38.6237 36.1583C38.7641 36.4563 39.0639 36.6465 39.3931 36.6465H42.4915V44.3553C42.4913 44.714 42.7162 45.034 43.0537 45.1553ZM41.199 34.946L45.6656 29.5433V35.7396C45.6656 36.2092 46.0462 36.5898 46.5158 36.5898H48.6581L44.1918 41.9925V35.7963C44.1918 35.3266 43.8109 34.946 43.3415 34.946H41.199Z" fill="#4E2FFF"/>
</g>
<defs>
<filter id="filter0_d_19558_1829" x="0.315062" y="0.912475" width="89.0015" height="89.0017" filterUnits="userSpaceOnUse" color-interpolation-filters="sRGB">
<feFlood flood-opacity="0" result="BackgroundImageFix"/>
<feColorMatrix in="SourceAlpha" type="matrix" values="0 0 0 0 0 0 0 0 0 0 0 0 0 0 0 0 0 0 127 0" result="hardAlpha"/>
<feMorphology radius="4.83704" operator="erode" in="SourceAlpha" result="effect1_dropShadow_19558_1829"/>
<feOffset dy="9.67407"/>
<feGaussianBlur stdDeviation="7.73926"/>
<feComposite in2="hardAlpha" operator="out"/>
<feColorMatrix type="matrix" values="0 0 0 0 0.360688 0 0 0 0 0.396767 0 0 0 0 0.468925 0 0 0 0.16 0"/>
<feBlend mode="normal" in2="BackgroundImageFix" result="effect1_dropShadow_19558_1829"/>
<feBlend mode="normal" in="SourceGraphic" in2="effect1_dropShadow_19558_1829" result="shape"/>
</filter>
<linearGradient id="paint0_linear_19558_1829" x1="44.8158" y1="1.87988" x2="44.8158" y2="69.5984" gradientUnits="userSpaceOnUse">
<stop stop-color="#02001A" stop-opacity="0.4"/>
<stop offset="1" stop-color="#02001A"/>
</linearGradient>
<clipPath id="clip0_19558_1829">
<rect width="29.0222" height="29.0222" fill="white" transform="translate(30.3054 21.2285)"/>
</clipPath>
</defs>
</svg>
