<svg width="62" height="62" viewBox="0 0 62 62" fill="none" xmlns="http://www.w3.org/2000/svg">
<g filter="url(#filter0_d_19563_1653)">
<circle cx="31" cy="21" r="20" fill="white"/>
<circle cx="31" cy="21" r="19.5" stroke="#EBF1FF" stroke-opacity="0.1"/>
</g>
<g clip-path="url(#clip0_19563_1653)">
<path d="M34.6673 28.9987C32.278 28.9987 30.334 27.0547 30.334 24.6654C30.334 22.276 32.278 20.332 34.6673 20.332C37.0567 20.332 39.0007 22.276 39.0007 24.6654C39.0007 27.0547 37.0567 28.9987 34.6673 28.9987ZM34.6673 20.9987C32.6453 20.9987 31.0007 22.644 31.0007 24.6654C31.0007 26.6867 32.6453 28.332 34.6673 28.332C36.6893 28.332 38.334 26.6867 38.334 24.6654C38.334 22.644 36.6893 20.9987 34.6673 20.9987Z" fill="#0006B1"/>
<path d="M34.0008 26.3335C33.9128 26.3335 33.8275 26.2981 33.7648 26.2361L32.4315 24.9028C32.3015 24.7728 32.3015 24.5615 32.4315 24.4315C32.5615 24.3015 32.7728 24.3015 32.9028 24.4315L33.9842 25.5128L36.0828 23.1141C36.2042 22.9748 36.4148 22.9615 36.5535 23.0828C36.6922 23.2041 36.7062 23.4141 36.5848 23.5528L34.2515 26.2195C34.1908 26.2888 34.1035 26.3301 34.0115 26.3335C34.0082 26.3335 34.0042 26.3335 34.0008 26.3335Z" fill="#0006B1"/>
<path d="M29.3333 27H24.6667C23.748 27 23 26.2527 23 25.3333V16.6667C23 15.7473 23.748 15 24.6667 15H26C26.184 15 26.3333 15.1493 26.3333 15.3333C26.3333 15.5173 26.184 15.6667 26 15.6667H24.6667C24.1153 15.6667 23.6667 16.1153 23.6667 16.6667V25.3333C23.6667 25.8847 24.1153 26.3333 24.6667 26.3333H29.3333C29.5173 26.3333 29.6667 26.4827 29.6667 26.6667C29.6667 26.8507 29.5173 27 29.3333 27Z" fill="#0006B1"/>
<path d="M34 19C33.816 19 33.6667 18.8507 33.6667 18.6667V16.6667C33.6667 16.1153 33.218 15.6667 32.6667 15.6667H31.3333C31.1493 15.6667 31 15.5173 31 15.3333C31 15.1493 31.1493 15 31.3333 15H32.6667C33.5853 15 34.3333 15.7473 34.3333 16.6667V18.6667C34.3333 18.8507 34.184 19 34 19Z" fill="#0006B1"/>
<path d="M30.666 17H26.666C26.1147 17 25.666 16.5513 25.666 16V14.6667C25.666 14.4827 25.8153 14.3333 25.9993 14.3333H27.0327C27.188 13.5733 27.8607 13 28.666 13C29.4713 13 30.144 13.5733 30.2993 14.3333H31.3327C31.5167 14.3333 31.666 14.4827 31.666 14.6667V16C31.666 16.5513 31.2173 17 30.666 17ZM26.3327 15V16C26.3327 16.1833 26.482 16.3333 26.666 16.3333H30.666C30.85 16.3333 30.9993 16.1833 30.9993 16V15H29.9993C29.8153 15 29.666 14.8507 29.666 14.6667C29.666 14.1153 29.2173 13.6667 28.666 13.6667C28.1147 13.6667 27.666 14.1153 27.666 14.6667C27.666 14.8507 27.5167 15 27.3327 15H26.3327Z" fill="#0006B1"/>
<path d="M32 18.9987H25.3333C25.1493 18.9987 25 18.8494 25 18.6654C25 18.4814 25.1493 18.332 25.3333 18.332H32C32.184 18.332 32.3333 18.4814 32.3333 18.6654C32.3333 18.8494 32.184 18.9987 32 18.9987Z" fill="#0006B1"/>
<path d="M30 20.9987H25.3333C25.1493 20.9987 25 20.8494 25 20.6654C25 20.4814 25.1493 20.332 25.3333 20.332H30C30.184 20.332 30.3333 20.4814 30.3333 20.6654C30.3333 20.8494 30.184 20.9987 30 20.9987Z" fill="#0006B1"/>
<path d="M28.6667 22.9987H25.3333C25.1493 22.9987 25 22.8494 25 22.6654C25 22.4814 25.1493 22.332 25.3333 22.332H28.6667C28.8507 22.332 29 22.4814 29 22.6654C29 22.8494 28.8507 22.9987 28.6667 22.9987Z" fill="#0006B1"/>
</g>
<rect x="23.5" y="13.5" width="15" height="15" rx="7.5" stroke="#EBF1FF" stroke-opacity="0.1"/>
<defs>
<filter id="filter0_d_19563_1653" x="0" y="0" width="62" height="62" filterUnits="userSpaceOnUse" color-interpolation-filters="sRGB">
<feFlood flood-opacity="0" result="BackgroundImageFix"/>
<feColorMatrix in="SourceAlpha" type="matrix" values="0 0 0 0 0 0 0 0 0 0 0 0 0 0 0 0 0 0 127 0" result="hardAlpha"/>
<feMorphology radius="5" operator="erode" in="SourceAlpha" result="effect1_dropShadow_19563_1653"/>
<feOffset dy="10"/>
<feGaussianBlur stdDeviation="8"/>
<feComposite in2="hardAlpha" operator="out"/>
<feColorMatrix type="matrix" values="0 0 0 0 0.360688 0 0 0 0 0.396767 0 0 0 0 0.468925 0 0 0 0.16 0"/>
<feBlend mode="normal" in2="BackgroundImageFix" result="effect1_dropShadow_19563_1653"/>
<feBlend mode="normal" in="SourceGraphic" in2="effect1_dropShadow_19563_1653" result="shape"/>
</filter>
<clipPath id="clip0_19563_1653">
<rect x="23" y="13" width="16" height="16" rx="8" fill="white"/>
</clipPath>
</defs>
</svg>
