<svg width="225" height="46" viewBox="0 0 225 46" fill="none" xmlns="http://www.w3.org/2000/svg">
<path d="M39.0651 15.9236C39.0651 17.698 38.7905 19.3668 38.2729 20.9195L32.168 15.8074L21.3208 6.7346V11.234H11.4875C6.01638 11.234 1.443 15.0786 0.333984 20.2224C0.333984 20.2435 0.333984 20.254 0.333984 20.2752V6.86134C0.333984 3.25968 3.25967 0.333984 6.86134 0.333984H21.5637C29.6965 0.333984 36.0866 4.34757 38.2624 10.8327C38.7905 12.3959 39.0651 14.0964 39.0651 15.9236Z" fill="white"/>
<path d="M67.8039 38.7887L61.7096 28.3217H57.2101V38.7887H51.2637V8.64453H63.315C66.1034 8.64453 68.4693 9.61624 70.4233 11.5702C72.3772 13.5242 73.349 15.8795 73.349 18.6362C73.349 21.3929 72.8209 22.2273 71.7541 23.8222C70.6873 25.4171 69.2826 26.6106 67.5398 27.4133L74.215 38.7781H67.8039V38.7887ZM57.2207 14.2002V23.1146H63.3361C64.4557 23.1146 65.4168 22.6815 66.2196 21.8049C67.0223 20.9282 67.4236 19.872 67.4236 18.6362C67.4236 17.4005 67.0223 16.3548 66.2196 15.4887C65.4168 14.6227 64.4557 14.2002 63.3361 14.2002H57.2207Z" fill="white"/>
<path d="M80.6373 30.3083C81.3872 33.0016 83.4045 34.3536 86.7104 34.3536C90.0164 34.3536 90.4389 33.6353 91.5373 32.1989L96.0156 34.7866C93.8926 37.8602 90.7663 39.3917 86.6259 39.3917C82.4856 39.3917 80.2148 38.3143 78.0601 36.1597C75.9055 34.005 74.8281 31.2906 74.8281 28.0269C74.8281 24.7632 75.8949 22.0804 78.0179 19.9152C80.1408 17.75 82.8659 16.6621 86.2035 16.6621C89.5411 16.6621 91.9704 17.75 94.0194 19.9363C96.0684 22.1227 97.0929 24.816 97.0929 28.0269C97.0929 31.2378 97.019 29.5056 96.8817 30.3083H80.6478H80.6373ZM80.5528 25.999H91.5373C91.2204 24.5308 90.5656 23.443 89.5833 22.7247C88.5905 22.0065 87.4709 21.6474 86.2035 21.6474C84.936 21.6474 83.4785 22.0276 82.4962 22.7881C81.5245 23.5486 80.8696 24.6153 80.5633 25.999H80.5528Z" fill="white"/>
<path d="M124.343 16.6504C126.814 16.6504 128.789 17.4531 130.268 19.0585C131.747 20.664 132.486 22.8186 132.486 25.512V38.7779H126.931V25.9028C126.931 24.6142 126.614 23.6108 125.98 22.8926C125.346 22.1744 124.459 21.8152 123.308 21.8152C122.157 21.8152 121.058 22.2272 120.361 23.0616C119.653 23.896 119.305 25.1 119.305 26.6738V38.7779H113.749V25.9028C113.749 24.6142 113.432 23.6108 112.799 22.8926C112.165 22.1744 111.278 21.8152 110.126 21.8152C108.975 21.8152 107.908 22.2272 107.179 23.0616C106.451 23.896 106.081 25.1 106.081 26.6738V38.7779H100.525V17.2524H106.081V19.5338C107.37 17.6115 109.366 16.6504 112.07 16.6504C114.774 16.6504 116.664 17.6855 117.921 19.7556C119.358 17.6855 121.491 16.6504 124.332 16.6504H124.343Z" fill="white"/>
<path d="M139.542 14.6762C138.623 14.6762 137.831 14.3383 137.155 13.6623C136.479 12.9863 136.141 12.1942 136.141 11.2753C136.141 10.3564 136.479 9.55365 137.155 8.86711C137.831 8.18058 138.623 7.83203 139.542 7.83203C140.461 7.83203 141.295 8.18058 141.971 8.86711C142.647 9.55365 142.985 10.3564 142.985 11.2753C142.985 12.1942 142.647 12.9863 141.971 13.6623C141.295 14.3383 140.482 14.6762 139.542 14.6762ZM136.785 38.7894V17.264H142.341V38.7894H136.785Z" fill="white"/>
<path d="M158.575 8.04492C160.445 8.04492 162.885 8.35123 165.895 8.95326V38.7911H160.339V12.9563C159.938 12.9246 159.346 12.914 158.575 12.914C155.533 12.914 154.012 14.2871 154.012 17.0438V17.255H157.582V22.5994H154.012V38.7911H148.457V22.5994H145.352V17.255H148.457V17.0438C148.457 11.0445 151.826 8.04492 158.575 8.04492Z" fill="white"/>
<path d="M188.889 36.0963C186.681 38.2932 183.978 39.3917 180.798 39.3917C177.619 39.3917 174.926 38.2932 172.729 36.0963C170.532 33.8994 169.434 31.2061 169.434 28.0269C169.434 24.8477 170.532 22.1544 172.729 19.9575C174.926 17.7606 177.619 16.6621 180.798 16.6621C183.978 16.6621 186.681 17.7606 188.889 19.9575C191.096 22.1544 192.205 24.8477 192.205 28.0269C192.205 31.2061 191.096 33.8994 188.889 36.0963ZM176.637 32.2834C177.746 33.403 179.13 33.9628 180.788 33.9628C182.446 33.9628 183.84 33.403 184.96 32.2834C186.079 31.1638 186.639 29.7379 186.639 28.0163C186.639 26.2947 186.079 24.8688 184.96 23.7493C183.84 22.6297 182.446 22.0699 180.788 22.0699C179.13 22.0699 177.735 22.6297 176.637 23.7493C175.528 24.8688 174.979 26.2947 174.979 28.0163C174.979 29.7379 175.528 31.1638 176.637 32.2834Z" fill="white"/>
<path d="M219.063 17.252H224.397L218.123 38.7774H212.684L208.607 25.7333L204.53 38.7774H199.09L192.764 17.252H198.636L202.322 30.4757L206.241 17.252H211.501L215.419 30.5179L219.074 17.252H219.063Z" fill="white"/>
<path d="M44.6848 44.2183H29.6655C28.1868 44.2183 26.7398 43.7114 25.5885 42.7819L21.332 39.3704V24.668L28.3769 30.5616L44.6953 44.2183H44.6848Z" fill="white"/>
<path d="M21.3208 20.2227V31.5769H11.8889V45.6667H0.333984V32.0944C0.333984 25.7783 5.26647 20.4656 11.572 20.2332C11.7093 20.2332 11.8572 20.2332 12.0051 20.2332H21.3208V20.2227Z" fill="white"/>
<path d="M39.0654 15.9249C39.0654 17.6993 38.7908 19.3681 38.2732 20.9208C37.1748 24.2267 34.9567 26.9623 31.9149 28.8423C31.9149 28.8423 30.9115 29.7929 28.3554 30.5745C26.7078 31.0815 24.4052 31.5145 21.3105 31.5779V24.6808L32.1578 15.8087L38.2521 10.834C38.7802 12.3972 39.0548 14.0977 39.0548 15.9249H39.0654Z" fill="white"/>
</svg>
