<svg width="142" height="38" viewBox="0 0 142 38" fill="none" xmlns="http://www.w3.org/2000/svg">
<path d="M104.025 9.34386H99.6022C99.4141 9.34386 99.2729 9.485 99.2729 9.6732V23.3409C99.2729 23.5291 99.4141 23.6703 99.6022 23.6703H104.001C104.19 23.6703 104.331 23.5291 104.331 23.3409V9.6732C104.331 9.50853 104.19 9.34386 104.025 9.34386ZM123.691 5.1565H119.292C119.104 5.1565 118.963 5.29765 118.963 5.48585V23.3409C118.963 23.5291 119.104 23.6703 119.292 23.6703H123.691C123.88 23.6703 124.021 23.5291 124.021 23.3409V5.48585C124.021 5.29765 123.856 5.1565 123.691 5.1565ZM101.814 2.38061C100.261 2.38061 99.0141 3.62741 99.0141 5.1565C99.0141 6.6856 100.261 7.93239 101.814 7.93239C103.366 7.93239 104.613 6.6856 104.613 5.1565C104.589 3.62741 103.343 2.38061 101.814 2.38061ZM141.241 11.1552V9.69672C141.241 9.50853 141.099 9.36738 140.911 9.36738H136.512C136.324 9.36738 136.183 9.50853 136.183 9.69672V17.154C136.183 18.7066 135.336 19.53 134.136 19.53C132.936 19.53 132.16 18.7066 132.16 17.154V9.69672C132.16 9.50853 132.019 9.36738 131.831 9.36738H127.432C127.243 9.36738 127.102 9.50853 127.102 9.69672V17.154C127.102 20.0945 127.526 21.4825 128.02 22.1412C128.89 23.2939 130.184 23.9996 131.878 23.9996C133.407 23.9996 134.466 23.2939 135.406 22.5646C135.712 22.3294 136.159 22.1882 136.159 22.8234V24.0937C136.136 24.9406 135.571 25.6698 134.865 26.0462C134.842 26.0462 134.842 26.0698 134.818 26.0698C134.489 26.2344 134.089 26.3521 133.689 26.3285C133.689 26.3285 132.701 26.3285 132.184 26.2344C131.995 26.2109 131.807 26.3285 131.807 26.5167L131.478 30.3042C131.454 30.4688 131.572 30.6335 131.76 30.657C133.407 30.9158 135.148 30.8687 137.006 30.2336C139.923 29.2456 141.241 27.1048 141.241 23.9996V11.1552ZM115.811 9.34386H113.835C113.646 9.34386 113.505 9.20271 113.505 9.01452V5.46232C113.505 5.27412 113.364 5.13298 113.176 5.13298H108.777C108.589 5.13298 108.447 5.27412 108.447 5.46232V9.01452C108.447 9.20271 108.306 9.34386 108.118 9.34386H106.754C106.565 9.34386 106.424 9.485 106.424 9.6732V13.4371C106.424 13.6253 106.565 13.7665 106.754 13.7665H108.118C108.306 13.7665 108.447 13.9076 108.447 14.0958V20.2827C108.447 22.3294 109.859 23.9761 112.164 23.9761C113.858 23.9761 115.293 23.7173 115.905 23.435C116.046 23.3644 116.14 23.2703 116.14 23.1292V20.0945C116.14 19.9063 115.952 19.7417 115.764 19.7652C115.034 19.8828 113.505 20.2122 113.505 18.2832V14.0958C113.505 13.9076 113.646 13.7665 113.835 13.7665H115.811C115.999 13.7665 116.14 13.6253 116.14 13.4371V9.6732C116.14 9.50853 115.999 9.34386 115.811 9.34386ZM47.0721 14.0017C48.8129 14.0017 49.8245 13.1548 49.8245 11.8139V11.7669C49.8245 10.3084 48.7659 9.5791 47.0486 9.5791H44.0139C43.8257 9.5791 43.6846 9.72025 43.6846 9.90844V13.6959C43.6846 13.8841 43.8257 14.0252 44.0139 14.0252H47.0721V14.0017ZM38.5327 5.46232C38.5327 5.27412 38.6739 5.13298 38.8621 5.13298H47.3074C50.1538 5.13298 52.1063 5.86224 53.3531 7.13256C54.4353 8.19116 54.9999 9.60263 54.9999 11.4375V11.4846C54.9999 14.1664 53.6354 15.9778 51.5182 16.9893C51.33 17.0834 51.283 17.2951 51.3771 17.4598L55.2351 23.0821C55.3292 23.2233 55.3057 23.435 55.141 23.5291C55.094 23.5762 55.0234 23.5762 54.9528 23.5762H49.8715C49.7304 23.5762 49.5892 23.5056 49.5187 23.388L46.0841 18.2361C45.99 18.0714 45.8018 17.9773 45.6136 18.0009H43.9904C43.8022 18.0009 43.6611 18.142 43.6611 18.3302V23.2703C43.6611 23.4585 43.5199 23.5997 43.3317 23.5997H38.8385C38.6504 23.5997 38.5092 23.4585 38.5092 23.2703L38.5327 5.46232ZM66.2916 14.9662C66.2916 15.1544 66.1505 15.2955 65.9858 15.2955H61.4926C61.3279 15.2955 61.1868 15.1544 61.1868 14.9662C61.1868 13.5783 62.2924 12.4726 63.7274 12.4726C65.2565 12.4491 66.2916 13.5547 66.2916 14.9662ZM63.4922 9.06156C59.0225 9.06156 56.2231 12.5432 56.2231 16.6835C56.2231 20.8003 59.2813 23.9761 63.4922 23.9761C67.2561 23.9761 69.4909 22.3529 70.526 19.9063C70.6201 19.6946 70.4554 19.4594 70.2202 19.4594H66.3622C66.1975 19.4594 66.0564 19.53 65.9623 19.6476C65.4682 20.1651 64.8331 20.4945 63.9627 20.4945C62.316 20.4945 61.0221 19.6476 61.0221 18.2361C61.0221 18.0479 61.1633 17.9068 61.3515 17.9068H70.5731C70.7613 17.9068 70.9024 17.7656 70.9024 17.5774V16.66C70.8789 12.5667 68.3147 9.06156 63.4922 9.06156ZM91.2275 9.03804C89.2515 9.03804 87.84 9.83787 86.6403 11.1082C86.5462 11.2023 86.3815 11.2258 86.2874 11.1317C86.2639 11.1082 86.2639 11.1082 86.2404 11.0847C85.4405 9.79082 84.0526 9.06156 82.2647 9.06156C82.1941 9.06156 82.1471 9.06156 82.0765 9.06156C80.5945 9.10861 79.3006 9.81435 78.4302 10.8729C78.2891 11.0611 77.9833 10.9435 77.9833 10.7083V9.69672C77.9833 9.53205 77.8421 9.39091 77.6774 9.39091H73.2548C73.0667 9.39091 72.9255 9.53205 72.9255 9.72025V23.3644C72.9255 23.5526 73.0667 23.6938 73.2548 23.6938H77.6539C77.8421 23.6938 77.9833 23.5526 77.9833 23.3644V15.9072C77.9833 14.3546 78.8301 13.5312 80.0299 13.5312C81.2296 13.5312 82.006 14.3546 82.006 15.9072V23.3409C82.006 23.5291 82.1471 23.6703 82.3353 23.6703H86.7344C86.9226 23.6703 87.0637 23.5291 87.0637 23.3409V15.8837C87.0637 14.331 87.9341 13.5077 89.1339 13.5077C90.3336 13.5077 91.1099 14.331 91.1099 15.8837V23.3409C91.1099 23.5291 91.2511 23.6703 91.4393 23.6703H95.8383C96.0265 23.6703 96.1677 23.5291 96.1677 23.3409V14.284C96.1441 10.9435 94.2857 9.03804 91.2275 9.03804ZM26.3471 18.9183L15.3611 10.92C14.7965 10.5201 14.0673 10.5201 13.5027 10.92L8.60961 14.4722C8.32731 14.6839 7.97445 14.7545 7.62158 14.7074C7.26871 14.6604 6.96289 14.4722 6.75117 14.1899C6.53945 13.9076 6.46888 13.5547 6.51593 13.2019C6.56298 12.849 6.75117 12.5432 7.03347 12.3315L10.5151 9.81435L13.5497 7.62657C15.2435 6.4033 17.5724 6.54445 19.078 7.97944C19.4073 8.30878 19.9249 8.30878 20.3013 8.05001L26.3471 3.65093V18.9183ZM26.2059 22.0471L26.1824 22.1412C26.1353 22.3764 25.9942 22.7058 25.8295 22.8704C25.3826 23.2939 24.7239 23.3174 24.2534 22.9881L18.9133 19.083L18.8663 19.0595C18.5369 18.8242 18.0194 18.8242 17.7136 19.1065C17.3372 19.4359 17.3137 20.0004 17.643 20.3768C17.6901 20.4239 17.7371 20.4709 17.7841 20.4945L17.8547 20.5415L22.7713 24.1172C23.0536 24.3054 23.2418 24.6112 23.2889 24.9406C23.3594 25.4111 23.1713 25.8345 22.7949 26.1168L22.6772 26.1874C22.2538 26.4932 21.6657 26.4932 21.2422 26.1874L15.1494 21.7648C14.8201 21.5295 14.3025 21.5295 13.9967 21.8118C13.6203 22.1412 13.5968 22.7058 13.9261 23.0821C13.9732 23.1292 14.0202 23.1762 14.0673 23.1998L19.0545 26.8225C19.3368 27.0107 19.525 27.3166 19.572 27.6459C19.6426 28.1164 19.4544 28.5398 19.078 28.8221L18.9604 28.8927C18.5369 29.1985 17.9488 29.1985 17.5254 28.8927L16.4197 28.0929L11.4325 24.4701C11.1032 24.2348 10.5857 24.2348 10.2798 24.5171C9.90345 24.8465 9.87993 25.4111 10.2093 25.7875C10.2563 25.8345 10.3034 25.8816 10.3504 25.9051L15.3376 29.5279C15.6199 29.716 15.8081 30.0219 15.8551 30.3512C15.9257 30.8217 15.7375 31.2451 15.3611 31.5274L15.2435 31.598C14.8671 31.8803 14.3731 31.9038 13.9497 31.6921L2.02276 23.0116V3.67446L7.19814 7.43837L8.82133 8.6146L5.85724 10.7789C5.15151 11.2964 4.68102 12.0492 4.53987 12.9196C4.39873 13.7665 4.61045 14.6604 5.12799 15.3661C5.64552 16.0719 6.39831 16.5423 7.26871 16.6835C7.43338 16.707 7.62158 16.7305 7.78625 16.7305C8.46846 16.7305 9.12715 16.5188 9.71526 16.0954L13.8556 13.0842C14.1849 12.849 14.6083 12.849 14.9377 13.0842L25.806 20.9885C26.1353 21.2472 26.2765 21.6472 26.2059 22.0471ZM24.9591 2.26299L20.0425 5.83871C19.9014 5.95634 19.6896 5.95634 19.525 5.86224C17.5019 4.54487 14.8906 4.49781 12.844 5.76814C12.7734 5.79166 12.7264 5.83871 12.6558 5.86224L10.5386 7.41485L3.45775 2.26299H24.9591ZM28.0173 0.616277C27.8291 0.428082 27.5939 0.333984 27.3351 0.333984H1.05825C0.517191 0.333984 0.09375 0.780951 0.09375 1.29849V23.4821C0.09375 23.7879 0.234897 24.0937 0.493666 24.2819L13.1263 33.4564C13.7615 33.9269 14.6319 33.9269 15.267 33.4564L27.8997 24.2819C28.1584 24.0937 28.2996 23.8114 28.2996 23.4821V1.27496C28.2996 1.03972 28.2055 0.780949 28.0173 0.616277ZM42.8612 32.7978C42.8612 32.1391 42.3672 31.6921 41.685 31.6921H40.0148V33.8799H41.685C42.3672 33.8799 42.8612 33.4564 42.8612 32.7978ZM38.815 37.5262V30.6335H41.8497C43.3082 30.6335 44.0845 31.6215 44.0845 32.7978C44.0845 33.974 43.2847 34.9385 41.8497 34.9385H40.0148V37.5262H38.815ZM44.8608 37.5262V32.539H45.9429V33.2682C46.3193 32.7978 46.931 32.4214 47.5661 32.4214V33.5035C47.4485 33.48 47.3544 33.48 47.2368 33.48C46.7663 33.48 46.1547 33.7858 45.9429 34.1622V37.5732L44.8608 37.5262ZM51.9417 35.0326C51.9417 34.1622 51.4241 33.3859 50.5067 33.3859C49.5892 33.3859 49.0717 34.1622 49.0717 35.0326C49.0717 35.9265 49.5892 36.7028 50.5067 36.7028C51.4477 36.7028 51.9417 35.9265 51.9417 35.0326ZM47.9425 35.0326C47.9425 33.5976 48.907 32.4214 50.5067 32.4214C52.1063 32.4214 53.0709 33.5976 53.0709 35.0326C53.0709 36.4676 52.1063 37.6673 50.5067 37.6673C48.9305 37.6438 47.9425 36.4441 47.9425 35.0326ZM60.1047 37.5262V34.2798C60.1047 33.7387 59.8694 33.3859 59.2813 33.3859C58.7873 33.3859 58.3403 33.7152 58.1286 34.0446V37.5497H57.0465V34.3033C57.0465 33.7623 56.8112 33.4094 56.2231 33.4094C55.7291 33.4094 55.2822 33.7387 55.0704 34.0681V37.5732H53.9883V32.586H55.0704V33.2682C55.2822 32.9624 55.9408 32.4684 56.6936 32.4684C57.4464 32.4684 57.8934 32.8448 58.058 33.3859C58.3403 32.9389 58.999 32.4684 59.7518 32.4684C60.6693 32.4684 61.1868 32.9624 61.1868 33.974V37.5732L60.1047 37.5262ZM62.3865 37.5262H63.4687V32.539H62.3865V37.5262ZM62.2689 31.2451C62.2689 30.8688 62.5747 30.5629 62.9276 30.5629C63.304 30.5629 63.6098 30.8687 63.6098 31.2216C63.6098 31.598 63.304 31.9038 62.9511 31.9038C62.5747 31.9273 62.2689 31.6215 62.2689 31.2451ZM64.4567 36.8675L64.9507 36.0912C65.3036 36.4441 65.9858 36.7734 66.6445 36.7734C67.3032 36.7734 67.6325 36.5146 67.6325 36.1147C67.6325 35.1267 64.6214 35.8324 64.6214 33.9034C64.6214 33.08 65.3271 32.3978 66.5739 32.3978C67.4208 32.3978 68.0559 32.7037 68.5029 33.08L68.0559 33.8564C67.7501 33.527 67.2091 33.2682 66.5739 33.2682C66.0093 33.2682 65.6564 33.527 65.6564 33.8799C65.6564 34.7503 68.6676 34.0916 68.6676 36.0912C68.6676 36.9851 67.9383 37.6438 66.5974 37.6438C65.7505 37.6438 64.9742 37.385 64.4567 36.8675ZM71.7728 33.2918C70.8554 33.2918 70.4084 33.9975 70.3849 34.6091H73.2078C73.1607 34.021 72.7608 33.2918 71.7728 33.2918ZM69.2557 35.0326C69.2557 33.5976 70.3143 32.4214 71.7963 32.4214C73.3019 32.4214 74.2429 33.5505 74.2429 35.1267V35.3855H70.4084C70.5025 36.1382 71.0435 36.7499 71.9845 36.7499C72.4785 36.7499 73.0431 36.5617 73.4195 36.1853L73.9135 36.891C73.396 37.3615 72.6667 37.6203 71.8904 37.6203C70.3613 37.6438 69.2557 36.6087 69.2557 35.0326ZM74.6898 36.8675L75.1839 36.0912C75.5367 36.4441 76.2189 36.7734 76.8776 36.7734C77.5363 36.7734 77.8656 36.5146 77.8656 36.1147C77.8656 35.1267 74.8545 35.8324 74.8545 33.9034C74.8545 33.08 75.5602 32.3978 76.807 32.3978C77.6539 32.3978 78.2891 32.7037 78.736 33.08L78.2891 33.8564C77.9833 33.527 77.4422 33.2682 76.807 33.2682C76.2425 33.2682 75.8896 33.527 75.8896 33.8799C75.8896 34.7503 78.9007 34.0916 78.9007 36.0912C78.9007 36.9851 78.1715 37.6438 76.8306 37.6438C75.9602 37.6438 75.2074 37.385 74.6898 36.8675ZM87.6048 34.0681C87.6048 32.7507 86.7814 31.6921 85.2523 31.6921H83.8879V36.4676H85.2523C86.7344 36.4676 87.6048 35.3854 87.6048 34.0681ZM82.6882 37.5262V30.6335H85.2523C87.4166 30.6335 88.8516 32.0685 88.8516 34.0681C88.8516 36.1147 87.3931 37.5262 85.2523 37.5262H82.6882ZM92.0038 33.2918C91.0864 33.2918 90.6394 33.9975 90.6159 34.6091H93.4388C93.3918 34.021 92.9919 33.2918 92.0038 33.2918ZM89.4867 35.0326C89.4867 33.5976 90.5453 32.4214 92.0274 32.4214C93.5329 32.4214 94.4739 33.5505 94.4739 35.1267V35.3855H90.6394C90.7335 36.1382 91.2746 36.7499 92.2156 36.7499C92.7096 36.7499 93.2742 36.5617 93.6506 36.1853L94.1446 36.891C93.627 37.3615 92.8978 37.6203 92.1215 37.6203C90.5924 37.6438 89.4867 36.6087 89.4867 35.0326ZM95.3443 37.5262H96.4264V30.6335H95.3443V37.5262ZM97.6262 37.5262H98.7083V32.539H97.6262V37.5262ZM97.485 31.2451C97.485 30.8688 97.7909 30.5629 98.1437 30.5629C98.5201 30.5629 98.8259 30.8687 98.8259 31.2216C98.8259 31.598 98.5201 31.9038 98.1673 31.9038C97.7909 31.9273 97.485 31.6215 97.485 31.2451ZM101.414 37.5262L99.367 32.539H100.543L102.002 36.2794L103.46 32.539H104.613L102.566 37.5262H101.414ZM107.107 33.2918C106.189 33.2918 105.742 33.9975 105.719 34.6091H108.542C108.494 34.021 108.095 33.2918 107.107 33.2918ZM104.589 35.0326C104.589 33.5976 105.648 32.4214 107.13 32.4214C108.636 32.4214 109.577 33.5505 109.577 35.1267V35.3855H105.742C105.836 36.1382 106.377 36.7499 107.318 36.7499C107.812 36.7499 108.377 36.5617 108.753 36.1853L109.247 36.891C108.73 37.3615 108 37.6203 107.224 37.6203C105.695 37.6438 104.589 36.6087 104.589 35.0326ZM110.447 37.5262V32.539H111.529V33.2682C111.906 32.7978 112.517 32.4214 113.152 32.4214V33.5035C113.035 33.48 112.941 33.48 112.823 33.48C112.353 33.48 111.741 33.7858 111.529 34.1622V37.5732L110.447 37.5262ZM115.834 33.2918C114.917 33.2918 114.47 33.9975 114.446 34.6091H117.269C117.222 34.021 116.822 33.2918 115.834 33.2918ZM113.317 35.0326C113.317 33.5976 114.376 32.4214 115.858 32.4214C117.363 32.4214 118.304 33.5505 118.304 35.1267V35.3855H114.47C114.564 36.1382 115.105 36.7499 116.046 36.7499C116.54 36.7499 117.104 36.5617 117.481 36.1853L117.975 36.891C117.457 37.3615 116.728 37.6203 115.952 37.6203C114.423 37.6438 113.317 36.6087 113.317 35.0326ZM122.68 36.0206V34.0446C122.445 33.6682 121.903 33.3623 121.409 33.3623C120.539 33.3623 119.998 34.0446 119.998 35.0091C119.998 35.9736 120.539 36.6793 121.409 36.6793C121.903 36.7028 122.445 36.397 122.68 36.0206ZM122.68 37.5262V36.844C122.303 37.338 121.739 37.6438 121.08 37.6438C119.81 37.6438 118.869 36.6793 118.869 35.0091C118.869 33.3859 119.81 32.3978 121.08 32.3978C121.715 32.3978 122.28 32.6801 122.68 33.2212V30.6335H123.762V37.5262H122.68Z" fill="#212E61"/>
</svg>
