<svg width="55" height="55" viewBox="0 0 55 55" fill="none" xmlns="http://www.w3.org/2000/svg">
<circle opacity="0.6" cx="27.3186" cy="27.6374" r="27.2516" fill="#3342F5"/>
<path d="M17.4402 26.6423C17.4402 27.1874 17.8821 27.6293 18.4272 27.6293C18.9724 27.6293 19.4143 27.1874 19.4143 26.6423V22.6941H33.8111L32.535 23.9702C32.1496 24.3557 32.1496 24.9807 32.535 25.3661C32.9204 25.7516 33.5454 25.7516 33.9309 25.3661L36.892 22.405C37.2775 22.0195 37.2775 21.3946 36.892 21.0091L33.9309 18.0479C33.5454 17.6625 32.9204 17.6625 32.535 18.0479C32.1496 18.4334 32.1496 19.0584 32.535 19.4438L33.8111 20.72H18.4272C17.8821 20.72 17.4402 21.1619 17.4402 21.707V26.6423Z" fill="white"/>
<path d="M37.1812 28.6159C37.1812 28.0707 36.7393 27.6288 36.1941 27.6288C35.649 27.6288 35.2071 28.0707 35.2071 28.6159V32.5641H20.8102L22.0864 31.2879C22.4718 30.9025 22.4718 30.2775 22.0864 29.892C21.7009 29.5066 21.076 29.5066 20.6905 29.892L17.7294 32.8532C17.3439 33.2386 17.3439 33.8636 17.7294 34.2491L20.6905 37.2102C21.076 37.5956 21.7009 37.5956 22.0864 37.2102C22.4718 36.8248 22.4718 36.1998 22.0864 35.8143L20.8102 34.5382H36.1941C36.7393 34.5382 37.1812 34.0963 37.1812 33.5511V28.6159Z" fill="white"/>
</svg>
