<svg width="20" height="23" viewBox="0 0 20 23" fill="none" xmlns="http://www.w3.org/2000/svg">
<path fill-rule="evenodd" clip-rule="evenodd" d="M13.0005 8.21451C12.4006 7.61455 11.6362 7.20598 10.804 7.04045C9.97181 6.87493 9.10924 6.95989 8.32535 7.28459C7.54146 7.60929 6.87145 8.15915 6.40007 8.86464C5.92868 9.57012 5.67708 10.3995 5.67708 11.248C5.67708 12.0965 5.92868 12.9259 6.40007 13.6314C6.87145 14.3369 7.54146 14.8868 8.32535 15.2115C9.10924 15.5362 9.97181 15.6211 10.804 15.4556C11.6362 15.2901 12.4006 14.8815 13.0005 14.2815C13.805 13.4769 14.2569 12.3858 14.2569 11.248C14.2569 10.1103 13.805 9.0191 13.0005 8.21451ZM9.96679 6.03107C10.9987 6.03107 12.0074 6.33707 12.8653 6.91036C13.7233 7.48365 14.392 8.29849 14.7869 9.25184C15.1817 10.2052 15.285 11.2542 15.0837 12.2663C14.8823 13.2783 14.3854 14.2079 13.6557 14.9375C12.926 15.6672 11.9964 16.164 10.9843 16.3653C9.97226 16.5665 8.92324 16.4631 7.96993 16.0682C7.01662 15.6732 6.20184 15.0045 5.62863 14.1464C5.05541 13.2884 4.74951 12.2797 4.7496 11.2478C4.74972 9.86419 5.29945 8.5373 6.27784 7.55899C7.25624 6.58068 8.58318 6.03107 9.96679 6.03107ZM5.26898 1.83717C6.82121 1.40622 8.3224 0.809016 9.74648 0.0559172C9.81333 0.019701 9.88806 0.000500146 9.96409 9.64008e-06C10.0401 -0.000480866 10.1151 0.0177541 10.1824 0.0531047C11.6078 0.807927 13.1106 1.40641 14.6646 1.8381C16.2344 2.2717 17.8451 2.5405 19.4707 2.64014C19.5317 2.63983 19.5921 2.65158 19.6485 2.67473C19.7049 2.69788 19.7562 2.73196 19.7994 2.77501C19.8425 2.81805 19.8768 2.86922 19.9001 2.92556C19.9234 2.98189 19.9353 3.04229 19.9352 3.10326V8.84592V8.8492C19.901 12.377 19.0741 15.2322 17.4387 17.4859C15.8032 19.7397 13.3666 21.3798 10.1154 22.4725C10.0202 22.5046 9.91712 22.5046 9.82194 22.4725C6.57069 21.3798 4.13554 19.7411 2.49866 17.4859C0.867882 15.2415 0.0414761 12.4004 0.000694849 8.89326C-0.000231616 8.87765 -0.000231616 8.862 0.000694849 8.84639V3.10326C0.00072292 2.98536 0.0457592 2.87192 0.126605 2.78611C0.207452 2.7003 0.318008 2.64859 0.435695 2.64154C2.07047 2.543 3.69041 2.27341 5.26898 1.83717ZM9.96679 0.982167C12.7957 2.44139 15.8412 3.28232 19.0085 3.5331V8.84592C18.9752 12.1703 18.206 14.8459 16.6854 16.9426C15.1891 19.0051 12.9541 20.5173 9.96491 21.5462C6.97569 20.5173 4.74069 19.0042 3.24444 16.9426C1.73085 14.8544 0.962101 12.189 0.923664 8.8806C0.923664 8.86935 0.923664 8.85764 0.923664 8.84592V3.53404C4.09241 3.28326 7.13788 2.44232 9.96679 0.982167ZM11.6285 9.46654C11.712 9.37678 11.8278 9.32389 11.9504 9.31949C12.0729 9.3151 12.1922 9.35956 12.2819 9.4431C12.3717 9.52665 12.4246 9.64243 12.429 9.76497C12.4334 9.88751 12.3889 10.0068 12.3054 10.0965L9.57397 13.0342C9.52859 13.0834 9.47305 13.1222 9.41121 13.1478C9.34936 13.1734 9.28268 13.1852 9.2158 13.1825C9.14892 13.1798 9.08342 13.1626 9.02386 13.132C8.96429 13.1015 8.91209 13.0583 8.87085 13.0056L7.62304 11.6228C7.58238 11.5779 7.55097 11.5254 7.5306 11.4683C7.51024 11.4112 7.50131 11.3507 7.50434 11.2901C7.50736 11.2296 7.52228 11.1703 7.54823 11.1155C7.57419 11.0608 7.61068 11.0117 7.65562 10.971C7.74637 10.8889 7.86603 10.8462 7.98826 10.8523C8.04879 10.8553 8.10812 10.8702 8.16288 10.8962C8.21764 10.9221 8.26675 10.9586 8.30741 11.0036L9.23788 12.0315L11.6285 9.46654Z" fill="#003FDB"/>
</svg>
