<svg width="55" height="55" viewBox="0 0 55 55" fill="none" xmlns="http://www.w3.org/2000/svg">
<circle opacity="0.6" cx="27.3188" cy="27.28" r="27.2516" fill="#3342F5"/>
<g clip-path="url(#clip0_1_103)">
<path d="M34.6226 22.3513L30.7116 21.783L28.9626 18.2391C28.287 16.8701 26.3335 16.8706 25.6582 18.239L23.9092 21.783L19.9982 22.3513C18.4874 22.5708 17.8843 24.4287 18.9771 25.494L21.8071 28.2525L21.1391 32.1476C20.881 33.6523 22.4615 34.7999 23.8124 34.0899L27.3104 32.2508L30.8086 34.0899C32.1576 34.7991 33.7399 33.652 33.4819 32.1476L32.8138 28.2525L35.6439 25.4939C36.7368 24.4283 36.1327 22.5708 34.6226 22.3513ZM34.5414 24.3631L31.4141 27.4114C31.228 27.5928 31.1431 27.8542 31.187 28.1103L31.9252 32.4146C31.9623 32.6308 31.7374 32.794 31.5433 32.6921L27.6778 30.6599C27.4478 30.539 27.1729 30.539 26.9429 30.6599L23.0774 32.6921C22.8833 32.7941 22.6584 32.6308 22.6955 32.4146L23.4338 28.1103C23.4777 27.8542 23.3928 27.5928 23.2067 27.4114L20.0794 24.3631C19.9223 24.21 20.0082 23.9457 20.2253 23.9141L24.5471 23.2861C24.8042 23.2487 25.0266 23.0872 25.1416 22.8542L27.0744 18.9379C27.1714 18.7414 27.4493 18.7413 27.5464 18.938L29.4792 22.8542C29.5942 23.0872 29.8166 23.2488 30.0737 23.2861L34.3955 23.9141C34.6125 23.9457 34.6984 24.21 34.5414 24.3631Z" fill="white"/>
<path d="M21.6999 17.6081L20.7555 16.3083C20.4991 15.9555 20.0053 15.8772 19.6526 16.1337C19.2998 16.39 19.2215 16.8838 19.4779 17.2366L20.4223 18.5364C20.6788 18.8893 21.1726 18.9672 21.5252 18.711C21.878 18.4547 21.9562 17.9609 21.6999 17.6081Z" fill="white"/>
<path d="M18.5663 29.2569C18.4316 28.8422 17.9861 28.6151 17.5713 28.75L16.0122 29.2566C15.5975 29.3913 15.3705 29.8368 15.5053 30.2515C15.6402 30.667 16.0865 30.8931 16.5003 30.7585L18.0593 30.2519C18.4741 30.1171 18.701 29.6717 18.5663 29.2569Z" fill="white"/>
<path d="M34.9678 16.1336C34.6151 15.8773 34.1213 15.9555 33.8649 16.3083L32.9205 17.608C32.6642 17.9608 32.7424 18.4547 33.0952 18.7109C33.4481 18.9674 33.9419 18.889 34.1981 18.5363L35.1425 17.2366C35.3988 16.8838 35.3206 16.3899 34.9678 16.1336Z" fill="white"/>
<path d="M38.6074 29.2566L37.0483 28.75C36.6336 28.615 36.1881 28.8422 36.0533 29.257C35.9186 29.6717 36.1455 30.1172 36.5603 30.252L38.1193 30.7585C38.5332 30.8931 38.9794 30.667 39.1143 30.2516C39.2491 29.8368 39.0221 29.3914 38.6074 29.2566Z" fill="white"/>
<path d="M27.3104 35.3766C26.8743 35.3766 26.5208 35.7302 26.5208 36.1663V37.7689C26.5208 38.205 26.8743 38.5585 27.3104 38.5585C27.7464 38.5585 28.1 38.205 28.1 37.7689V36.1663C28.1 35.7301 27.7465 35.3766 27.3104 35.3766Z" fill="white"/>
</g>
<defs>
<clipPath id="clip0_1_103">
<rect width="23.6891" height="23.6891" fill="white" transform="translate(15.4651 15.4264)"/>
</clipPath>
</defs>
</svg>
