<svg width="40" height="40" viewBox="0 0 40 40" fill="none" xmlns="http://www.w3.org/2000/svg">
<circle cx="20" cy="20" r="20" fill="#F7F8FA"/>
<path d="M24.3135 12.8965C24.0628 12.6417 23.7258 12.5015 23.3643 12.5008C23.363 12.5008 23.3623 12.5 23.361 12.5H14.4495C14.4495 12.5 14.4475 12.5008 14.4463 12.5008C14.0853 12.5015 13.748 12.6418 13.4998 12.894C13.2443 13.1455 13.1035 13.4838 13.1035 13.8463V15.1667C13.1035 15.3047 13.2153 15.4167 13.3535 15.4167H15.295V26.1545C15.295 26.5173 15.4355 26.8555 15.6883 27.104C15.9393 27.3593 16.2768 27.4995 16.6388 27.5H16.6398H25.5513C25.5513 27.5 25.5518 27.5 25.552 27.5C25.5523 27.5 25.5525 27.5 25.5528 27.5C25.913 27.5 26.2503 27.3595 26.4993 27.1065C26.7545 26.855 26.8953 26.5168 26.8953 26.1543V24.8337C26.8953 24.6955 26.7835 24.5837 26.6453 24.5837H24.707V13.846C24.707 13.4835 24.5663 13.1452 24.3135 12.8965ZM13.6035 13.846C13.6035 13.6185 13.6913 13.4067 13.853 13.2472C14.01 13.088 14.2218 13.0002 14.4493 13.0002C14.9155 13.0002 15.295 13.3797 15.295 13.846V14.9165H13.6035V13.846ZM15.795 26.1543V13.846C15.795 13.5237 15.6765 13.2318 15.487 13H23.3593C23.3593 13 23.3605 13.0002 23.361 13.0002C23.5885 13.0002 23.8003 13.088 23.96 13.25C24.1193 13.4067 24.2068 13.6185 24.2068 13.846V24.5837H17.736C17.5978 24.5837 17.486 24.6955 17.486 24.8337V26.1543C17.486 26.6205 17.1068 27 16.6405 27C16.413 27 16.2013 26.9122 16.0415 26.7502C15.8823 26.5935 15.795 26.3818 15.795 26.1543ZM26.395 25.0837V26.1543C26.395 26.3818 26.3073 26.5935 26.1455 26.753C25.9885 26.9125 25.7778 27 25.5525 27C25.5523 27 25.552 27 25.5518 27C25.5515 27 25.5513 27 25.551 27H17.6785C17.8678 26.7683 17.986 26.4762 17.986 26.1543V25.0837H26.395Z" fill="#02001A"/>
<path d="M17.2012 18.1836H23.2657C23.4039 18.1836 23.5157 18.0716 23.5157 17.9336C23.5157 17.7956 23.4039 17.6836 23.2657 17.6836H17.2012C17.0629 17.6836 16.9512 17.7956 16.9512 17.9336C16.9512 18.0716 17.0629 18.1836 17.2012 18.1836Z" fill="#02001A"/>
<path d="M17.2012 19.3613H23.2657C23.4039 19.3613 23.5157 19.2493 23.5157 19.1113C23.5157 18.9733 23.4039 18.8613 23.2657 18.8613H17.2012C17.0629 18.8613 16.9512 18.9733 16.9512 19.1113C16.9512 19.2493 17.0629 19.3613 17.2012 19.3613Z" fill="#02001A"/>
<path d="M17.2012 20.5381H23.2657C23.4039 20.5381 23.5157 20.4263 23.5157 20.2881C23.5157 20.1498 23.4039 20.0381 23.2657 20.0381H17.2012C17.0629 20.0381 16.9512 20.1501 16.9512 20.2881C16.9512 20.4261 17.0629 20.5381 17.2012 20.5381Z" fill="#02001A"/>
<path d="M23.2664 21.8848H21.2422C21.1039 21.8848 20.9922 21.9965 20.9922 22.1348C20.9922 22.273 21.1039 22.3848 21.2422 22.3848H23.2664C23.4047 22.3848 23.5164 22.273 23.5164 22.1348C23.5164 21.9965 23.4047 21.8848 23.2664 21.8848Z" fill="#02001A"/>
<path d="M23.2661 22.8691H19.6936C19.5554 22.8691 19.4436 22.9809 19.4436 23.1191C19.4436 23.2574 19.5554 23.3691 19.6936 23.3691H23.2661C23.4044 23.3691 23.5161 23.2574 23.5161 23.1191C23.5161 22.9809 23.4044 22.8691 23.2661 22.8691Z" fill="#02001A"/>
<path d="M20.2685 16.1309H20.0503C20.0503 16.1309 20.0488 16.1304 20.0478 16.1304C20.0468 16.1304 20.0463 16.1309 20.0453 16.1309H19.467C19.3288 16.1309 19.217 16.2429 19.217 16.3809C19.217 16.5189 19.3288 16.6309 19.467 16.6309H19.7975V16.8952C19.7975 17.0332 19.9093 17.1452 20.0475 17.1452C20.1858 17.1452 20.2975 17.0332 20.2975 16.8952V16.6282C20.6198 16.6127 20.878 16.3482 20.878 16.0224V15.5799C20.878 15.2437 20.6045 14.9702 20.2685 14.9699H19.8268C19.766 14.9699 19.7168 14.9207 19.7168 14.8599V14.4189C19.7168 14.3582 19.766 14.3089 19.8268 14.3089H20.6278C20.766 14.3089 20.8778 14.1969 20.8778 14.0589C20.8778 13.9209 20.766 13.8089 20.6278 13.8089H20.2973V13.5439C20.2973 13.4059 20.1855 13.2939 20.0473 13.2939C19.909 13.2939 19.7973 13.4059 19.7973 13.5439V13.8119C19.4748 13.8277 19.2168 14.0927 19.2168 14.4189V14.8599C19.2168 15.1962 19.4903 15.4697 19.8263 15.4699H20.268C20.3285 15.4699 20.3778 15.5192 20.3778 15.5799V16.0224C20.3778 16.0824 20.3285 16.1312 20.268 16.1312L20.2685 16.1309Z" fill="#02001A"/>
</svg>
