<svg width="210" height="61" viewBox="0 0 210 61" fill="none" xmlns="http://www.w3.org/2000/svg">
<rect x="11.0166" y="9.10156" width="40.8343" height="41.9121" fill="#0033FF"/>
<path d="M30.5 0C13.6514 0 0 13.6514 0 30.5C0 47.3487 13.6514 61 30.5 61C47.3487 61 61 47.3487 61 30.5C61 13.6514 47.3487 0 30.5 0ZM18.0102 24.0096L27.2788 29.53L18.0102 35.0744V24.0216V24.0096ZM18.0102 48.6898V39.1099L34.0446 29.5181L18.0102 19.9741V10.3942L28.5122 16.6451C32.0328 18.7167 34.0925 22.0936 34.0925 25.6143V29.5181C38.8704 26.68 45.3369 26.68 50.1268 29.5181L18.0222 48.6898H18.0102Z" fill="#FDFDFD"/>
<path d="M80.1466 35.1908V26.0181H84.3259L86.6849 21.3838H80.1466V17.4561H74.6502V21.3838H71.1296L68.7705 26.0181H74.6502V35.1908C74.6502 41.2741 77.8714 43.8128 82.7332 43.8128C87.595 43.8128 84.6372 43.7649 85.5952 43.5852V38.8671H83.6433C80.8292 38.8671 80.1466 37.4182 80.1466 35.1908Z" fill="#FDFDFD"/>
<path d="M105.187 21.3877H88.3503L85.9912 26.022H98.2415L87.0689 39.2782V43.8166H105.187V39.1824H93.8348L105.187 25.9741V21.3877Z" fill="#FDFDFD"/>
<path d="M124.645 14.9925H126.597V10.2744C125.651 10.0948 124.597 10.0469 123.735 10.0469C118.885 10.0469 115.652 12.5855 115.652 18.6688V21.3871H112.431V26.0214H115.652V43.816H121.148V26.0214H126.501V21.3871H121.148V18.6688C121.148 16.4415 121.831 14.9925 124.645 14.9925Z" fill="#FDFDFD"/>
<path d="M138.155 20.7539C131.209 20.7539 126.18 25.5678 126.18 32.5492C126.18 39.5305 131.209 44.3444 138.155 44.3444C145.1 44.3444 150.141 39.5425 150.141 32.5492C150.141 25.5558 145.112 20.7539 138.155 20.7539ZM138.155 39.4108C134.347 39.4108 131.712 36.6446 131.712 32.5611C131.712 28.4777 134.347 25.7115 138.155 25.7115C141.963 25.7115 144.597 28.4777 144.597 32.5611C144.597 36.6446 141.963 39.4108 138.155 39.4108Z" fill="#FDFDFD"/>
<path d="M163.864 20.9814C160.87 20.9814 158.739 22.4783 157.781 24.7056L157.457 21.4365H152.236V43.8175H157.769V32.9204C157.769 28.5735 160.259 26.43 164.259 26.43H166.307V21.3048C165.397 21.0772 164.63 20.9934 163.852 20.9934L163.864 20.9814Z" fill="#FDFDFD"/>
<path d="M183.372 36.5469C182.737 38.6784 180.737 39.8639 177.696 39.8639C174.654 39.8639 171.936 37.8641 171.528 33.9124L188.413 33.8645V32.188C188.413 25.1947 184.15 20.7041 177.432 20.7041C170.714 20.7041 166.271 25.5539 166.271 32.5951C166.271 39.6364 170.942 44.3904 177.612 44.3904C184.282 44.3904 187.551 41.4326 188.509 36.5349H183.384L183.372 36.5469ZM177.468 25.2426C180.785 25.2426 182.917 27.2903 182.917 30.3678H171.66C172.199 27.0149 174.199 25.2426 177.468 25.2426Z" fill="#FDFDFD"/>
<path d="M209.86 21.3877H203.645L198.879 29.0157L193.934 21.3877H187.491L195.203 32.8237L187.491 43.8047H193.802L198.52 36.4042L203.286 43.8047H209.645L202.244 32.7279L209.872 21.3877H209.86Z" fill="#FDFDFD"/>
</svg>
