<svg width="222" height="46" viewBox="0 0 222 46" fill="none" xmlns="http://www.w3.org/2000/svg">
<path d="M37.0398 0.304688H39.4975C39.7033 0.366219 39.9215 0.339182 40.1316 0.375076C42.9272 0.639847 45.6993 1.45747 48.0665 2.95147C49.0204 3.55186 49.89 4.27486 50.6773 5.07057C51.2808 5.73576 51.8585 6.42939 52.3276 7.19293C52.631 7.64509 52.8655 8.13548 53.1144 8.61748C53.8342 10.1208 54.2645 11.7486 54.4344 13.3969C54.4813 13.663 54.4598 13.9353 54.5086 14.2014C54.5344 14.5249 54.5119 14.8503 54.5191 15.1752C54.51 15.55 54.5469 15.9281 54.4823 16.2996C54.4435 17.2603 54.2922 18.2131 54.1085 19.157C54.007 19.7197 53.8285 20.2651 53.7136 20.8249C52.5501 25.3619 51.3847 29.8989 50.2202 34.4359C50.0293 35.2764 49.7967 36.1075 49.589 36.9443C49.4454 37.4813 49.3061 38.0336 48.9864 38.5017C48.7519 38.8685 48.4441 39.185 48.1057 39.4624C47.2974 40.0917 46.2554 40.3863 45.2303 40.3956C44.7942 40.3578 44.3549 40.3028 43.9399 40.1611C43.5063 39.9952 43.0698 39.7947 42.7544 39.4503C42.2969 39.0582 42.0489 38.4676 42.0116 37.8821C41.9613 37.5148 42.0662 37.148 42.1595 36.7946C42.7118 34.6438 43.2632 32.4935 43.816 30.3432C44.0567 29.4351 44.2644 28.5196 44.5042 27.6115C45.3078 24.479 46.1133 21.347 46.9159 18.2145C47.1107 17.4472 47.2318 16.6636 47.2888 15.8758C47.2744 15.2689 47.3242 14.6592 47.2433 14.056C47.1605 13.3018 46.9858 12.5527 46.6824 11.8516C46.4167 11.171 46.0075 10.5501 45.515 10.0043C45.3757 9.79869 45.1494 9.67843 44.9804 9.50036C44.901 9.42204 44.8186 9.34606 44.7277 9.28127C44.2084 8.89623 43.6542 8.54476 43.0473 8.30562C42.5194 8.05251 41.9561 7.87491 41.3875 7.7318C40.5997 7.51224 39.7875 7.37007 38.9686 7.33324C38.6029 7.26891 38.2311 7.309 37.8625 7.29549C37.5725 7.28197 37.2892 7.35702 36.9996 7.34863C35.6461 7.47449 34.3065 7.76816 33.0338 8.23524C32.191 8.52098 31.3932 8.91208 30.6082 9.32136C29.674 9.86255 28.767 10.4588 27.9663 11.1776C27.6897 11.4516 27.4068 11.7201 27.1297 11.9942C26.5903 12.6077 26.0825 13.2645 25.7623 14.0155C25.4168 15.1118 25.1248 16.2241 24.8075 17.3284C24.4222 18.7576 24.0264 20.1835 23.6579 21.6169C23.2132 23.2382 22.8093 24.8701 22.3383 26.4849C22.1258 27.1622 21.9114 27.8395 21.6961 28.5159C21.5975 28.8865 21.518 29.2678 21.3357 29.6104C20.7632 30.8321 19.5203 31.7057 18.1716 31.9346C17.2531 32.1085 16.2557 31.9882 15.4559 31.4978C15.2233 31.323 14.9706 31.1612 14.8017 30.9221C14.4475 30.5189 14.2474 30.0052 14.1752 29.4831C14.1651 29.237 14.0656 28.9825 14.1747 28.7438C15.2731 25.2379 16.1456 21.6705 17.1057 18.1273C17.6398 16.1294 18.172 14.1306 18.7698 12.1495C18.9015 11.6642 19.1187 11.206 19.3557 10.7617C20.0008 9.44442 20.8906 8.25202 21.8885 7.16776C22.2795 6.78785 22.6691 6.40608 23.061 6.02663C23.6832 5.51108 24.2978 4.98293 24.9736 4.5331C25.312 4.2618 25.7001 4.06183 26.0591 3.8185C27.4935 2.93282 29.0322 2.21309 30.6288 1.65045C31.0232 1.52273 31.407 1.36191 31.811 1.26169C32.6596 1.01743 33.5168 0.797404 34.3888 0.648237C35.0631 0.510724 35.75 0.450125 36.4324 0.359227C36.6344 0.336852 36.8431 0.368083 37.0398 0.304688Z" fill="#00579C"/>
<path d="M8.47981 7.12035C8.71864 7.11243 8.95364 7.05742 9.19294 7.06069C9.81705 7.11616 10.4512 7.20566 11.0227 7.47183C11.4132 7.67647 11.8038 7.91933 12.0445 8.29364C12.3896 8.7197 12.4135 9.30285 12.3044 9.81421C11.9962 10.9777 11.7167 12.1491 11.3931 13.3089C11.0342 14.7139 10.6723 16.1179 10.3124 17.5224C10.0444 18.5913 9.74286 19.6513 9.47915 20.7206C9.16757 21.9391 8.85169 23.1567 8.54155 24.3757C8.27305 25.3378 8.03518 26.3079 7.78535 27.2751C7.50249 28.3146 7.28042 29.3784 7.26462 30.457C7.21197 30.7377 7.22442 31.0225 7.26749 31.3036C7.2852 32.4316 7.54557 33.555 8.02753 34.581C8.26157 34.9954 8.49178 35.4159 8.80335 35.7823C9.04361 36.0447 9.26186 36.33 9.54759 36.5491C9.86395 36.7864 10.1593 37.0544 10.5115 37.2432C10.88 37.4716 11.2725 37.659 11.6674 37.8403C12.5571 38.1811 13.4784 38.4473 14.4208 38.6067C15.299 38.7293 16.1893 38.8132 17.0761 38.7442C19.2988 38.6137 21.4827 37.9923 23.4546 36.9891C24.6238 36.4121 25.6959 35.6583 26.6742 34.8113C27.2279 34.2897 27.7587 33.7396 28.1842 33.1113C28.4436 32.7272 28.7221 32.3403 28.8423 31.889C30.0101 27.9594 30.9994 23.9827 32.081 20.0307C32.3036 19.2509 32.5716 18.4845 32.8061 17.7079C33.0291 16.991 33.3766 16.2992 33.8916 15.7375C34.1654 15.38 34.542 15.1152 34.922 14.8747C35.7386 14.3647 36.7379 14.1708 37.6975 14.2603C38.1574 14.3144 38.6179 14.4239 39.0261 14.6435C39.5354 14.8752 39.98 15.2588 40.2404 15.7469C40.4969 16.2069 40.5022 16.7617 40.3892 17.2618C39.6603 19.6257 39.0127 22.0123 38.3877 24.4037C37.5252 27.6215 36.6958 30.8481 35.7448 34.0431C35.6629 34.3321 35.5395 34.6081 35.4083 34.8789C35.1814 35.4112 34.8847 35.9114 34.5794 36.4041C34.0371 37.2665 33.4183 38.0851 32.709 38.8244C32.4199 39.1777 32.0638 39.4709 31.7465 39.7991C31.1114 40.3645 30.4552 40.9108 29.7583 41.4045C28.6628 42.1932 27.4806 42.8617 26.263 43.4532C25.6983 43.6989 25.1412 43.9622 24.5621 44.1748C24.0581 44.3874 23.5283 44.5314 23.0133 44.7146C22.2169 44.9663 21.4037 45.1588 20.5877 45.3369C20.2771 45.3961 19.9631 45.4343 19.6539 45.4991C19.1782 45.5821 18.6957 45.6166 18.2186 45.6884C17.974 45.7308 17.7199 45.6777 17.481 45.7527H15.0229C14.9315 45.728 14.8386 45.7107 14.7443 45.7089C14.3926 45.7028 14.048 45.6217 13.6971 45.6026C12.6356 45.4628 11.5817 45.2539 10.5618 44.9318C9.4131 44.6083 8.31852 44.124 7.26797 43.5716C6.51081 43.1493 5.79673 42.6575 5.11949 42.1219C4.91034 41.9368 4.68061 41.7737 4.48916 41.5695C4.1862 41.259 3.84878 40.9794 3.57502 40.6423C1.74482 38.6183 0.595674 36.0447 0.215179 33.3793C0.139559 32.957 0.126636 32.5263 0.0505371 32.1049V29.6613C0.0955264 29.4986 0.0912189 29.3299 0.108928 29.1644C0.237195 27.966 0.420981 26.767 0.757922 25.6054C1.27913 23.6084 1.77114 21.6035 2.31053 19.6112C2.7207 18.0072 3.13278 16.4037 3.54535 14.8001C3.93302 13.3919 4.27523 11.9715 4.64567 10.5586C4.74331 10.2095 4.79882 9.84498 4.96347 9.51728C5.1506 9.14296 5.35066 8.76259 5.66272 8.47125C5.81683 8.32674 5.96041 8.17198 6.12218 8.03586C6.78793 7.50539 7.63028 7.20939 8.47981 7.12035Z" fill="#DA251C"/>
<path d="M91.9238 17.1416C91.9513 17.17 91.9513 17.17 91.9238 17.1416V17.1416Z" fill="white"/>
<path d="M69.0458 10.1913C70.7329 10.1875 72.42 10.1913 74.1071 10.1894C73.2934 13.9633 72.4755 17.7363 71.6638 21.5102C71.5049 22.2645 71.2938 23.0215 71.3278 23.7976C71.3058 24.2209 71.3905 24.6544 71.6044 25.0259C71.7973 25.3643 72.1448 25.5974 72.5143 25.7247C72.855 25.858 73.225 25.8846 73.5854 25.9344C74.052 25.9708 74.5206 25.9405 74.9815 25.8631C75.5601 25.7923 76.1072 25.5536 76.5777 25.2236C77.2472 24.6973 77.6119 23.9067 77.8694 23.1273C78.0226 22.6444 78.1116 22.1461 78.2241 21.6538C79.0506 17.8417 79.8715 14.0272 80.6951 10.215C80.7545 10.1745 80.833 10.195 80.9029 10.1885C82.5325 10.1941 84.1622 10.1843 85.7914 10.1931C85.6014 11.2019 85.3578 12.2004 85.1529 13.2058C84.7068 15.2592 84.2646 17.3131 83.82 19.3664C83.6013 20.3519 83.4089 21.3429 83.1734 22.3246C82.9226 23.3636 82.5856 24.3859 82.119 25.3527C81.7045 26.1372 81.1623 26.8569 80.5099 27.4695C79.0593 28.7807 77.1903 29.6314 75.238 29.9312C74.8953 29.9862 74.5507 30.0435 74.2023 30.044C73.7127 30.1223 73.2145 30.072 72.7205 30.0878C72.4463 30.105 72.1797 30.023 71.906 30.0379C70.8899 29.9302 69.8728 29.6972 68.9659 29.2268C68.2264 28.8525 67.5731 28.3169 67.0739 27.6666C66.4637 26.836 66.1684 25.7951 66.2153 24.777C66.2028 24.2899 66.2196 23.8041 66.2919 23.3217C66.4378 22.1712 66.726 21.0455 66.96 19.9109C67.5879 17.0236 68.2025 14.1339 68.8328 11.2476C68.8926 10.8933 69.0041 10.5483 69.0458 10.1913Z" fill="#DA251C"/>
<path d="M105.947 10.1896C107.554 10.1896 109.16 10.1891 110.768 10.19C110.496 11.4626 110.219 12.7333 109.943 14.005C108.337 14.005 106.73 14.005 105.124 14.005C105.407 12.7352 105.677 11.4621 105.947 10.1896Z" fill="#DA251C"/>
<path d="M154.738 10.2181C154.792 10.1724 154.873 10.1971 154.944 10.1887C158.183 10.1925 161.422 10.1887 164.661 10.1901C164.872 10.1929 165.086 10.1738 165.295 10.2195C166.299 10.261 167.312 10.419 168.246 10.7984C169.038 11.1322 169.75 11.7359 170.041 12.5451C170.25 13.1483 170.316 13.799 170.219 14.4293C170.179 14.9313 170.052 15.4222 169.909 15.9042C169.722 16.4029 169.484 16.8896 169.163 17.3203C168.942 17.6578 168.61 17.9025 168.335 18.1929C167.727 18.6801 167.028 19.0623 166.281 19.3042C166.828 19.4543 167.364 19.6809 167.804 20.0375C168.008 20.2272 168.233 20.4025 168.386 20.6369C168.774 21.1753 168.999 21.8321 168.964 22.4936C168.985 22.9458 168.918 23.3961 168.817 23.8361C168.574 24.7717 168.157 25.6667 167.572 26.4465C167.26 26.8819 166.852 27.2371 166.468 27.6091C165.745 28.2141 164.908 28.698 163.997 28.9782C163.286 29.2248 162.539 29.3548 161.79 29.4303C161.485 29.4406 161.185 29.5049 160.878 29.4821C160.246 29.5744 159.602 29.4984 158.966 29.5375C158.507 29.6098 158.04 29.5618 157.578 29.5753C155.236 29.5776 152.895 29.5711 150.554 29.5786C151.947 23.1252 153.336 16.6691 154.738 10.2181ZM158.786 14.1533C158.763 14.3533 158.717 14.55 158.67 14.7458C158.452 15.7429 158.244 16.7418 158.02 17.7375C159.356 17.7473 160.693 17.7394 162.029 17.7417C162.626 17.7594 163.235 17.6806 163.784 17.4443C164.175 17.2816 164.516 16.9977 164.725 16.6351C164.906 16.3013 165.063 15.9326 165.04 15.5475C165.04 15.3159 165.064 15.0693 164.934 14.8628C164.816 14.5971 164.556 14.4316 164.293 14.3207C163.923 14.1836 163.524 14.1277 163.13 14.1449C161.681 14.15 160.233 14.1337 158.786 14.1533ZM157.206 21.4732C157.176 21.7655 157.087 22.047 157.031 22.3346C156.907 22.9262 156.778 23.5163 156.648 24.1065C156.55 24.6244 156.408 25.1343 156.329 25.6559C157.75 25.6797 159.172 25.6578 160.593 25.6671C161.316 25.6233 162.06 25.538 162.715 25.2126C163.321 24.877 163.691 24.2388 163.819 23.5853C163.988 23.0101 163.914 22.2932 163.404 21.8988C162.822 21.5152 162.093 21.4308 161.407 21.4639C160.006 21.4695 158.606 21.4522 157.206 21.4732Z" fill="#DA251C"/>
<path d="M207.932 10.1899C209.512 10.1899 211.092 10.1857 212.672 10.1918C212.652 10.3106 212.63 10.429 212.608 10.5474C212.375 11.5846 212.161 12.6255 211.93 13.6631C211.483 15.8014 210.998 17.9321 210.556 20.0713C210.837 19.916 211.024 19.6508 211.278 19.4615C211.52 19.2807 211.704 19.0355 211.953 18.8607C212.173 18.671 212.367 18.4547 212.604 18.2831C212.753 18.1498 212.884 17.9969 213.048 17.8776C213.273 17.7102 213.444 17.4841 213.671 17.3173C213.877 17.1634 214.037 16.9593 214.245 16.805C214.414 16.6772 214.556 16.5183 214.712 16.3747C214.991 16.1673 215.218 15.9016 215.495 15.6913C215.656 15.5688 215.777 15.4023 215.941 15.2821C216.459 15.2541 216.98 15.2802 217.5 15.2714C218.871 15.2653 220.244 15.2839 221.616 15.2611V15.2965C219.741 16.9257 217.868 18.5563 215.994 20.1869C215.779 20.3426 215.617 20.5589 215.388 20.6968C215.605 21.3191 215.88 21.9209 216.111 22.5386C216.907 24.5011 217.686 26.4701 218.484 28.4316C218.623 28.832 218.816 29.2124 218.946 29.6161C217.159 29.6245 215.372 29.6184 213.585 29.6193C212.879 27.7245 212.168 25.831 211.457 23.9379C211.279 24.0531 211.127 24.1995 210.964 24.3314C210.526 24.6973 210.088 25.0628 209.65 25.4282C209.525 25.5368 209.355 25.6305 209.314 25.7988C209.037 27.056 208.775 28.3165 208.494 29.5727C206.914 29.5746 205.335 29.576 203.755 29.5723C203.777 29.3574 203.828 29.1471 203.871 28.936C205.004 23.7123 206.127 18.4864 207.257 13.2623C207.485 12.2391 207.687 11.2098 207.932 10.1899Z" fill="#DA251C"/>
<path d="M119.116 14.7732C119.443 14.7378 119.773 14.7662 120.102 14.7574C120.438 14.7672 120.779 14.7308 121.112 14.7886C121.946 14.8823 122.796 15.0259 123.55 15.4039C124.002 15.5815 124.399 15.8701 124.766 16.1782C124.935 16.291 125.068 16.4448 125.191 16.6033C125.491 16.9021 125.71 17.269 125.894 17.6438C126.281 18.3434 126.406 19.1452 126.464 19.9269C126.452 20.27 126.491 20.6168 126.429 20.9571C126.407 21.44 126.306 21.9141 126.217 22.3887C126.079 22.9518 125.942 23.5163 125.729 24.0579C125.579 24.4071 125.456 24.7688 125.272 25.103C124.921 25.7738 124.502 26.4134 123.99 26.9783C123.767 27.1816 123.609 27.4445 123.363 27.6253C123.213 27.727 123.092 27.8598 122.959 27.9782C122.763 28.1311 122.553 28.2654 122.363 28.4239C120.925 29.4093 119.18 29.9496 117.426 30.0088C116.838 30.0875 116.244 30.0185 115.655 29.9901C115.168 29.9318 114.681 29.8549 114.209 29.723C113.702 29.5622 113.183 29.3986 112.742 29.1016C111.817 28.566 111.117 27.6929 110.738 26.7173C110.395 25.819 110.353 24.849 110.402 23.9013C110.447 23.6389 110.429 23.3699 110.496 23.1103C110.795 21.1767 111.527 19.2571 112.864 17.7733C113.082 17.5799 113.227 17.3202 113.47 17.152C113.629 17.0452 113.75 16.8961 113.895 16.7725C114.593 16.2434 115.336 15.7484 116.171 15.4463C117.103 15.0562 118.111 14.8711 119.116 14.7732ZM118.828 18.4073C118.454 18.4674 118.09 18.5872 117.759 18.7644C117.423 18.9373 117.171 19.2156 116.908 19.4743C116.208 20.2621 115.852 21.2699 115.614 22.2698C115.499 22.8343 115.381 23.4053 115.408 23.9838C115.383 24.408 115.462 24.8331 115.616 25.2298C115.785 25.6722 116.126 26.0754 116.592 26.239C117.176 26.4824 117.844 26.4497 118.446 26.2856C118.866 26.1449 119.282 25.9491 119.589 25.6284C119.785 25.4303 120.001 25.248 120.158 25.0168C120.893 24.023 121.218 22.8031 121.389 21.606C121.481 21.014 121.473 20.4047 121.31 19.8249C121.176 19.3685 120.925 18.907 120.484 18.6707C119.987 18.3859 119.388 18.342 118.828 18.4073Z" fill="#DA251C"/>
<path d="M95.37 15.0447C96.1367 14.8951 96.9274 14.8508 97.7047 14.9412C98.4465 15.0079 99.2061 15.192 99.8005 15.6502C100.462 16.1141 100.748 16.9252 100.811 17.6896C100.801 18.159 100.866 18.6326 100.783 19.0993C100.691 19.9369 100.472 20.7541 100.307 21.5792C99.8919 23.4633 99.4975 25.3526 99.0835 27.2377C98.9251 27.9966 98.7504 28.7527 98.5977 29.5125C98.582 29.5931 98.481 29.568 98.424 29.5759C96.8604 29.5731 95.2968 29.5754 93.7336 29.5745C94.1462 27.7034 94.5377 25.8276 94.9488 23.956C95.1302 23.0778 95.3403 22.2052 95.4973 21.3218C95.5916 20.7238 95.6912 20.1187 95.6399 19.5123C95.594 19.2386 95.5136 18.9263 95.2556 18.7702C95.0761 18.6401 94.8636 18.5562 94.642 18.5282C94.0768 18.414 93.4838 18.5003 92.9511 18.7026C92.6357 18.8578 92.328 19.0531 92.1035 19.3216C91.4646 20.0507 91.2114 21.003 90.9859 21.9143C90.5384 24.0227 90.0771 26.1283 89.6253 28.2357C89.52 28.6804 89.4443 29.1312 89.3242 29.5726C87.729 29.5759 86.1343 29.5764 84.5396 29.5722C84.552 29.3848 84.5917 29.2002 84.6386 29.0184C85.5791 24.6664 86.5143 20.3136 87.4595 15.9626C87.5079 15.7309 87.5433 15.4964 87.6117 15.2694C89.1883 15.2722 90.7658 15.2731 92.3428 15.2703C92.215 15.8782 92.0657 16.4828 91.957 17.0939C92.2672 16.8492 92.5065 16.5299 92.8276 16.2973C93.5484 15.6791 94.4358 15.2531 95.37 15.0447ZM91.925 17.1424C91.9513 17.169 91.9513 17.169 91.925 17.1424V17.1424Z" fill="#DA251C"/>
<path d="M136.39 15.3768C137.388 14.9703 138.487 14.8393 139.561 14.9148C140.035 14.9591 140.512 15.0239 140.963 15.1787C141.482 15.3479 141.977 15.6276 142.311 16.0588C142.77 16.641 142.899 17.3957 142.927 18.1112C142.95 18.4091 142.869 18.6999 142.877 18.9974C142.775 19.9511 142.526 20.8815 142.337 21.8208C141.833 24.1436 141.332 26.4664 140.83 28.7897C140.786 29.0535 140.698 29.309 140.67 29.5751C139.063 29.5742 137.455 29.5775 135.847 29.5737C135.845 29.2894 135.953 29.0214 135.996 28.7431C136.439 26.6892 136.883 24.6354 137.328 22.582C137.451 21.9923 137.571 21.4017 137.651 20.8046C137.674 20.5589 137.734 20.3165 137.719 20.0686C137.706 19.8257 137.741 19.5791 137.697 19.339C137.618 19.1279 137.54 18.8864 137.333 18.761C137.117 18.6039 136.847 18.548 136.586 18.5093C136.265 18.4482 135.936 18.4799 135.62 18.5443C135.307 18.5778 135.022 18.7163 134.748 18.8575C134.534 18.9671 134.377 19.1488 134.208 19.3101C133.911 19.5898 133.748 19.9651 133.566 20.3179C133.14 21.2833 133.001 22.334 132.757 23.3502C132.379 25.1384 131.982 26.9228 131.606 28.7114C131.539 28.9971 131.471 29.2833 131.434 29.5747C129.824 29.5742 128.214 29.5784 126.604 29.5723C127.623 24.8027 128.662 20.0364 129.686 15.2677C131.262 15.2784 132.839 15.2677 134.415 15.2742C134.301 15.8993 134.133 16.5142 134.03 17.1407C134.674 16.3981 135.479 15.7805 136.39 15.3768Z" fill="#DA251C"/>
<path d="M177.157 15.2252C177.937 15.0233 178.743 14.9599 179.544 14.8975C179.942 14.9017 180.342 14.8937 180.742 14.9007C180.932 14.925 181.123 14.952 181.318 14.945C181.903 14.9884 182.481 15.1049 183.046 15.2597C183.565 15.4237 184.058 15.6689 184.486 16.0013C184.824 16.3038 185.133 16.6562 185.29 17.0842C185.543 17.6687 185.547 18.3157 185.512 18.9385C185.401 19.9528 185.2 20.9564 184.972 21.9521C184.715 23.1594 184.452 24.3658 184.191 25.5722C184.06 26.223 183.889 26.8667 183.808 27.5258C183.792 27.7748 183.799 28.0246 183.801 28.274C183.821 28.5439 183.902 28.8618 184.182 28.9825C184.132 29.1685 184.115 29.3624 184.061 29.547C184.001 29.5913 183.919 29.5666 183.855 29.5755C182.276 29.5722 180.696 29.5759 179.117 29.5736C179.128 29.3074 179.092 29.0375 179.149 28.7746C179.183 28.5611 179.16 28.3444 179.158 28.1295C178.375 28.7658 177.487 29.2771 176.531 29.624C175.792 29.864 175.015 30.0286 174.233 29.9927C173.43 30.023 172.596 29.9167 171.886 29.5317C171.695 29.4492 171.526 29.328 171.373 29.1932C171.13 28.9606 170.873 28.7294 170.72 28.4283C170.485 28.0488 170.372 27.6097 170.336 27.1716C170.264 26.8714 170.361 26.5712 170.365 26.2705C170.497 25.2771 170.865 24.3043 171.49 23.5035C171.656 23.2657 171.89 23.0853 172.09 22.876C172.335 22.6103 172.65 22.4197 172.955 22.2262C173.754 21.7461 174.655 21.4571 175.572 21.2795C176.296 21.1298 177.024 21.0021 177.755 20.8884C178.683 20.7266 179.655 20.6152 180.484 20.143C180.684 20.0446 180.808 19.8419 180.875 19.6396C180.905 19.4396 180.969 19.2447 180.986 19.0429C180.96 18.8196 180.855 18.5987 180.685 18.4453C180.558 18.3138 180.37 18.2747 180.206 18.2118C179.725 18.0999 179.22 18.0635 178.733 18.1582C178.139 18.2276 177.559 18.47 177.14 18.8909C176.924 19.1305 176.764 19.4079 176.62 19.6918C175.136 19.6904 173.651 19.695 172.166 19.6894C172.51 18.8024 172.962 17.9414 173.622 17.2357C173.952 16.9196 174.263 16.5784 174.653 16.3295C175.398 15.7999 176.264 15.441 177.157 15.2252ZM178.386 23.4121C177.555 23.6065 176.661 23.6787 175.927 24.1435C175.448 24.4138 175.169 24.9466 175.134 25.4748C175.091 25.8034 175.127 26.1707 175.351 26.436C175.559 26.7147 175.902 26.8672 176.246 26.9138C176.904 26.9725 177.578 26.8401 178.172 26.5614C178.57 26.3292 178.981 26.0775 179.246 25.6957C179.548 25.3382 179.735 24.9005 179.833 24.4497C179.947 23.9225 180.066 23.3967 180.172 22.8676C179.606 23.1277 178.995 23.282 178.386 23.4121Z" fill="#DA251C"/>
<path d="M197.243 15.0698C198.438 14.8083 199.708 14.8251 200.881 15.1835C201.284 15.3295 201.687 15.5206 201.981 15.8362C202.403 16.2133 202.639 16.7526 202.729 17.2971C202.902 18.2797 202.754 19.2805 202.562 20.2496C201.888 23.3565 201.221 26.4652 200.548 29.5721C198.938 29.5726 197.327 29.5758 195.716 29.5702C195.923 28.4706 196.186 27.3817 196.412 26.2853C196.658 25.1707 196.891 24.0529 197.139 22.9384C197.332 21.979 197.565 21.0188 197.61 20.0399C197.656 19.8618 197.633 19.6795 197.598 19.5024C197.582 19.2712 197.51 19.0325 197.34 18.8642C197.166 18.6787 196.915 18.585 196.669 18.5375C196.118 18.4074 195.536 18.4899 195.01 18.6745C194.529 18.8624 194.109 19.1994 193.835 19.6278C193.338 20.3526 193.111 21.2113 192.926 22.0531C192.391 24.5605 191.836 27.0642 191.307 29.573C189.7 29.5726 188.094 29.5744 186.488 29.5721C187.423 25.2346 188.356 20.8962 189.297 16.5596C189.375 16.1284 189.503 15.7056 189.56 15.2703C191.136 15.2703 192.713 15.2703 194.29 15.2693C194.274 15.576 194.167 15.8688 194.114 16.1699C194.055 16.4948 193.968 16.8137 193.906 17.1376C194.1 16.9973 194.204 16.774 194.397 16.6323C194.524 16.5405 194.644 16.4393 194.754 16.3275C195.463 15.7215 196.319 15.2698 197.243 15.0698Z" fill="#DA251C"/>
<path d="M104.843 15.2739C106.453 15.2725 108.064 15.272 109.674 15.2729C108.711 19.6864 107.769 24.1036 106.809 28.5176C106.751 28.8728 106.632 29.2168 106.595 29.5752C104.986 29.5748 103.376 29.579 101.767 29.5734C102.624 25.5659 103.498 21.5627 104.36 17.5566C104.519 16.7954 104.701 16.0388 104.843 15.2739Z" fill="#DA251C"/>
<path d="M182.701 34.1386C182.86 34.1022 183.025 34.1018 183.186 34.14C183.426 34.1461 183.664 34.1764 183.903 34.2081C183.852 34.6649 183.724 35.1105 183.636 35.5622C183.344 35.551 183.05 35.5226 182.76 35.5543C182.598 35.5892 182.426 35.6517 182.338 35.7971C182.121 36.1463 182.112 36.5644 181.997 36.9471C182.441 36.9518 182.886 36.9448 183.33 36.9504C183.25 37.3522 183.162 37.7526 183.076 38.1531C182.634 38.1568 182.193 38.1465 181.752 38.1605C181.484 39.2695 181.27 40.3906 181.02 41.5032C180.814 42.4686 180.605 43.4336 180.395 44.398C179.844 44.4036 179.294 44.3943 178.744 44.4036C179.144 42.5856 179.528 40.7644 179.925 38.9455C179.961 38.6826 180.061 38.4299 180.075 38.1638C179.692 38.1437 179.308 38.1572 178.926 38.1535C179 37.7498 179.122 37.355 179.174 36.9476C179.565 36.9448 179.957 36.9579 180.348 36.9378C180.501 36.3859 180.561 35.8065 180.805 35.2811C180.968 34.9888 181.183 34.7194 181.459 34.5199C181.819 34.2705 182.261 34.154 182.701 34.1386Z" fill="#DA251C"/>
<path d="M189.033 34.2427C189.62 34.2422 190.208 34.2389 190.796 34.2441C190.756 34.6813 190.617 35.1018 190.542 35.5334C189.903 38.4874 189.26 41.4409 188.628 44.3963C188.04 44.3958 187.453 44.4005 186.866 44.3935C186.876 44.1804 186.929 43.9735 186.982 43.7679C187.659 40.5911 188.362 37.4204 189.033 34.2427Z" fill="#DA251C"/>
<path d="M206.456 34.2423C206.996 34.2432 207.536 34.2381 208.076 34.2446C207.381 37.5076 206.667 40.766 205.966 44.0276C205.919 44.1441 205.945 44.2994 205.855 44.3907C205.334 44.4061 204.812 44.3921 204.292 44.3968C204.372 44.1059 204.426 43.809 204.484 43.5134C204.127 43.7936 203.781 44.0947 203.366 44.2928C202.906 44.5394 202.373 44.648 201.85 44.6303C201.16 44.6494 200.456 44.3823 199.997 43.8738C199.8 43.6318 199.651 43.3582 199.523 43.0776C199.395 42.7396 199.361 42.3788 199.319 42.0241C199.292 41.7584 199.367 41.4983 199.371 41.2335C199.493 40.3562 199.776 39.4939 200.243 38.7331C200.413 38.4567 200.618 38.2031 200.85 37.9733C200.952 37.8092 201.125 37.7141 201.264 37.5831C202.088 36.8359 203.302 36.5366 204.394 36.7963C204.749 36.9081 205.104 37.0722 205.357 37.3486C205.487 37.4852 205.591 37.6423 205.71 37.7896C205.935 36.662 206.194 35.54 206.432 34.4147C206.439 34.3569 206.446 34.2996 206.456 34.2423ZM203.207 38.1714C202.678 38.2893 202.2 38.5956 201.876 39.0184C201.62 39.3535 201.424 39.7316 201.296 40.1301C201.129 40.6662 201 41.227 201.038 41.7906C201.089 42.191 201.212 42.6161 201.527 42.8981C201.776 43.0613 202.066 43.196 202.374 43.1923C202.63 43.1867 202.893 43.2179 203.143 43.1447C203.585 43.0286 204 42.7909 204.298 42.4497C204.923 41.6866 205.176 40.697 205.245 39.74C205.225 39.3717 205.194 38.9727 204.963 38.6655C204.709 38.3094 204.246 38.136 203.812 38.15C203.61 38.1565 203.405 38.1341 203.207 38.1714Z" fill="#DA251C"/>
<path d="M209.948 34.2428C210.504 34.2428 211.061 34.2382 211.618 34.2447C211.518 34.7877 211.409 35.3303 211.272 35.8659C210.72 35.8683 210.167 35.8604 209.615 35.8701C209.716 35.3257 209.868 34.791 209.948 34.2428Z" fill="#DA251C"/>
<path d="M174.013 36.5418C174.64 36.5083 175.282 36.4994 175.891 36.6761C176.821 36.9278 177.61 37.6214 177.938 38.509C178.264 39.4385 178.182 40.4505 177.936 41.3879C177.777 41.9878 177.473 42.5416 177.089 43.0334C176.864 43.2949 176.642 43.5634 176.355 43.7634C175.506 44.4603 174.373 44.76 173.276 44.7236C172.747 44.7055 172.211 44.6295 171.723 44.4216C171.511 44.3493 171.312 44.2444 171.142 44.1027C170.357 43.5844 169.926 42.6526 169.92 41.7431C169.877 41.5562 169.876 41.3693 169.925 41.1842C169.917 40.2104 170.221 39.2371 170.786 38.4335C171.335 37.635 172.164 37.0243 173.103 36.7288C173.402 36.6523 173.702 36.5698 174.013 36.5418ZM174.156 37.7067C173.815 37.7599 173.466 37.8247 173.17 38.0037C172.898 38.1631 172.628 38.3463 172.446 38.6041C172.023 39.1056 171.762 39.7196 171.6 40.3442C171.508 40.726 171.429 41.1161 171.452 41.5105C171.425 42.0727 171.581 42.6731 171.998 43.0814C172.171 43.2147 172.358 43.3397 172.57 43.41C173.601 43.7858 174.836 43.4627 175.558 42.6614C175.816 42.3407 176.072 42.0097 176.216 41.6233C176.444 41.1171 176.519 40.5647 176.579 40.0202C176.604 39.5075 176.574 38.9672 176.307 38.5108C176.02 38.0563 175.49 37.7818 174.952 37.7319C174.689 37.6858 174.419 37.6601 174.156 37.7067Z" fill="#DA251C"/>
<path d="M215.413 36.7295C216.104 36.6875 216.817 36.6926 217.48 36.9145C217.835 37.0423 218.2 37.2343 218.39 37.5667C218.518 37.7704 218.609 38.0039 218.598 38.2463C218.638 38.8658 218.415 39.4588 218.309 40.0624C218.126 40.895 217.952 41.7298 217.767 42.5624C217.725 42.7665 217.692 42.9772 217.748 43.1823C217.956 43.2639 218.186 43.2196 218.407 43.2397C218.315 43.6336 218.233 44.0289 218.144 44.4232C217.638 44.5458 217.099 44.5929 216.595 44.4437C216.399 44.3733 216.205 44.2624 216.112 44.0745C215.977 43.8955 216.017 43.6676 216.009 43.4616C215.256 44.2106 214.184 44.6968 213.095 44.6297C212.564 44.605 211.986 44.4694 211.622 44.0652C211.427 43.8755 211.307 43.6177 211.247 43.359C211.205 42.8924 211.218 42.4067 211.412 41.9699C211.567 41.4818 211.889 41.0488 212.31 40.7453C212.715 40.4586 213.19 40.2866 213.67 40.1594C214.14 40.0522 214.615 39.9566 215.096 39.9132C215.624 39.8219 216.192 39.7781 216.64 39.462C216.909 39.2984 216.982 38.9497 216.934 38.6635C216.904 38.4146 216.696 38.2113 216.454 38.1475C216.067 38.01 215.651 38.0664 215.249 38.0612C214.874 38.1144 214.491 38.2356 214.212 38.4966C214.018 38.7134 213.884 38.9814 213.849 39.269C213.325 39.2695 212.8 39.2728 212.276 39.2676C212.303 39.0397 212.371 38.8183 212.461 38.6066C212.587 38.34 212.714 38.065 212.938 37.8603C213.556 37.1676 214.486 36.7985 215.413 36.7295ZM215.565 40.9784C214.959 41.1182 214.322 41.121 213.737 41.3425C213.44 41.4632 213.161 41.6739 213.048 41.9764C212.914 42.2855 212.816 42.6784 213.026 42.9772C213.111 43.1339 213.292 43.1972 213.451 43.263C213.948 43.3954 214.479 43.2965 214.958 43.1362C215.533 42.9078 216.039 42.4691 216.269 41.8981C216.388 41.5117 216.471 41.1145 216.545 40.7173C216.218 40.8082 215.902 40.9308 215.565 40.9784Z" fill="#DA251C"/>
<path d="M194.716 37.1281C195.238 36.8457 195.849 36.7366 196.442 36.7599C196.92 36.8046 197.427 36.8499 197.836 37.1211C198.01 37.2778 198.209 37.4316 198.287 37.6595C198.375 37.8516 198.404 38.06 198.43 38.2669C198.484 38.5401 198.389 38.81 198.393 39.0836C198.315 39.6332 198.172 40.1711 198.063 40.7147C197.803 41.9215 197.536 43.1274 197.285 44.3357C197.269 44.4159 197.165 44.3888 197.111 44.3977C196.614 44.3893 196.117 44.4112 195.621 44.394C195.713 43.8206 195.865 43.2584 195.973 42.6879C196.087 42.1886 196.184 41.6861 196.301 41.1878C196.427 40.5254 196.605 39.8723 196.707 39.2062C196.765 38.8049 196.559 38.3387 196.134 38.2203C195.645 38.0847 195.11 38.1355 194.64 38.3126C194.194 38.4949 193.809 38.8216 193.575 39.2347C193.317 39.6738 193.23 40.1786 193.134 40.669C192.854 41.9094 192.604 43.1568 192.318 44.3958C191.765 44.4024 191.213 44.3907 190.661 44.4024C191.115 42.3406 191.548 40.2742 192 38.2124C192.087 37.7887 192.177 37.3654 192.282 36.9459C192.807 36.9491 193.333 36.9431 193.859 36.9482C193.841 37.2647 193.731 37.5668 193.675 37.8777C193.986 37.5854 194.325 37.3137 194.716 37.1281Z" fill="#DA251C"/>
<path d="M209.374 36.9482C209.93 36.9482 210.487 36.9458 211.044 36.9486C210.525 39.4341 209.964 41.9108 209.448 44.3963C208.891 44.4005 208.335 44.4 207.778 44.3967C208.293 41.9108 208.856 39.4337 209.374 36.9482Z" fill="#DA251C"/>
</svg>
