<svg width="16" height="16" viewBox="0 0 16 16" fill="none" xmlns="http://www.w3.org/2000/svg">
<g clip-path="url(#clip0_19563_1655)">
<path d="M11.6673 15.9987C9.27798 15.9987 7.33398 14.0547 7.33398 11.6654C7.33398 9.27603 9.27798 7.33203 11.6673 7.33203C14.0567 7.33203 16.0007 9.27603 16.0007 11.6654C16.0007 14.0547 14.0567 15.9987 11.6673 15.9987ZM11.6673 7.9987C9.64532 7.9987 8.00065 9.64403 8.00065 11.6654C8.00065 13.6867 9.64532 15.332 11.6673 15.332C13.6893 15.332 15.334 13.6867 15.334 11.6654C15.334 9.64403 13.6893 7.9987 11.6673 7.9987Z" fill="#0006B1"/>
<path d="M11.0008 13.3335C10.9128 13.3335 10.8275 13.2981 10.7648 13.2361L9.43148 11.9028C9.30148 11.7728 9.30148 11.5615 9.43148 11.4315C9.56148 11.3015 9.77282 11.3015 9.90282 11.4315L10.9842 12.5128L13.0828 10.1141C13.2042 9.9748 13.4148 9.96147 13.5535 10.0828C13.6922 10.2041 13.7062 10.4141 13.5848 10.5528L11.2515 13.2195C11.1908 13.2888 11.1035 13.3301 11.0115 13.3335C11.0082 13.3335 11.0042 13.3335 11.0008 13.3335Z" fill="#0006B1"/>
<path d="M6.33333 14H1.66667C0.748 14 0 13.2527 0 12.3333V3.66667C0 2.74733 0.748 2 1.66667 2H3C3.184 2 3.33333 2.14933 3.33333 2.33333C3.33333 2.51733 3.184 2.66667 3 2.66667H1.66667C1.11533 2.66667 0.666667 3.11533 0.666667 3.66667V12.3333C0.666667 12.8847 1.11533 13.3333 1.66667 13.3333H6.33333C6.51733 13.3333 6.66667 13.4827 6.66667 13.6667C6.66667 13.8507 6.51733 14 6.33333 14Z" fill="#0006B1"/>
<path d="M11 6C10.816 6 10.6667 5.85067 10.6667 5.66667V3.66667C10.6667 3.11533 10.218 2.66667 9.66667 2.66667H8.33333C8.14933 2.66667 8 2.51733 8 2.33333C8 2.14933 8.14933 2 8.33333 2H9.66667C10.5853 2 11.3333 2.74733 11.3333 3.66667V5.66667C11.3333 5.85067 11.184 6 11 6Z" fill="#0006B1"/>
<path d="M7.66602 4H3.66602C3.11468 4 2.66602 3.55133 2.66602 3V1.66667C2.66602 1.48267 2.81535 1.33333 2.99935 1.33333H4.03268C4.18802 0.573333 4.86068 0 5.66602 0C6.47135 0 7.14402 0.573333 7.29935 1.33333H8.33268C8.51668 1.33333 8.66602 1.48267 8.66602 1.66667V3C8.66602 3.55133 8.21735 4 7.66602 4ZM3.33268 2V3C3.33268 3.18333 3.48202 3.33333 3.66602 3.33333H7.66602C7.85002 3.33333 7.99935 3.18333 7.99935 3V2H6.99935C6.81535 2 6.66602 1.85067 6.66602 1.66667C6.66602 1.11533 6.21735 0.666667 5.66602 0.666667C5.11468 0.666667 4.66602 1.11533 4.66602 1.66667C4.66602 1.85067 4.51668 2 4.33268 2H3.33268Z" fill="#0006B1"/>
<path d="M9 5.9987H2.33333C2.14933 5.9987 2 5.84936 2 5.66536C2 5.48136 2.14933 5.33203 2.33333 5.33203H9C9.184 5.33203 9.33333 5.48136 9.33333 5.66536C9.33333 5.84936 9.184 5.9987 9 5.9987Z" fill="#0006B1"/>
<path d="M7 7.9987H2.33333C2.14933 7.9987 2 7.84936 2 7.66536C2 7.48136 2.14933 7.33203 2.33333 7.33203H7C7.184 7.33203 7.33333 7.48136 7.33333 7.66536C7.33333 7.84936 7.184 7.9987 7 7.9987Z" fill="#0006B1"/>
<path d="M5.66667 9.9987H2.33333C2.14933 9.9987 2 9.84936 2 9.66536C2 9.48136 2.14933 9.33203 2.33333 9.33203H5.66667C5.85067 9.33203 6 9.48136 6 9.66536C6 9.84936 5.85067 9.9987 5.66667 9.9987Z" fill="#0006B1"/>
</g>
<rect x="0.5" y="0.5" width="15" height="15" rx="7.5" stroke="#EBF1FF" stroke-opacity="0.1"/>
<defs>
<clipPath id="clip0_19563_1655">
<rect width="16" height="16" rx="8" fill="white"/>
</clipPath>
</defs>
</svg>
