<svg width="155" height="36" viewBox="0 0 155 36" fill="none" xmlns="http://www.w3.org/2000/svg">
<path d="M154.828 15.8001C154.828 6.8221 148.577 0.519531 139.831 0.519531C128.692 0.519531 121.206 8.62284 121.206 20.199C121.206 29.2284 127.509 35.4795 136.409 35.4795C144.513 35.4795 150.558 31.5694 153.028 25.3182H144.024C142.815 27.2733 140.294 28.4824 137.181 28.4824C132.396 28.4824 129.412 25.3182 129.129 20.8421H154.288C154.674 19.1186 154.828 17.6522 154.828 15.8001ZM129.85 14.7453C130.647 10.6294 134.66 7.3366 139.496 7.3366C143.69 7.3366 146.854 10.3979 146.854 14.7453H129.85ZM97.0248 34.6563L98.6454 26.0385C103.585 27.0161 104.331 24.2378 105.617 17.5493L106.234 14.2308C108.035 4.86702 111.636 0.210829 121.978 1.47134L120.357 10.0892C115.418 9.11161 114.569 12.8417 113.463 18.6298L112.846 21.9483C111.045 31.415 107.315 35.9169 97.0248 34.6563ZM84.9598 34.6821L91.0566 1.317H99.1085L93.0374 34.6821H84.9598ZM38.8867 1.317H46.7071L49.2538 25.4469L59.4666 1.317H67.2097L69.9365 25.6784L79.7891 1.317H87.558L73.4094 34.6821H64.5601L61.6789 11.7355L51.9035 34.6821H43.3628L38.8867 1.317Z" fill="#163300"/>
<path d="M9.76679 10.1677L0.505859 19.017H16.2494L17.8958 15.1583H9.92113L14.9117 10.1677L12.0048 5.17708H25.5361L13.0338 34.6834H17.7157L31.8644 1.31836H4.54465L9.76679 10.1677Z" fill="#163300"/>
</svg>
