<svg width="149" height="56" viewBox="0 0 149 56" fill="none" xmlns="http://www.w3.org/2000/svg">
<g clip-path="url(#clip0_19558_2050)">
<path d="M108.286 20.9785C108.604 21.0844 108.829 21.3386 109.051 21.5757C112.19 24.8796 115.349 28.1602 118.482 31.4682C118.488 28.158 118.473 24.8478 118.488 21.5376C119.337 21.5355 120.184 21.5503 121.034 21.5228C121.114 21.8214 121.148 22.1264 121.14 22.4356C121.123 27.4697 121.146 32.5039 121.129 37.538C121.066 37.5677 120.941 37.6248 120.879 37.6545C117.505 34.2236 114.24 30.6846 110.872 27.2495C110.841 30.5491 110.91 33.8529 110.838 37.1547C109.983 37.1166 109.127 37.1356 108.274 37.1398C108.276 31.752 108.252 26.3642 108.286 20.9785Z" fill="white"/>
<path d="M41.0255 21.3834C43.0015 20.6633 45.1278 21.1801 47.0529 21.8006C47.0762 23.0268 47.0635 24.2509 47.0635 25.4772C45.8818 24.7571 44.6026 24.037 43.1858 23.9968C42.4699 23.9502 41.591 24.3886 41.5783 25.1913C41.5296 25.7779 41.9976 26.2269 42.4424 26.5276C44.1578 27.6014 46.1529 28.3575 47.4723 29.9585C49.0776 32.1569 48.2262 35.6704 45.7992 36.9072C43.5606 38.0953 40.8942 37.6103 38.5858 36.8924C38.4524 35.5116 38.3655 34.1286 38.3105 32.7435C39.6468 33.578 41.1272 34.3573 42.7452 34.3298C43.4335 34.2832 44.2447 34.0735 44.5835 33.4064C44.9372 32.8071 44.6682 32.015 44.1409 31.6126C42.6288 30.4033 40.6719 29.8145 39.3418 28.3702C38.4799 27.4701 38.0436 26.193 38.1643 24.9541C38.2533 23.3127 39.4901 21.8874 41.0255 21.3834Z" fill="white"/>
<path d="M97.278 22.7758C97.5894 22.1595 97.8096 21.4945 98.2268 20.9375C100.736 26.3126 103.155 31.7301 105.614 37.1306C104.676 37.137 103.735 37.1221 102.797 37.1454C102.357 36.2284 101.95 35.2965 101.545 34.3647C99.1989 34.352 96.8523 34.3604 94.5058 34.3604C94.0907 35.2902 93.684 36.2242 93.2329 37.1391C92.3201 37.1264 91.4095 37.1348 90.4988 37.1306C92.7818 32.3591 95.0098 27.5579 97.278 22.7758ZM97.907 26.6832C97.1065 28.4855 96.3462 30.3069 95.516 32.0943C97.1954 32.1706 98.8812 32.1113 100.563 32.1219C99.7559 30.2158 98.9172 28.3225 98.1125 26.4143C98.0616 26.482 97.9579 26.6155 97.907 26.6832Z" fill="white"/>
<path d="M8.58765 21.5391C10.0468 21.5306 11.5039 21.5539 12.961 21.5264C14.0983 23.1529 15.1255 24.8514 16.2479 26.4885C17.4212 24.826 18.6051 23.1677 19.8186 21.5348C21.102 21.5475 22.3855 21.5285 23.6689 21.5454C21.7247 24.2732 19.6301 26.9015 17.7347 29.6568C17.7008 32.1453 17.7262 34.638 17.7241 37.1286C16.5063 37.1371 15.2885 37.1328 14.0708 37.1307C14.0517 34.6592 14.111 32.1813 14.0432 29.7119C12.26 26.9671 10.3645 24.2923 8.58765 21.5391Z" fill="white"/>
<path d="M25.2668 37.1353C25.2753 31.9359 25.2563 26.7345 25.2774 21.5352C28.4394 21.5436 31.6013 21.5373 34.7633 21.5394C34.7718 22.6004 34.7527 23.6636 34.7781 24.7246C32.8022 24.803 30.8135 24.6548 28.8333 24.7924C28.8375 25.7285 28.8312 26.6646 28.8418 27.5986C30.5361 27.5922 32.2325 27.5774 33.9267 27.6092C33.9056 28.6617 33.9204 29.7164 33.9183 30.7732C32.2219 30.7711 30.5276 30.7732 28.8333 30.769C28.8397 31.794 28.8354 32.8212 28.8354 33.8462C30.8347 33.8484 32.8339 33.8293 34.8332 33.8526C34.8374 34.9475 34.8459 36.0424 34.8289 37.1395C31.6416 37.1289 28.4542 37.1331 25.2668 37.1353Z" fill="white"/>
<path d="M78.6453 21.5377C80.617 21.5822 82.5951 21.4382 84.5583 21.6479C85.829 21.7961 87.212 22.3023 87.877 23.4735C88.5865 24.7675 88.5971 26.5444 87.6207 27.7092C87.195 28.2365 86.5639 28.5182 85.973 28.8168C87.1082 29.1281 88.1184 29.952 88.4827 31.0935C88.9126 32.4976 88.794 34.1623 87.8876 35.3588C86.8795 36.6465 85.1619 37.0108 83.6159 37.1103C81.9555 37.1569 80.2972 37.123 78.6389 37.1357C78.6516 31.9364 78.6347 26.7371 78.6453 21.5377ZM81.2375 23.6238C81.246 25.0894 81.2418 26.5571 81.2418 28.0247C82.4023 27.993 83.6858 28.2026 84.7277 27.5609C85.9667 26.8663 86.1128 24.7018 84.8019 24.0093C83.7027 23.4565 82.4235 23.6577 81.2375 23.6238ZM81.2396 30.1066C81.246 31.7246 81.2418 33.3448 81.2439 34.9628C82.4278 34.9205 83.6942 35.1365 84.8082 34.6261C86.295 33.9462 86.494 31.5742 85.1831 30.6318C84.0288 29.8334 82.5506 30.1786 81.2396 30.1066Z" fill="white"/>
<path d="M126.046 37.1367C126.052 31.9353 126.008 26.7317 126.067 21.5303C126.94 21.543 127.812 21.5387 128.685 21.5345C128.721 23.8641 128.685 26.1938 128.698 28.5234C130.894 26.1938 133.084 23.8599 135.29 21.5409C136.326 21.5345 137.364 21.5387 138.402 21.5366C136.072 24.0484 133.71 26.5326 131.362 29.0296C133.963 31.7193 136.534 34.4386 139.139 37.1219C137.98 37.1452 136.824 37.124 135.665 37.1388C133.35 34.7012 131.027 32.272 128.702 29.8471C128.689 32.2741 128.706 34.7012 128.695 37.1304C127.812 37.1367 126.929 37.1283 126.046 37.1367Z" fill="white"/>
<path d="M79.2128 5.10614C79.971 4.11075 80.6678 3.06453 81.481 2.10938C73.5433 16.138 65.6628 30.2027 57.742 44.2419C55.7682 47.783 53.7456 51.2986 51.793 54.8503C51.6214 54.7592 51.4668 54.6448 51.3313 54.5072C48.5442 51.6671 45.7423 48.844 42.9509 46.0082C44.9332 45.987 46.9134 46.0061 48.8957 45.9976C59.0021 32.3692 69.1085 18.7388 79.2128 5.10614Z" fill="#C4261B"/>
<path d="M0.875089 13.721C24.5633 13.6872 48.2493 13.7232 71.9375 13.7041C64.0591 24.1091 56.2357 34.5565 48.3213 44.934C32.5116 44.9212 16.7018 44.9255 0.892032 44.9403C0.856028 34.5332 0.889914 24.1282 0.875089 13.721ZM41.0253 21.3834C39.4899 21.8875 38.2531 23.3128 38.1641 24.9541C38.0434 26.1931 38.4797 27.4701 39.3416 28.3702C40.6716 29.8146 42.6285 30.4034 44.1407 31.6127C44.668 32.0151 44.937 32.8071 44.5833 33.4065C44.2445 34.0736 43.4333 34.2833 42.745 34.3299C41.127 34.3574 39.6466 33.578 38.3102 32.7436C38.3653 34.1287 38.4521 35.5116 38.5856 36.8925C40.894 37.6104 43.5604 38.0954 45.799 36.9073C48.226 35.6705 49.0774 32.1569 47.4721 29.9586C46.1527 28.3575 44.1576 27.6014 42.4422 26.5277C41.9974 26.227 41.5294 25.778 41.5781 25.1913C41.5908 24.3887 42.4697 23.9503 43.1855 23.9969C44.6024 24.0371 45.8816 24.7572 47.0633 25.4772C47.0633 24.251 47.076 23.0269 47.0527 21.8007C45.1276 21.1801 43.0013 20.6634 41.0253 21.3834ZM8.58831 21.5402C10.3652 24.2934 12.2607 26.9682 14.0439 29.7129C14.1117 32.1824 14.0524 34.6603 14.0714 37.1318C15.2892 37.1339 16.507 37.1381 17.7247 37.1297C17.7268 34.6391 17.7014 32.1464 17.7353 29.6579C19.6308 26.9026 21.7253 24.2743 23.6695 21.5465C22.3861 21.5296 21.1027 21.5486 19.8193 21.5359C18.6057 23.1688 17.4219 24.8271 16.2486 26.4896C15.1261 24.8525 14.099 23.154 12.9617 21.5274C11.5046 21.555 10.0475 21.5317 8.58831 21.5402ZM25.2664 37.136C28.4538 37.1339 31.6411 37.1297 34.8285 37.1403C34.8454 36.0432 34.837 34.9483 34.8327 33.8533C32.8335 33.8301 30.8342 33.8491 28.835 33.847C28.835 32.822 28.8392 31.7948 28.8329 30.7698C30.5271 30.774 32.2214 30.7719 33.9178 30.774C33.9199 29.7172 33.9051 28.6625 33.9263 27.6099C32.232 27.5782 30.5356 27.593 28.8413 27.5993C28.8307 26.6654 28.8371 25.7293 28.8329 24.7932C30.8131 24.6555 32.8017 24.8038 34.7777 24.7254C34.7523 23.6644 34.7713 22.6012 34.7628 21.5402C31.6009 21.538 28.4389 21.5444 25.277 21.5359C25.2558 26.7352 25.2749 31.9367 25.2664 37.136Z" fill="#005192"/>
<path d="M70.6463 22.7864C72.3554 19.7685 73.9502 16.6828 75.7101 13.6987C99.6292 13.7136 123.55 13.7242 147.469 13.6924C147.546 24.1059 147.49 34.5236 147.497 44.9392C117.813 44.9201 88.1313 44.9349 58.4475 44.9328C62.4863 37.5352 66.5885 30.1735 70.6463 22.7864ZM108.287 20.9799C108.253 26.3656 108.276 31.7534 108.274 37.1412C109.128 37.137 109.983 37.118 110.839 37.1561C110.911 33.8543 110.841 30.5505 110.873 27.2509C114.24 30.686 117.506 34.225 120.88 37.6559C120.941 37.6262 121.066 37.5691 121.13 37.5394C121.147 32.5053 121.123 27.4711 121.14 22.437C121.149 22.1278 121.115 21.8228 121.034 21.5242C120.185 21.5517 119.338 21.5369 118.489 21.539C118.474 24.8492 118.489 28.1594 118.482 31.4696C115.35 28.1616 112.19 24.881 109.051 21.5771C108.829 21.3399 108.605 21.0858 108.287 20.9799ZM97.2783 22.778C95.0101 27.5601 92.7821 32.3613 90.4991 37.1328C91.4098 37.137 92.3204 37.1285 93.2332 37.1412C93.6843 36.2263 94.091 35.2924 94.5061 34.3626C96.8526 34.3626 99.1992 34.3542 101.546 34.3669C101.95 35.2987 102.357 36.2306 102.797 37.1476C103.736 37.1243 104.676 37.1391 105.614 37.1328C103.155 31.7323 100.737 26.3148 98.2271 20.9397C97.8099 21.4967 97.5897 22.1617 97.2783 22.778ZM78.6455 21.539C78.6349 26.7384 78.6518 31.9377 78.6391 37.137C80.2974 37.1243 81.9557 37.1582 83.6161 37.1116C85.1621 37.0121 86.8797 36.6478 87.8878 35.3601C88.7942 34.1635 88.9128 32.4989 88.4829 31.0948C88.1186 29.9533 87.1084 29.1294 85.9732 28.8181C86.5641 28.5195 87.1952 28.2378 87.6209 27.7104C88.5973 26.5456 88.5867 24.7688 87.8772 23.4747C87.2122 22.3036 85.8292 21.7974 84.5585 21.6492C82.5953 21.4395 80.6172 21.5835 78.6455 21.539ZM126.047 37.1391C126.93 37.1307 127.814 37.1391 128.697 37.1328C128.707 34.7036 128.69 32.2765 128.703 29.8495C131.028 32.2744 133.352 34.7036 135.667 37.1412C136.825 37.1264 137.981 37.1476 139.14 37.1243C136.535 34.441 133.964 31.7217 131.363 29.032C133.712 26.535 136.073 24.0508 138.403 21.539C137.365 21.5411 136.327 21.5369 135.292 21.5433C133.085 23.8623 130.895 26.1962 128.699 28.5258C128.686 26.1962 128.722 23.8665 128.686 21.5369C127.814 21.5411 126.941 21.5454 126.068 21.5327C126.009 26.7341 126.054 31.9377 126.047 37.1391Z" fill="#005192"/>
<path d="M81.2368 23.6232C82.4228 23.6571 83.702 23.4559 84.8012 24.0087C86.1121 24.7012 85.966 26.8656 84.727 27.5603C83.6851 28.202 82.4016 27.9923 81.2411 28.0241C81.2411 26.5564 81.2453 25.0888 81.2368 23.6232Z" fill="#005192"/>
<path d="M97.9072 26.686C97.958 26.6182 98.0618 26.4848 98.1126 26.417C98.9174 28.3252 99.7561 30.2185 100.563 32.1246C98.8814 32.114 97.1956 32.1733 95.5161 32.0971C96.3463 30.3096 97.1066 28.4883 97.9072 26.686Z" fill="#005192"/>
<path d="M81.2405 30.1082C82.5514 30.1802 84.0297 29.835 85.1839 30.6334C86.4949 31.5759 86.2958 33.9479 84.8091 34.6277C83.6951 35.1381 82.4286 34.9221 81.2447 34.9644C81.2426 33.3464 81.2468 31.7262 81.2405 30.1082Z" fill="#005192"/>
</g>
<defs>
<clipPath id="clip0_19558_2050">
<rect width="147.826" height="55.1884" fill="white" transform="translate(0.383057 0.767578)"/>
</clipPath>
</defs>
</svg>
