<svg width="424" height="348" viewBox="0 0 424 348" fill="none" xmlns="http://www.w3.org/2000/svg">
<rect x="0.733398" y="0.212891" width="422.757" height="347.299" rx="15.4785" fill="white"/>
<path d="M224.304 38.818C224.304 40.1055 224.104 41.3163 223.728 42.4428L219.29 38.7337L211.405 32.1509V35.4155H204.257C200.28 35.4155 196.956 38.205 196.15 41.9371C196.15 41.9524 196.15 41.96 196.15 41.9754V32.2428C196.15 29.6296 198.277 27.5068 200.895 27.5068H211.582C217.494 27.5068 222.138 30.4189 223.72 35.1243C224.104 36.2585 224.304 37.4923 224.304 38.818Z" fill="#0006B1"/>
<path d="M228.388 59.3471H217.47C216.395 59.3471 215.344 58.9793 214.507 58.3049L211.413 55.8296V45.1621L216.534 49.4383L228.395 59.3471H228.388Z" fill="#0006B1"/>
<path d="M211.405 41.9375V50.1757H204.549V60.3987H196.15V50.5512C196.15 45.9685 199.735 42.1138 204.319 41.9452C204.419 41.9452 204.526 41.9452 204.634 41.9452H211.405V41.9375Z" fill="#0006B1"/>
<path d="M224.303 38.8168C224.303 40.1043 224.104 41.3151 223.728 42.4416C222.929 44.8403 221.317 46.8251 219.106 48.1892C219.106 48.1892 218.376 48.8789 216.518 49.446C215.321 49.8138 213.647 50.128 211.397 50.174V45.1698L219.282 38.7325L223.712 35.123C224.096 36.2572 224.296 37.491 224.296 38.8168H224.303Z" fill="#0006B1"/>
<path d="M67.6936 117.172C66.2541 117.172 64.9384 116.878 63.7466 116.29C62.5702 115.686 61.6028 114.742 60.8443 113.457C60.0859 112.173 59.7067 110.64 59.7067 108.86C59.7067 106.229 60.4806 104.186 62.0284 102.731C63.5763 101.276 65.4647 100.548 67.6936 100.548C69.5665 100.548 71.1376 101.028 72.4068 101.988C73.676 102.932 74.4577 104.217 74.7518 105.842L72.0585 106.422C71.8263 105.339 71.3233 104.487 70.5494 103.868C69.7754 103.234 68.8235 102.916 67.6936 102.916C66.1612 102.916 64.9074 103.443 63.9323 104.495C62.9572 105.532 62.4696 106.987 62.4696 108.86C62.4696 110.733 62.9494 112.188 63.9091 113.225C64.8842 114.262 66.1457 114.781 67.6936 114.781C68.8235 114.781 69.76 114.494 70.5029 113.922C71.2459 113.349 71.749 112.544 72.0121 111.507L74.7286 112.087C74.3261 113.666 73.5058 114.912 72.2675 115.825C71.0292 116.723 69.5046 117.172 67.6936 117.172ZM83.6594 107.746C83.2415 107.56 82.7385 107.467 82.1503 107.467C81.2216 107.467 80.4476 107.9 79.8285 108.767C79.2248 109.619 78.923 110.903 78.923 112.621V116.986H76.3923V105.285H78.923V107.513C79.2326 106.817 79.7279 106.244 80.4089 105.795C81.09 105.331 81.7865 105.099 82.4985 105.099C83.0093 105.099 83.4427 105.168 83.7987 105.308L83.6594 107.746ZM95.2904 110.694C95.2904 111.112 95.275 111.46 95.244 111.739H86.3052C86.4135 112.745 86.7695 113.542 87.3732 114.131C87.9923 114.719 88.7663 115.013 89.695 115.013C90.4689 115.013 91.1112 114.843 91.622 114.502C92.1328 114.146 92.4656 113.651 92.6204 113.016L95.0118 113.62C94.7023 114.75 94.0754 115.624 93.1312 116.243C92.187 116.862 91.0261 117.172 89.6485 117.172C87.8685 117.172 86.4522 116.584 85.3997 115.408C84.3471 114.216 83.8209 112.792 83.8209 111.135C83.8209 109.464 84.3239 108.04 85.33 106.863C86.3516 105.687 87.7524 105.099 89.5324 105.099C91.3279 105.099 92.7365 105.648 93.7581 106.747C94.7797 107.846 95.2904 109.162 95.2904 110.694ZM86.4213 109.812H92.5972C92.5198 108.992 92.2102 108.334 91.6685 107.839C91.1422 107.343 90.4302 107.096 89.5324 107.096C88.7276 107.096 88.0542 107.335 87.5125 107.815C86.9707 108.28 86.607 108.945 86.4213 109.812ZM101.337 105.099C102.854 105.099 104.069 105.509 104.982 106.329C105.895 107.134 106.352 108.256 106.352 109.696V116.986H103.868V115.199C103.527 115.787 103.024 116.267 102.359 116.638C101.693 116.994 100.973 117.172 100.199 117.172C99.0385 117.172 98.0943 116.847 97.3668 116.197C96.6393 115.547 96.2756 114.719 96.2756 113.713C96.2756 111.484 98.0711 110.184 101.662 109.812L103.868 109.58V109.417C103.868 108.705 103.636 108.14 103.171 107.722C102.722 107.305 102.111 107.096 101.337 107.096C100.625 107.096 100.037 107.297 99.5725 107.699C99.1081 108.086 98.8373 108.628 98.7599 109.324L96.4845 108.907C96.6703 107.761 97.212 106.84 98.1098 106.144C99.0075 105.447 100.083 105.099 101.337 105.099ZM100.71 115.222C101.685 115.222 102.452 114.92 103.009 114.316C103.566 113.713 103.852 112.923 103.868 111.948V111.46L101.639 111.716C99.7195 111.933 98.7599 112.575 98.7599 113.643C98.7599 114.107 98.9379 114.487 99.2939 114.781C99.6499 115.075 100.122 115.222 100.71 115.222ZM115.112 116.893C114.555 117.079 113.936 117.172 113.255 117.172C112.094 117.172 111.157 116.847 110.445 116.197C109.749 115.547 109.401 114.579 109.401 113.295V107.444H107.357V105.285H109.401V101.802H111.931V105.285H114.95V107.444H111.931V113.155C111.931 113.728 112.071 114.169 112.349 114.479C112.643 114.773 113.038 114.92 113.533 114.92C114.09 114.92 114.563 114.827 114.95 114.641L115.112 116.893ZM127.143 110.694C127.143 111.112 127.128 111.46 127.097 111.739H118.158C118.266 112.745 118.622 113.542 119.226 114.131C119.845 114.719 120.619 115.013 121.548 115.013C122.322 115.013 122.964 114.843 123.475 114.502C123.986 114.146 124.318 113.651 124.473 113.016L126.865 113.62C126.555 114.75 125.928 115.624 124.984 116.243C124.04 116.862 122.879 117.172 121.501 117.172C119.721 117.172 118.305 116.584 117.252 115.408C116.2 114.216 115.674 112.792 115.674 111.135C115.674 109.464 116.177 108.04 117.183 106.863C118.204 105.687 119.605 105.099 121.385 105.099C123.181 105.099 124.589 105.648 125.611 106.747C126.632 107.846 127.143 109.162 127.143 110.694ZM118.274 109.812H124.45C124.373 108.992 124.063 108.334 123.521 107.839C122.995 107.343 122.283 107.096 121.385 107.096C120.58 107.096 119.907 107.335 119.365 107.815C118.824 108.28 118.46 108.945 118.274 109.812ZM141.366 105.285H143.967L137.814 121.212H135.214L136.978 116.638L132.427 105.285H135.167L138.232 113.388L141.366 105.285ZM149.935 117.172C148.171 117.172 146.724 116.607 145.594 115.477C144.464 114.332 143.899 112.885 143.899 111.135C143.899 109.386 144.464 107.947 145.594 106.817C146.724 105.672 148.171 105.099 149.935 105.099C151.684 105.099 153.124 105.672 154.254 106.817C155.399 107.947 155.972 109.386 155.972 111.135C155.972 112.885 155.399 114.332 154.254 115.477C153.124 116.607 151.684 117.172 149.935 117.172ZM147.405 113.898C148.055 114.61 148.898 114.966 149.935 114.966C150.972 114.966 151.808 114.61 152.443 113.898C153.093 113.186 153.418 112.265 153.418 111.135C153.418 110.006 153.093 109.085 152.443 108.373C151.808 107.661 150.972 107.305 149.935 107.305C148.898 107.305 148.055 107.661 147.405 108.373C146.77 109.085 146.453 110.006 146.453 111.135C146.453 112.265 146.77 113.186 147.405 113.898ZM168.225 105.285V116.986H165.694V115.036C165.292 115.686 164.758 116.205 164.092 116.592C163.427 116.979 162.684 117.172 161.863 117.172C160.594 117.172 159.565 116.793 158.775 116.034C158.002 115.26 157.615 114.247 157.615 112.993V105.285H160.145V112.412C160.145 113.155 160.362 113.759 160.795 114.223C161.229 114.672 161.817 114.897 162.56 114.897C163.535 114.897 164.301 114.502 164.859 113.713C165.416 112.923 165.694 111.824 165.694 110.416V105.285H168.225ZM177.789 107.746C177.371 107.56 176.868 107.467 176.28 107.467C175.352 107.467 174.578 107.9 173.958 108.767C173.355 109.619 173.053 110.903 173.053 112.621V116.986H170.522V105.285H173.053V107.513C173.363 106.817 173.858 106.244 174.539 105.795C175.22 105.331 175.916 105.099 176.628 105.099C177.139 105.099 177.573 105.168 177.929 105.308L177.789 107.746ZM197.03 116.986H193.896L189.786 110.091H186.768V116.986H184.052L184.028 100.734H190.135C191.698 100.734 192.952 101.16 193.896 102.011C194.84 102.862 195.312 103.992 195.312 105.401C195.312 106.36 195.065 107.212 194.569 107.955C194.089 108.698 193.424 109.255 192.573 109.626L197.03 116.986ZM186.768 103.102V107.699H189.74C190.638 107.699 191.327 107.498 191.806 107.096C192.302 106.693 192.549 106.128 192.549 105.401C192.549 104.673 192.302 104.108 191.806 103.706C191.327 103.303 190.638 103.102 189.74 103.102H186.768ZM208.275 110.694C208.275 111.112 208.259 111.46 208.228 111.739H199.29C199.398 112.745 199.754 113.542 200.358 114.131C200.977 114.719 201.751 115.013 202.679 115.013C203.453 115.013 204.096 114.843 204.606 114.502C205.117 114.146 205.45 113.651 205.605 113.016L207.996 113.62C207.687 114.75 207.06 115.624 206.116 116.243C205.171 116.862 204.011 117.172 202.633 117.172C200.853 117.172 199.437 116.584 198.384 115.408C197.332 114.216 196.805 112.792 196.805 111.135C196.805 109.464 197.308 108.04 198.314 106.863C199.336 105.687 200.737 105.099 202.517 105.099C204.312 105.099 205.721 105.648 206.742 106.747C207.764 107.846 208.275 109.162 208.275 110.694ZM199.406 109.812H205.582C205.504 108.992 205.195 108.334 204.653 107.839C204.127 107.343 203.415 107.096 202.517 107.096C201.712 107.096 201.039 107.335 200.497 107.815C199.955 108.28 199.591 108.945 199.406 109.812ZM209.932 116.986V105.285H212.462V107.258C213.174 105.819 214.32 105.099 215.899 105.099C216.843 105.099 217.632 105.3 218.267 105.702C218.917 106.105 219.366 106.678 219.613 107.421C219.939 106.74 220.442 106.182 221.123 105.749C221.804 105.316 222.585 105.099 223.468 105.099C224.721 105.099 225.72 105.47 226.463 106.213C227.221 106.941 227.6 107.9 227.6 109.092V116.986H225.07V109.719C225.07 108.976 224.861 108.388 224.443 107.955C224.04 107.506 223.475 107.281 222.748 107.281C221.897 107.281 221.223 107.63 220.728 108.326C220.248 109.007 220.008 109.92 220.008 111.066V116.986H217.501V109.719C217.501 108.976 217.299 108.388 216.897 107.955C216.495 107.506 215.93 107.281 215.202 107.281C214.351 107.281 213.677 107.63 213.182 108.326C212.702 109.023 212.462 109.936 212.462 111.066V116.986H209.932ZM231.122 103.334C230.658 103.334 230.271 103.179 229.961 102.87C229.651 102.545 229.497 102.158 229.497 101.709C229.497 101.245 229.651 100.858 229.961 100.548C230.271 100.223 230.658 100.061 231.122 100.061C231.602 100.061 231.996 100.223 232.306 100.548C232.631 100.858 232.794 101.245 232.794 101.709C232.794 102.158 232.631 102.545 232.306 102.87C231.996 103.179 231.602 103.334 231.122 103.334ZM229.868 116.986V105.285H232.399V116.986H229.868ZM235.795 116.986V107.444H233.868V105.285H235.795V104.286C235.795 103.001 236.151 101.995 236.863 101.268C237.575 100.54 238.504 100.177 239.649 100.177C240.222 100.177 240.779 100.262 241.321 100.432L241.182 102.568C240.779 102.413 240.377 102.336 239.974 102.336C239.479 102.336 239.077 102.514 238.767 102.87C238.473 103.21 238.326 103.667 238.326 104.24V105.285H241.182V107.444H238.326V116.986H235.795ZM242.714 116.986V100.548H245.245V116.986H242.714ZM252.96 117.172C251.195 117.172 249.748 116.607 248.618 115.477C247.488 114.332 246.923 112.885 246.923 111.135C246.923 109.386 247.488 107.947 248.618 106.817C249.748 105.672 251.195 105.099 252.96 105.099C254.709 105.099 256.148 105.672 257.278 106.817C258.424 107.947 258.996 109.386 258.996 111.135C258.996 112.885 258.424 114.332 257.278 115.477C256.148 116.607 254.709 117.172 252.96 117.172ZM250.429 113.898C251.079 114.61 251.923 114.966 252.96 114.966C253.997 114.966 254.833 114.61 255.467 113.898C256.117 113.186 256.442 112.265 256.442 111.135C256.442 110.006 256.117 109.085 255.467 108.373C254.833 107.661 253.997 107.305 252.96 107.305C251.923 107.305 251.079 107.661 250.429 108.373C249.794 109.085 249.477 110.006 249.477 111.135C249.477 112.265 249.794 113.186 250.429 113.898ZM262.947 116.986L259.325 105.285H261.902L264.108 113.457L266.638 105.285H268.983L271.491 113.457L273.697 105.285H276.274L272.675 116.986H270.33L267.799 108.837L265.269 116.986H262.947ZM286.967 105.099C288.484 105.099 289.699 105.509 290.612 106.329C291.525 107.134 291.982 108.256 291.982 109.696V116.986H289.498V115.199C289.157 115.787 288.654 116.267 287.988 116.638C287.323 116.994 286.603 117.172 285.829 117.172C284.668 117.172 283.724 116.847 282.997 116.197C282.269 115.547 281.905 114.719 281.905 113.713C281.905 111.484 283.701 110.184 287.292 109.812L289.498 109.58V109.417C289.498 108.705 289.265 108.14 288.801 107.722C288.352 107.305 287.741 107.096 286.967 107.096C286.255 107.096 285.667 107.297 285.202 107.699C284.738 108.086 284.467 108.628 284.39 109.324L282.114 108.907C282.3 107.761 282.842 106.84 283.74 106.144C284.637 105.447 285.713 105.099 286.967 105.099ZM286.34 115.222C287.315 115.222 288.081 114.92 288.638 114.316C289.196 113.713 289.482 112.923 289.498 111.948V111.46L287.269 111.716C285.349 111.933 284.39 112.575 284.39 113.643C284.39 114.107 284.568 114.487 284.924 114.781C285.28 115.075 285.752 115.222 286.34 115.222ZM299.507 117.172C297.758 117.172 296.342 116.615 295.259 115.5C294.175 114.386 293.633 112.931 293.633 111.135C293.633 109.34 294.175 107.885 295.259 106.771C296.342 105.656 297.758 105.099 299.507 105.099C300.947 105.099 302.147 105.455 303.106 106.167C304.066 106.879 304.646 107.839 304.848 109.046L302.386 109.533C302.263 108.868 301.945 108.334 301.435 107.931C300.939 107.513 300.32 107.305 299.577 107.305C298.571 107.305 297.766 107.653 297.162 108.349C296.559 109.046 296.257 109.975 296.257 111.135C296.257 112.296 296.559 113.225 297.162 113.922C297.766 114.618 298.571 114.966 299.577 114.966C300.32 114.966 300.939 114.773 301.435 114.386C301.93 113.999 302.247 113.465 302.386 112.784L304.871 113.271C304.623 114.494 304.019 115.454 303.06 116.15C302.116 116.832 300.932 117.172 299.507 117.172ZM311.712 117.172C309.963 117.172 308.547 116.615 307.463 115.5C306.38 114.386 305.838 112.931 305.838 111.135C305.838 109.34 306.38 107.885 307.463 106.771C308.547 105.656 309.963 105.099 311.712 105.099C313.152 105.099 314.351 105.455 315.311 106.167C316.271 106.879 316.851 107.839 317.052 109.046L314.591 109.533C314.467 108.868 314.15 108.334 313.639 107.931C313.144 107.513 312.525 107.305 311.782 107.305C310.776 107.305 309.971 107.653 309.367 108.349C308.764 109.046 308.462 109.975 308.462 111.135C308.462 112.296 308.764 113.225 309.367 113.922C309.971 114.618 310.776 114.966 311.782 114.966C312.525 114.966 313.144 114.773 313.639 114.386C314.135 113.999 314.452 113.465 314.591 112.784L317.076 113.271C316.828 114.494 316.224 115.454 315.265 116.15C314.32 116.832 313.136 117.172 311.712 117.172ZM324.08 117.172C322.315 117.172 320.868 116.607 319.738 115.477C318.608 114.332 318.043 112.885 318.043 111.135C318.043 109.386 318.608 107.947 319.738 106.817C320.868 105.672 322.315 105.099 324.08 105.099C325.829 105.099 327.268 105.672 328.398 106.817C329.543 107.947 330.116 109.386 330.116 111.135C330.116 112.885 329.543 114.332 328.398 115.477C327.268 116.607 325.829 117.172 324.08 117.172ZM321.549 113.898C322.199 114.61 323.042 114.966 324.08 114.966C325.117 114.966 325.952 114.61 326.587 113.898C327.237 113.186 327.562 112.265 327.562 111.135C327.562 110.006 327.237 109.085 326.587 108.373C325.952 107.661 325.117 107.305 324.08 107.305C323.042 107.305 322.199 107.661 321.549 108.373C320.914 109.085 320.597 110.006 320.597 111.135C320.597 112.265 320.914 113.186 321.549 113.898ZM342.369 105.285V116.986H339.839V115.036C339.436 115.686 338.902 116.205 338.237 116.592C337.571 116.979 336.828 117.172 336.008 117.172C334.738 117.172 333.709 116.793 332.92 116.034C332.146 115.26 331.759 114.247 331.759 112.993V105.285H334.29V112.412C334.29 113.155 334.506 113.759 334.94 114.223C335.373 114.672 335.961 114.897 336.704 114.897C337.679 114.897 338.446 114.502 339.003 113.713C339.56 112.923 339.839 111.824 339.839 110.416V105.285H342.369ZM344.666 116.986V105.285H347.197V107.235C348.095 105.811 349.38 105.099 351.051 105.099C352.305 105.099 353.319 105.486 354.093 106.26C354.882 107.018 355.277 108.024 355.277 109.278V116.986H352.746V109.858C352.746 109.116 352.53 108.52 352.096 108.071C351.663 107.606 351.082 107.374 350.355 107.374C349.364 107.374 348.59 107.769 348.033 108.558C347.476 109.348 347.197 110.447 347.197 111.855V116.986H344.666ZM363.784 116.893C363.226 117.079 362.607 117.172 361.926 117.172C360.765 117.172 359.829 116.847 359.117 116.197C358.42 115.547 358.072 114.579 358.072 113.295V107.444H356.029V105.285H358.072V101.802H360.603V105.285H363.621V107.444H360.603V113.155C360.603 113.728 360.742 114.169 361.021 114.479C361.315 114.773 361.709 114.92 362.205 114.92C362.762 114.92 363.234 114.827 363.621 114.641L363.784 116.893Z" fill="#02001A" fill-opacity="0.9"/>
<path d="M120.229 149.65L119.039 146.582H115.164L113.98 149.65H112.842L116.625 139.942H117.637L121.393 149.65H120.229ZM118.702 145.583L117.571 142.535C117.544 142.455 117.5 142.325 117.439 142.144C117.381 141.964 117.322 141.776 117.26 141.582C117.198 141.388 117.148 141.232 117.108 141.113C117.064 141.294 117.015 141.474 116.962 141.655C116.914 141.831 116.865 141.997 116.817 142.151C116.768 142.301 116.727 142.429 116.691 142.535L115.541 145.583H118.702ZM123.539 149.65H122.435V139.36H123.539V149.65ZM129.018 142.27C129.164 142.27 129.316 142.279 129.475 142.297C129.634 142.31 129.775 142.33 129.898 142.356L129.759 143.375C129.64 143.344 129.508 143.319 129.362 143.302C129.217 143.284 129.08 143.275 128.952 143.275C128.661 143.275 128.386 143.335 128.126 143.454C127.87 143.569 127.645 143.736 127.451 143.956C127.257 144.173 127.105 144.435 126.995 144.743C126.885 145.048 126.83 145.387 126.83 145.762V149.65H125.725V142.402H126.638L126.757 143.738H126.803C126.953 143.469 127.134 143.225 127.345 143.004C127.557 142.779 127.802 142.601 128.079 142.469C128.362 142.336 128.675 142.27 129.018 142.27ZM133.922 142.27C134.539 142.27 135.069 142.407 135.509 142.68C135.95 142.953 136.288 143.337 136.521 143.831C136.755 144.32 136.872 144.893 136.872 145.55V146.231H131.866C131.879 147.082 132.09 147.73 132.5 148.176C132.91 148.621 133.488 148.844 134.233 148.844C134.692 148.844 135.097 148.802 135.45 148.718C135.803 148.634 136.169 148.511 136.548 148.348V149.313C136.182 149.476 135.818 149.595 135.457 149.67C135.099 149.745 134.676 149.783 134.187 149.783C133.49 149.783 132.882 149.642 132.362 149.359C131.846 149.073 131.445 148.654 131.158 148.103C130.871 147.552 130.728 146.877 130.728 146.079C130.728 145.299 130.858 144.624 131.118 144.056C131.383 143.483 131.753 143.042 132.229 142.733C132.71 142.424 133.274 142.27 133.922 142.27ZM133.909 143.17C133.323 143.17 132.855 143.361 132.507 143.745C132.159 144.128 131.952 144.664 131.885 145.352H135.721C135.717 144.92 135.648 144.541 135.516 144.214C135.388 143.884 135.192 143.628 134.927 143.447C134.663 143.262 134.323 143.17 133.909 143.17ZM141.313 142.283C142.177 142.283 142.818 142.477 143.237 142.865C143.656 143.253 143.865 143.873 143.865 144.724V149.65H143.065L142.853 148.579H142.801C142.598 148.844 142.386 149.066 142.166 149.247C141.945 149.423 141.69 149.558 141.399 149.65C141.112 149.739 140.759 149.783 140.34 149.783C139.9 149.783 139.507 149.706 139.163 149.551C138.824 149.397 138.555 149.163 138.357 148.85C138.163 148.537 138.066 148.14 138.066 147.66C138.066 146.937 138.352 146.381 138.925 145.993C139.498 145.605 140.371 145.394 141.544 145.358L142.794 145.306V144.862C142.794 144.236 142.659 143.798 142.391 143.546C142.122 143.295 141.742 143.17 141.253 143.17C140.874 143.17 140.512 143.225 140.169 143.335C139.825 143.445 139.498 143.575 139.19 143.725L138.852 142.892C139.179 142.724 139.553 142.581 139.977 142.462C140.4 142.343 140.845 142.283 141.313 142.283ZM142.781 146.079L141.676 146.126C140.773 146.161 140.135 146.309 139.765 146.569C139.395 146.829 139.21 147.197 139.21 147.673C139.21 148.087 139.335 148.394 139.587 148.592C139.838 148.791 140.171 148.89 140.585 148.89C141.229 148.89 141.756 148.711 142.166 148.354C142.576 147.997 142.781 147.461 142.781 146.747V146.079ZM148.571 149.783C147.654 149.783 146.926 149.47 146.388 148.844C145.855 148.218 145.588 147.287 145.588 146.053C145.588 144.805 145.861 143.864 146.408 143.229C146.955 142.59 147.682 142.27 148.59 142.27C148.974 142.27 149.309 142.321 149.596 142.422C149.882 142.524 150.129 142.66 150.336 142.832C150.544 143 150.718 143.192 150.859 143.408H150.938C150.92 143.271 150.903 143.084 150.885 142.845C150.868 142.607 150.859 142.413 150.859 142.264V139.36H151.957V149.65H151.07L150.905 148.619H150.859C150.722 148.835 150.548 149.031 150.336 149.207C150.129 149.384 149.88 149.525 149.589 149.631C149.302 149.732 148.963 149.783 148.571 149.783ZM148.743 148.87C149.519 148.87 150.067 148.65 150.389 148.209C150.711 147.768 150.872 147.113 150.872 146.245V146.046C150.872 145.125 150.718 144.417 150.409 143.923C150.105 143.43 149.549 143.183 148.743 143.183C148.068 143.183 147.563 143.443 147.228 143.963C146.893 144.479 146.726 145.184 146.726 146.079C146.726 146.97 146.891 147.658 147.222 148.143C147.557 148.628 148.064 148.87 148.743 148.87ZM153.005 142.402H154.182L155.782 146.608C155.875 146.855 155.961 147.093 156.04 147.323C156.12 147.547 156.19 147.763 156.252 147.971C156.314 148.178 156.362 148.378 156.397 148.572H156.444C156.505 148.352 156.594 148.063 156.708 147.706C156.823 147.345 156.946 146.976 157.079 146.602L158.593 142.402H159.777L156.622 150.715C156.455 151.16 156.259 151.548 156.034 151.879C155.813 152.21 155.544 152.463 155.227 152.64C154.909 152.82 154.526 152.911 154.076 152.911C153.869 152.911 153.686 152.897 153.527 152.871C153.369 152.849 153.232 152.822 153.117 152.792V151.912C153.214 151.934 153.331 151.954 153.468 151.972C153.609 151.989 153.754 151.998 153.904 151.998C154.178 151.998 154.413 151.945 154.612 151.839C154.815 151.738 154.989 151.588 155.134 151.39C155.28 151.191 155.405 150.955 155.511 150.682L155.908 149.664L153.005 142.402ZM165.279 139.36V142.435C165.279 142.612 165.275 142.79 165.266 142.971C165.257 143.147 165.242 143.311 165.22 143.46H165.292C165.442 143.205 165.632 142.991 165.861 142.819C166.095 142.643 166.359 142.51 166.655 142.422C166.95 142.33 167.263 142.283 167.594 142.283C168.176 142.283 168.661 142.376 169.049 142.561C169.441 142.746 169.734 143.033 169.928 143.421C170.127 143.809 170.226 144.311 170.226 144.929V149.65H169.141V145.001C169.141 144.397 169.002 143.945 168.725 143.646C168.451 143.346 168.03 143.196 167.461 143.196C166.924 143.196 166.494 143.3 166.172 143.507C165.854 143.71 165.625 144.009 165.484 144.406C165.347 144.803 165.279 145.288 165.279 145.861V149.65H164.181V139.36H165.279ZM175.063 142.283C175.927 142.283 176.569 142.477 176.988 142.865C177.407 143.253 177.616 143.873 177.616 144.724V149.65H176.816L176.604 148.579H176.551C176.349 148.844 176.137 149.066 175.916 149.247C175.696 149.423 175.44 149.558 175.149 149.65C174.863 149.739 174.51 149.783 174.091 149.783C173.65 149.783 173.258 149.706 172.914 149.551C172.575 149.397 172.306 149.163 172.107 148.85C171.913 148.537 171.816 148.14 171.816 147.66C171.816 146.937 172.103 146.381 172.676 145.993C173.249 145.605 174.122 145.394 175.295 145.358L176.545 145.306V144.862C176.545 144.236 176.41 143.798 176.141 143.546C175.872 143.295 175.493 143.17 175.004 143.17C174.625 143.17 174.263 143.225 173.919 143.335C173.575 143.445 173.249 143.575 172.941 143.725L172.603 142.892C172.93 142.724 173.304 142.581 173.728 142.462C174.151 142.343 174.596 142.283 175.063 142.283ZM176.531 146.079L175.427 146.126C174.523 146.161 173.886 146.309 173.516 146.569C173.146 146.829 172.96 147.197 172.96 147.673C172.96 148.087 173.086 148.394 173.337 148.592C173.589 148.791 173.922 148.89 174.336 148.89C174.98 148.89 175.506 148.711 175.916 148.354C176.326 147.997 176.531 147.461 176.531 146.747V146.079ZM181.336 149.65L178.585 142.402H179.762L181.356 146.787C181.466 147.087 181.579 147.417 181.693 147.779C181.808 148.14 181.887 148.431 181.931 148.652H181.978C182.03 148.431 182.119 148.14 182.242 147.779C182.366 147.413 182.478 147.082 182.579 146.787L184.173 142.402H185.35L182.593 149.65H181.336ZM189.169 142.27C189.787 142.27 190.316 142.407 190.757 142.68C191.197 142.953 191.535 143.337 191.768 143.831C192.002 144.32 192.119 144.893 192.119 145.55V146.231H187.113C187.126 147.082 187.338 147.73 187.748 148.176C188.158 148.621 188.735 148.844 189.48 148.844C189.939 148.844 190.344 148.802 190.697 148.718C191.05 148.634 191.416 148.511 191.795 148.348V149.313C191.429 149.476 191.065 149.595 190.704 149.67C190.347 149.745 189.923 149.783 189.434 149.783C188.737 149.783 188.129 149.642 187.609 149.359C187.093 149.073 186.692 148.654 186.405 148.103C186.119 147.552 185.975 146.877 185.975 146.079C185.975 145.299 186.105 144.624 186.365 144.056C186.63 143.483 187 143.042 187.476 142.733C187.957 142.424 188.521 142.27 189.169 142.27ZM189.156 143.17C188.57 143.17 188.103 143.361 187.754 143.745C187.406 144.128 187.199 144.664 187.133 145.352H190.968C190.964 144.92 190.895 144.541 190.763 144.214C190.635 143.884 190.439 143.628 190.175 143.447C189.91 143.262 189.571 143.17 189.156 143.17ZM199.943 142.283C200.807 142.283 201.448 142.477 201.867 142.865C202.286 143.253 202.495 143.873 202.495 144.724V149.65H201.695L201.483 148.579H201.43C201.228 148.844 201.016 149.066 200.796 149.247C200.575 149.423 200.319 149.558 200.029 149.65C199.742 149.739 199.389 149.783 198.97 149.783C198.53 149.783 198.137 149.706 197.793 149.551C197.454 149.397 197.185 149.163 196.986 148.85C196.792 148.537 196.695 148.14 196.695 147.66C196.695 146.937 196.982 146.381 197.555 145.993C198.128 145.605 199.001 145.394 200.174 145.358L201.424 145.306V144.862C201.424 144.236 201.289 143.798 201.02 143.546C200.752 143.295 200.372 143.17 199.883 143.17C199.504 143.17 199.142 143.225 198.798 143.335C198.455 143.445 198.128 143.575 197.82 143.725L197.482 142.892C197.809 142.724 198.183 142.581 198.607 142.462C199.03 142.343 199.475 142.283 199.943 142.283ZM201.411 146.079L200.306 146.126C199.402 146.161 198.765 146.309 198.395 146.569C198.025 146.829 197.84 147.197 197.84 147.673C197.84 148.087 197.965 148.394 198.217 148.592C198.468 148.791 198.801 148.89 199.215 148.89C199.859 148.89 200.386 148.711 200.796 148.354C201.206 147.997 201.411 147.461 201.411 146.747V146.079ZM208.054 142.27C208.913 142.27 209.564 142.482 210.005 142.905C210.445 143.324 210.666 143.998 210.666 144.929V149.65H209.581V145.001C209.581 144.397 209.442 143.945 209.165 143.646C208.891 143.346 208.47 143.196 207.902 143.196C207.099 143.196 206.535 143.423 206.209 143.877C205.882 144.331 205.719 144.99 205.719 145.854V149.65H204.621V142.402H205.508L205.673 143.447H205.732C205.887 143.192 206.083 142.978 206.321 142.806C206.559 142.629 206.826 142.497 207.121 142.409C207.417 142.316 207.727 142.27 208.054 142.27ZM218.886 142.283C219.75 142.283 220.392 142.477 220.811 142.865C221.23 143.253 221.439 143.873 221.439 144.724V149.65H220.639L220.427 148.579H220.374C220.171 148.844 219.96 149.066 219.739 149.247C219.519 149.423 219.263 149.558 218.972 149.65C218.686 149.739 218.333 149.783 217.914 149.783C217.473 149.783 217.081 149.706 216.737 149.551C216.398 149.397 216.129 149.163 215.93 148.85C215.736 148.537 215.639 148.14 215.639 147.66C215.639 146.937 215.926 146.381 216.499 145.993C217.072 145.605 217.945 145.394 219.118 145.358L220.368 145.306V144.862C220.368 144.236 220.233 143.798 219.964 143.546C219.695 143.295 219.316 143.17 218.827 143.17C218.448 143.17 218.086 143.225 217.742 143.335C217.398 143.445 217.072 143.575 216.763 143.725L216.426 142.892C216.752 142.724 217.127 142.581 217.55 142.462C217.974 142.343 218.419 142.283 218.886 142.283ZM220.354 146.079L219.25 146.126C218.346 146.161 217.709 146.309 217.339 146.569C216.968 146.829 216.783 147.197 216.783 147.673C216.783 148.087 216.909 148.394 217.16 148.592C217.412 148.791 217.744 148.89 218.159 148.89C218.802 148.89 219.329 148.711 219.739 148.354C220.149 147.997 220.354 147.461 220.354 146.747V146.079ZM226.468 149.783C225.816 149.783 225.241 149.648 224.742 149.379C224.244 149.11 223.856 148.7 223.578 148.149C223.301 147.598 223.162 146.904 223.162 146.066C223.162 145.189 223.307 144.472 223.598 143.917C223.894 143.357 224.299 142.942 224.815 142.674C225.331 142.405 225.917 142.27 226.574 142.27C226.936 142.27 227.284 142.308 227.619 142.383C227.959 142.453 228.236 142.543 228.452 142.654L228.122 143.573C227.901 143.485 227.645 143.405 227.355 143.335C227.068 143.264 226.799 143.229 226.548 143.229C226.045 143.229 225.626 143.337 225.291 143.553C224.961 143.769 224.711 144.087 224.544 144.505C224.381 144.924 224.299 145.44 224.299 146.053C224.299 146.639 224.379 147.14 224.537 147.554C224.7 147.968 224.941 148.286 225.258 148.506C225.58 148.722 225.981 148.83 226.462 148.83C226.845 148.83 227.191 148.791 227.5 148.711C227.809 148.628 228.089 148.531 228.34 148.42V149.399C228.097 149.523 227.826 149.617 227.526 149.683C227.231 149.75 226.878 149.783 226.468 149.783ZM232.827 149.783C232.175 149.783 231.599 149.648 231.101 149.379C230.603 149.11 230.215 148.7 229.937 148.149C229.659 147.598 229.52 146.904 229.52 146.066C229.52 145.189 229.666 144.472 229.957 143.917C230.252 143.357 230.658 142.942 231.174 142.674C231.69 142.405 232.276 142.27 232.933 142.27C233.294 142.27 233.643 142.308 233.978 142.383C234.317 142.453 234.595 142.543 234.811 142.654L234.48 143.573C234.26 143.485 234.004 143.405 233.713 143.335C233.427 143.264 233.158 143.229 232.906 143.229C232.404 143.229 231.985 143.337 231.65 143.553C231.319 143.769 231.07 144.087 230.903 144.505C230.739 144.924 230.658 145.44 230.658 146.053C230.658 146.639 230.737 147.14 230.896 147.554C231.059 147.968 231.299 148.286 231.617 148.506C231.939 148.722 232.34 148.83 232.82 148.83C233.204 148.83 233.55 148.791 233.859 148.711C234.167 148.628 234.447 148.531 234.699 148.42V149.399C234.456 149.523 234.185 149.617 233.885 149.683C233.59 149.75 233.237 149.783 232.827 149.783ZM242.532 146.013C242.532 146.608 242.455 147.14 242.3 147.607C242.146 148.074 241.924 148.469 241.633 148.791C241.342 149.113 240.989 149.359 240.574 149.531C240.164 149.699 239.699 149.783 239.179 149.783C238.694 149.783 238.249 149.699 237.843 149.531C237.442 149.359 237.094 149.113 236.798 148.791C236.507 148.469 236.28 148.074 236.117 147.607C235.958 147.14 235.879 146.608 235.879 146.013C235.879 145.22 236.014 144.545 236.283 143.99C236.551 143.43 236.935 143.004 237.433 142.713C237.936 142.418 238.533 142.27 239.225 142.27C239.887 142.27 240.464 142.418 240.958 142.713C241.456 143.009 241.842 143.436 242.115 143.996C242.393 144.552 242.532 145.224 242.532 146.013ZM237.017 146.013C237.017 146.595 237.094 147.1 237.248 147.528C237.402 147.955 237.64 148.286 237.962 148.52C238.284 148.753 238.699 148.87 239.206 148.87C239.708 148.87 240.12 148.753 240.442 148.52C240.768 148.286 241.009 147.955 241.163 147.528C241.317 147.1 241.394 146.595 241.394 146.013C241.394 145.436 241.317 144.937 241.163 144.519C241.009 144.095 240.771 143.769 240.449 143.54C240.127 143.311 239.71 143.196 239.199 143.196C238.445 143.196 237.892 143.445 237.539 143.943C237.191 144.441 237.017 145.131 237.017 146.013ZM250.279 142.402V149.65H249.38L249.221 148.632H249.162C249.012 148.883 248.818 149.095 248.58 149.267C248.342 149.439 248.073 149.567 247.773 149.65C247.478 149.739 247.162 149.783 246.827 149.783C246.254 149.783 245.774 149.69 245.386 149.505C244.998 149.32 244.704 149.033 244.506 148.645C244.312 148.257 244.215 147.759 244.215 147.151V142.402H245.326V147.071C245.326 147.675 245.463 148.127 245.736 148.427C246.009 148.722 246.426 148.87 246.986 148.87C247.524 148.87 247.952 148.769 248.269 148.566C248.591 148.363 248.822 148.065 248.963 147.673C249.104 147.276 249.175 146.791 249.175 146.218V142.402H250.279ZM255.897 142.27C256.757 142.27 257.407 142.482 257.848 142.905C258.289 143.324 258.51 143.998 258.51 144.929V149.65H257.425V145.001C257.425 144.397 257.286 143.945 257.008 143.646C256.735 143.346 256.314 143.196 255.745 143.196C254.943 143.196 254.379 143.423 254.052 143.877C253.726 144.331 253.563 144.99 253.563 145.854V149.65H252.465V142.402H253.351L253.517 143.447H253.576C253.73 143.192 253.927 142.978 254.165 142.806C254.403 142.629 254.67 142.497 254.965 142.409C255.26 142.316 255.571 142.27 255.897 142.27ZM262.977 148.883C263.158 148.883 263.343 148.868 263.532 148.837C263.722 148.806 263.876 148.769 263.995 148.725V149.578C263.867 149.635 263.689 149.683 263.46 149.723C263.235 149.763 263.014 149.783 262.798 149.783C262.415 149.783 262.066 149.717 261.753 149.584C261.44 149.448 261.189 149.218 261 148.896C260.814 148.575 260.722 148.129 260.722 147.561V143.262H259.69V142.726L260.728 142.297L261.165 140.723H261.826V142.402H263.949V143.262H261.826V147.528C261.826 147.982 261.93 148.321 262.137 148.546C262.349 148.771 262.629 148.883 262.977 148.883ZM266.075 146.965V146.622C266.075 146.269 266.108 145.967 266.174 145.716C266.241 145.46 266.355 145.222 266.518 145.001C266.686 144.781 266.917 144.547 267.213 144.3C267.557 144.014 267.828 143.771 268.026 143.573C268.229 143.37 268.374 143.167 268.463 142.965C268.551 142.762 268.595 142.517 268.595 142.23C268.595 141.772 268.447 141.421 268.152 141.179C267.856 140.932 267.44 140.809 266.902 140.809C266.465 140.809 266.077 140.864 265.738 140.974C265.398 141.084 265.072 141.216 264.759 141.371L264.376 140.485C264.737 140.295 265.13 140.141 265.553 140.022C265.976 139.903 266.448 139.843 266.968 139.843C267.819 139.843 268.478 140.055 268.945 140.478C269.413 140.897 269.646 141.474 269.646 142.211C269.646 142.621 269.58 142.971 269.448 143.262C269.316 143.549 269.128 143.813 268.886 144.056C268.643 144.294 268.357 144.547 268.026 144.816C267.735 145.063 267.512 145.281 267.358 145.471C267.204 145.656 267.098 145.848 267.041 146.046C266.983 146.24 266.955 146.474 266.955 146.747V146.965H266.075ZM265.784 148.963C265.784 148.654 265.857 148.436 266.002 148.308C266.148 148.176 266.335 148.11 266.565 148.11C266.781 148.11 266.964 148.176 267.113 148.308C267.268 148.436 267.345 148.654 267.345 148.963C267.345 149.267 267.268 149.489 267.113 149.631C266.964 149.767 266.781 149.836 266.565 149.836C266.335 149.836 266.148 149.767 266.002 149.631C265.857 149.489 265.784 149.267 265.784 148.963Z" fill="#02001A" fill-opacity="0.5"/>
<path d="M274.587 149.65V139.982H275.711V148.645H280.003V149.65H274.587ZM287.611 146.013C287.611 146.608 287.534 147.14 287.38 147.607C287.226 148.074 287.003 148.469 286.712 148.791C286.421 149.113 286.068 149.359 285.654 149.531C285.244 149.699 284.779 149.783 284.258 149.783C283.773 149.783 283.328 149.699 282.923 149.531C282.521 149.359 282.173 149.113 281.878 148.791C281.587 148.469 281.36 148.074 281.197 147.607C281.038 147.14 280.958 146.608 280.958 146.013C280.958 145.22 281.093 144.545 281.362 143.99C281.631 143.43 282.014 143.004 282.513 142.713C283.015 142.418 283.613 142.27 284.305 142.27C284.966 142.27 285.544 142.418 286.037 142.713C286.536 143.009 286.921 143.436 287.195 143.996C287.472 144.552 287.611 145.224 287.611 146.013ZM282.096 146.013C282.096 146.595 282.173 147.1 282.327 147.528C282.482 147.955 282.72 148.286 283.042 148.52C283.363 148.753 283.778 148.87 284.285 148.87C284.787 148.87 285.2 148.753 285.522 148.52C285.848 148.286 286.088 147.955 286.242 147.528C286.397 147.1 286.474 146.595 286.474 146.013C286.474 145.436 286.397 144.937 286.242 144.519C286.088 144.095 285.85 143.769 285.528 143.54C285.206 143.311 284.79 143.196 284.278 143.196C283.524 143.196 282.971 143.445 282.618 143.943C282.27 144.441 282.096 145.131 282.096 146.013ZM291.397 152.904C290.445 152.904 289.711 152.725 289.195 152.368C288.679 152.016 288.422 151.52 288.422 150.88C288.422 150.426 288.565 150.038 288.851 149.717C289.142 149.395 289.544 149.181 290.055 149.075C289.865 148.987 289.702 148.855 289.566 148.678C289.433 148.502 289.367 148.299 289.367 148.07C289.367 147.805 289.44 147.574 289.585 147.375C289.735 147.173 289.962 146.979 290.267 146.794C289.887 146.639 289.579 146.379 289.341 146.013C289.107 145.643 288.99 145.213 288.99 144.724C288.99 144.203 289.098 143.76 289.314 143.394C289.53 143.024 289.843 142.742 290.253 142.548C290.663 142.354 291.159 142.257 291.741 142.257C291.869 142.257 291.997 142.264 292.125 142.277C292.257 142.286 292.383 142.301 292.502 142.323C292.621 142.341 292.724 142.363 292.813 142.389H295.299V143.097L293.963 143.262C294.096 143.434 294.206 143.641 294.294 143.884C294.382 144.126 294.426 144.395 294.426 144.691C294.426 145.414 294.182 145.989 293.692 146.417C293.203 146.84 292.53 147.051 291.675 147.051C291.472 147.051 291.265 147.034 291.054 146.999C290.838 147.118 290.672 147.25 290.558 147.395C290.447 147.541 290.392 147.708 290.392 147.898C290.392 148.039 290.434 148.151 290.518 148.235C290.606 148.319 290.732 148.381 290.895 148.42C291.058 148.456 291.254 148.473 291.483 148.473H292.76C293.549 148.473 294.153 148.639 294.572 148.969C294.995 149.3 295.207 149.783 295.207 150.418C295.207 151.22 294.88 151.835 294.228 152.263C293.575 152.69 292.632 152.904 291.397 152.904ZM291.431 152.044C292.03 152.044 292.526 151.983 292.918 151.859C293.315 151.74 293.611 151.566 293.805 151.337C294.003 151.112 294.102 150.843 294.102 150.53C294.102 150.239 294.036 150.019 293.904 149.869C293.772 149.723 293.578 149.626 293.322 149.578C293.066 149.525 292.753 149.498 292.383 149.498H291.126C290.8 149.498 290.516 149.549 290.273 149.65C290.031 149.752 289.843 149.902 289.711 150.1C289.583 150.298 289.519 150.545 289.519 150.841C289.519 151.233 289.685 151.531 290.015 151.734C290.346 151.941 290.818 152.044 291.431 152.044ZM291.715 146.251C292.24 146.251 292.634 146.119 292.899 145.854C293.163 145.59 293.295 145.204 293.295 144.697C293.295 144.155 293.161 143.749 292.892 143.48C292.623 143.207 292.226 143.07 291.702 143.07C291.199 143.07 290.811 143.211 290.538 143.494C290.269 143.771 290.134 144.179 290.134 144.717C290.134 145.211 290.271 145.59 290.544 145.854C290.818 146.119 291.208 146.251 291.715 146.251ZM301.073 142.402V149.65H299.975V142.402H301.073ZM300.537 139.691C300.718 139.691 300.872 139.751 301 139.87C301.132 139.984 301.198 140.165 301.198 140.412C301.198 140.654 301.132 140.835 301 140.954C300.872 141.073 300.718 141.133 300.537 141.133C300.347 141.133 300.189 141.073 300.061 140.954C299.937 140.835 299.876 140.654 299.876 140.412C299.876 140.165 299.937 139.984 300.061 139.87C300.189 139.751 300.347 139.691 300.537 139.691ZM306.697 142.27C307.557 142.27 308.207 142.482 308.648 142.905C309.089 143.324 309.31 143.998 309.31 144.929V149.65H308.225V145.001C308.225 144.397 308.086 143.945 307.808 143.646C307.535 143.346 307.114 143.196 306.545 143.196C305.743 143.196 305.179 143.423 304.852 143.877C304.526 144.331 304.363 144.99 304.363 145.854V149.65H303.265V142.402H304.151L304.317 143.447H304.376C304.53 143.192 304.727 142.978 304.965 142.806C305.203 142.629 305.469 142.497 305.765 142.409C306.06 142.316 306.371 142.27 306.697 142.27Z" fill="#0006B1"/>
<path d="M273.264 150.477H288.088V150.808H273.264V150.477ZM295.538 150.477H310.414V150.808H295.538V150.477Z" fill="#0006B1"/>
<rect x="34.1092" y="191.277" width="356.006" height="53.2074" rx="11.1252" fill="#F7F8FA" stroke="#EDEFF2" stroke-width="0.967407"/>
<path d="M59.6794 224.141H54.2963V214.472H59.6794V215.464H55.4205V218.592H59.4347V219.571H55.4205V223.149H59.6794V224.141ZM64.9535 216.76C65.8132 216.76 66.4635 216.972 66.9043 217.395C67.3452 217.814 67.5657 218.489 67.5657 219.419V224.141H66.4811V219.492C66.4811 218.888 66.3422 218.436 66.0645 218.136C65.7911 217.836 65.3701 217.686 64.8014 217.686C63.999 217.686 63.4346 217.913 63.1084 218.367C62.7821 218.821 62.619 219.481 62.619 220.345V224.141H61.5212V216.893H62.4074L62.5727 217.938H62.6323C62.7866 217.682 62.9827 217.468 63.2208 217.296C63.4589 217.12 63.7256 216.987 64.021 216.899C64.3164 216.807 64.6272 216.76 64.9535 216.76ZM72.033 223.374C72.2137 223.374 72.3989 223.358 72.5885 223.327C72.778 223.296 72.9323 223.259 73.0514 223.215V224.068C72.9235 224.125 72.745 224.174 72.5157 224.213C72.2909 224.253 72.0704 224.273 71.8544 224.273C71.4708 224.273 71.1225 224.207 70.8095 224.074C70.4965 223.938 70.2452 223.709 70.0556 223.387C69.8705 223.065 69.7779 222.62 69.7779 222.051V217.752H68.7462V217.217L69.7845 216.787L70.221 215.213H70.8823V216.893H73.0051V217.752H70.8823V222.018C70.8823 222.472 70.9859 222.811 71.1931 223.036C71.4047 223.261 71.6847 223.374 72.033 223.374ZM77.1748 216.76C77.792 216.76 78.3211 216.897 78.762 217.17C79.2028 217.444 79.5401 217.827 79.7738 218.321C80.0074 218.81 80.1243 219.384 80.1243 220.04V220.722H75.1181C75.1313 221.573 75.343 222.221 75.753 222.666C76.163 223.111 76.7405 223.334 77.4856 223.334C77.9441 223.334 78.3497 223.292 78.7024 223.208C79.0551 223.124 79.4211 223.001 79.8002 222.838V223.803C79.4343 223.966 79.0706 224.086 78.7091 224.16C78.3519 224.235 77.9287 224.273 77.4393 224.273C76.7427 224.273 76.1343 224.132 75.6141 223.85C75.0983 223.563 74.6971 223.144 74.4105 222.593C74.1239 222.042 73.9807 221.368 73.9807 220.57C73.9807 219.789 74.1107 219.115 74.3708 218.546C74.6354 217.973 75.0057 217.532 75.4818 217.223C75.9624 216.915 76.5267 216.76 77.1748 216.76ZM77.1616 217.66C76.5752 217.66 76.1079 217.852 75.7596 218.235C75.4113 218.619 75.2041 219.154 75.138 219.842H78.9736C78.9692 219.41 78.9008 219.031 78.7686 218.705C78.6407 218.374 78.4445 218.118 78.18 217.938C77.9155 217.752 77.576 217.66 77.1616 217.66ZM85.1471 216.76C85.2926 216.76 85.4447 216.769 85.6034 216.787C85.7621 216.8 85.9032 216.82 86.0266 216.846L85.8877 217.865C85.7687 217.834 85.6364 217.81 85.491 217.792C85.3455 217.774 85.2088 217.766 85.0809 217.766C84.79 217.766 84.5144 217.825 84.2543 217.944C83.9986 218.059 83.7737 218.226 83.5798 218.447C83.3858 218.663 83.2337 218.925 83.1235 219.234C83.0132 219.538 82.9581 219.877 82.9581 220.252V224.141H81.8537V216.893H82.7663L82.8854 218.228H82.9317C83.0816 217.96 83.2623 217.715 83.4739 217.494C83.6856 217.27 83.9303 217.091 84.208 216.959C84.4902 216.826 84.8032 216.76 85.1471 216.76ZM89.4988 216.893H90.6759L92.2763 221.099C92.3689 221.345 92.4549 221.584 92.5342 221.813C92.6136 222.038 92.6841 222.254 92.7458 222.461C92.8076 222.668 92.856 222.869 92.8913 223.063H92.9376C92.9993 222.842 93.0875 222.553 93.2021 222.196C93.3168 221.835 93.4402 221.467 93.5725 221.092L95.0869 216.893H96.2706L93.1162 225.205C92.9486 225.651 92.7524 226.039 92.5276 226.369C92.3072 226.7 92.0382 226.953 91.7208 227.13C91.4034 227.311 91.0198 227.401 90.5701 227.401C90.3629 227.401 90.1799 227.388 90.0212 227.361C89.8625 227.339 89.7258 227.313 89.6112 227.282V226.402C89.7082 226.424 89.825 226.444 89.9617 226.462C90.1028 226.479 90.2483 226.488 90.3982 226.488C90.6715 226.488 90.9074 226.435 91.1058 226.33C91.3086 226.228 91.4827 226.078 91.6282 225.88C91.7737 225.681 91.8993 225.446 92.0052 225.172L92.4019 224.154L89.4988 216.893ZM103.542 220.503C103.542 221.099 103.465 221.63 103.31 222.097C103.156 222.564 102.934 222.959 102.643 223.281C102.352 223.603 101.999 223.85 101.584 224.022C101.174 224.189 100.709 224.273 100.189 224.273C99.7041 224.273 99.2588 224.189 98.8532 224.022C98.452 223.85 98.1037 223.603 97.8083 223.281C97.5173 222.959 97.2903 222.564 97.1272 222.097C96.9685 221.63 96.8891 221.099 96.8891 220.503C96.8891 219.71 97.0236 219.035 97.2925 218.48C97.5614 217.92 97.945 217.494 98.4432 217.203C98.9458 216.908 99.5432 216.76 100.235 216.76C100.897 216.76 101.474 216.908 101.968 217.203C102.466 217.499 102.852 217.926 103.125 218.486C103.403 219.042 103.542 219.714 103.542 220.503ZM98.0266 220.503C98.0266 221.085 98.1037 221.59 98.258 222.018C98.4123 222.445 98.6504 222.776 98.9722 223.01C99.2941 223.243 99.7085 223.36 100.216 223.36C100.718 223.36 101.13 223.243 101.452 223.01C101.778 222.776 102.019 222.445 102.173 222.018C102.327 221.59 102.404 221.085 102.404 220.503C102.404 219.926 102.327 219.428 102.173 219.009C102.019 218.586 101.781 218.259 101.459 218.03C101.137 217.801 100.72 217.686 100.209 217.686C99.455 217.686 98.9017 217.935 98.549 218.433C98.2007 218.932 98.0266 219.622 98.0266 220.503ZM111.289 216.893V224.141H110.39L110.231 223.122H110.172C110.022 223.374 109.828 223.585 109.59 223.757C109.352 223.929 109.083 224.057 108.783 224.141C108.488 224.229 108.172 224.273 107.837 224.273C107.264 224.273 106.784 224.18 106.396 223.995C106.008 223.81 105.714 223.523 105.516 223.135C105.322 222.747 105.225 222.249 105.225 221.641V216.893H106.336V221.562C106.336 222.166 106.473 222.617 106.746 222.917C107.019 223.213 107.436 223.36 107.996 223.36C108.534 223.36 108.962 223.259 109.279 223.056C109.601 222.853 109.832 222.556 109.973 222.163C110.114 221.767 110.185 221.282 110.185 220.708V216.893H111.289ZM116.768 216.76C116.914 216.76 117.066 216.769 117.225 216.787C117.383 216.8 117.525 216.82 117.648 216.846L117.509 217.865C117.39 217.834 117.258 217.81 117.112 217.792C116.967 217.774 116.83 217.766 116.702 217.766C116.411 217.766 116.136 217.825 115.876 217.944C115.62 218.059 115.395 218.226 115.201 218.447C115.007 218.663 114.855 218.925 114.745 219.234C114.635 219.538 114.579 219.877 114.579 220.252V224.141H113.475V216.893H114.388L114.507 218.228H114.553C114.703 217.96 114.884 217.715 115.095 217.494C115.307 217.27 115.552 217.091 115.829 216.959C116.112 216.826 116.425 216.76 116.768 216.76ZM125.055 216.76C125.672 216.76 126.201 216.897 126.642 217.17C127.083 217.444 127.42 217.827 127.654 218.321C127.888 218.81 128.004 219.384 128.004 220.04V220.722H122.998C123.012 221.573 123.223 222.221 123.633 222.666C124.043 223.111 124.621 223.334 125.366 223.334C125.824 223.334 126.23 223.292 126.583 223.208C126.935 223.124 127.301 223.001 127.68 222.838V223.803C127.314 223.966 126.951 224.086 126.589 224.16C126.232 224.235 125.809 224.273 125.32 224.273C124.623 224.273 124.015 224.132 123.494 223.85C122.978 223.563 122.577 223.144 122.291 222.593C122.004 222.042 121.861 221.368 121.861 220.57C121.861 219.789 121.991 219.115 122.251 218.546C122.516 217.973 122.886 217.532 123.362 217.223C123.843 216.915 124.407 216.76 125.055 216.76ZM125.042 217.66C124.455 217.66 123.988 217.852 123.64 218.235C123.291 218.619 123.084 219.154 123.018 219.842H126.854C126.849 219.41 126.781 219.031 126.649 218.705C126.521 218.374 126.325 218.118 126.06 217.938C125.796 217.752 125.456 217.66 125.042 217.66ZM137.604 216.76C138.402 216.76 139.003 216.97 139.409 217.389C139.815 217.803 140.017 218.471 140.017 219.392V224.141H138.933V219.445C138.933 218.859 138.805 218.42 138.549 218.129C138.298 217.834 137.923 217.686 137.425 217.686C136.724 217.686 136.215 217.889 135.897 218.295C135.58 218.7 135.421 219.298 135.421 220.087V224.141H134.33V219.445C134.33 219.053 134.273 218.727 134.158 218.467C134.048 218.206 133.88 218.012 133.655 217.885C133.435 217.752 133.155 217.686 132.816 217.686C132.335 217.686 131.949 217.785 131.658 217.984C131.367 218.182 131.156 218.478 131.023 218.87C130.896 219.258 130.832 219.736 130.832 220.305V224.141H129.734V216.893H130.62L130.785 217.918H130.845C130.99 217.666 131.173 217.455 131.394 217.283C131.614 217.111 131.861 216.981 132.134 216.893C132.408 216.804 132.699 216.76 133.007 216.76C133.558 216.76 134.019 216.864 134.39 217.071C134.764 217.274 135.035 217.585 135.203 218.004H135.262C135.501 217.585 135.827 217.274 136.241 217.071C136.656 216.864 137.11 216.76 137.604 216.76ZM144.848 216.774C145.712 216.774 146.354 216.968 146.773 217.356C147.192 217.744 147.401 218.363 147.401 219.214V224.141H146.601L146.389 223.069H146.336C146.134 223.334 145.922 223.556 145.701 223.737C145.481 223.914 145.225 224.048 144.934 224.141C144.648 224.229 144.295 224.273 143.876 224.273C143.435 224.273 143.043 224.196 142.699 224.041C142.36 223.887 142.091 223.653 141.892 223.34C141.698 223.027 141.601 222.631 141.601 222.15C141.601 221.427 141.888 220.872 142.461 220.484C143.034 220.096 143.907 219.884 145.08 219.849L146.33 219.796V219.353C146.33 218.727 146.195 218.288 145.926 218.037C145.657 217.785 145.278 217.66 144.789 217.66C144.41 217.66 144.048 217.715 143.704 217.825C143.36 217.935 143.034 218.065 142.726 218.215L142.388 217.382C142.715 217.214 143.089 217.071 143.512 216.952C143.936 216.833 144.381 216.774 144.848 216.774ZM146.316 220.57L145.212 220.616C144.308 220.651 143.671 220.799 143.301 221.059C142.931 221.319 142.745 221.687 142.745 222.163C142.745 222.578 142.871 222.884 143.122 223.083C143.374 223.281 143.706 223.38 144.121 223.38C144.765 223.38 145.291 223.202 145.701 222.844C146.111 222.487 146.316 221.952 146.316 221.237V220.57ZM150.625 216.893V224.141H149.527V216.893H150.625ZM150.089 214.181C150.27 214.181 150.424 214.241 150.552 214.36C150.685 214.474 150.751 214.655 150.751 214.902C150.751 215.145 150.685 215.325 150.552 215.444C150.424 215.563 150.27 215.623 150.089 215.623C149.9 215.623 149.741 215.563 149.613 215.444C149.49 215.325 149.428 215.145 149.428 214.902C149.428 214.655 149.49 214.474 149.613 214.36C149.741 214.241 149.9 214.181 150.089 214.181ZM153.922 224.141H152.817V213.851H153.922V224.141ZM162.202 216.774C163.066 216.774 163.707 216.968 164.126 217.356C164.545 217.744 164.754 218.363 164.754 219.214V224.141H163.954L163.743 223.069H163.69C163.487 223.334 163.275 223.556 163.055 223.737C162.834 223.914 162.579 224.048 162.288 224.141C162.001 224.229 161.648 224.273 161.23 224.273C160.789 224.273 160.396 224.196 160.052 224.041C159.713 223.887 159.444 223.653 159.246 223.34C159.052 223.027 158.955 222.631 158.955 222.15C158.955 221.427 159.241 220.872 159.814 220.484C160.388 220.096 161.26 219.884 162.433 219.849L163.683 219.796V219.353C163.683 218.727 163.549 218.288 163.28 218.037C163.011 217.785 162.632 217.66 162.142 217.66C161.763 217.66 161.402 217.715 161.058 217.825C160.714 217.935 160.388 218.065 160.079 218.215L159.742 217.382C160.068 217.214 160.443 217.071 160.866 216.952C161.289 216.833 161.734 216.774 162.202 216.774ZM163.67 220.57L162.565 220.616C161.662 220.651 161.025 220.799 160.654 221.059C160.284 221.319 160.099 221.687 160.099 222.163C160.099 222.578 160.224 222.884 160.476 223.083C160.727 223.281 161.06 223.38 161.474 223.38C162.118 223.38 162.645 223.202 163.055 222.844C163.465 222.487 163.67 221.952 163.67 221.237V220.57ZM169.46 224.273C168.543 224.273 167.815 223.96 167.277 223.334C166.744 222.708 166.477 221.778 166.477 220.543C166.477 219.295 166.751 218.354 167.297 217.719C167.844 217.08 168.571 216.76 169.48 216.76C169.863 216.76 170.198 216.811 170.485 216.912C170.771 217.014 171.018 217.151 171.226 217.322C171.433 217.49 171.607 217.682 171.748 217.898H171.827C171.81 217.761 171.792 217.574 171.774 217.336C171.757 217.098 171.748 216.904 171.748 216.754V213.851H172.846V224.141H171.96L171.794 223.109H171.748C171.611 223.325 171.437 223.521 171.226 223.698C171.018 223.874 170.769 224.015 170.478 224.121C170.192 224.222 169.852 224.273 169.46 224.273ZM169.632 223.36C170.408 223.36 170.957 223.14 171.278 222.699C171.6 222.258 171.761 221.603 171.761 220.735V220.536C171.761 219.615 171.607 218.907 171.298 218.414C170.994 217.92 170.439 217.673 169.632 217.673C168.957 217.673 168.452 217.933 168.117 218.453C167.782 218.969 167.615 219.675 167.615 220.57C167.615 221.46 167.78 222.148 168.111 222.633C168.446 223.118 168.953 223.36 169.632 223.36ZM177.617 224.273C176.7 224.273 175.973 223.96 175.435 223.334C174.901 222.708 174.635 221.778 174.635 220.543C174.635 219.295 174.908 218.354 175.455 217.719C176.001 217.08 176.729 216.76 177.637 216.76C178.021 216.76 178.356 216.811 178.642 216.912C178.929 217.014 179.176 217.151 179.383 217.322C179.59 217.49 179.764 217.682 179.905 217.898H179.985C179.967 217.761 179.949 217.574 179.932 217.336C179.914 217.098 179.905 216.904 179.905 216.754V213.851H181.003V224.141H180.117L179.952 223.109H179.905C179.769 223.325 179.595 223.521 179.383 223.698C179.176 223.874 178.927 224.015 178.636 224.121C178.349 224.222 178.01 224.273 177.617 224.273ZM177.789 223.36C178.565 223.36 179.114 223.14 179.436 222.699C179.758 222.258 179.919 221.603 179.919 220.735V220.536C179.919 219.615 179.764 218.907 179.456 218.414C179.151 217.92 178.596 217.673 177.789 217.673C177.115 217.673 176.61 217.933 176.275 218.453C175.94 218.969 175.772 219.675 175.772 220.57C175.772 221.46 175.938 222.148 176.268 222.633C176.603 223.118 177.11 223.36 177.789 223.36ZM186.489 216.76C186.634 216.76 186.786 216.769 186.945 216.787C187.104 216.8 187.245 216.82 187.368 216.846L187.23 217.865C187.111 217.834 186.978 217.81 186.833 217.792C186.687 217.774 186.551 217.766 186.423 217.766C186.132 217.766 185.856 217.825 185.596 217.944C185.34 218.059 185.116 218.226 184.922 218.447C184.728 218.663 184.575 218.925 184.465 219.234C184.355 219.538 184.3 219.877 184.3 220.252V224.141H183.196V216.893H184.108L184.227 218.228H184.273C184.423 217.96 184.604 217.715 184.816 217.494C185.027 217.27 185.272 217.091 185.55 216.959C185.832 216.826 186.145 216.76 186.489 216.76ZM191.393 216.76C192.01 216.76 192.539 216.897 192.98 217.17C193.421 217.444 193.758 217.827 193.992 218.321C194.225 218.81 194.342 219.384 194.342 220.04V220.722H189.336C189.349 221.573 189.561 222.221 189.971 222.666C190.381 223.111 190.958 223.334 191.703 223.334C192.162 223.334 192.568 223.292 192.92 223.208C193.273 223.124 193.639 223.001 194.018 222.838V223.803C193.652 223.966 193.288 224.086 192.927 224.16C192.57 224.235 192.147 224.273 191.657 224.273C190.961 224.273 190.352 224.132 189.832 223.85C189.316 223.563 188.915 223.144 188.628 222.593C188.342 222.042 188.199 221.368 188.199 220.57C188.199 219.789 188.329 219.115 188.589 218.546C188.853 217.973 189.224 217.532 189.7 217.223C190.18 216.915 190.745 216.76 191.393 216.76ZM191.379 217.66C190.793 217.66 190.326 217.852 189.977 218.235C189.629 218.619 189.422 219.154 189.356 219.842H193.191C193.187 219.41 193.119 219.031 192.986 218.705C192.859 218.374 192.662 218.118 192.398 217.938C192.133 217.752 191.794 217.66 191.379 217.66ZM200.76 222.157C200.76 222.62 200.643 223.01 200.41 223.327C200.181 223.64 199.85 223.876 199.418 224.035C198.99 224.194 198.479 224.273 197.884 224.273C197.377 224.273 196.938 224.233 196.568 224.154C196.197 224.074 195.873 223.962 195.595 223.817V222.805C195.891 222.95 196.244 223.083 196.654 223.202C197.064 223.321 197.482 223.38 197.91 223.38C198.536 223.38 198.99 223.279 199.272 223.076C199.555 222.873 199.696 222.598 199.696 222.249C199.696 222.051 199.638 221.877 199.524 221.727C199.413 221.573 199.226 221.425 198.962 221.284C198.697 221.138 198.331 220.98 197.864 220.808C197.401 220.631 197 220.457 196.66 220.285C196.325 220.109 196.065 219.895 195.88 219.644C195.699 219.392 195.609 219.066 195.609 218.665C195.609 218.052 195.856 217.583 196.349 217.256C196.848 216.926 197.5 216.76 198.307 216.76C198.743 216.76 199.151 216.804 199.53 216.893C199.914 216.976 200.271 217.091 200.602 217.237L200.231 218.116C199.931 217.988 199.612 217.88 199.272 217.792C198.933 217.704 198.587 217.66 198.234 217.66C197.727 217.66 197.337 217.744 197.064 217.911C196.795 218.079 196.66 218.308 196.66 218.599C196.66 218.824 196.722 219.009 196.845 219.154C196.973 219.3 197.176 219.436 197.454 219.564C197.731 219.692 198.097 219.842 198.552 220.014C199.006 220.182 199.398 220.356 199.729 220.536C200.059 220.713 200.313 220.929 200.489 221.185C200.67 221.436 200.76 221.76 200.76 222.157ZM207.079 222.157C207.079 222.62 206.962 223.01 206.729 223.327C206.5 223.64 206.169 223.876 205.737 224.035C205.309 224.194 204.798 224.273 204.203 224.273C203.696 224.273 203.257 224.233 202.887 224.154C202.516 224.074 202.192 223.962 201.914 223.817V222.805C202.21 222.95 202.563 223.083 202.973 223.202C203.383 223.321 203.801 223.38 204.229 223.38C204.855 223.38 205.309 223.279 205.591 223.076C205.873 222.873 206.015 222.598 206.015 222.249C206.015 222.051 205.957 221.877 205.843 221.727C205.732 221.573 205.545 221.425 205.281 221.284C205.016 221.138 204.65 220.98 204.183 220.808C203.72 220.631 203.319 220.457 202.979 220.285C202.644 220.109 202.384 219.895 202.199 219.644C202.018 219.392 201.928 219.066 201.928 218.665C201.928 218.052 202.175 217.583 202.668 217.256C203.167 216.926 203.819 216.76 204.626 216.76C205.062 216.76 205.47 216.804 205.849 216.893C206.233 216.976 206.59 217.091 206.921 217.237L206.55 218.116C206.25 217.988 205.931 217.88 205.591 217.792C205.252 217.704 204.906 217.66 204.553 217.66C204.046 217.66 203.656 217.744 203.383 217.911C203.114 218.079 202.979 218.308 202.979 218.599C202.979 218.824 203.041 219.009 203.164 219.154C203.292 219.3 203.495 219.436 203.773 219.564C204.05 219.692 204.416 219.842 204.871 220.014C205.325 220.182 205.717 220.356 206.048 220.536C206.378 220.713 206.632 220.929 206.808 221.185C206.989 221.436 207.079 221.76 207.079 222.157Z" fill="#161616" fill-opacity="0.6"/>
<rect x="33.6257" y="260.446" width="356.973" height="54.1748" rx="11.6089" fill="#4E2FFF"/>
<path d="M179.124 292.827V281.992H181.028L185.996 289.964V281.992H187.73V292.827H185.826L180.842 284.871V292.827H179.124ZM196.867 288.632C196.867 288.911 196.857 289.143 196.837 289.329H190.877C190.95 290 191.187 290.531 191.589 290.923C192.002 291.315 192.518 291.511 193.137 291.511C193.653 291.511 194.081 291.398 194.422 291.171C194.762 290.934 194.984 290.603 195.087 290.18L196.682 290.583C196.475 291.336 196.057 291.919 195.428 292.332C194.799 292.745 194.025 292.951 193.106 292.951C191.92 292.951 190.975 292.559 190.274 291.775C189.572 290.98 189.221 290.031 189.221 288.927C189.221 287.812 189.556 286.863 190.227 286.079C190.908 285.294 191.842 284.902 193.029 284.902C194.226 284.902 195.165 285.268 195.846 286.001C196.527 286.734 196.867 287.611 196.867 288.632ZM190.955 288.044H195.072C195.02 287.497 194.814 287.059 194.453 286.729C194.102 286.398 193.627 286.233 193.029 286.233C192.492 286.233 192.043 286.393 191.682 286.713C191.321 287.023 191.079 287.466 190.955 288.044ZM204.344 292.827H202.471L200.753 290.242L199.019 292.827H197.146L199.824 288.849L197.27 285.026H199.112L200.753 287.456L202.378 285.026H204.22L201.666 288.849L204.344 292.827ZM209.885 292.765C209.513 292.889 209.101 292.951 208.647 292.951C207.873 292.951 207.248 292.734 206.774 292.301C206.309 291.867 206.077 291.223 206.077 290.366V286.465H204.715V285.026H206.077V282.704H207.764V285.026H209.776V286.465H207.764V290.273C207.764 290.655 207.857 290.949 208.043 291.155C208.239 291.352 208.502 291.45 208.832 291.45C209.204 291.45 209.518 291.388 209.776 291.264L209.885 292.765ZM218.292 292.951C217.24 292.951 216.321 292.636 215.537 292.007C214.763 291.377 214.299 290.567 214.144 289.577L215.8 289.066C215.893 289.757 216.177 290.314 216.651 290.738C217.126 291.161 217.694 291.372 218.354 291.372C218.994 291.372 219.505 291.233 219.886 290.954C220.279 290.676 220.475 290.304 220.475 289.84C220.475 289.448 220.325 289.117 220.026 288.849C219.737 288.581 219.371 288.385 218.927 288.261C218.493 288.127 218.019 287.977 217.503 287.812C216.997 287.637 216.522 287.451 216.079 287.255C215.645 287.059 215.279 286.749 214.98 286.326C214.691 285.903 214.546 285.387 214.546 284.778C214.546 283.922 214.897 283.225 215.599 282.689C216.301 282.142 217.188 281.868 218.261 281.868C219.283 281.868 220.155 282.116 220.877 282.611C221.599 283.107 222.038 283.762 222.193 284.577L220.568 285.243C220.454 284.685 220.191 284.247 219.778 283.927C219.376 283.607 218.87 283.447 218.261 283.447C217.673 283.447 217.209 283.566 216.868 283.803C216.538 284.041 216.373 284.366 216.373 284.778C216.373 285.119 216.517 285.397 216.806 285.614C217.105 285.831 217.472 285.991 217.905 286.094C218.349 286.187 218.829 286.316 219.345 286.481C219.861 286.646 220.335 286.837 220.769 287.054C221.212 287.26 221.579 287.601 221.868 288.075C222.167 288.55 222.317 289.128 222.317 289.809C222.317 290.758 221.95 291.522 221.218 292.1C220.485 292.667 219.51 292.951 218.292 292.951ZM228.073 292.765C227.702 292.889 227.289 292.951 226.835 292.951C226.061 292.951 225.437 292.734 224.962 292.301C224.498 291.867 224.266 291.223 224.266 290.366V286.465H222.903V285.026H224.266V282.704H225.953V285.026H227.965V286.465H225.953V290.273C225.953 290.655 226.046 290.949 226.231 291.155C226.427 291.352 226.691 291.45 227.021 291.45C227.392 291.45 227.707 291.388 227.965 291.264L228.073 292.765ZM236.404 288.632C236.404 288.911 236.393 289.143 236.373 289.329H230.413C230.486 290 230.723 290.531 231.125 290.923C231.538 291.315 232.054 291.511 232.673 291.511C233.189 291.511 233.617 291.398 233.958 291.171C234.299 290.934 234.52 290.603 234.624 290.18L236.218 290.583C236.011 291.336 235.594 291.919 234.964 292.332C234.335 292.745 233.561 292.951 232.642 292.951C231.456 292.951 230.511 292.559 229.81 291.775C229.108 290.98 228.757 290.031 228.757 288.927C228.757 287.812 229.093 286.863 229.763 286.079C230.444 285.294 231.378 284.902 232.565 284.902C233.762 284.902 234.701 285.268 235.382 286.001C236.063 286.734 236.404 287.611 236.404 288.632ZM230.491 288.044H234.608C234.557 287.497 234.35 287.059 233.989 286.729C233.638 286.398 233.163 286.233 232.565 286.233C232.028 286.233 231.579 286.393 231.218 286.713C230.857 287.023 230.615 287.466 230.491 288.044ZM237.818 295.644V285.026H239.505V286.017C239.732 285.686 240.062 285.418 240.496 285.212C240.929 285.005 241.409 284.902 241.935 284.902C243.07 284.902 243.963 285.274 244.613 286.017C245.273 286.76 245.603 287.73 245.603 288.927C245.603 290.124 245.263 291.094 244.582 291.837C243.911 292.579 242.998 292.951 241.842 292.951C241.367 292.951 240.919 292.858 240.496 292.672C240.072 292.487 239.742 292.239 239.505 291.929V295.644H237.818ZM240.016 290.784C240.428 291.248 240.975 291.481 241.656 291.481C242.337 291.481 242.884 291.248 243.297 290.784C243.71 290.309 243.916 289.69 243.916 288.927C243.916 288.153 243.71 287.533 243.297 287.069C242.884 286.605 242.337 286.373 241.656 286.373C240.975 286.373 240.428 286.605 240.016 287.069C239.603 287.533 239.397 288.153 239.397 288.927C239.397 289.69 239.603 290.309 240.016 290.784Z" fill="white"/>
</svg>
