<svg width="159" height="46" viewBox="0 0 159 46" fill="none" xmlns="http://www.w3.org/2000/svg">
<rect x="8.30737" y="6.86328" width="30.7935" height="31.6062" fill="#0033FF"/>
<path d="M22.9998 0C10.2941 0 -0.000488281 10.2946 -0.000488281 23.0003C-0.000488281 35.706 10.2941 46.0006 22.9998 46.0006C35.7055 46.0006 46.0001 35.706 46.0001 23.0003C46.0001 10.2946 35.7055 0 22.9998 0ZM13.5812 18.1059L20.5707 22.2688L13.5812 26.4499V18.1149V18.1059ZM13.5812 36.7174V29.4931L25.6728 22.2598L13.5812 15.0626V7.83834L21.5008 12.5522C24.1557 14.1144 25.7089 16.661 25.7089 19.3159V22.2598C29.312 20.1196 34.1884 20.1196 37.8006 22.2598L13.5902 36.7174H13.5812Z" fill="#FDFDFD"/>
<path d="M60.4392 26.539V19.6217H63.5908L65.3698 16.127H60.4392V13.165H56.2943V16.127H53.6393L51.8604 19.6217H56.2943V26.539C56.2943 31.1264 58.7234 33.0408 62.3897 33.0408C66.0561 33.0408 63.8256 33.0047 64.548 32.8693V29.3113H63.076C60.9539 29.3113 60.4392 28.2186 60.4392 26.539Z" fill="#FDFDFD"/>
<path d="M79.3218 16.1289H66.6252L64.8462 19.6237H74.0842L65.6589 29.6203V33.0428H79.3218V29.548H70.7611L79.3218 19.5875V16.1289Z" fill="#FDFDFD"/>
<path d="M93.9964 11.3057H95.4683V7.74775C94.7549 7.61229 93.9602 7.57617 93.3101 7.57617C89.6528 7.57617 87.2146 9.49061 87.2146 14.078V16.1279H84.7854V19.6227H87.2146V33.0418H91.3595V19.6227H95.3961V16.1279H91.3595V14.078C91.3595 12.3984 91.8742 11.3057 93.9964 11.3057Z" fill="#FDFDFD"/>
<path d="M104.183 15.6504C98.9458 15.6504 95.1531 19.2806 95.1531 24.5453C95.1531 29.81 98.9458 33.4402 104.183 33.4402C109.421 33.4402 113.223 29.819 113.223 24.5453C113.223 19.2716 109.43 15.6504 104.183 15.6504ZM104.183 29.7197C101.312 29.7197 99.3251 27.6337 99.3251 24.5543C99.3251 21.475 101.312 19.389 104.183 19.389C107.055 19.389 109.042 21.475 109.042 24.5543C109.042 27.6337 107.055 29.7197 104.183 29.7197Z" fill="#FDFDFD"/>
<path d="M123.572 15.8213C121.314 15.8213 119.707 16.9501 118.984 18.6297L118.74 16.1644H114.803V33.0422H118.975V24.8246C118.975 21.5465 120.854 19.9301 123.87 19.9301H125.414V16.0651C124.728 15.8935 124.15 15.8303 123.563 15.8303L123.572 15.8213Z" fill="#FDFDFD"/>
<path d="M138.282 27.5604C137.803 29.1678 136.295 30.0618 134.001 30.0618C131.708 30.0618 129.658 28.5538 129.351 25.5738L142.084 25.5376V24.2734C142.084 18.9997 138.869 15.6133 133.803 15.6133C128.737 15.6133 125.386 19.2706 125.386 24.5804C125.386 29.8903 128.908 33.4753 133.938 33.4753C138.968 33.4753 141.433 31.2448 142.156 27.5514H138.291L138.282 27.5604ZM133.83 19.0358C136.331 19.0358 137.939 20.58 137.939 22.9008H129.45C129.856 20.3723 131.365 19.0358 133.83 19.0358Z" fill="#FDFDFD"/>
<path d="M158.257 16.1289H153.57L149.976 21.8812L146.247 16.1289H141.388L147.204 24.7529L141.388 33.0337H146.147L149.705 27.453L153.299 33.0337H158.095L152.514 24.6806L158.266 16.1289H158.257Z" fill="#FDFDFD"/>
</svg>
