<svg width="435" height="306" viewBox="0 0 435 306" fill="none" xmlns="http://www.w3.org/2000/svg">
<rect x="0.905273" y="0.844727" width="433.399" height="304.733" rx="15.4785" fill="white"/>
<rect x="31.8623" y="148.857" width="119.959" height="9.67407" rx="1.93481" fill="#EFF0F2"/>
<rect x="322.084" y="148.857" width="81.2622" height="9.67407" rx="1.93481" fill="#EFF0F2"/>
<rect x="31.8623" y="174.011" width="71.5882" height="9.67407" rx="1.93481" fill="#EFF0F2"/>
<rect x="31.8623" y="123.705" width="71.5882" height="9.67407" rx="1.93481" fill="#EFF0F2"/>
<rect x="273.714" y="174.011" width="129.633" height="9.67407" rx="1.93481" fill="#EFF0F2"/>
<rect x="273.714" y="123.705" width="129.633" height="9.67407" rx="1.93481" fill="#EFF0F2"/>
<rect x="24.6068" y="24.5462" width="385.996" height="74.4904" rx="11.1252" fill="#F7F8FA" stroke="#EDEFF2" stroke-width="0.967407"/>
<g clip-path="url(#clip0_19558_1619)">
<path d="M315.312 71.8433C320.655 71.8433 324.986 67.512 324.986 62.1692C324.986 56.8263 320.655 52.4951 315.312 52.4951C309.969 52.4951 305.638 56.8263 305.638 62.1692C305.638 67.512 309.969 71.8433 315.312 71.8433Z" fill="#F0F0F0"/>
<path d="M324.986 62.1692C324.986 58.3338 322.754 55.0199 319.518 53.4551V70.8833C322.754 69.3186 324.986 66.0046 324.986 62.1692Z" fill="#D80027"/>
<path d="M305.638 62.1692C305.638 66.0046 307.87 69.3186 311.106 70.8834V53.4551C307.87 55.0199 305.638 58.3338 305.638 62.1692Z" fill="#D80027"/>
<path d="M316.994 63.4307L318.677 62.5895L317.836 62.1689V61.3277L316.153 62.1689L316.994 60.4864H316.153L315.312 59.2246L314.471 60.4864H313.629L314.471 62.1689L312.788 61.3277V62.1689L311.947 62.5895L313.629 63.4307L313.209 64.2719H314.891V65.5338H315.732V64.2719H317.415L316.994 63.4307Z" fill="#D80027"/>
</g>
<path d="M338.639 67.9725C337.679 67.9725 336.802 67.7764 336.007 67.3843C335.223 66.9818 334.578 66.3524 334.072 65.4959C333.567 64.6394 333.314 63.6178 333.314 62.4312C333.314 60.6769 333.83 59.3148 334.862 58.3448C335.894 57.3748 337.153 56.8898 338.639 56.8898C339.887 56.8898 340.935 57.2097 341.781 57.8495C342.627 58.479 343.148 59.3354 343.344 60.4189L341.549 60.8059C341.394 60.0836 341.058 59.516 340.542 59.1033C340.027 58.6802 339.392 58.4687 338.639 58.4687C337.617 58.4687 336.781 58.8195 336.131 59.5212C335.481 60.2126 335.156 61.1826 335.156 62.4312C335.156 63.6798 335.476 64.6497 336.116 65.3411C336.766 66.0325 337.607 66.3782 338.639 66.3782C339.392 66.3782 340.016 66.1873 340.512 65.8055C341.007 65.4237 341.342 64.8871 341.518 64.1957L343.329 64.5827C343.06 65.6352 342.513 66.4659 341.688 67.0747C340.862 67.6732 339.846 67.9725 338.639 67.9725ZM351.889 67.8486L350.929 65.2947H346.471L345.512 67.8486H343.639L347.849 57.0137H349.536L353.762 67.8486H351.889ZM347.059 63.7313H350.341L348.7 59.3974L347.059 63.7313ZM354.722 67.8486V57.0137H358.127C359.716 57.0137 361.032 57.4883 362.074 58.4377C363.116 59.387 363.638 60.7182 363.638 62.4312C363.638 64.1441 363.116 65.4753 362.074 66.4246C361.032 67.374 359.716 67.8486 358.127 67.8486H354.722ZM356.502 66.2543H358.003C359.077 66.2543 359.974 65.9448 360.697 65.3256C361.419 64.6962 361.78 63.7313 361.78 62.4312C361.78 61.131 361.419 60.1661 360.697 59.5367C359.974 58.9072 359.077 58.5925 358.003 58.5925H356.502V66.2543Z" fill="#02001A"/>
<path d="M392.383 59.9111L387.868 64.4257L383.353 59.9111" stroke="#02001A" stroke-opacity="0.4" stroke-width="1.50916" stroke-linecap="round" stroke-linejoin="round"/>
<path d="M44.7844 46.4732L46.9894 42.3183H48.0267L45.2662 47.3915V50.6055H44.3026V47.4368L41.5364 42.3183H42.5907L44.7844 46.4732ZM54.381 47.4878C54.381 47.998 54.3148 48.4534 54.1826 48.8539C54.0503 49.2545 53.8595 49.5927 53.6101 49.8686C53.3607 50.1444 53.0583 50.3561 52.7031 50.5034C52.3517 50.647 51.953 50.7188 51.5071 50.7188C51.0914 50.7188 50.7097 50.647 50.3621 50.5034C50.0182 50.3561 49.7197 50.1444 49.4665 49.8686C49.2171 49.5927 49.0224 49.2545 48.8826 48.8539C48.7466 48.4534 48.6786 47.998 48.6786 47.4878C48.6786 46.8076 48.7938 46.2295 49.0243 45.7533C49.2549 45.2734 49.5836 44.9087 50.0106 44.6593C50.4414 44.4061 50.9535 44.2795 51.5468 44.2795C52.1136 44.2795 52.6087 44.4061 53.0319 44.6593C53.4589 44.9125 53.7896 45.2791 54.0239 45.759C54.2619 46.2351 54.381 46.8114 54.381 47.4878ZM49.6535 47.4878C49.6535 47.9867 49.7197 48.4194 49.8519 48.7859C49.9842 49.1525 50.1882 49.4359 50.4641 49.6362C50.74 49.8365 51.0952 49.9366 51.5298 49.9366C51.9606 49.9366 52.3139 49.8365 52.5898 49.6362C52.8694 49.4359 53.0754 49.1525 53.2076 48.7859C53.3399 48.4194 53.406 47.9867 53.406 47.4878C53.406 46.9928 53.3399 46.5658 53.2076 46.2068C53.0754 45.844 52.8713 45.5644 52.5954 45.3679C52.3196 45.1714 51.9625 45.0731 51.5241 45.0731C50.8779 45.0731 50.4036 45.2866 50.1013 45.7136C49.8028 46.1407 49.6535 46.7321 49.6535 47.4878ZM61.1377 44.3929V50.6055H60.3668L60.2308 49.7325H60.1798C60.0513 49.9479 59.885 50.1293 59.6809 50.2767C59.4769 50.4241 59.2464 50.5337 58.9894 50.6055C58.7362 50.681 58.466 50.7188 58.1788 50.7188C57.6875 50.7188 57.2756 50.6395 56.9431 50.4808C56.6105 50.322 56.3593 50.0764 56.1892 49.7439C56.0229 49.4113 55.9398 48.9843 55.9398 48.4628V44.3929H56.8921V48.3948C56.8921 48.9125 57.0092 49.2998 57.2435 49.5568C57.4778 49.81 57.8349 49.9366 58.3148 49.9366C58.7759 49.9366 59.1424 49.8497 59.4145 49.6759C59.6904 49.502 59.8888 49.2469 60.0097 48.9106C60.1306 48.5705 60.1911 48.1548 60.1911 47.6636V44.3929H61.1377ZM70.1618 48.9049C70.1618 49.3017 70.0617 49.6362 69.8614 49.9083C69.6649 50.1766 69.3815 50.3787 69.0111 50.5148C68.6446 50.6508 68.2062 50.7188 67.6961 50.7188C67.2615 50.7188 66.8855 50.6848 66.568 50.6168C66.2506 50.5488 65.9729 50.4524 65.7348 50.3277V49.4605C65.988 49.5852 66.2903 49.6985 66.6417 49.8006C66.9932 49.9026 67.3522 49.9536 67.7187 49.9536C68.2553 49.9536 68.6446 49.8667 68.8864 49.6929C69.1283 49.519 69.2492 49.2828 69.2492 48.9843C69.2492 48.8143 69.2001 48.665 69.1018 48.5365C69.0073 48.4042 68.8467 48.2776 68.62 48.1567C68.3933 48.032 68.0796 47.896 67.679 47.7486C67.2823 47.5974 66.9384 47.4482 66.6474 47.3008C66.3602 47.1496 66.1372 46.9664 65.9785 46.751C65.8236 46.5356 65.7461 46.2559 65.7461 45.912C65.7461 45.3868 65.9577 44.9843 66.381 44.7047C66.808 44.4212 67.3673 44.2795 68.0588 44.2795C68.4329 44.2795 68.7825 44.3173 69.1075 44.3929C69.4363 44.4647 69.7423 44.563 70.0258 44.6877L69.7083 45.4416C69.4514 45.332 69.1774 45.2394 68.8864 45.1638C68.5954 45.0882 68.2988 45.0504 67.9965 45.0504C67.5619 45.0504 67.2275 45.1222 66.9932 45.2658C66.7627 45.4094 66.6474 45.6059 66.6474 45.8553C66.6474 46.0481 66.7003 46.2068 66.8061 46.3315C66.9157 46.4562 67.0895 46.5733 67.3276 46.6829C67.5657 46.7925 67.8793 46.921 68.2686 47.0684C68.6578 47.212 68.9941 47.3613 69.2775 47.5162C69.561 47.6673 69.7782 47.8525 69.9294 48.0717C70.0843 48.2871 70.1618 48.5648 70.1618 48.9049ZM74.0673 44.2795C74.5964 44.2795 75.0499 44.3967 75.4278 44.631C75.8057 44.8653 76.0947 45.194 76.295 45.6173C76.4953 46.0367 76.5954 46.528 76.5954 47.0911V47.6749H72.3045C72.3158 48.4042 72.4972 48.9597 72.8486 49.3414C73.2001 49.7231 73.6951 49.9139 74.3338 49.9139C74.7268 49.9139 75.0744 49.878 75.3767 49.8062C75.6791 49.7344 75.9927 49.6286 76.3177 49.4888V50.3164C76.004 50.4562 75.6923 50.5582 75.3824 50.6225C75.0763 50.6867 74.7135 50.7188 74.2941 50.7188C73.697 50.7188 73.1755 50.5979 72.7296 50.3561C72.2875 50.1104 71.9436 49.7514 71.6979 49.2791C71.4523 48.8067 71.3295 48.2285 71.3295 47.5445C71.3295 46.8757 71.441 46.2975 71.6639 45.81C71.8907 45.3187 72.2081 44.9408 72.6162 44.6763C73.0281 44.4118 73.5118 44.2795 74.0673 44.2795ZM74.056 45.0504C73.5534 45.0504 73.1528 45.2148 72.8543 45.5436C72.5558 45.8724 72.3782 46.3315 72.3215 46.921H75.6091C75.6054 46.5507 75.5468 46.2257 75.4334 45.946C75.3238 45.6626 75.1557 45.4434 74.9289 45.2885C74.7022 45.1298 74.4112 45.0504 74.056 45.0504ZM81.1358 44.2795C81.8727 44.2795 82.4301 44.4609 82.808 44.8237C83.1859 45.1827 83.3749 45.7609 83.3749 46.5582V50.6055H82.4452V46.6206C82.4452 46.1029 82.3262 45.7155 82.0881 45.4586C81.8538 45.2016 81.4929 45.0731 81.0055 45.0731C80.3177 45.0731 79.834 45.2677 79.5544 45.657C79.2747 46.0462 79.1349 46.6111 79.1349 47.3518V50.6055H78.1939V44.3929H78.9535L79.0952 45.2885H79.1462C79.2785 45.0693 79.4467 44.8861 79.6507 44.7387C79.8548 44.5875 80.0834 44.4741 80.3366 44.3986C80.5898 44.3192 80.8562 44.2795 81.1358 44.2795ZM87.5241 50.7188C86.7381 50.7188 86.1146 50.4505 85.6536 49.9139C85.1963 49.3773 84.9677 48.58 84.9677 47.5219C84.9677 46.4524 85.202 45.6456 85.6706 45.1014C86.1391 44.5535 86.7627 44.2795 87.5411 44.2795C87.8699 44.2795 88.1571 44.323 88.4027 44.4099C88.6484 44.4968 88.86 44.614 89.0376 44.7613C89.2152 44.9049 89.3645 45.0693 89.4854 45.2545H89.5534C89.5383 45.1373 89.5232 44.9767 89.5081 44.7727C89.493 44.5686 89.4854 44.4023 89.4854 44.2739V41.7854H90.4263V50.6055H89.6668L89.5251 49.7212H89.4854C89.3682 49.9064 89.219 50.0745 89.0376 50.2257C88.86 50.3768 88.6465 50.4978 88.3971 50.5885C88.1514 50.6754 87.8605 50.7188 87.5241 50.7188ZM87.6715 49.9366C88.3366 49.9366 88.8071 49.7477 89.0829 49.3698C89.3588 48.9919 89.4967 48.4307 89.4967 47.6862V47.5162C89.4967 46.7264 89.3645 46.1199 89.0999 45.6966C88.8392 45.2734 88.3631 45.0618 87.6715 45.0618C87.0933 45.0618 86.6606 45.2847 86.3734 45.7306C86.0862 46.1728 85.9426 46.7774 85.9426 47.5445C85.9426 48.3079 86.0844 48.8974 86.3678 49.3131C86.655 49.7288 87.0895 49.9366 87.6715 49.9366ZM92.2799 50.016C92.2799 49.7514 92.3442 49.5644 92.4726 49.4548C92.6011 49.3414 92.758 49.2847 92.9431 49.2847C93.1358 49.2847 93.2983 49.3414 93.4306 49.4548C93.5629 49.5644 93.629 49.7514 93.629 50.016C93.629 50.2767 93.5629 50.4675 93.4306 50.5885C93.2983 50.7056 93.1358 50.7642 92.9431 50.7642C92.758 50.7642 92.6011 50.7056 92.4726 50.5885C92.3442 50.4675 92.2799 50.2767 92.2799 50.016ZM92.2799 44.9881C92.2799 44.716 92.3442 44.5252 92.4726 44.4156C92.6011 44.3022 92.758 44.2455 92.9431 44.2455C93.1358 44.2455 93.2983 44.3022 93.4306 44.4156C93.5629 44.5252 93.629 44.716 93.629 44.9881C93.629 45.245 93.5629 45.4321 93.4306 45.5493C93.2983 45.6664 93.1358 45.725 92.9431 45.725C92.758 45.725 92.6011 45.6664 92.4726 45.5493C92.3442 45.4321 92.2799 45.245 92.2799 44.9881Z" fill="#02001A" fill-opacity="0.4"/>
<path d="M45.8781 82.3447V69.2267C44.8875 70.0935 43.6337 70.6817 42.1168 70.9912V68.5534C43.7421 68.1974 45.1429 67.377 46.3192 66.0923H48.4321V82.3447H45.8781ZM57.0977 82.5305C55.07 82.5305 53.4912 81.7798 52.3613 80.2783C51.2314 78.7769 50.6664 76.757 50.6664 74.2185C50.6664 71.68 51.2314 69.6601 52.3613 68.1587C53.4912 66.6572 55.07 65.9065 57.0977 65.9065C59.1099 65.9065 60.681 66.6572 61.8109 68.1587C62.9563 69.6601 63.5291 71.68 63.5291 74.2185C63.5291 76.757 62.9563 78.7769 61.8109 80.2783C60.681 81.7798 59.1099 82.5305 57.0977 82.5305ZM57.0977 80.139C58.2741 80.139 59.1796 79.6205 59.8142 78.5834C60.4643 77.5309 60.7894 76.0759 60.7894 74.2185C60.7894 72.3611 60.4643 70.9061 59.8142 69.8536C59.1796 68.801 58.2741 68.2748 57.0977 68.2748C55.9059 68.2748 54.9927 68.801 54.358 69.8536C53.7234 70.9061 53.4061 72.3611 53.4061 74.2185C53.4061 76.0759 53.7234 77.5309 54.358 78.5834C54.9927 79.6205 55.9059 80.139 57.0977 80.139ZM71.49 82.5305C69.4623 82.5305 67.8835 81.7798 66.7536 80.2783C65.6237 78.7769 65.0587 76.757 65.0587 74.2185C65.0587 71.68 65.6237 69.6601 66.7536 68.1587C67.8835 66.6572 69.4623 65.9065 71.49 65.9065C73.5022 65.9065 75.0733 66.6572 76.2032 68.1587C77.3487 69.6601 77.9214 71.68 77.9214 74.2185C77.9214 76.757 77.3487 78.7769 76.2032 80.2783C75.0733 81.7798 73.5022 82.5305 71.49 82.5305ZM71.49 80.139C72.6664 80.139 73.5719 79.6205 74.2065 78.5834C74.8566 77.5309 75.1817 76.0759 75.1817 74.2185C75.1817 72.3611 74.8566 70.9061 74.2065 69.8536C73.5719 68.801 72.6664 68.2748 71.49 68.2748C70.2982 68.2748 69.385 68.801 68.7503 69.8536C68.1157 70.9061 67.7984 72.3611 67.7984 74.2185C67.7984 76.0759 68.1157 77.5309 68.7503 78.5834C69.385 79.6205 70.2982 80.139 71.49 80.139ZM85.8823 82.5305C83.8546 82.5305 82.2758 81.7798 81.1459 80.2783C80.016 78.7769 79.451 76.757 79.451 74.2185C79.451 71.68 80.016 69.6601 81.1459 68.1587C82.2758 66.6572 83.8546 65.9065 85.8823 65.9065C87.8945 65.9065 89.4656 66.6572 90.5955 68.1587C91.7409 69.6601 92.3137 71.68 92.3137 74.2185C92.3137 76.757 91.7409 78.7769 90.5955 80.2783C89.4656 81.7798 87.8945 82.5305 85.8823 82.5305ZM85.8823 80.139C87.0587 80.139 87.9642 79.6205 88.5988 78.5834C89.2489 77.5309 89.574 76.0759 89.574 74.2185C89.574 72.3611 89.2489 70.9061 88.5988 69.8536C87.9642 68.801 87.0587 68.2748 85.8823 68.2748C84.6905 68.2748 83.7773 68.801 83.1426 69.8536C82.508 70.9061 82.1907 72.3611 82.1907 74.2185C82.1907 76.0759 82.508 77.5309 83.1426 78.5834C83.7773 79.6205 84.6905 80.139 85.8823 80.139Z" fill="#0006B1"/>
<rect x="24.6068" y="208.355" width="385.996" height="74.4904" rx="11.1252" fill="#F7F8FA" stroke="#EDEFF2" stroke-width="0.967407"/>
<g clip-path="url(#clip1_19558_1619)">
<path d="M322.085 255.651C327.428 255.651 331.759 251.32 331.759 245.977C331.759 240.634 327.428 236.303 322.085 236.303C316.742 236.303 312.411 240.634 312.411 245.977C312.411 251.32 316.742 255.651 322.085 255.651Z" fill="#F7931E"/>
<path d="M331.759 245.977C331.759 251.33 327.438 255.651 322.085 255.651C316.732 255.651 312.411 251.33 312.411 245.977H331.759Z" fill="#009245"/>
<path d="M331.759 245.977C331.759 244.88 331.566 243.784 331.179 242.752H312.992C312.218 244.816 312.218 247.138 312.992 249.201H331.243C331.566 248.169 331.759 247.073 331.759 245.977Z" fill="#F0F0F0"/>
<path d="M322.083 243.396C320.665 243.396 319.504 244.557 319.504 245.976C319.504 247.395 320.665 248.556 322.083 248.556C323.502 248.556 324.663 247.395 324.663 245.976C324.663 244.557 323.502 243.396 322.083 243.396ZM322.083 247.911C320.987 247.911 320.149 247.073 320.149 245.976C320.149 244.88 320.987 244.041 322.083 244.041C323.18 244.041 324.018 244.88 324.018 245.976C324.018 247.073 323.18 247.911 322.083 247.911Z" fill="#0071BC"/>
<path d="M322.084 247.265C322.796 247.265 323.374 246.688 323.374 245.975C323.374 245.263 322.796 244.686 322.084 244.686C321.372 244.686 320.794 245.263 320.794 245.975C320.794 246.688 321.372 247.265 322.084 247.265Z" fill="#0071BC"/>
</g>
<path d="M340.566 251.656V240.821H342.377V251.656H340.566ZM344.356 251.656V240.821H346.26L351.229 248.793V240.821H352.962V251.656H351.058L346.074 243.7V251.656H344.356ZM363.617 251.656H361.527L358.787 247.059H356.775V251.656H354.964L354.949 240.821H359.02C360.062 240.821 360.898 241.105 361.527 241.673C362.157 242.24 362.471 242.993 362.471 243.932C362.471 244.572 362.306 245.14 361.976 245.635C361.656 246.13 361.212 246.502 360.645 246.75L363.617 251.656ZM356.775 242.4V245.465H358.756C359.355 245.465 359.814 245.331 360.134 245.062C360.464 244.794 360.629 244.417 360.629 243.932C360.629 243.447 360.464 243.071 360.134 242.803C359.814 242.534 359.355 242.4 358.756 242.4H356.775Z" fill="#02001A"/>
<path d="M392.383 243.719L387.868 248.233L383.354 243.719" stroke="#02001A" stroke-opacity="0.4" stroke-width="1.50916" stroke-linecap="round" stroke-linejoin="round"/>
<path d="M44.9091 226.127C45.5893 226.127 46.1505 226.212 46.5926 226.382C47.0385 226.548 47.3711 226.803 47.5902 227.147C47.8094 227.491 47.919 227.929 47.919 228.462C47.919 228.901 47.8396 229.267 47.6809 229.562C47.5222 229.853 47.3144 230.089 47.0574 230.27C46.8004 230.452 46.5265 230.592 46.2355 230.69L48.5085 234.414H47.3862L45.3569 230.956H43.6337V234.414H42.6701V226.127H44.9091ZM44.8524 226.96H43.6337V230.14H44.9488C45.6252 230.14 46.1221 230.002 46.4395 229.726C46.7608 229.45 46.9214 229.044 46.9214 228.508C46.9214 227.945 46.7513 227.546 46.4112 227.312C46.0749 227.077 45.5553 226.96 44.8524 226.96ZM52.0853 228.088C52.6143 228.088 53.0678 228.205 53.4457 228.44C53.8236 228.674 54.1127 229.003 54.313 229.426C54.5132 229.845 54.6134 230.337 54.6134 230.9V231.483H50.3224C50.3337 232.213 50.5151 232.768 50.8666 233.15C51.218 233.532 51.713 233.723 52.3517 233.723C52.7447 233.723 53.0924 233.687 53.3947 233.615C53.697 233.543 54.0106 233.437 54.3356 233.297V234.125C54.022 234.265 53.7102 234.367 53.4003 234.431C53.0942 234.495 52.7315 234.527 52.312 234.527C51.7149 234.527 51.1934 234.407 50.7475 234.165C50.3054 233.919 49.9615 233.56 49.7159 233.088C49.4703 232.615 49.3474 232.037 49.3474 231.353C49.3474 230.684 49.4589 230.106 49.6819 229.619C49.9086 229.127 50.226 228.749 50.6342 228.485C51.0461 228.22 51.5298 228.088 52.0853 228.088ZM52.0739 228.859C51.5713 228.859 51.1708 229.023 50.8722 229.352C50.5737 229.681 50.3961 230.14 50.3394 230.73H53.6271C53.6233 230.359 53.5647 230.034 53.4514 229.755C53.3418 229.471 53.1736 229.252 52.9469 229.097C52.7201 228.938 52.4292 228.859 52.0739 228.859ZM58.7003 234.527C58.141 234.527 57.6479 234.412 57.2208 234.182C56.7938 233.951 56.4613 233.6 56.2232 233.127C55.9851 232.655 55.8661 232.06 55.8661 231.342C55.8661 230.59 55.9908 229.976 56.2402 229.5C56.4934 229.02 56.8411 228.664 57.2832 228.434C57.7253 228.203 58.2279 228.088 58.791 228.088C59.1009 228.088 59.3994 228.12 59.6866 228.184C59.9776 228.245 60.2157 228.322 60.4008 228.417L60.1174 229.205C59.9285 229.129 59.7093 229.061 59.4599 229.001C59.2142 228.94 58.9837 228.91 58.7683 228.91C58.3375 228.91 57.9785 229.003 57.6913 229.188C57.4079 229.373 57.1944 229.645 57.0508 230.004C56.911 230.363 56.8411 230.805 56.8411 231.33C56.8411 231.833 56.9091 232.262 57.0451 232.617C57.1849 232.972 57.3909 233.244 57.663 233.433C57.9388 233.619 58.2827 233.711 58.6946 233.711C59.0234 233.711 59.32 233.677 59.5846 233.609C59.8491 233.537 60.0891 233.454 60.3045 233.36V234.199C60.0966 234.304 59.8642 234.386 59.6072 234.442C59.3541 234.499 59.0517 234.527 58.7003 234.527ZM62.7192 228.201V234.414H61.7782V228.201H62.7192ZM62.2601 225.877C62.415 225.877 62.5473 225.928 62.6568 226.03C62.7702 226.129 62.8269 226.284 62.8269 226.495C62.8269 226.703 62.7702 226.858 62.6568 226.96C62.5473 227.062 62.415 227.113 62.2601 227.113C62.0976 227.113 61.9615 227.062 61.8519 226.96C61.7461 226.858 61.6932 226.703 61.6932 226.495C61.6932 226.284 61.7461 226.129 61.8519 226.03C61.9615 225.928 62.0976 225.877 62.2601 225.877ZM67.6337 228.088C68.4084 228.088 69.0262 228.355 69.4873 228.887C69.9483 229.42 70.1788 230.221 70.1788 231.291C70.1788 231.997 70.073 232.591 69.8614 233.071C69.6498 233.551 69.3512 233.913 68.9658 234.159C68.5841 234.405 68.1325 234.527 67.611 234.527C67.2823 234.527 66.9932 234.484 66.7438 234.397C66.4944 234.31 66.2808 234.193 66.1032 234.046C65.9256 233.898 65.7782 233.738 65.6611 233.564H65.5931C65.6044 233.711 65.6176 233.889 65.6328 234.097C65.6517 234.304 65.6611 234.486 65.6611 234.641V237.192H64.7145V228.201H65.491L65.6158 229.12H65.6611C65.782 228.931 65.9294 228.759 66.1032 228.604C66.2771 228.445 66.4887 228.321 66.7381 228.23C66.9913 228.135 67.2898 228.088 67.6337 228.088ZM67.4693 228.882C67.0385 228.882 66.6909 228.965 66.4263 229.131C66.1656 229.297 65.9747 229.547 65.8538 229.879C65.7329 230.208 65.6687 230.622 65.6611 231.121V231.302C65.6611 231.827 65.7178 232.271 65.8311 232.634C65.9483 232.997 66.1391 233.273 66.4037 233.462C66.672 233.651 67.031 233.745 67.4807 233.745C67.8661 233.745 68.1873 233.641 68.4443 233.433C68.7013 233.226 68.8921 232.936 69.0168 232.566C69.1453 232.192 69.2095 231.763 69.2095 231.279C69.2095 230.546 69.0659 229.964 68.7787 229.534C68.4953 229.099 68.0588 228.882 67.4693 228.882ZM72.7636 228.201V234.414H71.8227V228.201H72.7636ZM72.3045 225.877C72.4594 225.877 72.5917 225.928 72.7013 226.03C72.8146 226.129 72.8713 226.284 72.8713 226.495C72.8713 226.703 72.8146 226.858 72.7013 226.96C72.5917 227.062 72.4594 227.113 72.3045 227.113C72.142 227.113 72.0059 227.062 71.8963 226.96C71.7905 226.858 71.7376 226.703 71.7376 226.495C71.7376 226.284 71.7905 226.129 71.8963 226.03C72.0059 225.928 72.142 225.877 72.3045 225.877ZM77.151 228.088C77.68 228.088 78.1335 228.205 78.5114 228.44C78.8893 228.674 79.1783 229.003 79.3786 229.426C79.5789 229.845 79.6791 230.337 79.6791 230.9V231.483H75.3881C75.3994 232.213 75.5808 232.768 75.9322 233.15C76.2837 233.532 76.7787 233.723 77.4174 233.723C77.8104 233.723 78.158 233.687 78.4604 233.615C78.7627 233.543 79.0763 233.437 79.4013 233.297V234.125C79.0877 234.265 78.7759 234.367 78.466 234.431C78.1599 234.495 77.7971 234.527 77.3777 234.527C76.7806 234.527 76.2591 234.407 75.8132 234.165C75.3711 233.919 75.0272 233.56 74.7816 233.088C74.5359 232.615 74.4131 232.037 74.4131 231.353C74.4131 230.684 74.5246 230.106 74.7475 229.619C74.9743 229.127 75.2917 228.749 75.6998 228.485C76.1117 228.22 76.5954 228.088 77.151 228.088ZM77.1396 228.859C76.637 228.859 76.2364 229.023 75.9379 229.352C75.6394 229.681 75.4618 230.14 75.4051 230.73H78.6928C78.689 230.359 78.6304 230.034 78.517 229.755C78.4074 229.471 78.2393 229.252 78.0125 229.097C77.7858 228.938 77.4948 228.859 77.1396 228.859ZM84.2194 228.088C84.9563 228.088 85.5137 228.27 85.8916 228.632C86.2695 228.991 86.4585 229.569 86.4585 230.367V234.414H85.5288V230.429C85.5288 229.911 85.4098 229.524 85.1717 229.267C84.9374 229.01 84.5766 228.882 84.0891 228.882C83.4013 228.882 82.9176 229.076 82.638 229.466C82.3583 229.855 82.2185 230.42 82.2185 231.16V234.414H81.2775V228.201H82.0371L82.1788 229.097H82.2298C82.3621 228.878 82.5303 228.695 82.7343 228.547C82.9384 228.396 83.167 228.283 83.4202 228.207C83.6734 228.128 83.9398 228.088 84.2194 228.088ZM90.4037 233.757C90.5586 233.757 90.7173 233.743 90.8798 233.717C91.0423 233.69 91.1746 233.658 91.2766 233.62V234.352C91.167 234.401 91.014 234.442 90.8175 234.476C90.6247 234.51 90.4358 234.527 90.2506 234.527C89.9219 234.527 89.6233 234.471 89.355 234.357C89.0867 234.24 88.8713 234.044 88.7088 233.768C88.5501 233.492 88.4708 233.11 88.4708 232.623V228.938H87.5865V228.479L88.4764 228.111L88.8505 226.762H89.4174V228.201H91.2369V228.938H89.4174V232.595C89.4174 232.984 89.5062 233.275 89.6838 233.467C89.8652 233.66 90.1051 233.757 90.4037 233.757ZM97.9313 226.127C98.6115 226.127 99.1727 226.212 99.6148 226.382C100.061 226.548 100.393 226.803 100.612 227.147C100.832 227.491 100.941 227.929 100.941 228.462C100.941 228.901 100.862 229.267 100.703 229.562C100.544 229.853 100.337 230.089 100.08 230.27C99.8227 230.452 99.5487 230.592 99.2577 230.69L101.531 234.414H100.408L98.3791 230.956H96.6559V234.414H95.6923V226.127H97.9313ZM97.8746 226.96H96.6559V230.14H97.971C98.6474 230.14 99.1444 230.002 99.4618 229.726C99.783 229.45 99.9436 229.044 99.9436 228.508C99.9436 227.945 99.7735 227.546 99.4334 227.312C99.0971 227.077 98.5775 226.96 97.8746 226.96ZM105.108 228.088C105.637 228.088 106.09 228.205 106.468 228.44C106.846 228.674 107.135 229.003 107.335 229.426C107.535 229.845 107.636 230.337 107.636 230.9V231.483H103.345C103.356 232.213 103.537 232.768 103.889 233.15C104.24 233.532 104.735 233.723 105.374 233.723C105.767 233.723 106.115 233.687 106.417 233.615C106.719 233.543 107.033 233.437 107.358 233.297V234.125C107.044 234.265 106.732 234.367 106.423 234.431C106.116 234.495 105.754 234.527 105.334 234.527C104.737 234.527 104.216 234.407 103.77 234.165C103.328 233.919 102.984 233.56 102.738 233.088C102.492 232.615 102.37 232.037 102.37 231.353C102.37 230.684 102.481 230.106 102.704 229.619C102.931 229.127 103.248 228.749 103.656 228.485C104.068 228.22 104.552 228.088 105.108 228.088ZM105.096 228.859C104.594 228.859 104.193 229.023 103.894 229.352C103.596 229.681 103.418 230.14 103.362 230.73H106.649C106.646 230.359 106.587 230.034 106.474 229.755C106.364 229.471 106.196 229.252 105.969 229.097C105.742 228.938 105.451 228.859 105.096 228.859ZM111.723 234.527C111.163 234.527 110.67 234.412 110.243 234.182C109.816 233.951 109.484 233.6 109.245 233.127C109.007 232.655 108.888 232.06 108.888 231.342C108.888 230.59 109.013 229.976 109.262 229.5C109.516 229.02 109.863 228.664 110.305 228.434C110.748 228.203 111.25 228.088 111.813 228.088C112.123 228.088 112.422 228.12 112.709 228.184C113 228.245 113.238 228.322 113.423 228.417L113.14 229.205C112.951 229.129 112.732 229.061 112.482 229.001C112.236 228.94 112.006 228.91 111.791 228.91C111.36 228.91 111.001 229.003 110.714 229.188C110.43 229.373 110.217 229.645 110.073 230.004C109.933 230.363 109.863 230.805 109.863 231.33C109.863 231.833 109.931 232.262 110.067 232.617C110.207 232.972 110.413 233.244 110.685 233.433C110.961 233.619 111.305 233.711 111.717 233.711C112.046 233.711 112.342 233.677 112.607 233.609C112.871 233.537 113.111 233.454 113.327 233.36V234.199C113.119 234.304 112.886 234.386 112.629 234.442C112.376 234.499 112.074 234.527 111.723 234.527ZM117.193 228.088C117.722 228.088 118.175 228.205 118.553 228.44C118.931 228.674 119.22 229.003 119.42 229.426C119.621 229.845 119.721 230.337 119.721 230.9V231.483H115.43C115.441 232.213 115.622 232.768 115.974 233.15C116.325 233.532 116.82 233.723 117.459 233.723C117.852 233.723 118.2 233.687 118.502 233.615C118.804 233.543 119.118 233.437 119.443 233.297V234.125C119.129 234.265 118.817 234.367 118.508 234.431C118.202 234.495 117.839 234.527 117.419 234.527C116.822 234.527 116.301 234.407 115.855 234.165C115.413 233.919 115.069 233.56 114.823 233.088C114.578 232.615 114.455 232.037 114.455 231.353C114.455 230.684 114.566 230.106 114.789 229.619C115.016 229.127 115.333 228.749 115.741 228.485C116.153 228.22 116.637 228.088 117.193 228.088ZM117.181 228.859C116.679 228.859 116.278 229.023 115.98 229.352C115.681 229.681 115.503 230.14 115.447 230.73H118.734C118.731 230.359 118.672 230.034 118.559 229.755C118.449 229.471 118.281 229.252 118.054 229.097C117.827 228.938 117.536 228.859 117.181 228.859ZM122.26 228.201V234.414H121.319V228.201H122.26ZM121.801 225.877C121.956 225.877 122.088 225.928 122.198 226.03C122.311 226.129 122.368 226.284 122.368 226.495C122.368 226.703 122.311 226.858 122.198 226.96C122.088 227.062 121.956 227.113 121.801 227.113C121.638 227.113 121.502 227.062 121.393 226.96C121.287 226.858 121.234 226.703 121.234 226.495C121.234 226.284 121.287 226.129 121.393 226.03C121.502 225.928 121.638 225.877 121.801 225.877ZM125.621 234.414L123.263 228.201H124.272L125.638 231.96C125.733 232.217 125.829 232.5 125.928 232.81C126.026 233.12 126.094 233.369 126.132 233.558H126.171C126.217 233.369 126.292 233.12 126.398 232.81C126.504 232.496 126.6 232.213 126.687 231.96L128.053 228.201H129.062L126.698 234.414H125.621ZM132.452 228.088C132.981 228.088 133.434 228.205 133.812 228.44C134.19 228.674 134.479 229.003 134.68 229.426C134.88 229.845 134.98 230.337 134.98 230.9V231.483H130.689C130.7 232.213 130.882 232.768 131.233 233.15C131.585 233.532 132.08 233.723 132.718 233.723C133.111 233.723 133.459 233.687 133.761 233.615C134.064 233.543 134.377 233.437 134.702 233.297V234.125C134.389 234.265 134.077 234.367 133.767 234.431C133.461 234.495 133.098 234.527 132.679 234.527C132.082 234.527 131.56 234.407 131.114 234.165C130.672 233.919 130.328 233.56 130.082 233.088C129.837 232.615 129.714 232.037 129.714 231.353C129.714 230.684 129.826 230.106 130.048 229.619C130.275 229.127 130.593 228.749 131.001 228.485C131.413 228.22 131.896 228.088 132.452 228.088ZM132.441 228.859C131.938 228.859 131.537 229.023 131.239 229.352C130.94 229.681 130.763 230.14 130.706 230.73H133.994C133.99 230.359 133.931 230.034 133.818 229.755C133.708 229.471 133.54 229.252 133.313 229.097C133.087 228.938 132.796 228.859 132.441 228.859ZM140.597 232.714C140.597 233.11 140.497 233.445 140.297 233.717C140.1 233.985 139.817 234.187 139.447 234.323C139.08 234.459 138.642 234.527 138.132 234.527C137.697 234.527 137.321 234.493 137.004 234.425C136.686 234.357 136.408 234.261 136.17 234.136V233.269C136.424 233.394 136.726 233.507 137.077 233.609C137.429 233.711 137.788 233.762 138.154 233.762C138.691 233.762 139.08 233.675 139.322 233.501C139.564 233.328 139.685 233.091 139.685 232.793C139.685 232.623 139.636 232.474 139.537 232.345C139.443 232.213 139.282 232.086 139.056 231.965C138.829 231.841 138.515 231.705 138.115 231.557C137.718 231.406 137.374 231.257 137.083 231.109C136.796 230.958 136.573 230.775 136.414 230.56C136.259 230.344 136.182 230.065 136.182 229.721C136.182 229.195 136.393 228.793 136.817 228.513C137.244 228.23 137.803 228.088 138.494 228.088C138.869 228.088 139.218 228.126 139.543 228.201C139.872 228.273 140.178 228.372 140.461 228.496L140.144 229.25C139.887 229.141 139.613 229.048 139.322 228.972C139.031 228.897 138.734 228.859 138.432 228.859C137.997 228.859 137.663 228.931 137.429 229.074C137.198 229.218 137.083 229.415 137.083 229.664C137.083 229.857 137.136 230.015 137.242 230.14C137.351 230.265 137.525 230.382 137.763 230.492C138.001 230.601 138.315 230.73 138.704 230.877C139.093 231.021 139.43 231.17 139.713 231.325C139.997 231.476 140.214 231.661 140.365 231.88C140.52 232.096 140.597 232.373 140.597 232.714ZM141.969 233.825C141.969 233.56 142.033 233.373 142.162 233.263C142.29 233.15 142.447 233.093 142.632 233.093C142.825 233.093 142.988 233.15 143.12 233.263C143.252 233.373 143.318 233.56 143.318 233.825C143.318 234.085 143.252 234.276 143.12 234.397C142.988 234.514 142.825 234.573 142.632 234.573C142.447 234.573 142.29 234.514 142.162 234.397C142.033 234.276 141.969 234.085 141.969 233.825ZM141.969 228.797C141.969 228.525 142.033 228.334 142.162 228.224C142.29 228.111 142.447 228.054 142.632 228.054C142.825 228.054 142.988 228.111 143.12 228.224C143.252 228.334 143.318 228.525 143.318 228.797C143.318 229.054 143.252 229.241 143.12 229.358C142.988 229.475 142.825 229.534 142.632 229.534C142.447 229.534 142.29 229.475 142.162 229.358C142.033 229.241 141.969 229.054 141.969 228.797Z" fill="#02001A" fill-opacity="0.4"/>
<path d="M48.8964 255.218C50.5681 255.218 51.9379 255.744 53.006 256.797C54.0895 257.834 54.6312 259.157 54.6312 260.767C54.6312 262.392 54.0585 263.731 52.9131 264.783C51.7832 265.821 50.3359 266.339 48.5714 266.339C46.7294 266.339 45.2435 265.65 44.1136 264.273C42.9836 262.88 42.4187 261.061 42.4187 258.817C42.4187 255.922 43.1307 253.685 44.5547 252.107C45.9942 250.512 47.8207 249.715 50.0341 249.715C51.8296 249.715 53.3697 250.241 54.6544 251.294L53.3542 253.314C52.41 252.494 51.3111 252.083 50.0573 252.083C48.6178 252.083 47.426 252.579 46.4818 253.569C45.5376 254.56 45.0268 255.829 44.9494 257.377C45.3364 256.711 45.8781 256.185 46.5746 255.798C47.2866 255.411 48.0606 255.218 48.8964 255.218ZM46.2264 263.019C46.861 263.638 47.6581 263.948 48.6178 263.948C49.5775 263.948 50.3669 263.638 50.986 263.019C51.6052 262.4 51.9147 261.61 51.9147 260.651C51.9302 259.707 51.6206 258.933 50.986 258.329C50.3669 257.71 49.5775 257.4 48.6178 257.4C47.6581 257.4 46.861 257.71 46.2264 258.329C45.6072 258.933 45.2977 259.707 45.2977 260.651C45.2977 261.61 45.6072 262.4 46.2264 263.019ZM59.2047 266.153V253.035C58.2141 253.902 56.9604 254.49 55.4435 254.8V252.362C57.0687 252.006 58.4695 251.186 59.6459 249.901H61.7587V266.153H59.2047ZM63.7144 268.87L65.1539 263.344H68.3116L65.4093 268.87H63.7144ZM70.1046 266.153V263.901L76.0019 258.863C77.751 257.377 78.6255 256.007 78.6255 254.753C78.6255 253.949 78.3701 253.306 77.8593 252.826C77.364 252.331 76.6907 252.083 75.8394 252.083C74.8333 252.083 74.0671 252.432 73.5408 253.128C73.0145 253.809 72.8056 254.715 72.9139 255.845L70.2903 255.659C70.151 253.956 70.6076 252.54 71.6602 251.41C72.7282 250.28 74.1213 249.715 75.8394 249.715C77.5111 249.715 78.8499 250.179 79.8561 251.108C80.8776 252.021 81.3884 253.236 81.3884 254.753C81.3884 255.744 81.0866 256.719 80.4829 257.679C79.8793 258.623 78.9273 259.621 77.6271 260.674L73.9123 263.762H81.3652V266.153H70.1046ZM88.8783 266.339C87.284 266.339 85.9452 265.937 84.8617 265.132C83.7936 264.311 83.1513 263.212 82.9346 261.835L85.4189 261.394C85.5737 262.168 85.9529 262.787 86.5566 263.251C87.1602 263.715 87.9032 263.948 88.7855 263.948C89.7297 263.948 90.4881 263.654 91.0608 263.065C91.649 262.477 91.9431 261.703 91.9431 260.744C91.9431 259.753 91.6412 258.971 91.0376 258.399C90.4339 257.826 89.6213 257.54 88.5997 257.54C87.2067 257.54 86.1154 258.128 85.326 259.304L83.3525 258.886L84.6527 249.901H93.4987V252.269H86.6494L85.9993 256.564C86.8971 255.744 87.9574 255.334 89.1802 255.334C90.8364 255.334 92.1675 255.829 93.1736 256.82C94.1797 257.81 94.6828 259.118 94.6828 260.744C94.6828 262.431 94.1565 263.785 93.104 264.807C92.0514 265.828 90.6429 266.339 88.8783 266.339ZM102.65 266.339C100.622 266.339 99.0434 265.588 97.9135 264.087C96.7836 262.586 96.2186 260.566 96.2186 258.027C96.2186 255.489 96.7836 253.469 97.9135 251.967C99.0434 250.466 100.622 249.715 102.65 249.715C104.662 249.715 106.233 250.466 107.363 251.967C108.509 253.469 109.081 255.489 109.081 258.027C109.081 260.566 108.509 262.586 107.363 264.087C106.233 265.588 104.662 266.339 102.65 266.339ZM102.65 263.948C103.826 263.948 104.732 263.429 105.366 262.392C106.016 261.34 106.342 259.885 106.342 258.027C106.342 256.17 106.016 254.715 105.366 253.662C104.732 252.61 103.826 252.083 102.65 252.083C101.458 252.083 100.545 252.61 99.9102 253.662C99.2756 254.715 98.9583 256.17 98.9583 258.027C98.9583 259.885 99.2756 261.34 99.9102 262.392C100.545 263.429 101.458 263.948 102.65 263.948Z" fill="#0006B1"/>
<defs>
<clipPath id="clip0_19558_1619">
<rect width="19.3481" height="19.3481" fill="white" transform="translate(305.638 52.4951)"/>
</clipPath>
<clipPath id="clip1_19558_1619">
<rect width="19.3481" height="19.3481" fill="white" transform="translate(312.411 236.303)"/>
</clipPath>
</defs>
</svg>
